G04 DipTrace 3.2.0.1*
G04 Нижняямаркировка.gbr*
%MOIN*%
G04 #@! TF.FileFunction,Legend,Bot*
G04 #@! TF.Part,Single*
%ADD10C,0.009843*%
%ADD24C,0.015408*%
%ADD27C,0.016398*%
%ADD40C,0.015422*%
%ADD42C,0.015404*%
%ADD44C,0.011811*%
%ADD47O,0.011707X0.011811*%
%ADD50C,0.011819*%
%ADD51C,0.011811*%
%FSLAX26Y26*%
G04*
G70*
G90*
G75*
G01*
G04 BotSilk*
%LPD*%
X3090551Y679134D2*
D10*
G02X3090551Y679134I236220J0D01*
G01*
X1820866Y978346D2*
X1702756D1*
Y911417D1*
X1820866D1*
Y978346D1*
X1702756Y1098425D2*
X1820866D1*
Y1165354D1*
X1702756D1*
Y1098425D1*
Y1029528D2*
X1820866D1*
Y1096457D1*
X1702756D1*
Y1029528D1*
X1820866Y633858D2*
X1702756D1*
Y566929D1*
X1820866D1*
Y633858D1*
Y702756D2*
X1702756D1*
Y635827D1*
X1820866D1*
Y702756D1*
Y771654D2*
X1702756D1*
Y704724D1*
X1820866D1*
Y771654D1*
Y840551D2*
X1702756D1*
Y773622D1*
X1820866D1*
Y840551D1*
Y909449D2*
X1702756D1*
Y842520D1*
X1820866D1*
Y909449D1*
Y1234252D2*
X1702756D1*
Y1167323D1*
X1820866D1*
Y1234252D1*
X1128740Y1343259D2*
X1195669D1*
Y1225148D1*
X1128740D1*
Y1343259D1*
X473467Y1515454D2*
G02X473467Y1515454I157480J0D01*
G01*
X630948Y1672934D2*
Y1357974D1*
Y1554824D2*
X595514D1*
X630948Y1594194D2*
X497089D1*
X473467Y1515454D2*
X512837D1*
X528585Y1554824D2*
X481341D1*
X611262Y1515454D2*
X630948D1*
Y1476084D2*
X595514D1*
X630948Y1633564D2*
X528585D1*
X630948Y1436714D2*
X497089D1*
X528585Y1476084D2*
X481341D1*
X630948Y1397344D2*
X528585D1*
X473467Y1852951D2*
G02X473467Y1852951I157480J0D01*
G01*
X630948Y2010432D2*
Y1695471D1*
Y1892322D2*
X595514D1*
X630948Y1931692D2*
X497089D1*
X473467Y1852951D2*
X512837D1*
X528585Y1892322D2*
X481341D1*
X611262Y1852951D2*
X630948D1*
Y1813581D2*
X595514D1*
X630948Y1971062D2*
X528585D1*
X630948Y1774211D2*
X497089D1*
X528585Y1813581D2*
X481341D1*
X630948Y1734841D2*
X528585D1*
X473475Y902951D2*
G02X473475Y902951I157480J0D01*
G01*
X788436D1*
X591585D2*
Y867518D1*
X552215Y902951D2*
Y769093D1*
X630955Y745471D2*
Y784841D1*
X591585Y800589D2*
Y753345D1*
X630955Y883266D2*
Y902951D1*
X670325D2*
Y867518D1*
X512845Y902951D2*
Y800589D1*
X709696Y902951D2*
Y769093D1*
X670325Y800589D2*
Y753345D1*
X749066Y902951D2*
Y800589D1*
X958169Y537648D2*
X891240D1*
Y655759D1*
X958169D1*
Y537648D1*
X973474Y596703D2*
G02X973474Y596703I157480J0D01*
G01*
X1288434D1*
X1091584D2*
Y561270D1*
X1052214Y596703D2*
Y462845D1*
X1130954Y439223D2*
Y478593D1*
X1091584Y494341D2*
Y447097D1*
X1130954Y577018D2*
Y596703D1*
X1170324D2*
Y561270D1*
X1012844Y596703D2*
Y494341D1*
X1209694Y596703D2*
Y462845D1*
X1170324Y494341D2*
Y447097D1*
X1249064Y596703D2*
Y494341D1*
X1551181Y1377953D2*
X1618110D1*
Y1259843D1*
X1551181D1*
Y1377953D1*
X1618110Y1072835D2*
X1551181D1*
Y1190945D1*
X1618110D1*
Y1072835D1*
X3251969Y1771654D2*
X3185039D1*
Y1889764D1*
X3251969D1*
Y1771654D1*
X3389764D2*
X3322835D1*
Y1889764D1*
X3389764D1*
Y1771654D1*
X3527559D2*
X3460630D1*
Y1889764D1*
X3527559D1*
Y1771654D1*
X3665354D2*
X3598425D1*
Y1889764D1*
X3665354D1*
Y1771654D1*
X3803150D2*
X3736220D1*
Y1889764D1*
X3803150D1*
Y1771654D1*
X2250000Y2312992D2*
X2316929D1*
Y2194882D1*
X2250000D1*
Y2312992D1*
X2318898D2*
X2385827D1*
Y2194882D1*
X2318898D1*
Y2312992D1*
X2185039Y1283465D2*
X2066929D1*
Y1216535D1*
X2185039D1*
Y1283465D1*
X1992126Y1564961D2*
X1925197D1*
Y1683071D1*
X1992126D1*
Y1564961D1*
X2017717Y1844488D2*
X1899606D1*
Y1777559D1*
X2017717D1*
Y1844488D1*
X2122047Y2312992D2*
X2188976D1*
Y2194882D1*
X2122047D1*
Y2312992D1*
X2633858D2*
X2700787D1*
Y2194882D1*
X2633858D1*
Y2312992D1*
X2765748Y1460630D2*
X2647638D1*
Y1393701D1*
X2765748D1*
Y1460630D1*
X2401575Y1057087D2*
X2283465D1*
Y990157D1*
X2401575D1*
Y1057087D1*
X936486Y773027D2*
Y1032869D1*
X1212076Y773027D2*
X936486D1*
X1212076D2*
Y780892D1*
Y1032869D2*
X936486D1*
X1212076D2*
Y1025004D1*
D24*
X821540Y773960D3*
X2106268Y1466504D2*
D10*
X2618142D1*
Y1978378D1*
X2106268D1*
Y1466504D1*
G36*
D2*
Y1501976D1*
Y1466504D1*
G37*
G36*
D2*
Y1505925D1*
X2145689Y1466504D1*
X2106268D1*
G37*
D27*
X2058648Y1461049D3*
X913778Y1272890D2*
D10*
X1110632D1*
X913778Y1170514D2*
X1110632D1*
Y1272890D2*
Y1170514D1*
X913778Y1241397D2*
Y1272890D1*
Y1202008D2*
Y1170514D1*
Y1241397D2*
G02X913778Y1202008I-9J-19694D01*
G01*
X1968465Y629750D2*
Y708621D1*
X2057021Y629750D2*
X2076779D1*
X2755944Y708621D2*
Y629750D1*
X2667388Y708621D2*
X2647631D1*
X2921414Y763812D2*
X2945052D1*
Y747959D1*
X2921414D1*
Y763812D1*
X2830741Y747959D2*
X3035373D1*
Y590412D1*
X2830741D1*
Y747959D1*
X2814864Y763812D2*
X3051249D1*
Y574755D1*
X2814864D1*
Y763812D1*
X815269Y1839806D2*
X894035Y1918556D1*
X815269Y1583921D2*
G03X874344Y1524848I60363J1290D01*
G01*
X1130335D2*
X1209102Y1603598D1*
Y1859484D2*
X1150027Y1918556D1*
X815269Y1583921D2*
Y1839806D1*
X1209102Y1603598D2*
Y1859484D1*
X1087014Y1524848D2*
X1130335D1*
X937357D2*
X874344D1*
X894035Y1918556D2*
X937357D1*
X1150027D2*
X1087014D1*
X2992126Y545276D2*
X2874016D1*
Y478346D1*
X2992126D1*
Y545276D1*
X2759843Y944882D2*
X2692913D1*
Y1062992D1*
X2759843D1*
Y944882D1*
X1270669Y1225148D2*
X1203740D1*
Y1343259D1*
X1270669D1*
Y1225148D1*
Y1100147D2*
X1203740D1*
Y1218257D1*
X1270669D1*
Y1100147D1*
X891043Y1139025D2*
X808366D1*
Y1304379D1*
X891043D1*
Y1139025D1*
X3736220Y1525591D2*
X3803150D1*
Y1407480D1*
X3736220D1*
Y1525591D1*
X3805118D2*
X3872047D1*
Y1407480D1*
X3805118D1*
Y1525591D1*
X3667323D2*
X3734252D1*
Y1407480D1*
X3667323D1*
Y1525591D1*
X3616142Y944882D2*
X3549213D1*
Y1062992D1*
X3616142D1*
Y944882D1*
X3253937Y1889764D2*
X3320866D1*
Y1771654D1*
X3253937D1*
Y1889764D1*
X3391732D2*
X3458661D1*
Y1771654D1*
X3391732D1*
Y1889764D1*
X3529528D2*
X3596457D1*
Y1771654D1*
X3529528D1*
Y1889764D1*
X3667323D2*
X3734252D1*
Y1771654D1*
X3667323D1*
Y1889764D1*
X3805118D2*
X3872047D1*
Y1771654D1*
X3805118D1*
Y1889764D1*
X2454724Y2194882D2*
X2387795D1*
Y2312992D1*
X2454724D1*
Y2194882D1*
X2523622D2*
X2456693D1*
Y2312992D1*
X2523622D1*
Y2194882D1*
X1368110Y1726378D2*
X1250000D1*
Y1659449D1*
X1368110D1*
Y1726378D1*
X1502510Y977510D2*
X1384400D1*
Y910581D1*
X1502510D1*
Y977510D1*
X3242126Y944882D2*
X3175197D1*
Y1062992D1*
X3242126D1*
Y944882D1*
X925592Y1383362D2*
X1098818D1*
X925592Y1497538D2*
X1098818D1*
X978736Y1383362D2*
Y1497538D1*
X3793307Y1706698D2*
X3746044D1*
X3793307Y1639758D2*
X3746044D1*
X3793307Y1704721D2*
Y1639765D1*
Y1608273D2*
X3746044D1*
X3793307Y1541333D2*
X3746044D1*
X3793307Y1606296D2*
Y1541340D1*
D40*
X1369040Y1652896D3*
X1318898Y1643695D2*
D10*
Y1525591D1*
X1299212D1*
Y1643695D1*
X1318898D1*
D40*
X2784504Y935686D3*
X2834646Y944887D2*
D10*
Y1062992D1*
X2854331D1*
Y944887D1*
X2834646D1*
D42*
X1375204Y891529D3*
X1384404Y841387D2*
D10*
X1502509D1*
Y821702D1*
X1384404D1*
Y841387D1*
D42*
X3258521Y1063921D3*
X3267722Y1013780D2*
D10*
X3385827D1*
Y994094D1*
X3267722D1*
Y1013780D1*
D40*
X3640803Y935686D3*
X3690945Y944887D2*
D10*
Y1062992D1*
X3710630D1*
Y944887D1*
X3690945D1*
D44*
X3978339Y1712636D3*
X4047258Y1803175D2*
D10*
Y1751962D1*
X4267717Y1503950D2*
Y1803175D1*
X4047258D2*
X4088568D1*
X4267717D2*
X4210638D1*
X4047258Y1503912D2*
Y1555124D1*
Y1503912D2*
X4088568D1*
X4267717D2*
X4210638D1*
D47*
X3060995Y1990150D3*
X2970405Y2059069D2*
D10*
X3021693D1*
X3820934Y2279528D2*
X2970405D1*
Y2059069D2*
Y2100379D1*
Y2279528D2*
Y2222449D1*
X3820934Y2059069D2*
X3769646D1*
X3820934D2*
Y2100379D1*
Y2279528D2*
Y2222449D1*
D50*
X994119Y1990150D3*
X903487Y2059069D2*
D10*
X954743D1*
X2068954Y2279528D2*
X903487D1*
Y2059069D2*
Y2100379D1*
Y2279528D2*
Y2222449D1*
X2068954Y2059069D2*
X2017698D1*
X2068954D2*
Y2100379D1*
Y2279528D2*
Y2222449D1*
X3248041Y1521663D2*
Y1501969D1*
X3287389Y1521663D2*
Y1501969D1*
X3503950Y1521663D2*
Y1501969D1*
X3543298Y1521663D2*
Y1501969D1*
X3151575Y1728346D2*
X3639764D1*
Y1501969D1*
X3151575D1*
Y1728346D1*
X3171249Y1708652D2*
X3620090D1*
Y1521663D1*
X3171249D1*
Y1708652D1*
X680155Y1313276D2*
Y1332971D1*
X640795Y1313276D2*
Y1332971D1*
X621100Y1313276D2*
Y1332971D1*
X581740Y1313276D2*
Y1332971D1*
X776617Y1106593D2*
X485278D1*
Y1332971D1*
X776617D1*
Y1106593D1*
X756922Y1126288D2*
X504973D1*
Y1313276D1*
X756922D1*
Y1126288D1*
X1516280Y547496D2*
X1535975D1*
X1516280Y586856D2*
X1535975D1*
X1516280Y606551D2*
X1535975D1*
X1516280Y645910D2*
X1535975D1*
X1309597Y451034D2*
X1535975D1*
Y742373D1*
X1309597D1*
Y451034D1*
X1329292Y470729D2*
X1516280D1*
Y722678D1*
X1329292D1*
Y470729D1*
D51*
X3978339Y1240183D3*
X4047258Y1330724D2*
D10*
Y1279537D1*
X4267717Y874000D2*
Y1330724D1*
X4047258D2*
X4088568D1*
X4267717D2*
X4210638D1*
X4047258Y874000D2*
Y925187D1*
Y874000D2*
X4088568D1*
X4267717D2*
X4210638D1*
X1529882Y1360137D2*
Y1080808D1*
X1344134Y1360137D2*
Y1080808D1*
X1399505Y1232965D2*
X1474510D1*
Y1207980D1*
X1399505D1*
Y1232965D1*
Y1251704D2*
X1474510D1*
X1399505Y1189241D2*
X1474510D1*
X1437008D2*
Y1176704D1*
Y1251704D2*
Y1264241D1*
X1344134Y1360137D2*
G02X1529882Y1360137I92874J-8216D01*
G01*
Y1080808D2*
G02X1344134Y1080808I-92874J8216D01*
G01*
M02*
