%TF.GenerationSoftware,Novarm,DipTrace,3.2.0.1*%
%TF.CreationDate,2018-04-30T21:35:29+02:00*%
%FSLAX26Y26*%
%MOIN*%
%TF.FileFunction,Soldermask,Bot*%
%TF.Part,Single*%
%ADD54C,0.125984*%
%ADD59R,0.031496X0.059055*%
%ADD61R,0.07874X0.094488*%
%ADD62R,0.062992X0.07874*%
%ADD63R,0.059055X0.031496*%
%ADD65R,0.094488X0.07874*%
%ADD67R,0.033465X0.049213*%
%ADD69R,0.049213X0.033465*%
%ADD72R,0.062992X0.090551*%
%ADD76R,0.074803X0.043307*%
%ADD78R,0.133858X0.070866*%
%ADD80C,0.070866*%
%ADD82R,0.023622X0.057087*%
%ADD84R,0.07874X0.086614*%
%ADD86R,0.031496X0.086614*%
%ADD88R,0.019685X0.070866*%
%ADD90R,0.070866X0.019685*%
%ADD92R,0.25X0.226378*%
%ADD94R,0.116142X0.047244*%
%ADD96C,0.086614*%
%ADD97R,0.059055X0.035433*%
%ADD99R,0.035433X0.059055*%
%ADD101C,0.086614*%
%ADD103R,0.086614X0.086614*%
G75*
G01*
%LPD*%
D103*
X3326772Y551181D3*
D101*
Y807087D3*
D99*
X1799213Y944882D3*
X1724409D3*
Y1131890D3*
X1799213D3*
X1724409Y1062992D3*
X1799213D3*
Y600394D3*
X1724409D3*
X1799213Y669291D3*
X1724409D3*
X1799213Y738189D3*
X1724409D3*
X1799213Y807087D3*
X1724409D3*
X1799213Y875984D3*
X1724409D3*
X1799213Y1200787D3*
X1724409D3*
D97*
X1162205Y1321605D3*
Y1246802D3*
D103*
X699845Y1515454D3*
D96*
X562050D3*
D103*
X699845Y1852951D3*
D96*
X562050D3*
D103*
X630955Y971849D3*
D96*
Y834054D3*
D97*
X924705Y559302D3*
Y634105D3*
D103*
X1130954Y665601D3*
D96*
Y527806D3*
D97*
X1584646Y1415354D3*
Y1340551D3*
Y1025591D3*
Y1100394D3*
X3287402Y1793307D3*
Y1868110D3*
X3425197Y1793307D3*
Y1868110D3*
X3562992Y1793307D3*
Y1868110D3*
X3700787Y1793307D3*
Y1868110D3*
X3838583Y1793307D3*
Y1868110D3*
X2283465Y2291339D3*
Y2216535D3*
X2352362Y2291339D3*
Y2216535D3*
D99*
X2173228Y1299213D3*
X2098425D3*
D97*
X1958661Y1586614D3*
Y1661417D3*
D99*
X1996063Y1811024D3*
X1921260D3*
D97*
X2155512Y2291339D3*
Y2216535D3*
X2667323Y2291339D3*
Y2216535D3*
Y1291339D3*
Y1366142D3*
D99*
X2379921Y1023622D3*
X2305118D3*
D94*
X865600Y813189D3*
Y992717D3*
D92*
X1129379Y902953D3*
D90*
X2059055Y1486220D3*
Y1505906D3*
Y1525591D3*
Y1545276D3*
Y1564961D3*
Y1584646D3*
Y1604331D3*
Y1624016D3*
Y1643701D3*
Y1663386D3*
Y1683071D3*
Y1702756D3*
Y1722441D3*
Y1742126D3*
Y1761811D3*
Y1781496D3*
Y1801181D3*
Y1820866D3*
Y1840551D3*
Y1860236D3*
Y1879921D3*
Y1899606D3*
Y1919291D3*
Y1938976D3*
Y1958661D3*
D88*
X2125984Y2025591D3*
X2145669D3*
X2165354D3*
X2185039D3*
X2204724D3*
X2224409D3*
X2244094D3*
X2263780D3*
X2283465D3*
X2303150D3*
X2322835D3*
X2342520D3*
X2362205D3*
X2381890D3*
X2401575D3*
X2421260D3*
X2440945D3*
X2460630D3*
X2480315D3*
X2500000D3*
X2519685D3*
X2539370D3*
X2559055D3*
X2578740D3*
X2598425D3*
D90*
X2665354Y1958661D3*
Y1938976D3*
Y1919291D3*
Y1899606D3*
Y1879921D3*
Y1860236D3*
Y1840551D3*
Y1820866D3*
Y1801181D3*
Y1781496D3*
Y1761811D3*
Y1742126D3*
Y1722441D3*
Y1702756D3*
Y1683071D3*
Y1663386D3*
Y1643701D3*
Y1624016D3*
Y1604331D3*
Y1584646D3*
Y1564961D3*
Y1545276D3*
Y1525591D3*
Y1505906D3*
Y1486220D3*
D88*
X2598425Y1419291D3*
X2578740D3*
X2559055D3*
X2539370D3*
X2519685D3*
X2500000D3*
X2480315D3*
X2460630D3*
X2440945D3*
X2421260D3*
X2401575D3*
X2381890D3*
X2362205D3*
X2342520D3*
X2322835D3*
X2303150D3*
X2283465D3*
X2263780D3*
X2244094D3*
X2224409D3*
X2204724D3*
X2185039D3*
X2165354D3*
X2145669D3*
X2125984D3*
D86*
X937205Y1328001D3*
X987205D3*
X1037205D3*
X1087205D3*
Y1115403D3*
X1037205D3*
X987205D3*
X937205D3*
D84*
X2013780Y669291D3*
D82*
X2096457Y625000D3*
X2116142Y713583D3*
X2135827Y625000D3*
X2155512Y713583D3*
X2175197Y625000D3*
X2194882Y713583D3*
X2214567Y625000D3*
X2234252Y713583D3*
X2253937Y625000D3*
X2273622Y713583D3*
X2293307Y625000D3*
X2312992Y713583D3*
X2332677Y625000D3*
X2352362Y713583D3*
X2372047Y625000D3*
X2391732Y713583D3*
X2411417Y625000D3*
X2431102Y713583D3*
X2450787Y625000D3*
X2470472Y713583D3*
X2490157Y625000D3*
X2509843Y713583D3*
X2529528Y625000D3*
X2549213Y713583D3*
X2568898Y625000D3*
X2588583Y713583D3*
X2608268Y625000D3*
X2627953Y713583D3*
X2647638Y625000D3*
X2076772Y713583D3*
D84*
X2710630Y669291D3*
D80*
X2893701Y692913D3*
X2972441D3*
D54*
X728346Y2165354D3*
X3996063D3*
Y590551D3*
X728346D3*
D78*
X1012271Y1546505D3*
Y1896899D3*
D99*
X2970472Y511811D3*
X2895669D3*
D97*
X2726378Y966535D3*
Y1041339D3*
X1237205Y1246802D3*
Y1321605D3*
Y1121801D3*
Y1196604D3*
D76*
X849705Y1164615D3*
Y1278789D3*
D97*
X3769685Y1503937D3*
Y1429134D3*
X3838583Y1503937D3*
Y1429134D3*
X3700787Y1503937D3*
Y1429134D3*
X3710630Y966535D3*
Y1041339D3*
X3218504Y1868110D3*
Y1793307D3*
X3356299Y1868110D3*
Y1793307D3*
X3494094Y1868110D3*
Y1793307D3*
X3631890Y1868110D3*
Y1793307D3*
X3769685Y1868110D3*
Y1793307D3*
X2421260Y2216535D3*
Y2291339D3*
X2490157Y2216535D3*
Y2291339D3*
D99*
X1346457Y1692913D3*
X1271654D3*
X1480857Y944046D3*
X1406054D3*
D97*
X3208661Y966535D3*
Y1041339D3*
D72*
X935436Y1440451D3*
X1088974D3*
D62*
X3836614Y1673228D3*
X3702756D3*
X3836614Y1574803D3*
X3702756D3*
D69*
X1354331Y1622047D3*
Y1547244D3*
X1263780Y1584646D3*
X2799213Y966535D3*
Y1041339D3*
X2889764Y1003937D3*
D67*
X1406052Y876820D3*
X1480856D3*
X1443454Y786269D3*
X3289370Y1049213D3*
X3364173D3*
X3326772Y958661D3*
D69*
X3783465Y966535D3*
Y1041339D3*
X3874016Y1003937D3*
D65*
X4149606Y1807087D3*
D63*
X4021654Y1712598D3*
Y1673228D3*
Y1633858D3*
Y1594488D3*
D65*
X4149606Y1500000D3*
D61*
X2966535Y2161417D3*
D59*
X3061024Y2033465D3*
X3100394D3*
X3139764D3*
X3179134D3*
X3218504D3*
X3257874D3*
X3297244D3*
X3336614D3*
X3375984D3*
X3415354D3*
X3454724D3*
X3494094D3*
X3533465D3*
X3572835D3*
X3612205D3*
X3651575D3*
X3690945D3*
X3730315D3*
D61*
X3824803Y2161417D3*
X899606D3*
D59*
X994094Y2033465D3*
X1033465D3*
X1072835D3*
X1112205D3*
X1151575D3*
X1190945D3*
X1230315D3*
X1269685D3*
X1309055D3*
X1348425D3*
X1387795D3*
X1427165D3*
X1466535D3*
X1505906D3*
X1545276D3*
X1584646D3*
X1624016D3*
X1663386D3*
X1702756D3*
X1742126D3*
X1781496D3*
X1820866D3*
X1860236D3*
X1899606D3*
X1938976D3*
X1978346D3*
D61*
X2072835Y2161417D3*
D96*
X3248031Y1594488D3*
X3346457D3*
X3444882D3*
X3543307D3*
X680160Y1240451D3*
X581735D3*
X1443455Y547491D3*
Y645916D3*
D65*
X4149606Y1334646D3*
D63*
X4021654Y1240157D3*
Y1200787D3*
Y1161417D3*
Y1122047D3*
Y1082677D3*
Y1043307D3*
Y1003937D3*
Y964567D3*
D65*
X4149606Y870079D3*
D101*
X1437008Y1315472D3*
Y1125472D3*
M02*
