M48
INCH
T01C0.0157
T02C0.0315
T03C0.0354
T04C0.126
%
T03
X+033268Y+005512
X+033268Y+008071
T02
X+006998Y+015155
X+005620Y+015155
X+006998Y+018530
X+005620Y+018530
X+006310Y+009718
X+006310Y+008341
X+011310Y+006656
X+011310Y+005278
X+028937Y+006929
X+029724Y+006929
T04
X+007283Y+021654
X+039961Y+021654
X+039961Y+005906
X+007283Y+005906
T01
X+027657Y+017224
X+028150Y+017224
X+028642Y+017224
X+030217Y+012106
X+030217Y+011614
X+024606Y+016043
X+025000Y+016339
X+025394Y+016043
X+025787Y+016339
X+018602Y+020965
X+032579Y+019783
X+032972Y+019488
X+033366Y+019783
X+033760Y+019488
X+034154Y+019783
X+034547Y+019488
X+034941Y+019783
X+035335Y+019488
X+035728Y+019783
X+022638Y+018110
X+022638Y+018602
X+022638Y+019094
X+022638Y+019587
X+019193Y+020965
X+024114Y+021358
X+023622Y+021358
X+024606Y+021358
X+025098Y+021358
X+010728Y+020965
X+011122Y+021457
X+011516Y+021949
X+032185Y+021358
X+031398Y+021358
X+012372Y+013655
X+028642Y+016732
X+028642Y+016240
X+028642Y+015748
X+028642Y+015256
X+023622Y+016634
X+032087Y+011024
X+022244Y+015846
X+023228Y+012500
X+023228Y+012008
X+037106Y+009252
X+013091Y+017618
X+017815Y+017618
X+037697Y+013878
X+038386Y+013878
X+027264Y+009252
X+028839Y+022047
X+016437Y+022343
X+025464Y+022913
X+015846Y+020965
X+010122Y+016467
X+016437Y+020965
X+010622Y+016467
X+017028Y+020965
X+018799Y+018110
X+021260Y+019587
X+022736Y+011220
X+027264Y+014469
X+021949Y+019587
X+018307Y+015846
X+026280Y+021358
X+038976Y+018307
X+040945Y+012402
X+036417Y+014665
X+027461Y+022047
X+026673Y+014469
X+022244Y+010827
X+015846Y+012992
X+015846Y+011417
X+015256Y+020965
X+019783Y+020965
X+009622Y+016467
X+009122Y+016467
X+011122Y+016467
X+027461Y+021358
X+016634Y+013780
X+017028Y+013780
X+017421Y+013780
X+021752Y+011220
X+021752Y+011614
X+022736Y+011614
X+021260Y+010827
X+030807Y+021358
X+016339Y+006693
X+016339Y+007382
X+016339Y+006004
X+028642Y+012795
X+032480Y+012795
X+039961Y+007283
X+041339Y+005906
X+039961Y+004528
X+038583Y+005906
X+038976Y+006890
X+040945Y+006890
X+040945Y+004921
X+038976Y+004921
X+039961Y+023031
X+041339Y+021654
X+039961Y+020276
X+038976Y+022638
X+040945Y+022638
X+040945Y+020669
X+038976Y+020669
X+007283Y+023031
X+005906Y+021654
X+006299Y+022638
X+008268Y+022638
X+008268Y+020669
X+006299Y+020669
X+007283Y+007283
X+008661Y+005906
X+007283Y+004528
X+005906Y+005906
X+006299Y+006890
X+008268Y+006890
X+008268Y+004921
X+006299Y+004921
T03
X+032480Y+015945
X+033465Y+015945
X+034449Y+015945
X+035433Y+015945
X+006802Y+012405
X+005817Y+012405
X+014435Y+005475
X+014435Y+006459
T02
X+014370Y+013155
X+014370Y+011255
T01
X+017421Y+017224
X+023622Y+017421
X+023228Y+017028
X+017028Y+016831
X+016634Y+017224
X+022835Y+016634
X+030807Y+013287
X+025394Y+012992
X+031398Y+013287
X+023228Y+012992
X+014764Y+014862
X+021457Y+015354
X+015256Y+014862
X+021457Y+014862
X+013484Y+009449
X+017421Y+015846
X+016634Y+015846
X+022638Y+021358
X+017815Y+020965
X+023130Y+021358
X+017815Y+021555
X+023031Y+014862
X+036516Y+020866
X+023031Y+015354
X+036516Y+021358
X+011909Y+018110
X+017815Y+018110
X+012303Y+018602
X+017815Y+018602
X+012697Y+019094
X+017815Y+019094
X+017815Y+019587
X+013091Y+019587
X+014272Y+020965
X+013484Y+020965
T00
M30
