%TF.GenerationSoftware,Novarm,DipTrace,3.2.0.1*%
%TF.CreationDate,2018-04-30T21:35:27+02:00*%
%FSLAX26Y26*%
%MOIN*%
%TF.FileFunction,Legend,Top*%
%TF.Part,Single*%
%ADD10C,0.009843*%
%ADD36C,0.019667*%
G75*
G01*
%LPD*%
X571899Y1461417D2*
D10*
X690009D1*
Y1394488D1*
X571899D1*
Y1461417D1*
Y1798917D2*
X690009D1*
Y1731988D1*
X571899D1*
Y1798917D1*
X684990Y843896D2*
X751919D1*
Y962007D1*
X684990D1*
Y843896D1*
X4153543Y1413386D2*
X4035433D1*
Y1480315D1*
X4153543D1*
Y1413386D1*
X637563Y399332D2*
X4086846D1*
X598046Y2317233D2*
Y2013861D1*
X4126364Y742045D2*
Y438673D1*
X598046Y742045D2*
Y438673D1*
X873608Y1974520D2*
Y781386D1*
X3850802Y1974520D2*
Y781386D1*
X598046Y742045D2*
G02X637563Y781386I40923J-1590D01*
G01*
Y1974520D2*
X873608D1*
X3850802D2*
X4086846D1*
X598046Y2317233D2*
G02X637563Y2356573I40561J-1226D01*
G01*
X4086846D1*
X4126364Y2317233D2*
Y2013861D1*
X3850802Y781386D2*
X4086846D1*
X637563D2*
X873608D1*
X637563Y1974520D2*
G02X598046Y2013861I1406J40930D01*
G01*
X637563Y399332D2*
G02X598046Y438673I1044J40566D01*
G01*
X4126364Y2013861D2*
G02X4086846Y1974520I-40923J1590D01*
G01*
Y2356573D2*
G02X4126364Y2317233I-1044J-40566D01*
G01*
Y438673D2*
G02X4086846Y399332I-40561J1226D01*
G01*
Y781386D2*
G02X4126364Y742045I-1406J-40930D01*
G01*
X1106124Y2171418D2*
X3618286D1*
Y915261D1*
X1106124D1*
Y2171418D1*
X4035433Y1411417D2*
X4153543D1*
Y1344488D1*
X4035433D1*
Y1411417D1*
Y1342520D2*
X4153543D1*
Y1275591D1*
X4035433D1*
Y1342520D1*
X4214560Y1500000D2*
X3974416D1*
Y1629921D1*
X4214560D1*
Y1500000D1*
X4144488Y1539951D2*
X4044489D1*
Y1589970D1*
X4144488D1*
Y1539951D1*
D36*
X4269690Y1519690D3*
X4204718Y1125984D2*
D10*
X3964574D1*
Y1255906D1*
X4204718D1*
Y1125984D1*
X4134645Y1165935D2*
X4034646D1*
Y1215955D1*
X4134645D1*
Y1165935D1*
D36*
X4259847Y1145674D3*
M02*
