G04 DipTrace 3.2.0.1*
G04 Верхняямаркировка.gbr*
%MOIN*%
G04 #@! TF.FileFunction,Legend,Top*
G04 #@! TF.Part,Single*
%ADD10C,0.009843*%
%ADD36C,0.019667*%
%FSLAX26Y26*%
G04*
G70*
G90*
G75*
G01*
G04 TopSilk*
%LPD*%
X571899Y1461417D2*
D10*
X690009D1*
Y1394488D1*
X571899D1*
Y1461417D1*
Y1798917D2*
X690009D1*
Y1731988D1*
X571899D1*
Y1798917D1*
X684990Y843896D2*
X751919D1*
Y962007D1*
X684990D1*
Y843896D1*
X4153543Y1413386D2*
X4035433D1*
Y1480315D1*
X4153543D1*
Y1413386D1*
X637653Y399398D2*
X4086757D1*
X598138Y2317170D2*
Y2013818D1*
X4126272Y742088D2*
Y438736D1*
X598138Y742088D2*
Y438736D1*
X873685Y1974480D2*
Y781426D1*
X3850724Y1974480D2*
Y781426D1*
X598138Y742088D2*
G02X637653Y781426I40921J-1590D01*
G01*
Y1974480D2*
X873685D1*
X3850724D2*
X4086757D1*
X598138Y2317170D2*
G02X637653Y2356508I40559J-1226D01*
G01*
X4086757D1*
X4126272Y2317170D2*
Y2013818D1*
X3850724Y781426D2*
X4086757D1*
X637653D2*
X873685D1*
X637653Y1974480D2*
G02X598138Y2013818I1406J40928D01*
G01*
X637653Y399398D2*
G02X598138Y438736I1044J40564D01*
G01*
X4126272Y2013818D2*
G02X4086757Y1974480I-40921J1590D01*
G01*
Y2356508D2*
G02X4126272Y2317170I-1044J-40564D01*
G01*
Y438736D2*
G02X4086757Y399398I-40559J1226D01*
G01*
Y781426D2*
G02X4126272Y742088I-1406J-40928D01*
G01*
X1106189Y2171365D2*
X3618220D1*
Y915292D1*
X1106189D1*
Y2171365D1*
X4035433Y1411417D2*
X4153543D1*
Y1344488D1*
X4035433D1*
Y1411417D1*
Y1342520D2*
X4153543D1*
Y1275591D1*
X4035433D1*
Y1342520D1*
X4214560Y1500000D2*
X3974416D1*
Y1629921D1*
X4214560D1*
Y1500000D1*
X4144488Y1539951D2*
X4044489D1*
Y1589970D1*
X4144488D1*
Y1539951D1*
D36*
X4269690Y1519690D3*
X4204718Y1125984D2*
D10*
X3964574D1*
Y1255906D1*
X4204718D1*
Y1125984D1*
X4134645Y1165935D2*
X4034646D1*
Y1215955D1*
X4134645D1*
Y1165935D1*
D36*
X4259847Y1145674D3*
M02*
