%TF.GenerationSoftware,Novarm,DipTrace,3.2.0.1*%
%TF.CreationDate,2018-04-30T21:35:28+02:00*%
%FSLAX26Y26*%
%MOIN*%
%TF.FileFunction,Copper,L1,Top*%
%TF.Part,Single*%
%TA.AperFunction,Conductor*%
%ADD13C,0.011811*%
%ADD14C,0.029528*%
%ADD15C,0.019685*%
%TA.AperFunction,ComponentPad*%
%ADD19R,0.07874X0.07874*%
%ADD20C,0.07874*%
%ADD21R,0.027559X0.051181*%
%ADD22R,0.051181X0.027559*%
%TA.AperFunction,ComponentPad*%
%ADD23C,0.07874*%
%ADD33C,0.062992*%
%ADD37R,0.059055X0.055118*%
%TA.AperFunction,ViaPad*%
%ADD52C,0.03937*%
%TA.AperFunction,CopperBalancing*%
%ADD106C,0.011811*%
G75*
G01*
%LPD*%
X1742126Y1722441D2*
D13*
X2283465D1*
X2303150Y1742126D1*
X2362205D1*
X2322835Y1702756D2*
X1781496D1*
X1761811Y1683071D1*
X1702756D1*
X1663386Y1722441D2*
Y1653543D1*
X1673228Y1643701D1*
X1761811D1*
X1781496Y1663386D1*
X2283465D1*
X3710630Y925197D2*
X2726378D1*
X2421260D1*
X2411417Y935039D1*
Y1190945D1*
X2401575Y1200787D1*
X2322835D1*
X2726378Y925197D2*
D3*
X4057087Y1309055D2*
X3927165D1*
X3911417Y1293307D1*
Y1190945D1*
X2322835Y1250000D2*
X2421260D1*
X2431102Y1240157D1*
Y1072835D1*
X2440945Y1062992D1*
X3897638D1*
X3911417Y1076772D1*
Y1190945D1*
X2814961Y1722441D2*
X2795276Y1702756D1*
Y1220472D1*
X2805118Y1210630D1*
X3021654D1*
Y1161417D2*
X2775591D1*
X2765748Y1171260D1*
Y1722441D1*
X2864173D2*
X2824803Y1683071D1*
Y1377953D1*
X2834646Y1368110D1*
X3198819D1*
X3208661Y1358268D1*
Y1102362D1*
X3080709Y1328740D2*
Y1131890D1*
X3070866Y1122047D1*
X2549213D1*
X2539370Y1131890D1*
Y1299213D1*
X2460630Y1604331D2*
Y1938976D1*
X2470472Y1948819D1*
X3228346D1*
X3257874Y1978346D1*
X3336614D2*
Y1919291D1*
X3326772Y1909449D1*
X2549213D1*
X2539370Y1899606D1*
Y1604331D1*
X3139764Y1328740D2*
Y1102362D1*
X3129921Y1092520D1*
X2460630D1*
X2450787Y1102362D1*
Y1289370D1*
X2440945Y1299213D1*
X2322835D1*
X3139764Y2135827D2*
X3218504D1*
X3297244Y1948819D2*
X3277559Y1929134D1*
X2509843D1*
X2500000Y1919291D1*
Y1633858D1*
X3375984Y1948819D2*
Y1899606D1*
X3366142Y1889764D1*
X2588583D1*
X2578740Y1879921D1*
Y1633858D1*
X2509843Y2135827D2*
Y2165354D1*
X2500000Y2175197D1*
X2480315D1*
X2460630Y2194882D1*
X2440945D1*
X2421260Y2214567D1*
X2352362D1*
X2332677Y2234252D1*
X1732283D1*
X1692913Y2194882D1*
X1151575D1*
X1476378Y1486220D2*
Y1515748D1*
X1486220Y1525591D1*
X1624016D1*
X1633858Y1515748D1*
X1742126D1*
X1761811Y1535433D1*
X2145669D1*
X1525591Y1486220D2*
X2145669D1*
X2362205Y1663386D2*
Y1633858D1*
X2352362Y1624016D1*
X1358268D1*
X1348425Y1614173D1*
Y944882D1*
X2224409Y1584646D2*
Y1437008D1*
X2234252Y1427165D1*
X2470472D1*
X2480315Y1437008D1*
Y1515748D1*
X2490157Y1525591D1*
X2647638D1*
X2657480Y1535433D1*
Y1820866D1*
X2667323Y1830709D1*
X3681102D1*
X3690945Y1820866D1*
Y1771654D1*
X3700787Y1761811D1*
X3907480D1*
X3921260Y1748031D1*
Y1564961D1*
X4057087Y1377953D2*
Y1446850D1*
X3921260Y1564961D2*
Y1462598D1*
X3937008Y1446850D1*
X4057087D1*
X1742126Y1584646D2*
Y1555118D1*
X1732283Y1545276D1*
X1643701D1*
X1633858Y1555118D1*
X1446850D1*
X1437008Y1545276D1*
Y1315472D1*
X1509331D1*
X1525591Y1299213D1*
X1584646D1*
X1663386Y1584646D2*
X1387795D1*
X1377953Y1574803D1*
Y1137205D1*
X1389685Y1125472D1*
X1437008D1*
X1509331D1*
X1525591Y1141732D1*
X1584646D1*
X1781496Y1761811D2*
X1309055D1*
X2263780Y2135827D2*
X1830709D1*
X1820866Y2125984D1*
Y2106299D1*
X1811024Y2096457D1*
X1781496D1*
X3415354Y1978346D2*
Y2007874D1*
X3405512Y2017717D1*
X2352362D1*
X2342520Y2007874D1*
Y1929134D1*
X2322835Y1909449D1*
Y1889764D1*
X2303150Y1870079D1*
Y1850394D1*
X2263780Y1811024D1*
Y1860236D2*
X2303150Y1899606D1*
Y1919291D1*
X2322835Y1938976D1*
Y2027559D1*
X2332677Y2037402D1*
X3444882D1*
X3454724Y2027559D1*
Y1948819D1*
X3494094Y1978346D2*
Y2047244D1*
X3484252Y2057087D1*
X2312992D1*
X2303150Y2047244D1*
Y1948819D1*
X2263780Y1909449D1*
Y1958661D2*
Y2066929D1*
X2273622Y2076772D1*
X3523622D1*
X3533465Y2066929D1*
Y1948819D1*
X2312992Y2135827D2*
Y2165354D1*
X2303150Y2175197D1*
X1801181D1*
X1781496Y2155512D1*
X3572835Y1978346D2*
Y2086614D1*
X3562992Y2096457D1*
X2372047D1*
X2362205Y2106299D1*
Y2135827D1*
X3346457Y1594488D2*
Y1653543D1*
X2923228D1*
X2893701Y1624016D1*
X2864173D1*
X2303150Y1486220D2*
X2411417D1*
X2421260Y1496063D1*
Y1791339D1*
X2411417Y1801181D1*
X2303150D1*
X2273622Y1771654D1*
X1850394D1*
X1840551Y1781496D1*
Y2017717D1*
X1850394Y2027559D1*
X1909449D1*
X1919291Y2037402D1*
Y2096457D1*
X3651575Y2086614D2*
Y1879921D1*
X3641732Y1870079D1*
X2627953D1*
X2618110Y1860236D1*
Y1574803D1*
X2608268Y1564961D1*
X2450787D1*
X2440945Y1555118D1*
Y1476378D1*
X2431102Y1466535D1*
X2322835D1*
X2303150Y1486220D1*
X1860236Y2096457D2*
Y2066929D1*
X1850394Y2057087D1*
X1830709D1*
X1820866Y2047244D1*
Y1761811D1*
X1830709Y1751969D1*
X2283465D1*
X2312992Y1781496D1*
X2391732D1*
X2401575Y1771654D1*
Y1545276D1*
X2391732Y1535433D1*
X2303150D1*
X3651575Y2135827D2*
X3681102D1*
X3690945Y2125984D1*
Y1860236D1*
X3681102Y1850394D1*
X2647638D1*
X2637795Y1840551D1*
Y1555118D1*
X2627953Y1545276D1*
X2470472D1*
X2460630Y1535433D1*
Y1456693D1*
X2450787Y1446850D1*
X2273622D1*
X2263780Y1456693D1*
Y1525591D1*
X2273622Y1535433D1*
X2303150D1*
X2411417Y2135827D2*
Y2165354D1*
X2401575Y2175197D1*
X2332677D1*
X2312992Y2194882D1*
X1771654D1*
X1712598Y2135827D1*
X1210630D1*
X1171260Y2096457D1*
X1072835D1*
X1112205Y2145669D2*
X1171260D1*
X1190945Y2165354D1*
X1702756D1*
X1751969Y2214567D1*
X2322835D1*
X2342520Y2194882D1*
X2411417D1*
X2431102Y2175197D1*
X2450787D1*
X2460630Y2165354D1*
Y2135827D1*
X2864173Y1673228D2*
X3444882D1*
Y1594488D1*
X1190945Y1811024D2*
X1781496D1*
X1230315Y1860236D2*
X1781496D1*
X1269685Y1909449D2*
X1781496D1*
Y1958661D2*
X1309055D1*
X1427165Y2096457D2*
X1348425D1*
X3838583Y1387795D2*
Y1358268D1*
X3828740Y1348425D1*
X3257874D1*
X3218504Y1387795D1*
X2874016D1*
X2864173Y1397638D1*
Y1525591D1*
X3769685Y1387795D2*
X3257874D1*
X3238189Y1407480D1*
X2913386D1*
X2903543Y1417323D1*
Y1564961D1*
X2893701Y1574803D1*
X2864173D1*
X699845Y1852951D2*
D15*
Y1778093D1*
X687205Y1765453D1*
X668356D1*
X1237205Y1365453D2*
D13*
X855954D1*
X843454Y1377953D1*
Y1852953D1*
X830954Y1865453D1*
X749705D1*
X737203Y1852951D1*
X699845D1*
D15*
X741773Y1811024D1*
X767717D1*
X787402Y1791339D1*
Y1328740D1*
X807087Y1309055D1*
X1181102D1*
X1200787Y1289370D1*
Y770619D1*
X1223375Y748031D1*
X1535433D1*
X1555118Y728346D1*
Y570866D1*
X1574803Y551181D1*
X3326772D1*
X2194882Y1958661D2*
D13*
Y1820866D1*
X2185039Y1811024D1*
X1879921D1*
X699845Y1852951D2*
D14*
X746500Y1899606D1*
X974409D1*
X994094Y1919291D1*
Y2244094D1*
X1013780Y2263780D1*
X1584646D1*
X1614173Y2234252D1*
X1673228D1*
X1702756Y2263780D1*
X2352362D1*
X2362205Y2253937D1*
X2546407D1*
X2726378D1*
X2746063Y2234252D1*
Y2204724D1*
X2546407Y2291339D2*
D13*
Y2253937D1*
X2883858Y2204724D2*
D15*
X3700787D1*
X3720472Y2185039D1*
Y1850394D1*
X3740157Y1830709D1*
X3897638D1*
X4131890Y1309055D2*
D13*
Y1377953D1*
X4094488Y1240157D2*
X4124016D1*
X4131890Y1248031D1*
Y1309055D1*
Y1377953D2*
X4104331D1*
X4094488Y1387795D1*
Y1486220D1*
X4084646Y1496063D1*
X3986220D1*
X3976378Y1505906D1*
Y1820866D1*
X3966535Y1830709D1*
X3897638D1*
X3641732Y1466535D2*
X3257874D1*
X3248031Y1476378D1*
Y1594488D1*
X1643701Y2234252D2*
X1614173D1*
X2667323Y1446850D2*
Y1417323D1*
X2657480Y1407480D1*
X2234252D1*
X2224409Y1397638D1*
Y1082677D1*
X2125984D2*
Y777559D1*
X1243848D1*
X1230315Y791092D1*
Y1309843D1*
X1201575Y1338583D1*
X832824D1*
X816929Y1354478D1*
Y1829479D1*
X805955Y1840453D1*
X749705D1*
X737206Y1852951D1*
X699845Y1515454D2*
D15*
Y1440593D1*
X687205Y1427953D1*
X668356D1*
X680160Y1240451D2*
D14*
X1112206D1*
X1130954Y1221703D1*
Y665601D1*
X1443455Y547491D2*
D15*
X1311417D1*
X1299213Y559696D1*
Y653445D1*
X1287056Y665601D1*
X1130954D1*
X630955Y971849D2*
X705808D1*
X718454Y959203D1*
Y940353D1*
D52*
X1742126Y1722441D3*
X2362205Y1742126D3*
X2322835Y1702756D3*
X1702756Y1683071D3*
X1663386Y1722441D3*
X2283465Y1663386D3*
X3080709Y1328740D3*
X2539370Y1299213D3*
X3139764Y1328740D3*
X2322835Y1299213D3*
X1476378Y1486220D3*
X2145669Y1535433D3*
X1525591Y1486220D3*
X2145669D3*
X1348425Y944882D3*
X1742126Y1584646D3*
X1663386D3*
X2263780Y2135827D3*
X1781496Y2096457D3*
X2312992Y2135827D3*
X1781496Y2155512D3*
X2303150Y1486220D3*
X3651575Y2086614D3*
X2303150Y1486220D3*
Y1535433D3*
X3651575Y2135827D3*
X1190945Y1811024D3*
X1781496D3*
X1230315Y1860236D3*
X1781496D3*
X1269685Y1909449D3*
X1781496D3*
Y1958661D3*
X1309055D3*
X1427165Y2096457D3*
X1348425D3*
X2765748Y1722441D3*
X2814961D3*
X2864173D3*
X3021654Y1210630D3*
Y1161417D3*
X2460630Y1604331D3*
X2500000Y1633858D3*
X2539370Y1604331D3*
X2578740Y1633858D3*
X1860236Y2096457D3*
X3257874Y1978346D3*
X3297244Y1948819D3*
X3336614Y1978346D3*
X3375984Y1948819D3*
X3415354Y1978346D3*
X3454724Y1948819D3*
X3494094Y1978346D3*
X3533465Y1948819D3*
X3572835Y1978346D3*
X2263780Y1811024D3*
Y1860236D3*
Y1909449D3*
Y1958661D3*
X1919291Y2096457D3*
X2411417Y2135827D3*
X2362205D3*
X2460630D3*
X2509843D3*
X1072835Y2096457D3*
X1112205Y2145669D3*
X1151575Y2194882D3*
X3218504Y2135827D3*
X3139764D3*
X1237205Y1365453D3*
X2864173Y1673228D3*
Y1624016D3*
Y1574803D3*
Y1525591D3*
X2362205Y1663386D3*
X3208661Y1102362D3*
X2224409Y1584646D3*
X2322835Y1250000D3*
Y1200787D3*
X3710630Y925197D3*
X1309055Y1761811D3*
X1781496D3*
X3769685Y1387795D3*
X3838583D3*
X2726378Y925197D3*
X2883858Y2204724D3*
X1643701Y2234252D3*
X2546407Y2291339D3*
X1584646Y2096457D3*
X1012205Y1646703D3*
X1643701Y2096457D3*
X1062205Y1646703D3*
X1702756Y2096457D3*
X1879921Y1811024D3*
X2125984Y1958661D3*
X2273622Y1122047D3*
X2726378Y1446850D3*
X2194882Y1958661D3*
X1830709Y1584646D3*
X2627953Y2135827D3*
X3897638Y1830709D3*
X4094488Y1240157D3*
X3641732Y1466535D3*
X2746063Y2204724D3*
X2667323Y1446850D3*
X2224409Y1082677D3*
X1584646Y1299213D3*
Y1141732D3*
X1525591Y2096457D3*
X1978346D3*
X962205Y1646703D3*
X912205D3*
X1112205D3*
X2746063Y2135827D3*
X1663386Y1377953D3*
X1702756D3*
X1742126D3*
X2175197Y1122047D3*
Y1161417D3*
X2273622D3*
X2125984Y1082677D3*
X3080709Y2135827D3*
X1633858Y669291D3*
Y738189D3*
Y600394D3*
X2864173Y1279528D3*
X3248031D3*
X3996063Y728346D3*
X4133858Y590551D3*
X3996063Y452756D3*
X3858268Y590551D3*
X3897638Y688976D3*
X4094488D3*
Y492126D3*
X3897638D3*
X3996063Y2303150D3*
X4133858Y2165354D3*
X3996063Y2027559D3*
X3897638Y2263780D3*
X4094488D3*
Y2066929D3*
X3897638D3*
X728346Y2303150D3*
X590551Y2165354D3*
X629921Y2263780D3*
X826772D3*
Y2066929D3*
X629921D3*
X728346Y728346D3*
X866142Y590551D3*
X728346Y452756D3*
X590551Y590551D3*
X629921Y688976D3*
X826772D3*
Y492126D3*
X629921D3*
X400787Y2344619D2*
D106*
X4323618D1*
X400787Y2332940D2*
X4323618D1*
X400787Y2321260D2*
X2521999D1*
X2570798D2*
X4323618D1*
X400787Y2309580D2*
X2512033D1*
X2580786D2*
X4323618D1*
X400787Y2297900D2*
X2507927D1*
X2584892D2*
X4323618D1*
X400787Y2286220D2*
X988434D1*
X1609999D2*
X1677419D1*
X2734168D2*
X4323618D1*
X400787Y2274541D2*
X976761D1*
X1621671D2*
X1665723D1*
X2753568D2*
X4323618D1*
X400787Y2262861D2*
X689676D1*
X767010D2*
X965827D1*
X2765241D2*
X3957407D1*
X4034719D2*
X4323618D1*
X400787Y2251181D2*
X667622D1*
X789087D2*
X960730D1*
X2775507D2*
X3935331D1*
X4056795D2*
X4323618D1*
X400787Y2239501D2*
X653573D1*
X803112D2*
X959969D1*
X2779774D2*
X2867678D1*
X2900030D2*
X3921306D1*
X4070820D2*
X4323618D1*
X400787Y2227822D2*
X643446D1*
X813262D2*
X959969D1*
X1028236D2*
X1131713D1*
X1171445D2*
X1572827D1*
X2780189D2*
X2852661D1*
X3717852D2*
X3911155D1*
X4080971D2*
X4323618D1*
X400787Y2216142D2*
X635879D1*
X820806D2*
X959969D1*
X1028236D2*
X1119047D1*
X2473150D2*
X2708761D1*
X2783350D2*
X2846571D1*
X3730193D2*
X3903589D1*
X4088537D2*
X4323618D1*
X400787Y2204462D2*
X630298D1*
X826388D2*
X959969D1*
X1028236D2*
X1113741D1*
X2486298D2*
X2707008D1*
X2785126D2*
X2844795D1*
X3741865D2*
X3898007D1*
X4094119D2*
X4323618D1*
X400787Y2192782D2*
X626375D1*
X830332D2*
X959969D1*
X1028236D2*
X1112588D1*
X2517648D2*
X2708945D1*
X2783189D2*
X2846732D1*
X3748601D2*
X3894084D1*
X4098042D2*
X4323618D1*
X400787Y2181102D2*
X623907D1*
X832801D2*
X959969D1*
X1028236D2*
X1097640D1*
X2529252D2*
X2715266D1*
X2776845D2*
X2853076D1*
X3749685D2*
X3891617D1*
X4100509D2*
X4323618D1*
X400787Y2169423D2*
X622777D1*
X833908D2*
X959969D1*
X1028236D2*
X1081516D1*
X2534765D2*
X2731160D1*
X2760974D2*
X2868948D1*
X2898761D2*
X3121085D1*
X3158442D2*
X3199841D1*
X3237175D2*
X3632904D1*
X3670238D2*
X3691268D1*
X3749685D2*
X3890509D1*
X4101617D2*
X4323618D1*
X400787Y2157743D2*
X622984D1*
X833701D2*
X959969D1*
X1028236D2*
X1075126D1*
X2541916D2*
X3107682D1*
X3250577D2*
X3619501D1*
X3749685D2*
X3890693D1*
X4101433D2*
X4323618D1*
X400787Y2146063D2*
X624507D1*
X832201D2*
X959969D1*
X1028236D2*
X1073142D1*
X2547499D2*
X3102123D1*
X3256160D2*
X3613919D1*
X3749685D2*
X3892217D1*
X4099909D2*
X4323618D1*
X400787Y2134383D2*
X627391D1*
X829294D2*
X959969D1*
X1028236D2*
X1074871D1*
X2548860D2*
X3100739D1*
X3257521D2*
X3612558D1*
X3749685D2*
X3895122D1*
X4097004D2*
X4323618D1*
X400787Y2122703D2*
X631797D1*
X824888D2*
X959969D1*
X1028236D2*
X1044352D1*
X1734730D2*
X1753013D1*
X2546552D2*
X3103046D1*
X3255214D2*
X3614865D1*
X3749685D2*
X3899529D1*
X4092597D2*
X4323618D1*
X400787Y2111024D2*
X637933D1*
X818752D2*
X959969D1*
X1028236D2*
X1036693D1*
X1221088D2*
X1312291D1*
X1463307D2*
X1745354D1*
X1955425D2*
X2233967D1*
X3583685D2*
X3621440D1*
X3749685D2*
X3905665D1*
X4086461D2*
X4323618D1*
X400787Y2099344D2*
X646214D1*
X810493D2*
X959969D1*
X1028236D2*
X1033896D1*
X1209392D2*
X1309478D1*
X1466121D2*
X1742541D1*
X1958239D2*
X2252421D1*
X3594482D2*
X3614726D1*
X3749685D2*
X3913924D1*
X4078202D2*
X4323618D1*
X400787Y2087664D2*
X657333D1*
X799352D2*
X959969D1*
X1028236D2*
X1034827D1*
X1197720D2*
X1310400D1*
X1465175D2*
X1743487D1*
X1957316D2*
X2249261D1*
X3598080D2*
X3612534D1*
X3749685D2*
X3925042D1*
X4067084D2*
X4323618D1*
X400787Y2075984D2*
X673089D1*
X783619D2*
X959969D1*
X1028236D2*
X1039785D1*
X1185148D2*
X1315383D1*
X1460215D2*
X1748446D1*
X1952333D2*
X2240264D1*
X3598102D2*
X3614034D1*
X3749685D2*
X3940798D1*
X4051328D2*
X4323618D1*
X400787Y2064304D2*
X700678D1*
X756007D2*
X959969D1*
X1028236D2*
X1051642D1*
X1094028D2*
X1327217D1*
X1369626D2*
X1405972D1*
X1448358D2*
X1760303D1*
X1944559D2*
X2238512D1*
X3598102D2*
X3619778D1*
X3749685D2*
X3968411D1*
X4023715D2*
X4323618D1*
X400787Y2052625D2*
X959969D1*
X1028236D2*
X1796198D1*
X1944559D2*
X2238512D1*
X3598102D2*
X3626307D1*
X3749685D2*
X4323618D1*
X400787Y2040945D2*
X959969D1*
X1028236D2*
X1795598D1*
X1944559D2*
X2238512D1*
X3598102D2*
X3626307D1*
X3749685D2*
X4323618D1*
X400787Y2029265D2*
X959969D1*
X1028236D2*
X1795598D1*
X1943152D2*
X2238512D1*
X3598102D2*
X3626307D1*
X3749685D2*
X4323618D1*
X400787Y2017585D2*
X959969D1*
X1028236D2*
X1795598D1*
X1934732D2*
X2238512D1*
X3598102D2*
X3626307D1*
X3749685D2*
X4323618D1*
X400787Y2005906D2*
X959969D1*
X1028236D2*
X1795598D1*
X1921192D2*
X2238512D1*
X3599995D2*
X3626307D1*
X3749685D2*
X4323618D1*
X400787Y1994226D2*
X959969D1*
X1028236D2*
X1294852D1*
X1323259D2*
X1767293D1*
X1865827D2*
X2180678D1*
X2209085D2*
X2238512D1*
X3608391D2*
X3626307D1*
X3749685D2*
X4323618D1*
X400787Y1982546D2*
X959969D1*
X1028236D2*
X1278474D1*
X1865827D2*
X2164301D1*
X2225463D2*
X2233206D1*
X2367795D2*
X3219056D1*
X3611667D2*
X3626307D1*
X3749685D2*
X4323618D1*
X400787Y1970866D2*
X959969D1*
X1028236D2*
X1272014D1*
X1865827D2*
X2157841D1*
X2367795D2*
X2459576D1*
X3611136D2*
X3626307D1*
X3749685D2*
X4323618D1*
X400787Y1959186D2*
X959969D1*
X1028236D2*
X1270008D1*
X1865827D2*
X2155835D1*
X2367795D2*
X2445573D1*
X3606685D2*
X3626307D1*
X3749685D2*
X4323618D1*
X400787Y1947507D2*
X959969D1*
X1028236D2*
X1271692D1*
X1865827D2*
X2157518D1*
X2367795D2*
X2436923D1*
X3596004D2*
X3626307D1*
X3749685D2*
X4323618D1*
X400787Y1935827D2*
X959969D1*
X1028236D2*
X1241333D1*
X1865827D2*
X2163492D1*
X2226272D2*
X2232365D1*
X2367795D2*
X2435354D1*
X3412748D2*
X3417970D1*
X3491480D2*
X3496717D1*
X3570214D2*
X3626307D1*
X3749685D2*
X4323618D1*
X400787Y1924147D2*
X723332D1*
X1028236D2*
X1233605D1*
X1865827D2*
X2169606D1*
X2220157D2*
X2227694D1*
X2367265D2*
X2435354D1*
X3405898D2*
X3424804D1*
X3484652D2*
X3503537D1*
X3563385D2*
X3626307D1*
X3749685D2*
X4323618D1*
X400787Y1912467D2*
X711567D1*
X1027521D2*
X1230745D1*
X1865827D2*
X2169606D1*
X2220157D2*
X2224860D1*
X2361106D2*
X2435354D1*
X3401260D2*
X3442912D1*
X3466543D2*
X3521646D1*
X3545277D2*
X3626307D1*
X3749685D2*
X4323618D1*
X400787Y1900787D2*
X528866D1*
X595243D2*
X641117D1*
X1022538D2*
X1231644D1*
X1865827D2*
X2169606D1*
X2220157D2*
X2225745D1*
X2349433D2*
X2435354D1*
X3401260D2*
X3626307D1*
X3749685D2*
X4323618D1*
X400787Y1889108D2*
X516085D1*
X608022D2*
X641117D1*
X1011697D2*
X1204631D1*
X1865827D2*
X2169606D1*
X2220157D2*
X2230644D1*
X2348096D2*
X2435354D1*
X3749685D2*
X4323618D1*
X400787Y1877428D2*
X508773D1*
X615335D2*
X641117D1*
X1000024D2*
X1195381D1*
X1865827D2*
X2169606D1*
X2220157D2*
X2228846D1*
X2344705D2*
X2435354D1*
X3749685D2*
X4323618D1*
X400787Y1865748D2*
X504759D1*
X619349D2*
X641117D1*
X865051D2*
X1191667D1*
X1865827D2*
X2169606D1*
X2220157D2*
X2225126D1*
X2334070D2*
X2435354D1*
X3749685D2*
X3882089D1*
X3913194D2*
X4323618D1*
X400787Y1854068D2*
X503329D1*
X620780D2*
X641117D1*
X868696D2*
X1191760D1*
X1865827D2*
X2169606D1*
X2220157D2*
X2225214D1*
X2328417D2*
X2435354D1*
X3973634D2*
X4323618D1*
X400787Y1842388D2*
X504298D1*
X619811D2*
X641117D1*
X868718D2*
X1168529D1*
X1902322D2*
X2169606D1*
X2220157D2*
X2229192D1*
X2327056D2*
X2435354D1*
X3990105D2*
X4323618D1*
X400787Y1830709D2*
X507781D1*
X616327D2*
X641117D1*
X868718D2*
X1157411D1*
X2220157D2*
X2230253D1*
X2318730D2*
X2435354D1*
X3999563D2*
X4323618D1*
X400787Y1819029D2*
X514378D1*
X609730D2*
X641117D1*
X868718D2*
X1152751D1*
X2220089D2*
X2225592D1*
X2428789D2*
X2435367D1*
X4001661D2*
X4323618D1*
X400787Y1807349D2*
X525751D1*
X626707D2*
X635211D1*
X868718D2*
X1152059D1*
X2216005D2*
X2224900D1*
X3716213D2*
X3723471D1*
X4001661D2*
X4323618D1*
X400787Y1795669D2*
X555232D1*
X626707D2*
X635211D1*
X868718D2*
X1155150D1*
X2682748D2*
X3665661D1*
X3716213D2*
X3882089D1*
X3913194D2*
X3951110D1*
X4001661D2*
X4323618D1*
X400787Y1783990D2*
X560400D1*
X626707D2*
X635211D1*
X729063D2*
X733167D1*
X868718D2*
X1163247D1*
X1218643D2*
X1277181D1*
X2682748D2*
X3665661D1*
X3918085D2*
X3951110D1*
X4001661D2*
X4323618D1*
X400787Y1772310D2*
X560400D1*
X626707D2*
X635211D1*
X728462D2*
X758189D1*
X868718D2*
X1271484D1*
X2682748D2*
X3665661D1*
X3932249D2*
X3951110D1*
X4001661D2*
X4323618D1*
X400787Y1760630D2*
X560400D1*
X626707D2*
X635211D1*
X722949D2*
X758189D1*
X868718D2*
X1270008D1*
X2682748D2*
X3668337D1*
X3942975D2*
X3951110D1*
X4001661D2*
X4323618D1*
X400787Y1748950D2*
X560400D1*
X626707D2*
X635211D1*
X711530D2*
X758189D1*
X868718D2*
X1272245D1*
X2682748D2*
X2737528D1*
X2892394D2*
X3678395D1*
X3946528D2*
X3951108D1*
X4001661D2*
X4323618D1*
X400787Y1737270D2*
X560400D1*
X626707D2*
X635211D1*
X701496D2*
X758189D1*
X868718D2*
X1279028D1*
X1339083D2*
X1627360D1*
X2682748D2*
X2729707D1*
X2900214D2*
X3895976D1*
X3946528D2*
X3951108D1*
X4001661D2*
X4323618D1*
X400787Y1725591D2*
X560400D1*
X626707D2*
X635211D1*
X701496D2*
X758189D1*
X868718D2*
X1296812D1*
X1321298D2*
X1624453D1*
X2682748D2*
X2726823D1*
X2903098D2*
X3895976D1*
X3946528D2*
X3951108D1*
X4001661D2*
X4323618D1*
X400787Y1713911D2*
X758189D1*
X868718D2*
X1625307D1*
X2682748D2*
X2727677D1*
X2902244D2*
X3895976D1*
X3946528D2*
X3951108D1*
X4001661D2*
X4323618D1*
X400787Y1702231D2*
X758189D1*
X868718D2*
X1630175D1*
X2682748D2*
X2732545D1*
X2897377D2*
X3895976D1*
X3946528D2*
X3951108D1*
X4001661D2*
X4323618D1*
X400787Y1690551D2*
X758189D1*
X868718D2*
X1638110D1*
X2682748D2*
X2740480D1*
X3462807D2*
X3895976D1*
X3946528D2*
X3951108D1*
X4001661D2*
X4323618D1*
X400787Y1678871D2*
X758189D1*
X868718D2*
X1638110D1*
X2682748D2*
X2740480D1*
X3469496D2*
X3895976D1*
X3946528D2*
X3951108D1*
X4001661D2*
X4323618D1*
X400787Y1667192D2*
X758189D1*
X868718D2*
X1638110D1*
X2682748D2*
X2740480D1*
X3470165D2*
X3895976D1*
X3946528D2*
X3951108D1*
X4001661D2*
X4323618D1*
X400787Y1655512D2*
X758189D1*
X868718D2*
X1638110D1*
X2682748D2*
X2740480D1*
X3470165D2*
X3895976D1*
X3946528D2*
X3951108D1*
X4001661D2*
X4323618D1*
X400787Y1643832D2*
X758189D1*
X868718D2*
X1343388D1*
X2682748D2*
X2740480D1*
X3475702D2*
X3512487D1*
X3574112D2*
X3895976D1*
X3946528D2*
X3951108D1*
X4001661D2*
X4323618D1*
X400787Y1632152D2*
X758189D1*
X868718D2*
X1331139D1*
X2682748D2*
X2740480D1*
X3489589D2*
X3498615D1*
X3588022D2*
X3895976D1*
X3946528D2*
X3951108D1*
X4001661D2*
X4323618D1*
X400787Y1620472D2*
X758189D1*
X868718D2*
X1323987D1*
X2682748D2*
X2740480D1*
X2925406D2*
X3195480D1*
X3595843D2*
X3895976D1*
X3946528D2*
X3951108D1*
X4001661D2*
X4323618D1*
X400787Y1608793D2*
X758189D1*
X868718D2*
X1323157D1*
X2372386D2*
X2376311D1*
X2682748D2*
X2740480D1*
X2913732D2*
X3191098D1*
X3600248D2*
X3872354D1*
X4001661D2*
X4218819D1*
X4316614D2*
X4323619D1*
X400787Y1597113D2*
X758189D1*
X868718D2*
X1323157D1*
X1779067D2*
X2187461D1*
X2261358D2*
X2376299D1*
X2682748D2*
X2740480D1*
X2903975D2*
X3189345D1*
X3601979D2*
X3872354D1*
X4001661D2*
X4218819D1*
X4316614D2*
X4323619D1*
X400787Y1585433D2*
X758189D1*
X868718D2*
X1323157D1*
X1781167D2*
X2185362D1*
X2263457D2*
X2376299D1*
X2682748D2*
X2740480D1*
X2918323D2*
X3190013D1*
X3601332D2*
X3872354D1*
X4001661D2*
X4218819D1*
X4316614D2*
X4323619D1*
X400787Y1573753D2*
X758189D1*
X868718D2*
X1323157D1*
X1779575D2*
X2186953D1*
X2261866D2*
X2376299D1*
X2682748D2*
X2740480D1*
X2927159D2*
X3193151D1*
X3598172D2*
X3872354D1*
X4001661D2*
X4218819D1*
X4316614D2*
X4323619D1*
X400787Y1562073D2*
X527113D1*
X596996D2*
X641117D1*
X868718D2*
X1323157D1*
X1773715D2*
X2117563D1*
X2173768D2*
X2192812D1*
X2256007D2*
X2275051D1*
X2331256D2*
X2376299D1*
X2682748D2*
X2740480D1*
X2928819D2*
X3199287D1*
X3592059D2*
X3872354D1*
X4001661D2*
X4218819D1*
X4316614D2*
X4323619D1*
X400787Y1550394D2*
X515117D1*
X608969D2*
X641117D1*
X868718D2*
X1323157D1*
X1403236D2*
X1412293D1*
X2181634D2*
X2199134D1*
X2249685D2*
X2253324D1*
X2682748D2*
X2740480D1*
X2928819D2*
X3209853D1*
X3286218D2*
X3308285D1*
X3384629D2*
X3406696D1*
X3483060D2*
X3505129D1*
X3581493D2*
X3872354D1*
X4001661D2*
X4218819D1*
X4316614D2*
X4323619D1*
X400787Y1538714D2*
X508219D1*
X615888D2*
X641117D1*
X868718D2*
X1323157D1*
X1403236D2*
X1411740D1*
X2184587D2*
X2199134D1*
X2682748D2*
X2740480D1*
X2928819D2*
X3222748D1*
X3273299D2*
X3331054D1*
X3361860D2*
X3429487D1*
X3460293D2*
X3527896D1*
X3558702D2*
X3872354D1*
X4001661D2*
X4218819D1*
X4316614D2*
X4323619D1*
X400787Y1527034D2*
X504482D1*
X619602D2*
X641117D1*
X868718D2*
X1323157D1*
X1403236D2*
X1411740D1*
X2183780D2*
X2199134D1*
X2681249D2*
X2740480D1*
X2928819D2*
X3222748D1*
X3273299D2*
X3872354D1*
X4001661D2*
X4218819D1*
X4316614D2*
X4323619D1*
X400787Y1515354D2*
X503306D1*
X620780D2*
X641117D1*
X868718D2*
X1323157D1*
X1403236D2*
X1411740D1*
X2178958D2*
X2199134D1*
X2672668D2*
X2740480D1*
X2928819D2*
X3222748D1*
X3273299D2*
X3895976D1*
X3946528D2*
X3951108D1*
X4100256D2*
X4323618D1*
X400787Y1503675D2*
X504529D1*
X619580D2*
X641117D1*
X868718D2*
X1323157D1*
X1403236D2*
X1411740D1*
X2180457D2*
X2199134D1*
X2658827D2*
X2740480D1*
X2928819D2*
X3222748D1*
X3273299D2*
X3633135D1*
X3650329D2*
X3895976D1*
X3946528D2*
X3951218D1*
X4112298D2*
X4323618D1*
X400787Y1491995D2*
X508311D1*
X615797D2*
X641117D1*
X868718D2*
X1323157D1*
X1403236D2*
X1411740D1*
X2184286D2*
X2199134D1*
X2505583D2*
X2740480D1*
X2928819D2*
X3222748D1*
X3273299D2*
X3612512D1*
X3670953D2*
X3895976D1*
X3946528D2*
X3955516D1*
X4119056D2*
X4323618D1*
X400787Y1480315D2*
X515278D1*
X608829D2*
X641117D1*
X868718D2*
X1323157D1*
X1403236D2*
X1411740D1*
X2184264D2*
X2199134D1*
X2505583D2*
X2648413D1*
X2686232D2*
X2740480D1*
X2928819D2*
X3222748D1*
X3678197D2*
X3895976D1*
X3946528D2*
X3966703D1*
X4165031D2*
X4323618D1*
X400787Y1468635D2*
X527390D1*
X626707D2*
X635211D1*
X868718D2*
X1323157D1*
X1403236D2*
X1411740D1*
X2180388D2*
X2199134D1*
X2505583D2*
X2635150D1*
X2699496D2*
X2740480D1*
X2928819D2*
X3224039D1*
X3680734D2*
X3895976D1*
X4165031D2*
X4323618D1*
X400787Y1456955D2*
X560400D1*
X626707D2*
X635211D1*
X729063D2*
X758189D1*
X868718D2*
X1323157D1*
X1403236D2*
X1411740D1*
X1550804D2*
X2120448D1*
X2170883D2*
X2199134D1*
X2505583D2*
X2629636D1*
X2705009D2*
X2740480D1*
X2928819D2*
X3232206D1*
X3679558D2*
X3896646D1*
X4165031D2*
X4323618D1*
X400787Y1445276D2*
X560400D1*
X626707D2*
X635211D1*
X729063D2*
X758189D1*
X868718D2*
X1323157D1*
X1403236D2*
X1411740D1*
X1462291D2*
X2199134D1*
X2505583D2*
X2628298D1*
X2706348D2*
X2740480D1*
X2928819D2*
X3245354D1*
X3674252D2*
X3903335D1*
X4165031D2*
X4323618D1*
X400787Y1433596D2*
X560400D1*
X626707D2*
X635211D1*
X728163D2*
X758189D1*
X868718D2*
X1323157D1*
X1403236D2*
X1411740D1*
X1462291D2*
X2199387D1*
X2505353D2*
X2630675D1*
X2703971D2*
X2740480D1*
X2928819D2*
X3621854D1*
X3661610D2*
X3915008D1*
X4165031D2*
X4323618D1*
X400787Y1421916D2*
X560400D1*
X626707D2*
X635211D1*
X721934D2*
X758189D1*
X868718D2*
X1323157D1*
X1403236D2*
X1411740D1*
X1462291D2*
X2204440D1*
X2697005D2*
X2740480D1*
X3259021D2*
X3752075D1*
X3787310D2*
X3820958D1*
X3856193D2*
X4023937D1*
X4165031D2*
X4323618D1*
X400787Y1410236D2*
X560400D1*
X626707D2*
X635211D1*
X710307D2*
X758189D1*
X868718D2*
X1323157D1*
X1403236D2*
X1411740D1*
X1462291D2*
X2202686D1*
X2691538D2*
X2740480D1*
X3801382D2*
X3806886D1*
X3870264D2*
X4023937D1*
X4165031D2*
X4323618D1*
X400787Y1398556D2*
X560400D1*
X626707D2*
X635211D1*
X701496D2*
X758189D1*
X868718D2*
X1217619D1*
X1256776D2*
X1323157D1*
X1403236D2*
X1411740D1*
X1462291D2*
X2199156D1*
X2683810D2*
X2740480D1*
X3876077D2*
X4023937D1*
X4165031D2*
X4323618D1*
X400787Y1386877D2*
X560400D1*
X626707D2*
X635211D1*
X701496D2*
X758189D1*
X1269625D2*
X1323157D1*
X1403236D2*
X1411740D1*
X1462291D2*
X2199134D1*
X2671146D2*
X2740480D1*
X3877623D2*
X4023937D1*
X4165031D2*
X4323618D1*
X400787Y1375197D2*
X758189D1*
X1274976D2*
X1323157D1*
X1403236D2*
X1411740D1*
X1462291D2*
X2199134D1*
X2249685D2*
X2740480D1*
X3875478D2*
X4023937D1*
X4165031D2*
X4323618D1*
X400787Y1363517D2*
X758189D1*
X1276222D2*
X1323157D1*
X1469881D2*
X2199134D1*
X2249685D2*
X2740480D1*
X3868833D2*
X4023937D1*
X4165031D2*
X4323618D1*
X400787Y1351837D2*
X758189D1*
X1273731D2*
X1323157D1*
X1482799D2*
X2199134D1*
X2249685D2*
X2740480D1*
X3862975D2*
X4023937D1*
X4090244D2*
X4098748D1*
X4165031D2*
X4323618D1*
X400787Y1340157D2*
X758189D1*
X1266579D2*
X1323157D1*
X1490181D2*
X2199134D1*
X2249685D2*
X2740480D1*
X2820559D2*
X3043413D1*
X3177059D2*
X3183370D1*
X3855731D2*
X4023937D1*
X4090244D2*
X4098748D1*
X4165031D2*
X4323618D1*
X400787Y1328478D2*
X758189D1*
X1246925D2*
X1323157D1*
X1531589D2*
X1559424D1*
X1609860D2*
X2199134D1*
X2249685D2*
X2297613D1*
X2348049D2*
X2514156D1*
X2564592D2*
X2740480D1*
X2820559D2*
X3041661D1*
X3178811D2*
X3183391D1*
X3233945D2*
X3243186D1*
X3843436D2*
X3911732D1*
X4090244D2*
X4098748D1*
X4165031D2*
X4323618D1*
X400787Y1316798D2*
X760865D1*
X1254560D2*
X1323157D1*
X1619365D2*
X2199134D1*
X2249685D2*
X2288108D1*
X2458593D2*
X2504651D1*
X2574097D2*
X2740480D1*
X2820559D2*
X3043575D1*
X3176898D2*
X3183379D1*
X3233945D2*
X3899644D1*
X4090244D2*
X4098748D1*
X4165031D2*
X4323618D1*
X400787Y1305118D2*
X770207D1*
X1255598D2*
X1323157D1*
X1623240D2*
X2199134D1*
X2249685D2*
X2284232D1*
X2470197D2*
X2500776D1*
X2577972D2*
X2740480D1*
X2820559D2*
X3049919D1*
X3170554D2*
X3183394D1*
X3233945D2*
X3889240D1*
X4090244D2*
X4098748D1*
X4165031D2*
X4323618D1*
X400787Y1293438D2*
X558070D1*
X605392D2*
X656503D1*
X703825D2*
X781879D1*
X1255598D2*
X1323157D1*
X1623262D2*
X2199134D1*
X2249685D2*
X2284232D1*
X2475710D2*
X2500753D1*
X2577972D2*
X2740480D1*
X2820559D2*
X3055433D1*
X3105984D2*
X3114496D1*
X3165039D2*
X3183394D1*
X3233945D2*
X3886150D1*
X4090244D2*
X4098748D1*
X4165031D2*
X4323618D1*
X400787Y1281759D2*
X540469D1*
X622993D2*
X638902D1*
X721427D2*
X799528D1*
X1255598D2*
X1323157D1*
X1484853D2*
X1507797D1*
X1619433D2*
X2199134D1*
X2249685D2*
X2288039D1*
X2476055D2*
X2504583D1*
X2574165D2*
X2740480D1*
X2820559D2*
X3055433D1*
X3105984D2*
X3114496D1*
X3165039D2*
X3183394D1*
X3233945D2*
X3886150D1*
X3936701D2*
X4023937D1*
X4090244D2*
X4098748D1*
X4165031D2*
X4323618D1*
X400787Y1270079D2*
X531196D1*
X1127823D2*
X1171575D1*
X1255598D2*
X1323157D1*
X1473572D2*
X1559262D1*
X1610022D2*
X2199134D1*
X2249685D2*
X2289538D1*
X2476055D2*
X2513993D1*
X2564753D2*
X2740480D1*
X2820559D2*
X3055433D1*
X3105984D2*
X3114496D1*
X3165039D2*
X3183394D1*
X3233945D2*
X3886150D1*
X3936701D2*
X4023937D1*
X4165031D2*
X4323618D1*
X400787Y1258399D2*
X525866D1*
X1142033D2*
X1171575D1*
X1255598D2*
X1323157D1*
X1403236D2*
X1428371D1*
X1445659D2*
X2199134D1*
X2249685D2*
X2284717D1*
X2476055D2*
X2514087D1*
X2564638D2*
X2740480D1*
X2820559D2*
X3055433D1*
X3105984D2*
X3114496D1*
X3165039D2*
X3183394D1*
X3233945D2*
X3886150D1*
X3936701D2*
X4060108D1*
X4157165D2*
X4323618D1*
X400787Y1246719D2*
X523329D1*
X1153728D2*
X1171575D1*
X1255598D2*
X1323157D1*
X1403236D2*
X2199134D1*
X2249685D2*
X2283933D1*
X2476055D2*
X2514087D1*
X2564638D2*
X2740480D1*
X2820559D2*
X3008972D1*
X3034335D2*
X3055433D1*
X3105984D2*
X3114496D1*
X3165039D2*
X3183394D1*
X3233945D2*
X3886150D1*
X3936701D2*
X4056001D1*
X4157119D2*
X4323618D1*
X400787Y1235039D2*
X523260D1*
X1162264D2*
X1171575D1*
X1255598D2*
X1323157D1*
X1403236D2*
X2199134D1*
X2249685D2*
X2286862D1*
X2476055D2*
X2514087D1*
X2564638D2*
X2740480D1*
X2820559D2*
X2991510D1*
X3051797D2*
X3055438D1*
X3105984D2*
X3114496D1*
X3165039D2*
X3183394D1*
X3233945D2*
X3862528D1*
X3960323D2*
X4055770D1*
X4153360D2*
X4208969D1*
X4306764D2*
X4323618D1*
X400787Y1223360D2*
X525589D1*
X1165055D2*
X1171591D1*
X1255598D2*
X1323157D1*
X1403236D2*
X2199134D1*
X2249685D2*
X2291245D1*
X2476055D2*
X2514087D1*
X2564638D2*
X2740480D1*
X3105984D2*
X3114496D1*
X3165039D2*
X3183394D1*
X3233945D2*
X3862528D1*
X3960323D2*
X4059370D1*
X4142471D2*
X4208969D1*
X4306764D2*
X4323618D1*
X400787Y1211680D2*
X530711D1*
X1165079D2*
X1171592D1*
X1255598D2*
X1323157D1*
X1403236D2*
X2199134D1*
X2249685D2*
X2285386D1*
X2476055D2*
X2514087D1*
X2564638D2*
X2740480D1*
X3105984D2*
X3114496D1*
X3165039D2*
X3183394D1*
X3233945D2*
X3862528D1*
X3960323D2*
X4068344D1*
X4120648D2*
X4208969D1*
X4306764D2*
X4323618D1*
X400787Y1200000D2*
X539615D1*
X623870D2*
X638025D1*
X722281D2*
X1096810D1*
X1165079D2*
X1171592D1*
X1255598D2*
X1323157D1*
X1403236D2*
X2199134D1*
X2249685D2*
X2283794D1*
X2476055D2*
X2514087D1*
X2564638D2*
X2740480D1*
X3105984D2*
X3114496D1*
X3165039D2*
X3183394D1*
X3233945D2*
X3862528D1*
X3960323D2*
X4208969D1*
X4306764D2*
X4323618D1*
X400787Y1188320D2*
X556155D1*
X607307D2*
X654588D1*
X705740D2*
X1096810D1*
X1165079D2*
X1171592D1*
X1255598D2*
X1323157D1*
X1403236D2*
X2199134D1*
X2249685D2*
X2285894D1*
X2476055D2*
X2514087D1*
X2564638D2*
X2740480D1*
X2791031D2*
X2794836D1*
X3105984D2*
X3114496D1*
X3165039D2*
X3183394D1*
X3233945D2*
X3862528D1*
X3960323D2*
X4208969D1*
X4306764D2*
X4323618D1*
X400787Y1176640D2*
X1096810D1*
X1165079D2*
X1171592D1*
X1255598D2*
X1323157D1*
X1403236D2*
X1409455D1*
X1464552D2*
X1568766D1*
X1600517D2*
X2199134D1*
X2249685D2*
X2292469D1*
X2353193D2*
X2386150D1*
X2476055D2*
X2514087D1*
X2564638D2*
X2740480D1*
X3105984D2*
X3114496D1*
X3165039D2*
X3183394D1*
X3233945D2*
X3862528D1*
X3960323D2*
X4208969D1*
X4306764D2*
X4323618D1*
X400787Y1164961D2*
X1096810D1*
X1165079D2*
X1171592D1*
X1255598D2*
X1323157D1*
X1480077D2*
X1518016D1*
X1615743D2*
X2199134D1*
X2249685D2*
X2309378D1*
X2336307D2*
X2386150D1*
X2476055D2*
X2514087D1*
X2564638D2*
X2741310D1*
X3105984D2*
X3114496D1*
X3165039D2*
X3183394D1*
X3233945D2*
X3862528D1*
X3960323D2*
X4208969D1*
X4306764D2*
X4323618D1*
X400787Y1153281D2*
X1096810D1*
X1165079D2*
X1171592D1*
X1255598D2*
X1323157D1*
X1488589D2*
X1501891D1*
X1621902D2*
X2199134D1*
X2249685D2*
X2386150D1*
X2476055D2*
X2514087D1*
X2564638D2*
X2748462D1*
X3105984D2*
X3114496D1*
X3165039D2*
X3183394D1*
X3233945D2*
X3862528D1*
X3960323D2*
X4208969D1*
X4306764D2*
X4323618D1*
X400787Y1141601D2*
X1096810D1*
X1165079D2*
X1171592D1*
X1255598D2*
X1323157D1*
X1623701D2*
X2199134D1*
X2249685D2*
X2386150D1*
X2476055D2*
X2514087D1*
X3105984D2*
X3114496D1*
X3165039D2*
X3183394D1*
X3233945D2*
X3886150D1*
X3936701D2*
X4323618D1*
X400787Y1129921D2*
X1096810D1*
X1165079D2*
X1171592D1*
X1255598D2*
X1323157D1*
X1621810D2*
X2199134D1*
X2249685D2*
X2386150D1*
X2476055D2*
X2514178D1*
X3105892D2*
X3114492D1*
X3165039D2*
X3181501D1*
X3235814D2*
X3886150D1*
X3936701D2*
X4323618D1*
X400787Y1118241D2*
X1096810D1*
X1165079D2*
X1171592D1*
X1255598D2*
X1323157D1*
X1615535D2*
X2111773D1*
X2140180D2*
X2199134D1*
X2249685D2*
X2386150D1*
X2476055D2*
X2518331D1*
X3101740D2*
X3114488D1*
X3165039D2*
X3173108D1*
X3244234D2*
X3886150D1*
X3936701D2*
X4323618D1*
X400787Y1106562D2*
X1096810D1*
X1165079D2*
X1171592D1*
X1255598D2*
X1323157D1*
X1525453D2*
X1569412D1*
X1599871D2*
X2095417D1*
X2156558D2*
X2193828D1*
X2254991D2*
X2386150D1*
X3165039D2*
X3169831D1*
X3247487D2*
X3886150D1*
X3936701D2*
X4323618D1*
X400787Y1094882D2*
X1096810D1*
X1165079D2*
X1171592D1*
X1255598D2*
X1323157D1*
X1373709D2*
X1387079D1*
X1486951D2*
X2088959D1*
X2163017D2*
X2187369D1*
X2261450D2*
X2386150D1*
X3163840D2*
X3170360D1*
X3246979D2*
X3886150D1*
X3936701D2*
X4323618D1*
X400787Y1083202D2*
X1096810D1*
X1165079D2*
X1171592D1*
X1255598D2*
X1323157D1*
X1373709D2*
X1396768D1*
X1477262D2*
X2086929D1*
X2165025D2*
X2185362D1*
X2263457D2*
X2386150D1*
X3936701D2*
X4323618D1*
X400787Y1071522D2*
X1096810D1*
X1165079D2*
X1171592D1*
X1255598D2*
X1323157D1*
X1373709D2*
X1415777D1*
X1458255D2*
X2088613D1*
X2163364D2*
X2187046D1*
X2261773D2*
X2386150D1*
X3936125D2*
X4323618D1*
X400787Y1059843D2*
X1096810D1*
X1165079D2*
X1171592D1*
X1255598D2*
X1323157D1*
X1373709D2*
X2094588D1*
X2157388D2*
X2193020D1*
X2255799D2*
X2386150D1*
X3929735D2*
X4323618D1*
X400787Y1048163D2*
X1096810D1*
X1165079D2*
X1171592D1*
X1255598D2*
X1323157D1*
X1373709D2*
X2100701D1*
X2151252D2*
X2207622D1*
X2241197D2*
X2386150D1*
X3918062D2*
X4323618D1*
X400787Y1036483D2*
X1096810D1*
X1165079D2*
X1171592D1*
X1255598D2*
X1323157D1*
X1373709D2*
X2100701D1*
X2151252D2*
X2386150D1*
X2436701D2*
X4323618D1*
X400787Y1024803D2*
X572211D1*
X689685D2*
X1096810D1*
X1165079D2*
X1171592D1*
X1255598D2*
X1323157D1*
X1373709D2*
X2100701D1*
X2151252D2*
X2386150D1*
X2436701D2*
X4323618D1*
X400787Y1013123D2*
X572211D1*
X689685D2*
X1096810D1*
X1165079D2*
X1171592D1*
X1255598D2*
X1323157D1*
X1373709D2*
X2100701D1*
X2151252D2*
X2386150D1*
X2436701D2*
X4323618D1*
X400787Y1001444D2*
X572211D1*
X689685D2*
X1096810D1*
X1165079D2*
X1171592D1*
X1255598D2*
X1323157D1*
X1373709D2*
X2100701D1*
X2151252D2*
X2386150D1*
X2436701D2*
X4323618D1*
X400787Y989764D2*
X572211D1*
X728717D2*
X1096810D1*
X1165079D2*
X1171592D1*
X1255598D2*
X1323157D1*
X1373709D2*
X2100701D1*
X2151252D2*
X2386150D1*
X2436701D2*
X4323618D1*
X400787Y978084D2*
X572211D1*
X740366D2*
X1096810D1*
X1165079D2*
X1171592D1*
X1255598D2*
X1323157D1*
X1373709D2*
X2100701D1*
X2151252D2*
X2386150D1*
X2436701D2*
X4323618D1*
X400787Y966404D2*
X572211D1*
X763411D2*
X1096810D1*
X1165079D2*
X1171592D1*
X1255598D2*
X1316075D1*
X1380768D2*
X2100701D1*
X2151252D2*
X2386150D1*
X2436701D2*
X4323618D1*
X400787Y954724D2*
X572211D1*
X763411D2*
X1096810D1*
X1165079D2*
X1171592D1*
X1255598D2*
X1310677D1*
X1386189D2*
X2100701D1*
X2151252D2*
X2386150D1*
X2436701D2*
X2701471D1*
X2751285D2*
X3685731D1*
X3735521D2*
X4323618D1*
X400787Y943045D2*
X572211D1*
X763411D2*
X1096810D1*
X1165079D2*
X1171592D1*
X1255598D2*
X1309408D1*
X1387434D2*
X2100701D1*
X2151252D2*
X2386150D1*
X3745210D2*
X4323618D1*
X400787Y931365D2*
X572211D1*
X763411D2*
X1096810D1*
X1165079D2*
X1171592D1*
X1255598D2*
X1311853D1*
X1384990D2*
X2100701D1*
X2151252D2*
X2386425D1*
X3749178D2*
X4323618D1*
X400787Y919685D2*
X572211D1*
X763411D2*
X1096810D1*
X1165079D2*
X1171592D1*
X1255598D2*
X1318958D1*
X1377885D2*
X2100701D1*
X2151252D2*
X2391663D1*
X3749294D2*
X4323618D1*
X400787Y908005D2*
X1096810D1*
X1165079D2*
X1171592D1*
X1255598D2*
X1338613D1*
X1358230D2*
X2100701D1*
X2151252D2*
X2403197D1*
X3745556D2*
X4323618D1*
X400787Y896325D2*
X673504D1*
X763411D2*
X1096810D1*
X1165079D2*
X1171592D1*
X1255598D2*
X2100701D1*
X2151252D2*
X2700686D1*
X2752070D2*
X3684946D1*
X3736329D2*
X4323618D1*
X400787Y884646D2*
X602315D1*
X659580D2*
X673504D1*
X763411D2*
X1096810D1*
X1165079D2*
X1171592D1*
X1255598D2*
X2100701D1*
X2151252D2*
X4323618D1*
X400787Y872966D2*
X587367D1*
X763411D2*
X1096810D1*
X1165079D2*
X1171592D1*
X1255598D2*
X2100701D1*
X2151252D2*
X4323618D1*
X400787Y861286D2*
X579063D1*
X763411D2*
X1096810D1*
X1165079D2*
X1171592D1*
X1255598D2*
X2100701D1*
X2151252D2*
X3306209D1*
X3347327D2*
X4323618D1*
X400787Y849606D2*
X574357D1*
X763411D2*
X1096810D1*
X1165079D2*
X1171592D1*
X1255598D2*
X2100701D1*
X2151252D2*
X3286786D1*
X3366749D2*
X4323618D1*
X400787Y837927D2*
X572349D1*
X763411D2*
X1096810D1*
X1165079D2*
X1171592D1*
X1255598D2*
X2100701D1*
X2151252D2*
X3276982D1*
X3376554D2*
X4323618D1*
X400787Y826247D2*
X572741D1*
X689154D2*
X1096810D1*
X1165079D2*
X1171592D1*
X1255598D2*
X2100701D1*
X2151252D2*
X3271307D1*
X3382228D2*
X4323618D1*
X400787Y814567D2*
X575625D1*
X686294D2*
X1096810D1*
X1165079D2*
X1171592D1*
X1255598D2*
X2100701D1*
X2151252D2*
X3268516D1*
X3385020D2*
X4323618D1*
X400787Y802887D2*
X581392D1*
X680526D2*
X1096810D1*
X1165079D2*
X1171592D1*
X1255598D2*
X2100701D1*
X2151252D2*
X3268193D1*
X3385366D2*
X4323618D1*
X400787Y791207D2*
X591335D1*
X670560D2*
X1096810D1*
X1165079D2*
X1171592D1*
X2151252D2*
X3270269D1*
X3383266D2*
X4323618D1*
X400787Y779528D2*
X611335D1*
X650584D2*
X1096810D1*
X1165079D2*
X1171592D1*
X2151252D2*
X3275067D1*
X3378492D2*
X4323618D1*
X400787Y767848D2*
X1096810D1*
X1165079D2*
X1171701D1*
X2149223D2*
X3283487D1*
X3370072D2*
X4323618D1*
X400787Y756168D2*
X1096810D1*
X1165079D2*
X1175588D1*
X2138265D2*
X3298759D1*
X3354801D2*
X4323618D1*
X400787Y744488D2*
X1096810D1*
X1165079D2*
X1186084D1*
X1579226D2*
X4323618D1*
X400787Y732808D2*
X1096810D1*
X1165079D2*
X1197780D1*
X1583978D2*
X2862904D1*
X2924505D2*
X2941636D1*
X3003238D2*
X4323618D1*
X400787Y721129D2*
X1072219D1*
X1189693D2*
X1214320D1*
X1584323D2*
X2851623D1*
X3014518D2*
X4323618D1*
X400787Y709449D2*
X1072219D1*
X1189693D2*
X1525906D1*
X1584323D2*
X2845672D1*
X3020470D2*
X4323618D1*
X400787Y697769D2*
X1072219D1*
X1189693D2*
X1417299D1*
X1469627D2*
X1525906D1*
X1584323D2*
X2843064D1*
X3023077D2*
X4323618D1*
X400787Y686089D2*
X684924D1*
X771785D2*
X1072219D1*
X1307365D2*
X1401059D1*
X1485867D2*
X1525906D1*
X1584323D2*
X2843295D1*
X3022846D2*
X3952633D1*
X4039493D2*
X4323618D1*
X400787Y674409D2*
X664877D1*
X791808D2*
X1072219D1*
X1319083D2*
X1392270D1*
X1494656D2*
X1525906D1*
X1584323D2*
X2846409D1*
X3019732D2*
X3932585D1*
X4059541D2*
X4323618D1*
X400787Y662730D2*
X651659D1*
X805050D2*
X1072219D1*
X1326833D2*
X1387218D1*
X1499685D2*
X1525906D1*
X1584323D2*
X2853054D1*
X3013088D2*
X3919367D1*
X4072759D2*
X4323618D1*
X400787Y651050D2*
X642016D1*
X814693D2*
X1072219D1*
X1328425D2*
X1384934D1*
X1501970D2*
X1525906D1*
X1584323D2*
X2865764D1*
X2921646D2*
X2944496D1*
X3000378D2*
X3909724D1*
X4082402D2*
X4323618D1*
X400787Y639370D2*
X634819D1*
X821890D2*
X1072219D1*
X1328425D2*
X1385096D1*
X1501831D2*
X1525906D1*
X1584323D2*
X3902528D1*
X4089598D2*
X4323618D1*
X400787Y627690D2*
X629535D1*
X827172D2*
X1072219D1*
X1189693D2*
X1270008D1*
X1328425D2*
X1387680D1*
X1499224D2*
X1525906D1*
X1584323D2*
X3897245D1*
X4094881D2*
X4323618D1*
X400787Y616010D2*
X625845D1*
X830840D2*
X1072219D1*
X1189693D2*
X1270008D1*
X1328425D2*
X1393100D1*
X1493827D2*
X1525906D1*
X1584323D2*
X3893577D1*
X4098549D2*
X4323618D1*
X400787Y604331D2*
X623608D1*
X833077D2*
X1270008D1*
X1328425D2*
X1402490D1*
X1484437D2*
X1525906D1*
X1584323D2*
X3268031D1*
X3385504D2*
X3891340D1*
X4100786D2*
X4323618D1*
X400787Y592651D2*
X622731D1*
X833978D2*
X1270008D1*
X1328425D2*
X1406596D1*
X1480331D2*
X1525906D1*
X1584323D2*
X3268031D1*
X3385504D2*
X3890440D1*
X4101686D2*
X4323618D1*
X400787Y580971D2*
X623146D1*
X833539D2*
X1107720D1*
X1154190D2*
X1270008D1*
X1328425D2*
X1395453D1*
X1491450D2*
X1525906D1*
X1585846D2*
X3268031D1*
X3385504D2*
X3890854D1*
X4101272D2*
X4323618D1*
X400787Y569291D2*
X624899D1*
X831808D2*
X1089866D1*
X1172045D2*
X1270008D1*
X1497909D2*
X1525951D1*
X3385504D2*
X3892608D1*
X4099518D2*
X4323618D1*
X400787Y557612D2*
X628037D1*
X828648D2*
X1080524D1*
X1181365D2*
X1270076D1*
X1501301D2*
X1529227D1*
X3385504D2*
X3895745D1*
X4096381D2*
X4323618D1*
X400787Y545932D2*
X632719D1*
X823988D2*
X1075148D1*
X1186762D2*
X1273606D1*
X1502177D2*
X1539239D1*
X3385504D2*
X3900428D1*
X4091698D2*
X4323618D1*
X400787Y534252D2*
X639178D1*
X817530D2*
X1072564D1*
X1189323D2*
X1283825D1*
X1500655D2*
X1550911D1*
X3385504D2*
X3906887D1*
X4085239D2*
X4323618D1*
X400787Y522572D2*
X647852D1*
X808833D2*
X1072449D1*
X1189462D2*
X1297390D1*
X1496525D2*
X3268031D1*
X3385504D2*
X3915562D1*
X4076564D2*
X4323618D1*
X400787Y510892D2*
X659594D1*
X797114D2*
X1074756D1*
X1187155D2*
X1397852D1*
X1489051D2*
X3268031D1*
X3385504D2*
X3927303D1*
X4064823D2*
X4323618D1*
X400787Y499213D2*
X676480D1*
X780228D2*
X1079808D1*
X1182080D2*
X1410932D1*
X1475971D2*
X3268031D1*
X3385504D2*
X3944189D1*
X4047937D2*
X4323618D1*
X400787Y487533D2*
X709860D1*
X746825D2*
X1088643D1*
X1173268D2*
X3977570D1*
X4014556D2*
X4323618D1*
X400787Y475853D2*
X1104999D1*
X1156912D2*
X4323618D1*
X400787Y464173D2*
X4323618D1*
X400787Y452493D2*
X4323618D1*
X400787Y440814D2*
X4323618D1*
X400787Y429134D2*
X4323618D1*
X400787Y417454D2*
X4323618D1*
X400787Y405774D2*
X4323618D1*
X3275118Y608740D2*
X3384331D1*
Y493622D1*
X3269213D1*
Y523126D1*
X1574803Y523150D1*
X1570419Y523495D1*
X1566140Y524521D1*
X1562077Y526205D1*
X1558327Y528503D1*
X1554976Y531366D1*
X1533803Y552661D1*
X1531218Y556219D1*
X1529220Y560139D1*
X1527861Y564323D1*
X1527173Y568667D1*
X1527087Y594488D1*
X1526945Y716877D1*
X1523622Y720000D1*
X1221176Y720087D1*
X1216832Y720774D1*
X1212648Y722134D1*
X1208728Y724131D1*
X1205171Y726717D1*
X1186850Y744913D1*
X1179472Y752415D1*
X1176887Y755972D1*
X1174890Y759892D1*
X1173530Y764076D1*
X1172843Y768420D1*
X1172756Y794241D1*
X1172614Y1277900D1*
X1169291Y1281024D1*
X804887Y1281110D1*
X800543Y1281798D1*
X796360Y1283157D1*
X792440Y1285155D1*
X788882Y1287740D1*
X770562Y1305937D1*
X766087Y1310535D1*
X763501Y1314093D1*
X761504Y1318013D1*
X760144Y1322197D1*
X759457Y1326541D1*
X759370Y1352362D1*
X759228Y1779869D1*
X755906Y1782992D1*
X739573Y1783079D1*
X735230Y1783766D1*
X731046Y1785126D1*
X729039Y1786051D1*
X727877Y1782085D1*
X727790Y1775894D1*
X727102Y1771550D1*
X725743Y1767366D1*
X723745Y1763446D1*
X721160Y1759888D1*
X707026Y1745631D1*
X703681Y1742774D1*
X701844Y1741547D1*
X700324Y1738366D1*
Y1721673D1*
X636387D1*
Y1809232D1*
X642269D1*
X642286Y1910510D1*
X710823D1*
X725098Y1924664D1*
X729282Y1927703D1*
X733890Y1930051D1*
X738807Y1931648D1*
X743915Y1932458D1*
X764217Y1932559D1*
X960782D1*
X961142Y1937008D1*
X961243Y2246680D1*
X962052Y2251787D1*
X963650Y2256705D1*
X965997Y2261312D1*
X969037Y2265496D1*
X983320Y2279923D1*
X992378Y2288837D1*
X996562Y2291877D1*
X1001169Y2294224D1*
X1006087Y2295822D1*
X1011194Y2296631D1*
X1031496Y2296732D1*
X1587231Y2296631D1*
X1592339Y2295822D1*
X1597256Y2294224D1*
X1601864Y2291877D1*
X1606047Y2288837D1*
X1620474Y2274554D1*
X1626852Y2268176D1*
X1631997Y2270272D1*
X1637776Y2271660D1*
X1643701Y2272126D1*
X1649626Y2271660D1*
X1655404Y2270272D1*
X1660547Y2268159D1*
X1681354Y2288837D1*
X1685538Y2291877D1*
X1690146Y2294224D1*
X1695063Y2295822D1*
X1700171Y2296631D1*
X1720472Y2296732D1*
X2354948Y2296631D1*
X2360055Y2295822D1*
X2364972Y2294224D1*
X2369580Y2291877D1*
X2373764Y2288837D1*
X2375843Y2286902D1*
X2508804Y2286890D1*
X2508533Y2291339D1*
X2508999Y2297264D1*
X2510387Y2303042D1*
X2512661Y2308533D1*
X2515766Y2313600D1*
X2519626Y2318119D1*
X2524146Y2321979D1*
X2529213Y2325084D1*
X2534703Y2327358D1*
X2540482Y2328747D1*
X2546407Y2329213D1*
X2552332Y2328747D1*
X2558110Y2327358D1*
X2563601Y2325084D1*
X2568668Y2321979D1*
X2573188Y2318119D1*
X2577047Y2313600D1*
X2580152Y2308533D1*
X2582427Y2303042D1*
X2583815Y2297264D1*
X2584281Y2291339D1*
X2583988Y2286879D1*
X2728963Y2286789D1*
X2734071Y2285979D1*
X2738988Y2284382D1*
X2743596Y2282034D1*
X2747780Y2278995D1*
X2762206Y2264711D1*
X2771121Y2255654D1*
X2774160Y2251470D1*
X2776508Y2246862D1*
X2778105Y2241945D1*
X2778915Y2236837D1*
X2779016Y2223387D1*
X2781054Y2219218D1*
X2782891Y2213566D1*
X2783820Y2207696D1*
Y2201753D1*
X2782891Y2195883D1*
X2781054Y2190231D1*
X2778356Y2184936D1*
X2774862Y2180127D1*
X2770660Y2175925D1*
X2765852Y2172432D1*
X2760556Y2169734D1*
X2754904Y2167896D1*
X2749034Y2166967D1*
X2743092D1*
X2737222Y2167896D1*
X2731570Y2169734D1*
X2726274Y2172432D1*
X2721466Y2175925D1*
X2717264Y2180127D1*
X2713770Y2184936D1*
X2711072Y2190231D1*
X2709235Y2195883D1*
X2708306Y2201753D1*
Y2207696D1*
X2709235Y2213566D1*
X2711072Y2219218D1*
X2711885Y2220980D1*
X2448896Y2220984D1*
X2450938Y2218963D1*
X2462521Y2218902D1*
X2466255Y2218311D1*
X2469850Y2217143D1*
X2473219Y2215427D1*
X2476278Y2213203D1*
X2490308Y2199278D1*
X2501891Y2199217D1*
X2505625Y2198626D1*
X2509220Y2197457D1*
X2512589Y2195741D1*
X2515648Y2193518D1*
X2526881Y2182392D1*
X2529336Y2179517D1*
X2531311Y2176293D1*
X2532757Y2172801D1*
X2533640Y2169123D1*
X2533937Y2165346D1*
X2536623Y2162608D1*
X2540483Y2158088D1*
X2543588Y2153021D1*
X2545862Y2147530D1*
X2547251Y2141752D1*
X2547717Y2135827D1*
X2547251Y2129902D1*
X2545862Y2124123D1*
X2544469Y2120542D1*
X3105092Y2120551D1*
X3103744Y2124123D1*
X3102356Y2129902D1*
X3101890Y2135827D1*
X3102356Y2141752D1*
X3103744Y2147530D1*
X3106018Y2153021D1*
X3109123Y2158088D1*
X3112983Y2162608D1*
X3117503Y2166467D1*
X3122570Y2169572D1*
X3128060Y2171846D1*
X3133839Y2173235D1*
X3139764Y2173701D1*
X3145689Y2173235D1*
X3151467Y2171846D1*
X3156958Y2169572D1*
X3162025Y2166467D1*
X3166545Y2162608D1*
X3168959Y2159923D1*
X3189291Y2159921D1*
X3191723Y2162608D1*
X3196243Y2166467D1*
X3201310Y2169572D1*
X3206801Y2171846D1*
X3212579Y2173235D1*
X3218504Y2173701D1*
X3224429Y2173235D1*
X3230207Y2171846D1*
X3235698Y2169572D1*
X3240765Y2166467D1*
X3245285Y2162608D1*
X3249144Y2158088D1*
X3252249Y2153021D1*
X3254524Y2147530D1*
X3255912Y2141752D1*
X3256378Y2135827D1*
X3255912Y2129902D1*
X3254524Y2124123D1*
X3253130Y2120542D1*
X3564883Y2120476D1*
X3568617Y2119886D1*
X3572213Y2118717D1*
X3575581Y2117001D1*
X3578640Y2114778D1*
X3589873Y2103652D1*
X3592328Y2100777D1*
X3594303Y2097552D1*
X3595749Y2094060D1*
X3596633Y2090383D1*
X3596929Y2086606D1*
Y2007559D1*
X3599615Y2005127D1*
X3603475Y2000608D1*
X3606580Y1995541D1*
X3608854Y1990050D1*
X3610243Y1984272D1*
X3610709Y1978346D1*
X3610243Y1972421D1*
X3608854Y1966643D1*
X3606580Y1961152D1*
X3603475Y1956085D1*
X3599615Y1951566D1*
X3595096Y1947706D1*
X3590029Y1944601D1*
X3584538Y1942327D1*
X3578760Y1940938D1*
X3572835Y1940472D1*
X3570432Y1940567D1*
X3569484Y1937115D1*
X3567210Y1931625D1*
X3564105Y1926558D1*
X3560245Y1922038D1*
X3555726Y1918178D1*
X3550659Y1915073D1*
X3545168Y1912799D1*
X3539390Y1911411D1*
X3533465Y1910945D1*
X3527539Y1911411D1*
X3521761Y1912799D1*
X3516270Y1915073D1*
X3511203Y1918178D1*
X3506684Y1922038D1*
X3502824Y1926558D1*
X3499719Y1931625D1*
X3497445Y1937115D1*
X3496521Y1940559D1*
X3491692Y1940567D1*
X3490744Y1937115D1*
X3488470Y1931625D1*
X3485365Y1926558D1*
X3481505Y1922038D1*
X3476986Y1918178D1*
X3471919Y1915073D1*
X3466428Y1912799D1*
X3460650Y1911411D1*
X3454724Y1910945D1*
X3448799Y1911411D1*
X3443021Y1912799D1*
X3437530Y1915073D1*
X3432463Y1918178D1*
X3427944Y1922038D1*
X3424084Y1926558D1*
X3420979Y1931625D1*
X3418705Y1937115D1*
X3417781Y1940559D1*
X3412951Y1940567D1*
X3412004Y1937115D1*
X3409730Y1931625D1*
X3406625Y1926558D1*
X3402765Y1922038D1*
X3400080Y1919623D1*
X3400004Y1897715D1*
X3399781Y1895829D1*
X3401575Y1894173D1*
X3627484D1*
X3627480Y2057387D1*
X3624794Y2059833D1*
X3620934Y2064353D1*
X3617829Y2069420D1*
X3615555Y2074911D1*
X3614167Y2080689D1*
X3613701Y2086614D1*
X3614167Y2092539D1*
X3615555Y2098318D1*
X3617829Y2103808D1*
X3620934Y2108875D1*
X3622776Y2111230D1*
X3619282Y2116038D1*
X3616584Y2121333D1*
X3614747Y2126986D1*
X3613818Y2132856D1*
Y2138798D1*
X3614747Y2144668D1*
X3616584Y2150320D1*
X3619282Y2155615D1*
X3622776Y2160424D1*
X3626978Y2164626D1*
X3631786Y2168119D1*
X3637081Y2170818D1*
X3642734Y2172655D1*
X3648604Y2173584D1*
X3654546D1*
X3660416Y2172655D1*
X3666068Y2170818D1*
X3671364Y2168119D1*
X3676172Y2164626D1*
X3680374Y2160424D1*
X3680770Y2159923D1*
X3684871Y2159625D1*
X3688549Y2158741D1*
X3692047Y2157291D1*
X3692441Y2157480D1*
X3692299Y2173570D1*
X3688976Y2176693D1*
X2909333D1*
X2906119Y2174084D1*
X2901052Y2170979D1*
X2895562Y2168705D1*
X2889783Y2167316D1*
X2883858Y2166850D1*
X2877933Y2167316D1*
X2872155Y2168705D1*
X2866664Y2170979D1*
X2861597Y2174084D1*
X2857077Y2177944D1*
X2853218Y2182463D1*
X2850113Y2187530D1*
X2847839Y2193021D1*
X2846450Y2198799D1*
X2845984Y2204724D1*
X2846450Y2210650D1*
X2847839Y2216428D1*
X2850113Y2221919D1*
X2853218Y2226986D1*
X2857077Y2231505D1*
X2861597Y2235365D1*
X2866664Y2238470D1*
X2872155Y2240744D1*
X2877933Y2242133D1*
X2883858Y2242598D1*
X2889783Y2242133D1*
X2895562Y2240744D1*
X2901052Y2238470D1*
X2906119Y2235365D1*
X2909283Y2232759D1*
X3702987Y2232669D1*
X3707331Y2231982D1*
X3711514Y2230622D1*
X3715434Y2228625D1*
X3718992Y2226039D1*
X3737312Y2207843D1*
X3741787Y2203244D1*
X3744373Y2199686D1*
X3746370Y2195766D1*
X3747730Y2191583D1*
X3748417Y2187239D1*
X3748504Y2161417D1*
X3748646Y1861864D1*
X3751969Y1858740D1*
X3872178D1*
X3875377Y1861349D1*
X3880444Y1864454D1*
X3885934Y1866728D1*
X3891713Y1868117D1*
X3897638Y1868583D1*
X3903563Y1868117D1*
X3909341Y1866728D1*
X3914832Y1864454D1*
X3919899Y1861349D1*
X3924419Y1857490D1*
X3926833Y1854804D1*
X3968427Y1854728D1*
X3972160Y1854138D1*
X3975756Y1852969D1*
X3979125Y1851252D1*
X3982184Y1849030D1*
X3993415Y1837903D1*
X3995871Y1835029D1*
X3997846Y1831804D1*
X3999293Y1828312D1*
X4000176Y1824635D1*
X4000472Y1820858D1*
Y1520169D1*
X4086537Y1520084D1*
X4090270Y1519492D1*
X4093866Y1518324D1*
X4097235Y1516608D1*
X4100294Y1514385D1*
X4111526Y1503259D1*
X4113982Y1500383D1*
X4115957Y1497159D1*
X4117404Y1493667D1*
X4117919Y1491839D1*
X4118819Y1490630D1*
X4163858D1*
Y1265276D1*
X4155992D1*
X4155909Y1246140D1*
X4155319Y1242407D1*
X4154151Y1238811D1*
X4152434Y1235442D1*
X4150211Y1232383D1*
X4141054Y1223119D1*
X4138178Y1220664D1*
X4134954Y1218689D1*
X4131462Y1217243D1*
X4127785Y1216360D1*
X4124008Y1216063D1*
X4121269Y1213377D1*
X4116749Y1209517D1*
X4111682Y1206412D1*
X4106192Y1204138D1*
X4100413Y1202749D1*
X4094488Y1202283D1*
X4088563Y1202749D1*
X4082785Y1204138D1*
X4077294Y1206412D1*
X4072227Y1209517D1*
X4067707Y1213377D1*
X4063848Y1217896D1*
X4060743Y1222963D1*
X4058469Y1228454D1*
X4057080Y1234232D1*
X4056614Y1240157D1*
X4057080Y1246083D1*
X4058469Y1251861D1*
X4060743Y1257352D1*
X4063848Y1262419D1*
X4066169Y1265276D1*
X4025118D1*
Y1284953D1*
X3937154Y1284961D1*
X3935509Y1283323D1*
X3935512Y1236675D1*
X3959134Y1236693D1*
Y1145197D1*
X3935535D1*
X3935437Y1074881D1*
X3934846Y1071147D1*
X3933677Y1067551D1*
X3931962Y1064182D1*
X3929739Y1061123D1*
X3914676Y1045954D1*
X3911801Y1043499D1*
X3908576Y1041524D1*
X3905084Y1040077D1*
X3901407Y1039194D1*
X3897630Y1038898D1*
X2439054Y1038972D1*
X2437168Y1039196D1*
X2435512Y1037402D1*
Y949303D1*
X2697135Y949291D1*
X2699597Y951978D1*
X2704117Y955837D1*
X2709184Y958942D1*
X2714675Y961217D1*
X2720453Y962605D1*
X2726378Y963071D1*
X2732303Y962605D1*
X2738081Y961217D1*
X2743572Y958942D1*
X2748639Y955837D1*
X2753159Y951978D1*
X2755573Y949293D1*
X3681387Y949291D1*
X3683849Y951978D1*
X3688369Y955837D1*
X3693436Y958942D1*
X3698927Y961217D1*
X3704705Y962605D1*
X3710630Y963071D1*
X3716555Y962605D1*
X3722333Y961217D1*
X3727824Y958942D1*
X3732891Y955837D1*
X3737411Y951978D1*
X3741270Y947458D1*
X3744375Y942391D1*
X3746650Y936900D1*
X3748038Y931122D1*
X3748504Y925197D1*
X3748038Y919272D1*
X3746650Y913493D1*
X3744375Y908003D1*
X3741270Y902936D1*
X3737411Y898416D1*
X3732891Y894556D1*
X3727824Y891451D1*
X3722333Y889177D1*
X3716555Y887789D1*
X3710630Y887323D1*
X3704705Y887789D1*
X3698927Y889177D1*
X3693436Y891451D1*
X3688369Y894556D1*
X3683849Y898416D1*
X3681434Y901101D1*
X2755621Y901102D1*
X2753159Y898416D1*
X2748639Y894556D1*
X2743572Y891451D1*
X2738081Y889177D1*
X2732303Y887789D1*
X2726378Y887323D1*
X2720453Y887789D1*
X2714675Y889177D1*
X2709184Y891451D1*
X2704117Y894556D1*
X2699597Y898416D1*
X2697182Y901101D1*
X2419369Y901177D1*
X2415635Y901768D1*
X2412039Y902936D1*
X2408671Y904652D1*
X2405612Y906875D1*
X2394379Y918001D1*
X2391924Y920877D1*
X2389949Y924101D1*
X2388503Y927593D1*
X2387619Y931270D1*
X2387323Y935039D1*
Y1176681D1*
X2352047Y1176693D1*
X2349615Y1174007D1*
X2345096Y1170147D1*
X2340029Y1167042D1*
X2334538Y1164768D1*
X2328760Y1163379D1*
X2322835Y1162913D1*
X2316909Y1163379D1*
X2311131Y1164768D1*
X2305640Y1167042D1*
X2300573Y1170147D1*
X2296054Y1174007D1*
X2292194Y1178526D1*
X2289089Y1183593D1*
X2286815Y1189084D1*
X2285427Y1194862D1*
X2284961Y1200787D1*
X2285427Y1206713D1*
X2286815Y1212491D1*
X2289089Y1217982D1*
X2292194Y1223049D1*
X2294035Y1225403D1*
X2290542Y1230211D1*
X2287844Y1235507D1*
X2286007Y1241159D1*
X2285077Y1247029D1*
Y1252971D1*
X2286007Y1258841D1*
X2287844Y1264493D1*
X2290542Y1269789D1*
X2294035Y1274615D1*
X2290542Y1279424D1*
X2287844Y1284719D1*
X2286007Y1290371D1*
X2285077Y1296241D1*
Y1302184D1*
X2286007Y1308054D1*
X2287844Y1313706D1*
X2290542Y1319001D1*
X2294035Y1323810D1*
X2298238Y1328012D1*
X2303046Y1331505D1*
X2308341Y1334203D1*
X2313993Y1336041D1*
X2319864Y1336970D1*
X2325806D1*
X2331676Y1336041D1*
X2337328Y1334203D1*
X2342623Y1331505D1*
X2347432Y1328012D1*
X2351634Y1323810D1*
X2352030Y1323308D1*
X2442836Y1323234D1*
X2446570Y1322642D1*
X2450165Y1321474D1*
X2453534Y1319757D1*
X2456593Y1317534D1*
X2467825Y1306408D1*
X2470281Y1303533D1*
X2472256Y1300308D1*
X2473703Y1296816D1*
X2474585Y1293139D1*
X2474882Y1289362D1*
Y1116610D1*
X2520723Y1116614D1*
X2518827Y1119301D1*
X2517110Y1122669D1*
X2515941Y1126265D1*
X2515350Y1129999D1*
X2515276Y1161417D1*
Y1270000D1*
X2512589Y1272432D1*
X2508730Y1276951D1*
X2505625Y1282018D1*
X2503350Y1287509D1*
X2501962Y1293287D1*
X2501496Y1299213D1*
X2501962Y1305138D1*
X2503350Y1310916D1*
X2505625Y1316407D1*
X2508730Y1321474D1*
X2512589Y1325993D1*
X2517109Y1329853D1*
X2522176Y1332958D1*
X2527667Y1335232D1*
X2533445Y1336621D1*
X2539370Y1337087D1*
X2545295Y1336621D1*
X2551073Y1335232D1*
X2556564Y1332958D1*
X2561631Y1329853D1*
X2566151Y1325993D1*
X2570010Y1321474D1*
X2573115Y1316407D1*
X2575390Y1310916D1*
X2576778Y1305138D1*
X2577244Y1299213D1*
X2576778Y1293287D1*
X2575390Y1287509D1*
X2573115Y1282018D1*
X2570010Y1276951D1*
X2566151Y1272432D1*
X2563466Y1270017D1*
X2563465Y1146154D1*
X2756806Y1146142D1*
X2747427Y1155612D1*
X2745203Y1158671D1*
X2743487Y1162039D1*
X2742319Y1165635D1*
X2741728Y1169369D1*
X2741654Y1200787D1*
Y1693228D1*
X2738967Y1695660D1*
X2735108Y1700180D1*
X2732003Y1705247D1*
X2729728Y1710738D1*
X2728340Y1716516D1*
X2727874Y1722441D1*
X2728340Y1728366D1*
X2729728Y1734144D1*
X2732003Y1739635D1*
X2735108Y1744702D1*
X2738967Y1749222D1*
X2743487Y1753081D1*
X2748554Y1756186D1*
X2754045Y1758461D1*
X2759823Y1759849D1*
X2765748Y1760315D1*
X2771673Y1759849D1*
X2777451Y1758461D1*
X2782942Y1756186D1*
X2788009Y1753081D1*
X2790364Y1751240D1*
X2795172Y1754734D1*
X2800467Y1757432D1*
X2806119Y1759269D1*
X2811990Y1760198D1*
X2817932D1*
X2823802Y1759269D1*
X2829454Y1757432D1*
X2834749Y1754734D1*
X2839576Y1751240D1*
X2844385Y1754734D1*
X2849680Y1757432D1*
X2855332Y1759269D1*
X2861202Y1760198D1*
X2867144D1*
X2873014Y1759269D1*
X2878667Y1757432D1*
X2883962Y1754734D1*
X2888770Y1751240D1*
X2892972Y1747038D1*
X2896466Y1742230D1*
X2899164Y1736934D1*
X2901001Y1731282D1*
X2901930Y1725412D1*
Y1719470D1*
X2901001Y1713600D1*
X2899164Y1707948D1*
X2896466Y1702652D1*
X2892972Y1697825D1*
X2893369Y1697324D1*
X3446773Y1697248D1*
X3450507Y1696657D1*
X3454102Y1695488D1*
X3457471Y1693773D1*
X3460530Y1691550D1*
X3463203Y1688877D1*
X3465427Y1685818D1*
X3467142Y1682449D1*
X3468311Y1678853D1*
X3468902Y1675119D1*
X3468976Y1646769D1*
X3474957Y1643566D1*
X3478714Y1641054D1*
X3482264Y1638256D1*
X3485583Y1635189D1*
X3488650Y1631870D1*
X3491448Y1628320D1*
X3494088Y1624332D1*
X3497646Y1629531D1*
X3501474Y1634024D1*
X3505744Y1638101D1*
X3510408Y1641718D1*
X3515419Y1644840D1*
X3520722Y1647430D1*
X3526262Y1649466D1*
X3531983Y1650923D1*
X3537823Y1651785D1*
X3543720Y1652046D1*
X3549613Y1651701D1*
X3555440Y1650755D1*
X3561138Y1649215D1*
X3566650Y1647101D1*
X3571916Y1644434D1*
X3576881Y1641241D1*
X3581492Y1637556D1*
X3585702Y1633420D1*
X3589467Y1628873D1*
X3592745Y1623965D1*
X3595505Y1618745D1*
X3597715Y1613272D1*
X3599353Y1607601D1*
X3600400Y1601791D1*
X3600849Y1595906D1*
X3600672Y1589769D1*
X3599887Y1583919D1*
X3598508Y1578180D1*
X3596547Y1572612D1*
X3594026Y1567274D1*
X3590972Y1562222D1*
X3587417Y1557510D1*
X3583398Y1553186D1*
X3578957Y1549298D1*
X3574140Y1545885D1*
X3569001Y1542982D1*
X3563591Y1540622D1*
X3557967Y1538827D1*
X3552189Y1537618D1*
X3546318Y1537008D1*
X3540415Y1537001D1*
X3534542Y1537600D1*
X3528762Y1538797D1*
X3523135Y1540580D1*
X3517719Y1542929D1*
X3512573Y1545822D1*
X3507751Y1549224D1*
X3503302Y1553105D1*
X3499273Y1557420D1*
X3495709Y1562125D1*
X3494097Y1564636D1*
X3491448Y1560656D1*
X3488650Y1557106D1*
X3485583Y1553787D1*
X3482264Y1550720D1*
X3478714Y1547923D1*
X3474957Y1545411D1*
X3471013Y1543202D1*
X3466908Y1541311D1*
X3462668Y1539747D1*
X3458319Y1538520D1*
X3453886Y1537638D1*
X3449398Y1537106D1*
X3444882Y1536929D1*
X3440366Y1537106D1*
X3435878Y1537638D1*
X3431445Y1538520D1*
X3427096Y1539747D1*
X3422856Y1541311D1*
X3418751Y1543202D1*
X3414807Y1545411D1*
X3411050Y1547923D1*
X3407500Y1550720D1*
X3404181Y1553787D1*
X3401114Y1557106D1*
X3398316Y1560656D1*
X3395676Y1564644D1*
X3393022Y1560656D1*
X3390224Y1557106D1*
X3387157Y1553787D1*
X3383839Y1550720D1*
X3380289Y1547923D1*
X3376531Y1545411D1*
X3372588Y1543202D1*
X3368483Y1541311D1*
X3364243Y1539747D1*
X3359894Y1538520D1*
X3355461Y1537638D1*
X3350972Y1537106D1*
X3346457Y1536929D1*
X3341941Y1537106D1*
X3337453Y1537638D1*
X3333020Y1538520D1*
X3328671Y1539747D1*
X3324430Y1541311D1*
X3320325Y1543202D1*
X3316382Y1545411D1*
X3312625Y1547923D1*
X3309075Y1550720D1*
X3305756Y1553787D1*
X3302689Y1557106D1*
X3299891Y1560656D1*
X3297251Y1564644D1*
X3294597Y1560656D1*
X3291799Y1557106D1*
X3288732Y1553787D1*
X3285413Y1550720D1*
X3281864Y1547923D1*
X3278106Y1545411D1*
X3272126Y1542264D1*
Y1490612D1*
X3612505Y1490630D1*
X3614951Y1493316D1*
X3619471Y1497176D1*
X3624538Y1500281D1*
X3630029Y1502555D1*
X3635807Y1503944D1*
X3641732Y1504409D1*
X3647657Y1503944D1*
X3653436Y1502555D1*
X3658927Y1500281D1*
X3663993Y1497176D1*
X3668513Y1493316D1*
X3672373Y1488797D1*
X3675478Y1483730D1*
X3677752Y1478239D1*
X3679140Y1472461D1*
X3679606Y1466535D1*
X3679140Y1460610D1*
X3677752Y1454832D1*
X3675478Y1449341D1*
X3672373Y1444274D1*
X3668513Y1439755D1*
X3663993Y1435895D1*
X3658927Y1432790D1*
X3653436Y1430516D1*
X3647657Y1429127D1*
X3641732Y1428661D1*
X3635807Y1429127D1*
X3630029Y1430516D1*
X3624538Y1432790D1*
X3619471Y1435895D1*
X3614951Y1439755D1*
X3612537Y1442440D1*
X3255983Y1442516D1*
X3252249Y1443106D1*
X3248654Y1444276D1*
X3245285Y1445992D1*
X3242226Y1448214D1*
X3230993Y1459340D1*
X3228538Y1462215D1*
X3226563Y1465440D1*
X3225117Y1468932D1*
X3224234Y1472609D1*
X3223937Y1476378D1*
Y1542192D1*
X3217957Y1545411D1*
X3214199Y1547923D1*
X3210650Y1550720D1*
X3207331Y1553787D1*
X3204264Y1557106D1*
X3201466Y1560656D1*
X3198954Y1564413D1*
X3196745Y1568357D1*
X3194854Y1572462D1*
X3193290Y1576702D1*
X3192063Y1581051D1*
X3191181Y1585484D1*
X3190650Y1589972D1*
X3190472Y1594488D1*
X3190650Y1599004D1*
X3191181Y1603492D1*
X3192063Y1607925D1*
X3193290Y1612274D1*
X3194854Y1616514D1*
X3196745Y1620619D1*
X3198954Y1624563D1*
X3202350Y1629444D1*
X2933186Y1629449D1*
X2909349Y1605694D1*
X2906290Y1603471D1*
X2902921Y1601755D1*
X2899325Y1600587D1*
X2895592Y1599996D1*
X2893400Y1599921D1*
X2892972Y1599400D1*
X2893369Y1598899D1*
X2897470Y1598601D1*
X2901147Y1597718D1*
X2904639Y1596272D1*
X2907864Y1594297D1*
X2910743Y1591835D1*
X2921865Y1580609D1*
X2924087Y1577550D1*
X2925803Y1574181D1*
X2926972Y1570585D1*
X2927563Y1566852D1*
X2927638Y1535433D1*
Y1431556D1*
X3240080Y1431500D1*
X3243814Y1430909D1*
X3247409Y1429740D1*
X3250778Y1428024D1*
X3253837Y1425802D1*
X3267867Y1411877D1*
X3740442Y1411890D1*
X3742904Y1414576D1*
X3747424Y1418436D1*
X3752491Y1421541D1*
X3757982Y1423815D1*
X3763760Y1425203D1*
X3769685Y1425669D1*
X3775610Y1425203D1*
X3781388Y1423815D1*
X3786879Y1421541D1*
X3791946Y1418436D1*
X3796466Y1414576D1*
X3800325Y1410056D1*
X3803430Y1404990D1*
X3804117Y1403503D1*
X3806290Y1407584D1*
X3809783Y1412392D1*
X3813986Y1416594D1*
X3818794Y1420088D1*
X3824089Y1422786D1*
X3829741Y1424623D1*
X3835612Y1425552D1*
X3841554D1*
X3847424Y1424623D1*
X3853076Y1422786D1*
X3858371Y1420088D1*
X3863180Y1416594D1*
X3867382Y1412392D1*
X3870875Y1407584D1*
X3873573Y1402289D1*
X3875411Y1396636D1*
X3876340Y1390766D1*
Y1384824D1*
X3875411Y1378954D1*
X3873573Y1373302D1*
X3870875Y1368007D1*
X3867382Y1363198D1*
X3863180Y1358996D1*
X3862678Y1358600D1*
X3862381Y1354499D1*
X3861497Y1350822D1*
X3860051Y1347329D1*
X3858076Y1344105D1*
X3855621Y1341230D1*
X3844388Y1330104D1*
X3841329Y1327881D1*
X3837961Y1326164D1*
X3834365Y1324996D1*
X3830631Y1324406D1*
X3799213Y1324331D1*
X3255983Y1324406D1*
X3252249Y1324996D1*
X3248654Y1326164D1*
X3245285Y1327881D1*
X3242226Y1330104D1*
X3232762Y1339462D1*
X3232756Y1131575D1*
X3235442Y1129143D1*
X3239302Y1124623D1*
X3242407Y1119556D1*
X3244681Y1114066D1*
X3246070Y1108287D1*
X3246535Y1102362D1*
X3246070Y1096437D1*
X3244681Y1090659D1*
X3243287Y1087077D1*
X3887311Y1087087D1*
X3887323Y1145215D1*
X3863701Y1145197D1*
Y1236693D1*
X3887299D1*
X3887396Y1295198D1*
X3887988Y1298932D1*
X3889156Y1302528D1*
X3890873Y1305896D1*
X3893096Y1308955D1*
X3910127Y1326093D1*
X3913003Y1328549D1*
X3916227Y1330524D1*
X3919719Y1331971D1*
X3923396Y1332853D1*
X3927173Y1333150D1*
X4025136D1*
X4025118Y1422748D1*
X3935117Y1422831D1*
X3931383Y1423421D1*
X3927787Y1424591D1*
X3924419Y1426306D1*
X3921360Y1428529D1*
X3904222Y1445560D1*
X3901766Y1448436D1*
X3899791Y1451660D1*
X3898345Y1455152D1*
X3897462Y1458829D1*
X3897165Y1462606D1*
Y1519231D1*
X3873543Y1519213D1*
Y1610709D1*
X3897143D1*
X3897165Y1737720D1*
X3698896Y1737791D1*
X3695163Y1738382D1*
X3691567Y1739551D1*
X3688198Y1741268D1*
X3685139Y1743490D1*
X3673908Y1754617D1*
X3671451Y1757491D1*
X3669476Y1760715D1*
X3668030Y1764207D1*
X3667147Y1767885D1*
X3666850Y1771661D1*
Y1806602D1*
X2681571Y1806614D1*
X2681501Y1533542D1*
X2680909Y1529808D1*
X2679741Y1526213D1*
X2678025Y1522844D1*
X2675802Y1519785D1*
X2664676Y1508552D1*
X2661801Y1506097D1*
X2658576Y1504122D1*
X2655084Y1502675D1*
X2651407Y1501793D1*
X2647630Y1501496D1*
X2504406D1*
X2504335Y1435117D1*
X2504112Y1433231D1*
X2505906Y1431575D1*
X2632667D1*
X2631303Y1435147D1*
X2629915Y1440925D1*
X2629449Y1446850D1*
X2629915Y1452776D1*
X2631303Y1458554D1*
X2633577Y1464045D1*
X2636682Y1469112D1*
X2640542Y1473631D1*
X2645062Y1477491D1*
X2650129Y1480596D1*
X2655619Y1482870D1*
X2661398Y1484259D1*
X2667323Y1484724D1*
X2673248Y1484259D1*
X2679026Y1482870D1*
X2684517Y1480596D1*
X2689584Y1477491D1*
X2694104Y1473631D1*
X2697963Y1469112D1*
X2701068Y1464045D1*
X2703343Y1458554D1*
X2704731Y1452776D1*
X2705197Y1446850D1*
X2704731Y1440925D1*
X2703343Y1435147D1*
X2701068Y1429656D1*
X2697963Y1424589D1*
X2694104Y1420070D1*
X2691419Y1417655D1*
X2691121Y1413554D1*
X2690238Y1409877D1*
X2688791Y1406385D1*
X2686816Y1403160D1*
X2684361Y1400285D1*
X2673129Y1389159D1*
X2670070Y1386936D1*
X2666701Y1385220D1*
X2663105Y1384051D1*
X2659371Y1383461D1*
X2627953Y1383386D1*
X2248500D1*
X2248504Y1111890D1*
X2251190Y1109458D1*
X2255050Y1104938D1*
X2258155Y1099871D1*
X2260429Y1094381D1*
X2261818Y1088602D1*
X2262283Y1082677D1*
X2261818Y1076752D1*
X2260429Y1070974D1*
X2258155Y1065483D1*
X2255050Y1060416D1*
X2251190Y1055896D1*
X2246671Y1052037D1*
X2241604Y1048932D1*
X2236113Y1046657D1*
X2230335Y1045269D1*
X2224409Y1044803D1*
X2218484Y1045269D1*
X2212706Y1046657D1*
X2207215Y1048932D1*
X2202148Y1052037D1*
X2197629Y1055896D1*
X2193769Y1060416D1*
X2190664Y1065483D1*
X2188390Y1070974D1*
X2187001Y1076752D1*
X2186535Y1082677D1*
X2187001Y1088602D1*
X2188390Y1094381D1*
X2190664Y1099871D1*
X2193769Y1104938D1*
X2197629Y1109458D1*
X2200314Y1111873D1*
X2200390Y1399529D1*
X2200980Y1403262D1*
X2202150Y1406858D1*
X2203865Y1410227D1*
X2206088Y1413286D1*
X2207378Y1414680D1*
X2208864Y1418479D1*
X2206088Y1421360D1*
X2203865Y1424419D1*
X2202148Y1427787D1*
X2200980Y1431383D1*
X2200390Y1435117D1*
X2200315Y1466535D1*
Y1555419D1*
X2197629Y1557865D1*
X2193769Y1562385D1*
X2190664Y1567451D1*
X2188390Y1572942D1*
X2187001Y1578720D1*
X2186535Y1584646D1*
X2187001Y1590571D1*
X2188390Y1596349D1*
X2189783Y1599930D1*
X1776782Y1599921D1*
X1778146Y1596349D1*
X1779534Y1590571D1*
X1780000Y1584646D1*
X1779534Y1578720D1*
X1778146Y1572942D1*
X1775871Y1567451D1*
X1772766Y1562385D1*
X1770445Y1559528D1*
X2116442D1*
X2118888Y1562214D1*
X2123408Y1566073D1*
X2128475Y1569178D1*
X2133966Y1571453D1*
X2139744Y1572841D1*
X2145669Y1573307D1*
X2151594Y1572841D1*
X2157373Y1571453D1*
X2162864Y1569178D1*
X2167930Y1566073D1*
X2172450Y1562214D1*
X2176310Y1557694D1*
X2179415Y1552627D1*
X2181689Y1547136D1*
X2183077Y1541358D1*
X2183543Y1535433D1*
X2183077Y1529508D1*
X2181689Y1523730D1*
X2179415Y1518239D1*
X2176310Y1513172D1*
X2174469Y1510818D1*
X2177962Y1506009D1*
X2180660Y1500714D1*
X2182497Y1495062D1*
X2183427Y1489192D1*
Y1483249D1*
X2182497Y1477379D1*
X2180660Y1471727D1*
X2177962Y1466432D1*
X2174469Y1461623D1*
X2170266Y1457421D1*
X2165458Y1453928D1*
X2160163Y1451230D1*
X2154510Y1449392D1*
X2148640Y1448463D1*
X2142698D1*
X2136828Y1449392D1*
X2131176Y1451230D1*
X2125881Y1453928D1*
X2121072Y1457421D1*
X2116870Y1461623D1*
X2116474Y1462125D1*
X1554818Y1462126D1*
X1552371Y1459440D1*
X1547852Y1455580D1*
X1542785Y1452475D1*
X1537294Y1450201D1*
X1531516Y1448812D1*
X1525591Y1448346D1*
X1519665Y1448812D1*
X1513887Y1450201D1*
X1508396Y1452475D1*
X1503329Y1455580D1*
X1500975Y1457421D1*
X1496167Y1453928D1*
X1490871Y1451230D1*
X1485219Y1449392D1*
X1479349Y1448463D1*
X1473407D1*
X1467537Y1449392D1*
X1461885Y1451230D1*
X1461093Y1451594D1*
X1461102Y1367764D1*
X1467083Y1364550D1*
X1470840Y1362038D1*
X1474390Y1359240D1*
X1477709Y1356173D1*
X1480776Y1352854D1*
X1483573Y1349304D1*
X1486085Y1345547D1*
X1489232Y1339567D1*
X1511222Y1339493D1*
X1514955Y1338902D1*
X1518551Y1337734D1*
X1521920Y1336017D1*
X1524979Y1333794D1*
X1535584Y1323294D1*
X1555419Y1323307D1*
X1557865Y1325993D1*
X1562385Y1329853D1*
X1567451Y1332958D1*
X1572942Y1335232D1*
X1578720Y1336621D1*
X1584646Y1337087D1*
X1590571Y1336621D1*
X1596349Y1335232D1*
X1601840Y1332958D1*
X1606907Y1329853D1*
X1611427Y1325993D1*
X1615286Y1321474D1*
X1618391Y1316407D1*
X1620665Y1310916D1*
X1622054Y1305138D1*
X1622520Y1299213D1*
X1622054Y1293287D1*
X1620665Y1287509D1*
X1618391Y1282018D1*
X1615286Y1276951D1*
X1611427Y1272432D1*
X1606907Y1268572D1*
X1601840Y1265467D1*
X1596349Y1263193D1*
X1590571Y1261804D1*
X1584646Y1261339D1*
X1578720Y1261804D1*
X1572942Y1263193D1*
X1567451Y1265467D1*
X1562385Y1268572D1*
X1557865Y1272432D1*
X1555450Y1275117D1*
X1523699Y1275192D1*
X1519966Y1275783D1*
X1516370Y1276951D1*
X1513001Y1278668D1*
X1509942Y1280891D1*
X1499337Y1291391D1*
X1489285Y1291378D1*
X1486085Y1285398D1*
X1483573Y1281640D1*
X1480776Y1278091D1*
X1477709Y1274772D1*
X1474390Y1271705D1*
X1470840Y1268907D1*
X1467083Y1266395D1*
X1463139Y1264186D1*
X1459034Y1262295D1*
X1454794Y1260731D1*
X1450445Y1259504D1*
X1446012Y1258622D1*
X1441524Y1258091D1*
X1437008Y1257913D1*
X1432492Y1258091D1*
X1428004Y1258622D1*
X1423571Y1259504D1*
X1419222Y1260731D1*
X1414982Y1262295D1*
X1410877Y1264186D1*
X1406933Y1266395D1*
X1402052Y1269791D1*
X1402047Y1171176D1*
X1406933Y1174550D1*
X1410877Y1176759D1*
X1414982Y1178650D1*
X1419222Y1180214D1*
X1423571Y1181441D1*
X1428004Y1182323D1*
X1432492Y1182854D1*
X1437008Y1183031D1*
X1441524Y1182854D1*
X1446012Y1182323D1*
X1450445Y1181441D1*
X1454794Y1180214D1*
X1459034Y1178650D1*
X1463139Y1176759D1*
X1467083Y1174550D1*
X1470840Y1172038D1*
X1474390Y1169240D1*
X1477709Y1166173D1*
X1480776Y1162854D1*
X1483573Y1159304D1*
X1486085Y1155547D1*
X1489232Y1149567D1*
X1499362D1*
X1509942Y1160054D1*
X1513001Y1162277D1*
X1516370Y1163992D1*
X1519966Y1165161D1*
X1523699Y1165752D1*
X1555419Y1165827D1*
X1557865Y1168513D1*
X1562385Y1172373D1*
X1567451Y1175478D1*
X1572942Y1177752D1*
X1578720Y1179140D1*
X1584646Y1179606D1*
X1590571Y1179140D1*
X1596349Y1177752D1*
X1601840Y1175478D1*
X1606907Y1172373D1*
X1611427Y1168513D1*
X1615286Y1163993D1*
X1618391Y1158927D1*
X1620665Y1153436D1*
X1622054Y1147657D1*
X1622520Y1141732D1*
X1622054Y1135807D1*
X1620665Y1130029D1*
X1618391Y1124538D1*
X1615286Y1119471D1*
X1611427Y1114951D1*
X1606907Y1111092D1*
X1601840Y1107987D1*
X1596349Y1105713D1*
X1590571Y1104324D1*
X1584646Y1103858D1*
X1578720Y1104324D1*
X1572942Y1105713D1*
X1567451Y1107987D1*
X1562385Y1111092D1*
X1557865Y1114951D1*
X1555450Y1117636D1*
X1535579Y1117638D1*
X1524979Y1107151D1*
X1521920Y1104928D1*
X1518551Y1103213D1*
X1514955Y1102043D1*
X1511222Y1101453D1*
X1489285Y1101378D1*
X1486085Y1095398D1*
X1483573Y1091640D1*
X1480776Y1088091D1*
X1477709Y1084772D1*
X1474390Y1081705D1*
X1470840Y1078907D1*
X1467083Y1076395D1*
X1463139Y1074186D1*
X1459034Y1072295D1*
X1454794Y1070731D1*
X1450445Y1069504D1*
X1446012Y1068622D1*
X1441524Y1068091D1*
X1437008Y1067913D1*
X1432492Y1068091D1*
X1428004Y1068622D1*
X1423571Y1069504D1*
X1419222Y1070731D1*
X1414982Y1072295D1*
X1410877Y1074186D1*
X1406933Y1076395D1*
X1403176Y1078907D1*
X1399626Y1081705D1*
X1396307Y1084772D1*
X1393240Y1088091D1*
X1390442Y1091640D1*
X1387930Y1095398D1*
X1384533Y1101923D1*
X1380465Y1103213D1*
X1377096Y1104929D1*
X1374037Y1107151D1*
X1372643Y1108441D1*
X1372520Y1094488D1*
Y974094D1*
X1375206Y971663D1*
X1379066Y967143D1*
X1382171Y962076D1*
X1384445Y956585D1*
X1385833Y950807D1*
X1386299Y944882D1*
X1385833Y938957D1*
X1384445Y933178D1*
X1382171Y927688D1*
X1379066Y922621D1*
X1375206Y918101D1*
X1370686Y914241D1*
X1365619Y911136D1*
X1360129Y908862D1*
X1354350Y907474D1*
X1348425Y907008D1*
X1342500Y907474D1*
X1336722Y908862D1*
X1331231Y911136D1*
X1326164Y914241D1*
X1321644Y918101D1*
X1317785Y922621D1*
X1314680Y927688D1*
X1312406Y933178D1*
X1311017Y938957D1*
X1310551Y944882D1*
X1311017Y950807D1*
X1312406Y956585D1*
X1314680Y962076D1*
X1317785Y967143D1*
X1321644Y971663D1*
X1324329Y974077D1*
X1324406Y1616064D1*
X1324996Y1619798D1*
X1326165Y1623394D1*
X1327881Y1626762D1*
X1330104Y1629822D1*
X1341230Y1641054D1*
X1344105Y1643509D1*
X1347329Y1645484D1*
X1350822Y1646930D1*
X1354499Y1647814D1*
X1358276Y1648110D1*
X1639909D1*
X1639366Y1651652D1*
X1639291Y1683071D1*
Y1693198D1*
X1636605Y1695660D1*
X1632745Y1700180D1*
X1629640Y1705247D1*
X1627366Y1710738D1*
X1625978Y1716516D1*
X1625512Y1722441D1*
X1625978Y1728366D1*
X1627366Y1734144D1*
X1628760Y1737726D1*
X1338282Y1737717D1*
X1335836Y1735030D1*
X1331316Y1731171D1*
X1326249Y1728066D1*
X1320759Y1725791D1*
X1314980Y1724403D1*
X1309055Y1723937D1*
X1303130Y1724403D1*
X1297352Y1725791D1*
X1291861Y1728066D1*
X1286794Y1731171D1*
X1282274Y1735030D1*
X1278415Y1739550D1*
X1275310Y1744617D1*
X1273035Y1750108D1*
X1271647Y1755886D1*
X1271181Y1761811D1*
X1271647Y1767736D1*
X1273035Y1773514D1*
X1275310Y1779005D1*
X1278415Y1784072D1*
X1280736Y1786929D1*
X1220172D1*
X1217726Y1784243D1*
X1213206Y1780383D1*
X1208139Y1777278D1*
X1202648Y1775004D1*
X1196870Y1773615D1*
X1190945Y1773150D1*
X1185020Y1773615D1*
X1179241Y1775004D1*
X1173751Y1777278D1*
X1168684Y1780383D1*
X1164164Y1784243D1*
X1160304Y1788762D1*
X1157199Y1793829D1*
X1154925Y1799320D1*
X1153537Y1805098D1*
X1153071Y1811024D1*
X1153537Y1816949D1*
X1154925Y1822727D1*
X1157199Y1828218D1*
X1160304Y1833285D1*
X1164164Y1837804D1*
X1168684Y1841664D1*
X1173751Y1844769D1*
X1179241Y1847043D1*
X1185020Y1848432D1*
X1190945Y1848898D1*
X1194228Y1848744D1*
X1192907Y1854311D1*
X1192441Y1860236D1*
X1192907Y1866161D1*
X1194295Y1871940D1*
X1196570Y1877430D1*
X1199675Y1882497D1*
X1203534Y1887017D1*
X1208054Y1890877D1*
X1213121Y1893982D1*
X1218612Y1896256D1*
X1224390Y1897644D1*
X1230315Y1898110D1*
X1233598Y1897957D1*
X1232277Y1903524D1*
X1231811Y1909449D1*
X1232277Y1915374D1*
X1233665Y1921152D1*
X1235940Y1926643D1*
X1239045Y1931710D1*
X1242904Y1936230D1*
X1247424Y1940089D1*
X1252491Y1943194D1*
X1257982Y1945469D1*
X1263760Y1946857D1*
X1269685Y1947323D1*
X1272969Y1947169D1*
X1271647Y1952736D1*
X1271181Y1958661D1*
X1271647Y1964587D1*
X1273035Y1970365D1*
X1275310Y1975856D1*
X1278415Y1980923D1*
X1282274Y1985442D1*
X1286794Y1989302D1*
X1291861Y1992407D1*
X1297352Y1994681D1*
X1303130Y1996070D1*
X1309055Y1996535D1*
X1314980Y1996070D1*
X1320759Y1994681D1*
X1326249Y1992407D1*
X1331316Y1989302D1*
X1335836Y1985442D1*
X1338251Y1982757D1*
X1752269Y1982756D1*
X1754715Y1985442D1*
X1759235Y1989302D1*
X1764302Y1992407D1*
X1769793Y1994681D1*
X1775571Y1996070D1*
X1781496Y1996535D1*
X1787421Y1996070D1*
X1793199Y1994681D1*
X1796781Y1993287D1*
X1796846Y2049135D1*
X1797437Y2052869D1*
X1798606Y2056465D1*
X1800323Y2059833D1*
X1802545Y2062892D1*
X1811936Y2072388D1*
X1810723Y2072362D1*
X1808277Y2069676D1*
X1803757Y2065816D1*
X1798690Y2062711D1*
X1793199Y2060437D1*
X1787421Y2059049D1*
X1781496Y2058583D1*
X1775571Y2059049D1*
X1769793Y2060437D1*
X1764302Y2062711D1*
X1759235Y2065816D1*
X1754715Y2069676D1*
X1750856Y2074196D1*
X1747751Y2079262D1*
X1745476Y2084753D1*
X1744088Y2090531D1*
X1743622Y2096457D1*
X1744088Y2102382D1*
X1745476Y2108160D1*
X1747751Y2113651D1*
X1750856Y2118718D1*
X1754715Y2123238D1*
X1757802Y2125969D1*
X1754715Y2128731D1*
X1750856Y2133251D1*
X1748255Y2137415D1*
X1728247Y2117505D1*
X1725188Y2115282D1*
X1721819Y2113566D1*
X1718223Y2112398D1*
X1714490Y2111807D1*
X1683071Y2111732D1*
X1461822D1*
X1463185Y2108160D1*
X1464573Y2102382D1*
X1465039Y2096457D1*
X1464573Y2090531D1*
X1463185Y2084753D1*
X1460911Y2079262D1*
X1457806Y2074196D1*
X1453946Y2069676D1*
X1449427Y2065816D1*
X1444360Y2062711D1*
X1438869Y2060437D1*
X1433091Y2059049D1*
X1427165Y2058583D1*
X1421240Y2059049D1*
X1415462Y2060437D1*
X1409971Y2062711D1*
X1404904Y2065816D1*
X1400385Y2069676D1*
X1397970Y2072361D1*
X1377638Y2072362D1*
X1375206Y2069676D1*
X1370686Y2065816D1*
X1365619Y2062711D1*
X1360129Y2060437D1*
X1354350Y2059049D1*
X1348425Y2058583D1*
X1342500Y2059049D1*
X1336722Y2060437D1*
X1331231Y2062711D1*
X1326164Y2065816D1*
X1321644Y2069676D1*
X1317785Y2074196D1*
X1314680Y2079262D1*
X1312406Y2084753D1*
X1311017Y2090531D1*
X1310551Y2096457D1*
X1311017Y2102382D1*
X1312406Y2108160D1*
X1313799Y2111741D1*
X1220618Y2111732D1*
X1186908Y2078135D1*
X1183849Y2075912D1*
X1180480Y2074196D1*
X1176885Y2073028D1*
X1173151Y2072437D1*
X1141732Y2072362D1*
X1102077D1*
X1099615Y2069676D1*
X1095096Y2065816D1*
X1090029Y2062711D1*
X1084538Y2060437D1*
X1078760Y2059049D1*
X1072835Y2058583D1*
X1066909Y2059049D1*
X1061131Y2060437D1*
X1055640Y2062711D1*
X1050573Y2065816D1*
X1046054Y2069676D1*
X1042194Y2074196D1*
X1039089Y2079262D1*
X1036815Y2084753D1*
X1035427Y2090531D1*
X1034961Y2096457D1*
X1035427Y2102382D1*
X1036815Y2108160D1*
X1039089Y2113651D1*
X1042194Y2118718D1*
X1046054Y2123238D1*
X1050573Y2127097D1*
X1055640Y2130202D1*
X1061131Y2132476D1*
X1066909Y2133865D1*
X1072835Y2134331D1*
X1076118Y2134177D1*
X1074797Y2139744D1*
X1074331Y2145669D1*
X1074797Y2151594D1*
X1076185Y2157373D1*
X1078459Y2162864D1*
X1081564Y2167930D1*
X1085424Y2172450D1*
X1089944Y2176310D1*
X1095010Y2179415D1*
X1100501Y2181689D1*
X1106280Y2183077D1*
X1112205Y2183543D1*
X1115488Y2183390D1*
X1114167Y2188957D1*
X1113701Y2194882D1*
X1114167Y2200807D1*
X1115555Y2206585D1*
X1117829Y2212076D1*
X1120934Y2217143D1*
X1124794Y2221663D1*
X1129314Y2225522D1*
X1134381Y2228627D1*
X1139664Y2230825D1*
X1027428Y2230827D1*
X1027047Y2226378D1*
X1026946Y1916706D1*
X1026136Y1911598D1*
X1024539Y1906681D1*
X1022192Y1902073D1*
X1019152Y1897890D1*
X1004869Y1883463D1*
X995811Y1874549D1*
X991627Y1871509D1*
X987020Y1869161D1*
X982102Y1867564D1*
X976995Y1866755D1*
X956693Y1866654D1*
X863289D1*
X864923Y1863891D1*
X866369Y1860399D1*
X867252Y1856722D1*
X867549Y1852945D1*
Y1389531D1*
X1208001Y1389547D1*
X1210424Y1392234D1*
X1214944Y1396093D1*
X1220010Y1399198D1*
X1225501Y1401472D1*
X1231280Y1402861D1*
X1237205Y1403327D1*
X1243130Y1402861D1*
X1248908Y1401472D1*
X1254399Y1399198D1*
X1259466Y1396093D1*
X1263986Y1392234D1*
X1267845Y1387714D1*
X1270950Y1382647D1*
X1273224Y1377156D1*
X1274613Y1371378D1*
X1275079Y1365453D1*
X1274613Y1359528D1*
X1273224Y1353749D1*
X1270950Y1348259D1*
X1267845Y1343192D1*
X1263986Y1338672D1*
X1259466Y1334812D1*
X1254399Y1331707D1*
X1248908Y1329433D1*
X1245671Y1328550D1*
X1248636Y1325491D1*
X1250860Y1322432D1*
X1252576Y1319063D1*
X1253744Y1315467D1*
X1254336Y1311734D1*
X1254409Y1280315D1*
Y801668D1*
X2101877Y801654D1*
X2101890Y1053434D1*
X2099203Y1055896D1*
X2095344Y1060416D1*
X2092239Y1065483D1*
X2089965Y1070974D1*
X2088576Y1076752D1*
X2088110Y1082677D1*
X2088576Y1088602D1*
X2089965Y1094381D1*
X2092239Y1099871D1*
X2095344Y1104938D1*
X2099203Y1109458D1*
X2103723Y1113318D1*
X2108790Y1116423D1*
X2114281Y1118697D1*
X2120059Y1120085D1*
X2125984Y1120551D1*
X2131909Y1120085D1*
X2137688Y1118697D1*
X2143178Y1116423D1*
X2148245Y1113318D1*
X2152765Y1109458D1*
X2156625Y1104938D1*
X2159730Y1099871D1*
X2162004Y1094381D1*
X2163392Y1088602D1*
X2163858Y1082677D1*
X2163392Y1076752D1*
X2162004Y1070974D1*
X2159730Y1065483D1*
X2156625Y1060416D1*
X2152765Y1055896D1*
X2150080Y1053482D1*
X2150004Y775668D1*
X2149413Y771934D1*
X2148245Y768339D1*
X2146529Y764970D1*
X2144306Y761911D1*
X2141633Y759238D1*
X2138573Y757014D1*
X2135205Y755298D1*
X2131609Y754130D1*
X2127875Y753539D1*
X2096457Y753465D1*
X1569643D1*
X1576433Y746551D1*
X1579018Y742993D1*
X1581016Y739073D1*
X1582375Y734890D1*
X1583063Y730546D1*
X1583150Y704724D1*
X1583291Y582336D1*
X1586614Y579213D1*
X3269201D1*
X3269213Y608740D1*
X3275118D1*
X3384154Y802571D2*
X3383622Y798083D1*
X3382740Y793650D1*
X3381513Y789301D1*
X3379949Y785060D1*
X3378058Y780955D1*
X3375849Y777012D1*
X3373337Y773255D1*
X3370539Y769705D1*
X3367472Y766386D1*
X3364154Y763319D1*
X3360604Y760521D1*
X3356846Y758009D1*
X3352903Y755801D1*
X3348798Y753909D1*
X3344558Y752345D1*
X3340209Y751118D1*
X3335776Y750236D1*
X3331287Y749705D1*
X3326772Y749528D1*
X3322256Y749705D1*
X3317768Y750236D1*
X3313335Y751118D1*
X3308986Y752345D1*
X3304745Y753909D1*
X3300640Y755801D1*
X3296697Y758009D1*
X3292940Y760521D1*
X3289390Y763319D1*
X3286071Y766386D1*
X3283004Y769705D1*
X3280206Y773255D1*
X3277694Y777012D1*
X3275486Y780955D1*
X3273594Y785060D1*
X3272030Y789301D1*
X3270803Y793650D1*
X3269921Y798083D1*
X3269390Y802571D1*
X3269213Y807087D1*
X3269390Y811602D1*
X3269921Y816091D1*
X3270803Y820524D1*
X3272030Y824873D1*
X3273594Y829113D1*
X3275486Y833218D1*
X3277694Y837161D1*
X3280206Y840919D1*
X3283004Y844469D1*
X3286071Y847787D1*
X3289390Y850854D1*
X3292940Y853652D1*
X3296697Y856164D1*
X3300640Y858373D1*
X3304745Y860264D1*
X3308986Y861828D1*
X3313335Y863055D1*
X3317768Y863937D1*
X3322256Y864469D1*
X3326772Y864646D1*
X3331287Y864469D1*
X3335776Y863937D1*
X3340209Y863055D1*
X3344558Y861828D1*
X3348798Y860264D1*
X3352903Y858373D1*
X3356846Y856164D1*
X3360604Y853652D1*
X3364154Y850854D1*
X3367472Y847787D1*
X3370539Y844469D1*
X3373337Y840919D1*
X3375849Y837161D1*
X3378058Y833218D1*
X3379949Y829113D1*
X3381513Y824873D1*
X3382740Y820524D1*
X3383622Y816091D1*
X3384154Y811602D1*
X3384331Y807087D1*
X3384154Y802571D1*
X599486Y1471732D2*
X625521D1*
Y1384173D1*
X561584D1*
X561518Y1457898D1*
X555626Y1458255D1*
X549802Y1459213D1*
X544106Y1460764D1*
X538600Y1462888D1*
X533339Y1465567D1*
X528381Y1468770D1*
X523776Y1472463D1*
X519575Y1476610D1*
X515819Y1481164D1*
X512550Y1486080D1*
X509802Y1491304D1*
X507604Y1496782D1*
X505978Y1502457D1*
X504941Y1508268D1*
X504505Y1514155D1*
X504675Y1520055D1*
X505448Y1525907D1*
X506816Y1531650D1*
X508765Y1537222D1*
X511276Y1542564D1*
X514319Y1547622D1*
X517864Y1552341D1*
X521874Y1556673D1*
X526307Y1560571D1*
X531115Y1563995D1*
X536251Y1566907D1*
X541656Y1569280D1*
X547276Y1571085D1*
X553051Y1572306D1*
X558921Y1572928D1*
X564824Y1572946D1*
X570698Y1572360D1*
X576480Y1571175D1*
X582112Y1569404D1*
X587531Y1567066D1*
X592684Y1564184D1*
X597513Y1560790D1*
X601970Y1556920D1*
X606007Y1552613D1*
X609581Y1547916D1*
X612656Y1542877D1*
X615199Y1537550D1*
X617182Y1531990D1*
X618587Y1526256D1*
X619395Y1520409D1*
X619597Y1514273D1*
X619173Y1508386D1*
X618148Y1502572D1*
X616534Y1496894D1*
X614346Y1491412D1*
X611610Y1486181D1*
X608350Y1481260D1*
X604605Y1476697D1*
X600412Y1472543D1*
X599484Y1471732D1*
X700324Y1403196D2*
Y1384173D1*
X636387D1*
Y1471732D1*
X642269D1*
X642286Y1573013D1*
X757404D1*
Y1457895D1*
X727853D1*
X727790Y1438394D1*
X727102Y1434050D1*
X725743Y1429866D1*
X723745Y1425946D1*
X721160Y1422388D1*
X707026Y1408131D1*
X703681Y1405274D1*
X701844Y1404047D1*
X599486Y1809232D2*
X625521D1*
Y1721673D1*
X561584D1*
X561518Y1795395D1*
X555626Y1795752D1*
X549802Y1796710D1*
X544106Y1798261D1*
X538600Y1800386D1*
X533339Y1803064D1*
X528381Y1806268D1*
X523776Y1809961D1*
X519575Y1814108D1*
X515819Y1818661D1*
X512550Y1823577D1*
X509802Y1828802D1*
X507604Y1834280D1*
X505978Y1839954D1*
X504941Y1845765D1*
X504505Y1851652D1*
X504675Y1857552D1*
X505448Y1863404D1*
X506816Y1869147D1*
X508765Y1874719D1*
X511276Y1880062D1*
X514319Y1885119D1*
X517864Y1889839D1*
X521874Y1894171D1*
X526307Y1898068D1*
X531115Y1901492D1*
X536251Y1904404D1*
X541656Y1906777D1*
X547276Y1908583D1*
X553051Y1909803D1*
X558921Y1910425D1*
X564824Y1910444D1*
X570698Y1909857D1*
X576480Y1908672D1*
X582112Y1906902D1*
X587531Y1904563D1*
X592684Y1901681D1*
X597513Y1898287D1*
X601970Y1894417D1*
X606007Y1890110D1*
X609581Y1885413D1*
X612656Y1880374D1*
X615199Y1875047D1*
X617182Y1869487D1*
X618587Y1863753D1*
X619395Y1857907D1*
X619597Y1851770D1*
X619173Y1845883D1*
X618148Y1840070D1*
X616534Y1834391D1*
X614346Y1828909D1*
X611610Y1823678D1*
X608350Y1818757D1*
X604605Y1814194D1*
X600412Y1810041D1*
X599484Y1809230D1*
X675856Y897518D2*
X762234D1*
Y833581D1*
X688512D1*
X688211Y828159D1*
X687307Y822325D1*
X685810Y816615D1*
X683735Y811089D1*
X681105Y805804D1*
X677949Y800816D1*
X674297Y796178D1*
X670190Y791938D1*
X665671Y788142D1*
X660785Y784828D1*
X655587Y782031D1*
X650129Y779782D1*
X644470Y778104D1*
X638668Y777014D1*
X632786Y776524D1*
X626885Y776639D1*
X621025Y777358D1*
X615270Y778673D1*
X609681Y780571D1*
X604315Y783030D1*
X599230Y786028D1*
X594478Y789529D1*
X590109Y793500D1*
X586171Y797896D1*
X582703Y802673D1*
X579743Y807781D1*
X577322Y813164D1*
X575463Y818766D1*
X574189Y824530D1*
X573513Y830395D1*
X573440Y836297D1*
X573972Y842176D1*
X575104Y847970D1*
X576823Y853617D1*
X579112Y859058D1*
X581945Y864236D1*
X585294Y869097D1*
X589122Y873589D1*
X593392Y877667D1*
X598056Y881283D1*
X603067Y884406D1*
X608370Y886996D1*
X613911Y889031D1*
X619631Y890488D1*
X625471Y891350D1*
X631369Y891612D1*
X637261Y891266D1*
X643088Y890320D1*
X648786Y888781D1*
X654298Y886667D1*
X659564Y884000D1*
X664529Y880807D1*
X669140Y877122D1*
X673350Y872986D1*
X674675Y871490D1*
Y897518D1*
X675856D1*
X743211Y972322D2*
X762234D1*
Y908385D1*
X674675D1*
Y914266D1*
X573396Y914290D1*
Y1029408D1*
X688514D1*
Y999903D1*
X708008Y999794D1*
X712352Y999106D1*
X716535Y997747D1*
X720455Y995749D1*
X724013Y993164D1*
X738276Y979025D1*
X741133Y975680D1*
X742360Y973843D1*
X1079301Y723160D2*
X1098009D1*
X1098001Y1207501D1*
X727356Y1207499D1*
X723928Y1203070D1*
X720861Y1199751D1*
X717542Y1196684D1*
X713992Y1193886D1*
X710235Y1191374D1*
X706291Y1189165D1*
X702186Y1187274D1*
X697946Y1185710D1*
X693597Y1184483D1*
X689164Y1183601D1*
X684676Y1183070D1*
X680160Y1182892D1*
X675644Y1183070D1*
X671156Y1183601D1*
X666723Y1184483D1*
X662374Y1185710D1*
X658134Y1187274D1*
X654029Y1189165D1*
X650085Y1191374D1*
X646328Y1193886D1*
X642778Y1196684D1*
X639459Y1199751D1*
X636392Y1203070D1*
X633594Y1206619D1*
X630954Y1210608D1*
X627324Y1205314D1*
X623486Y1200829D1*
X619209Y1196762D1*
X614537Y1193154D1*
X609520Y1190043D1*
X604211Y1187462D1*
X598665Y1185438D1*
X592942Y1183993D1*
X587101Y1183143D1*
X581203Y1182895D1*
X575311Y1183252D1*
X569487Y1184210D1*
X563791Y1185761D1*
X558285Y1187886D1*
X553024Y1190564D1*
X548066Y1193768D1*
X543461Y1197461D1*
X539260Y1201608D1*
X535504Y1206161D1*
X532235Y1211077D1*
X529487Y1216302D1*
X527289Y1221780D1*
X525663Y1227454D1*
X524626Y1233265D1*
X524190Y1239152D1*
X524360Y1245052D1*
X525133Y1250904D1*
X526501Y1256647D1*
X528450Y1262219D1*
X530961Y1267562D1*
X534004Y1272619D1*
X537549Y1277339D1*
X541559Y1281671D1*
X545992Y1285568D1*
X550801Y1288992D1*
X555936Y1291904D1*
X561341Y1294277D1*
X566961Y1296083D1*
X572736Y1297303D1*
X578606Y1297925D1*
X584509Y1297944D1*
X590383Y1297357D1*
X596165Y1296172D1*
X601797Y1294402D1*
X607217Y1292063D1*
X612369Y1289181D1*
X617198Y1285787D1*
X621655Y1281917D1*
X625692Y1277610D1*
X629266Y1272913D1*
X630945Y1270302D1*
X633594Y1274283D1*
X636392Y1277833D1*
X639459Y1281152D1*
X642778Y1284219D1*
X646328Y1287017D1*
X650085Y1289529D1*
X654029Y1291738D1*
X658134Y1293629D1*
X662374Y1295193D1*
X666723Y1296420D1*
X671156Y1297302D1*
X675644Y1297833D1*
X680160Y1298010D1*
X684676Y1297833D1*
X689164Y1297302D1*
X693597Y1296420D1*
X697946Y1295193D1*
X702186Y1293629D1*
X706291Y1291738D1*
X710235Y1289529D1*
X713992Y1287017D1*
X717542Y1284219D1*
X720861Y1281152D1*
X723928Y1277833D1*
X727404Y1273404D1*
X1114791Y1273303D1*
X1119899Y1272493D1*
X1124816Y1270896D1*
X1129424Y1268549D1*
X1133608Y1265509D1*
X1148034Y1251226D1*
X1156012Y1243105D1*
X1159051Y1238921D1*
X1161399Y1234314D1*
X1162996Y1229396D1*
X1163806Y1224289D1*
X1163907Y1203987D1*
Y723172D1*
X1188513Y723160D1*
Y693655D1*
X1287056Y693633D1*
X1291441Y693287D1*
X1295719Y692261D1*
X1299782Y690577D1*
X1303533Y688280D1*
X1306883Y685416D1*
X1320528Y671650D1*
X1323113Y668092D1*
X1325110Y664172D1*
X1326470Y659988D1*
X1327157Y655644D1*
X1327244Y629823D1*
Y575543D1*
X1393194Y575522D1*
X1396890Y581323D1*
X1399688Y584873D1*
X1402755Y588192D1*
X1406073Y591259D1*
X1409623Y594056D1*
X1413612Y596697D1*
X1409623Y599350D1*
X1406073Y602148D1*
X1402755Y605215D1*
X1399688Y608534D1*
X1396890Y612084D1*
X1394378Y615841D1*
X1392169Y619785D1*
X1390278Y623890D1*
X1388714Y628130D1*
X1387487Y632479D1*
X1386605Y636912D1*
X1386073Y641400D1*
X1385896Y645916D1*
X1386073Y650432D1*
X1386605Y654920D1*
X1387487Y659353D1*
X1388714Y663702D1*
X1390278Y667942D1*
X1392169Y672047D1*
X1394378Y675991D1*
X1396890Y679748D1*
X1399688Y683298D1*
X1402755Y686617D1*
X1406073Y689684D1*
X1409623Y692482D1*
X1413381Y694993D1*
X1417324Y697202D1*
X1421429Y699093D1*
X1425669Y700657D1*
X1430018Y701885D1*
X1434451Y702766D1*
X1438940Y703298D1*
X1443455Y703475D1*
X1447971Y703298D1*
X1452459Y702766D1*
X1456892Y701885D1*
X1461241Y700657D1*
X1465482Y699093D1*
X1469587Y697202D1*
X1473530Y694993D1*
X1477287Y692482D1*
X1480837Y689684D1*
X1484156Y686617D1*
X1487223Y683298D1*
X1490021Y679748D1*
X1492533Y675991D1*
X1494741Y672047D1*
X1496633Y667942D1*
X1498197Y663702D1*
X1499424Y659353D1*
X1500306Y654920D1*
X1500837Y650432D1*
X1501014Y645916D1*
X1500837Y641400D1*
X1500306Y636912D1*
X1499424Y632479D1*
X1498197Y628130D1*
X1496633Y623890D1*
X1494741Y619785D1*
X1492533Y615841D1*
X1490021Y612084D1*
X1487223Y608534D1*
X1484156Y605215D1*
X1480837Y602148D1*
X1477287Y599350D1*
X1473299Y596710D1*
X1477287Y594056D1*
X1480837Y591259D1*
X1484156Y588192D1*
X1487223Y584873D1*
X1490021Y581323D1*
X1492533Y577566D1*
X1494741Y573622D1*
X1496633Y569517D1*
X1498197Y565277D1*
X1499424Y560928D1*
X1500306Y556495D1*
X1500837Y552007D1*
X1501014Y547491D1*
X1500837Y542975D1*
X1500306Y538487D1*
X1499424Y534054D1*
X1498197Y529705D1*
X1496633Y525465D1*
X1494741Y521360D1*
X1492533Y517416D1*
X1490021Y513659D1*
X1487223Y510109D1*
X1484156Y506790D1*
X1480837Y503723D1*
X1477287Y500925D1*
X1473530Y498413D1*
X1469587Y496205D1*
X1465482Y494314D1*
X1461241Y492749D1*
X1456892Y491522D1*
X1452459Y490640D1*
X1447971Y490109D1*
X1443455Y489932D1*
X1438940Y490109D1*
X1434451Y490640D1*
X1430018Y491522D1*
X1425669Y492749D1*
X1421429Y494314D1*
X1417324Y496205D1*
X1413381Y498413D1*
X1409623Y500925D1*
X1406073Y503723D1*
X1402755Y506790D1*
X1399688Y510109D1*
X1396890Y513659D1*
X1393231Y519465D1*
X1309218Y519546D1*
X1304874Y520234D1*
X1300690Y521593D1*
X1296770Y523591D1*
X1293213Y526176D1*
X1279391Y539874D1*
X1276534Y543219D1*
X1274236Y546970D1*
X1272552Y551033D1*
X1271526Y555311D1*
X1271181Y559696D1*
Y637551D1*
X1188531Y637570D1*
X1188513Y608042D1*
X1073395D1*
Y723160D1*
X1079301D1*
X1188501Y526625D2*
X1188077Y520738D1*
X1187052Y514924D1*
X1185438Y509245D1*
X1183251Y503764D1*
X1180514Y498533D1*
X1177255Y493612D1*
X1173509Y489049D1*
X1169316Y484895D1*
X1164719Y481192D1*
X1159768Y477978D1*
X1154513Y475289D1*
X1149010Y473152D1*
X1143318Y471591D1*
X1137495Y470619D1*
X1131604Y470251D1*
X1125706Y470487D1*
X1119862Y471325D1*
X1114136Y472759D1*
X1108587Y474770D1*
X1103273Y477340D1*
X1098249Y480441D1*
X1093571Y484039D1*
X1089285Y488098D1*
X1085437Y492575D1*
X1082068Y497423D1*
X1079213Y502589D1*
X1076903Y508021D1*
X1075160Y513660D1*
X1074005Y519449D1*
X1073449Y525325D1*
X1073497Y531228D1*
X1074150Y537096D1*
X1075400Y542865D1*
X1077234Y548475D1*
X1079634Y553869D1*
X1082572Y558987D1*
X1086021Y563778D1*
X1089941Y568192D1*
X1094294Y572180D1*
X1099031Y575701D1*
X1104104Y578719D1*
X1109459Y581201D1*
X1115042Y583122D1*
X1120790Y584461D1*
X1126647Y585203D1*
X1132547Y585343D1*
X1138432Y584877D1*
X1144239Y583811D1*
X1149904Y582156D1*
X1155371Y579929D1*
X1160581Y577155D1*
X1165480Y573861D1*
X1170014Y570083D1*
X1174139Y565860D1*
X1177810Y561236D1*
X1180987Y556261D1*
X1183639Y550987D1*
X1185736Y545470D1*
X1187257Y539766D1*
X1188185Y533937D1*
X1188513Y527806D1*
X1188501Y526625D1*
X2933058Y662644D2*
X2928833Y657781D1*
X2925969Y655133D1*
X2922906Y652718D1*
X2919661Y650550D1*
X2916257Y648643D1*
X2912714Y647010D1*
X2909054Y645660D1*
X2905299Y644601D1*
X2901474Y643840D1*
X2897598Y643382D1*
X2893701Y643228D1*
X2889803Y643382D1*
X2885928Y643840D1*
X2882102Y644601D1*
X2878348Y645660D1*
X2874688Y647010D1*
X2871144Y648643D1*
X2867740Y650550D1*
X2864496Y652718D1*
X2861433Y655133D1*
X2858568Y657781D1*
X2855920Y660646D1*
X2853505Y663709D1*
X2851337Y666953D1*
X2849430Y670357D1*
X2847798Y673900D1*
X2846448Y677560D1*
X2845388Y681315D1*
X2844627Y685140D1*
X2844169Y689016D1*
X2844016Y692913D1*
X2844169Y696811D1*
X2844627Y700686D1*
X2845388Y704512D1*
X2846448Y708266D1*
X2847798Y711927D1*
X2849430Y715470D1*
X2851337Y718874D1*
X2853505Y722118D1*
X2855920Y725181D1*
X2858568Y728046D1*
X2861433Y730694D1*
X2864496Y733109D1*
X2867740Y735277D1*
X2871144Y737184D1*
X2874688Y738816D1*
X2878348Y740167D1*
X2882102Y741226D1*
X2885928Y741987D1*
X2889803Y742445D1*
X2893701Y742598D1*
X2897598Y742445D1*
X2901474Y741987D1*
X2905299Y741226D1*
X2909054Y740167D1*
X2912714Y738816D1*
X2916257Y737184D1*
X2919661Y735277D1*
X2922906Y733109D1*
X2925969Y730694D1*
X2928833Y728046D1*
X2933058Y723182D1*
X2937308Y728046D1*
X2940173Y730694D1*
X2943236Y733109D1*
X2946480Y735277D1*
X2949885Y737184D1*
X2953428Y738816D1*
X2957088Y740167D1*
X2960843Y741226D1*
X2964668Y741987D1*
X2968543Y742445D1*
X2972441Y742598D1*
X2976339Y742445D1*
X2980214Y741987D1*
X2984039Y741226D1*
X2987794Y740167D1*
X2991454Y738816D1*
X2994997Y737184D1*
X2998402Y735277D1*
X3001646Y733109D1*
X3004709Y730694D1*
X3007573Y728046D1*
X3010222Y725181D1*
X3012636Y722118D1*
X3014804Y718874D1*
X3016711Y715470D1*
X3018344Y711927D1*
X3019694Y708266D1*
X3020753Y704512D1*
X3021514Y700686D1*
X3021972Y696811D1*
X3022126Y692913D1*
X3021972Y689016D1*
X3021514Y685140D1*
X3020753Y681315D1*
X3019694Y677560D1*
X3018344Y673900D1*
X3016711Y670357D1*
X3014804Y666953D1*
X3012636Y663709D1*
X3010222Y660646D1*
X3007573Y657781D1*
X3004709Y655133D1*
X3001646Y652718D1*
X2998402Y650550D1*
X2994997Y648643D1*
X2991454Y647010D1*
X2987794Y645660D1*
X2984039Y644601D1*
X2980214Y643840D1*
X2976339Y643382D1*
X2972441Y643228D1*
X2968543Y643382D1*
X2964668Y643840D1*
X2960843Y644601D1*
X2957088Y645660D1*
X2953428Y647010D1*
X2949885Y648643D1*
X2946480Y650550D1*
X2943236Y652718D1*
X2940173Y655133D1*
X2937308Y657781D1*
X2933084Y662644D1*
X832642Y2159451D2*
X832142Y2153568D1*
X831310Y2147723D1*
X830148Y2141933D1*
X828663Y2136218D1*
X826857Y2130597D1*
X824735Y2125087D1*
X822306Y2119705D1*
X819576Y2114469D1*
X816555Y2109395D1*
X813253Y2104500D1*
X809678Y2099801D1*
X805845Y2095310D1*
X801764Y2091042D1*
X797448Y2087013D1*
X792911Y2083234D1*
X788167Y2079717D1*
X783232Y2076474D1*
X778123Y2073514D1*
X772854Y2070849D1*
X767444Y2068484D1*
X761908Y2066430D1*
X756265Y2064692D1*
X750533Y2063276D1*
X744730Y2062185D1*
X738874Y2061424D1*
X732984Y2060995D1*
X727080Y2060900D1*
X721181Y2061139D1*
X715303Y2061710D1*
X709469Y2062613D1*
X703693Y2063843D1*
X697997Y2065398D1*
X692398Y2067273D1*
X686913Y2069461D1*
X681562Y2071955D1*
X676358Y2074748D1*
X671323Y2077829D1*
X666469Y2081192D1*
X661811Y2084823D1*
X657367Y2088710D1*
X653151Y2092844D1*
X649173Y2097209D1*
X645449Y2101790D1*
X641991Y2106576D1*
X638807Y2111549D1*
X635909Y2116694D1*
X633308Y2121995D1*
X631010Y2127434D1*
X629024Y2132995D1*
X627353Y2138657D1*
X626007Y2144407D1*
X624986Y2150223D1*
X624297Y2156088D1*
X623940Y2161982D1*
X623915Y2167886D1*
X624226Y2173782D1*
X624867Y2179652D1*
X625841Y2185476D1*
X627142Y2191236D1*
X628765Y2196913D1*
X630707Y2202490D1*
X632962Y2207946D1*
X635521Y2213268D1*
X638377Y2218436D1*
X641520Y2223434D1*
X644940Y2228248D1*
X648627Y2232861D1*
X652568Y2237257D1*
X656752Y2241424D1*
X661164Y2245348D1*
X665791Y2249016D1*
X670618Y2252416D1*
X675630Y2255539D1*
X680810Y2258374D1*
X686142Y2260911D1*
X691609Y2263143D1*
X697193Y2265063D1*
X702875Y2266664D1*
X708640Y2267941D1*
X714469Y2268890D1*
X720341Y2269509D1*
X726239Y2269795D1*
X732143Y2269747D1*
X738035Y2269366D1*
X743898Y2268652D1*
X749709Y2267609D1*
X755453Y2266239D1*
X761109Y2264546D1*
X766661Y2262535D1*
X772092Y2260215D1*
X777382Y2257592D1*
X782514Y2254675D1*
X787475Y2251471D1*
X792247Y2247992D1*
X796814Y2244251D1*
X801161Y2240256D1*
X805278Y2236022D1*
X809148Y2231562D1*
X812760Y2226891D1*
X816101Y2222022D1*
X819164Y2216974D1*
X821934Y2211760D1*
X824407Y2206398D1*
X826573Y2200904D1*
X828425Y2195298D1*
X829957Y2189596D1*
X831164Y2183815D1*
X832043Y2177976D1*
X832591Y2172097D1*
X832808Y2165354D1*
X832642Y2159451D1*
X4100358D2*
X4099858Y2153568D1*
X4099026Y2147723D1*
X4097865Y2141933D1*
X4096379Y2136218D1*
X4094573Y2130597D1*
X4092451Y2125087D1*
X4090022Y2119705D1*
X4087293Y2114469D1*
X4084272Y2109395D1*
X4080970Y2104500D1*
X4077395Y2099801D1*
X4073562Y2095310D1*
X4069480Y2091042D1*
X4065164Y2087013D1*
X4060627Y2083234D1*
X4055883Y2079717D1*
X4050949Y2076474D1*
X4045840Y2073514D1*
X4040571Y2070849D1*
X4035160Y2068484D1*
X4029625Y2066430D1*
X4023982Y2064692D1*
X4018249Y2063276D1*
X4012446Y2062185D1*
X4006591Y2061424D1*
X4000701Y2060995D1*
X3994797Y2060900D1*
X3988898Y2061139D1*
X3983020Y2061710D1*
X3977185Y2062613D1*
X3971409Y2063843D1*
X3965714Y2065398D1*
X3960114Y2067273D1*
X3954630Y2069461D1*
X3949278Y2071955D1*
X3944075Y2074748D1*
X3939039Y2077829D1*
X3934185Y2081192D1*
X3929528Y2084823D1*
X3925084Y2088710D1*
X3920867Y2092844D1*
X3916890Y2097209D1*
X3913165Y2101790D1*
X3909707Y2106576D1*
X3906524Y2111549D1*
X3903626Y2116694D1*
X3901025Y2121995D1*
X3898727Y2127434D1*
X3896740Y2132995D1*
X3895070Y2138657D1*
X3893723Y2144407D1*
X3892702Y2150223D1*
X3892013Y2156088D1*
X3891656Y2161982D1*
X3891631Y2167886D1*
X3891942Y2173782D1*
X3892584Y2179652D1*
X3893558Y2185476D1*
X3894858Y2191236D1*
X3896482Y2196913D1*
X3898424Y2202490D1*
X3900678Y2207946D1*
X3903238Y2213268D1*
X3906093Y2218436D1*
X3909236Y2223434D1*
X3912656Y2228248D1*
X3916344Y2232861D1*
X3920285Y2237257D1*
X3924469Y2241424D1*
X3928881Y2245348D1*
X3933508Y2249016D1*
X3938335Y2252416D1*
X3943346Y2255539D1*
X3948526Y2258374D1*
X3953858Y2260911D1*
X3959325Y2263143D1*
X3964909Y2265063D1*
X3970592Y2266664D1*
X3976357Y2267941D1*
X3982185Y2268890D1*
X3988058Y2269509D1*
X3993955Y2269795D1*
X3999860Y2269747D1*
X4005752Y2269366D1*
X4011614Y2268652D1*
X4017425Y2267609D1*
X4023169Y2266239D1*
X4028825Y2264546D1*
X4034378Y2262535D1*
X4039808Y2260215D1*
X4045098Y2257592D1*
X4050231Y2254675D1*
X4055192Y2251471D1*
X4059963Y2247992D1*
X4064530Y2244251D1*
X4068878Y2240256D1*
X4072995Y2236022D1*
X4076865Y2231562D1*
X4080476Y2226891D1*
X4083818Y2222022D1*
X4086881Y2216974D1*
X4089651Y2211760D1*
X4092123Y2206398D1*
X4094290Y2200904D1*
X4096142Y2195298D1*
X4097673Y2189596D1*
X4098881Y2183815D1*
X4099760Y2177976D1*
X4100307Y2172097D1*
X4100525Y2165354D1*
X4100358Y2159451D1*
Y584648D2*
X4099858Y578765D1*
X4099026Y572920D1*
X4097865Y567130D1*
X4096379Y561415D1*
X4094573Y555794D1*
X4092451Y550283D1*
X4090022Y544902D1*
X4087293Y539665D1*
X4084272Y534592D1*
X4080970Y529697D1*
X4077395Y524997D1*
X4073562Y520507D1*
X4069480Y516239D1*
X4065164Y512210D1*
X4060627Y508430D1*
X4055883Y504913D1*
X4050949Y501671D1*
X4045840Y498711D1*
X4040571Y496046D1*
X4035160Y493681D1*
X4029625Y491627D1*
X4023982Y489888D1*
X4018249Y488472D1*
X4012446Y487382D1*
X4006591Y486621D1*
X4000701Y486192D1*
X3994797Y486097D1*
X3988898Y486336D1*
X3983020Y486907D1*
X3977185Y487810D1*
X3971409Y489039D1*
X3965714Y490594D1*
X3960114Y492470D1*
X3954630Y494657D1*
X3949278Y497152D1*
X3944075Y499945D1*
X3939039Y503026D1*
X3934185Y506388D1*
X3929528Y510020D1*
X3925084Y513907D1*
X3920867Y518041D1*
X3916890Y522406D1*
X3913165Y526987D1*
X3909707Y531773D1*
X3906524Y536745D1*
X3903626Y541891D1*
X3901025Y547192D1*
X3898727Y552631D1*
X3896740Y558192D1*
X3895070Y563854D1*
X3893723Y569604D1*
X3892702Y575420D1*
X3892013Y581285D1*
X3891656Y587178D1*
X3891631Y593083D1*
X3891942Y598979D1*
X3892584Y604849D1*
X3893558Y610673D1*
X3894858Y616433D1*
X3896482Y622110D1*
X3898424Y627686D1*
X3900678Y633143D1*
X3903238Y638465D1*
X3906093Y643633D1*
X3909236Y648631D1*
X3912656Y653445D1*
X3916344Y658058D1*
X3920285Y662454D1*
X3924469Y666621D1*
X3928881Y670545D1*
X3933508Y674213D1*
X3938335Y677613D1*
X3943346Y680736D1*
X3948526Y683571D1*
X3953858Y686108D1*
X3959325Y688340D1*
X3964909Y690260D1*
X3970592Y691861D1*
X3976357Y693138D1*
X3982185Y694087D1*
X3988058Y694706D1*
X3993955Y694992D1*
X3999860Y694944D1*
X4005752Y694563D1*
X4011614Y693849D1*
X4017425Y692806D1*
X4023169Y691436D1*
X4028825Y689743D1*
X4034378Y687732D1*
X4039808Y685412D1*
X4045098Y682789D1*
X4050231Y679871D1*
X4055192Y676668D1*
X4059963Y673189D1*
X4064530Y669448D1*
X4068878Y665453D1*
X4072995Y661219D1*
X4076865Y656759D1*
X4080476Y652088D1*
X4083818Y647219D1*
X4086881Y642171D1*
X4089651Y636957D1*
X4092123Y631594D1*
X4094290Y626101D1*
X4096142Y620495D1*
X4097673Y614793D1*
X4098881Y609012D1*
X4099760Y603173D1*
X4100307Y597294D1*
X4100525Y590551D1*
X4100358Y584648D1*
X832642D2*
X832142Y578765D1*
X831310Y572920D1*
X830148Y567130D1*
X828663Y561415D1*
X826857Y555794D1*
X824735Y550283D1*
X822306Y544902D1*
X819576Y539665D1*
X816555Y534592D1*
X813253Y529697D1*
X809678Y524997D1*
X805845Y520507D1*
X801764Y516239D1*
X797448Y512210D1*
X792911Y508430D1*
X788167Y504913D1*
X783232Y501671D1*
X778123Y498711D1*
X772854Y496046D1*
X767444Y493681D1*
X761908Y491627D1*
X756265Y489888D1*
X750533Y488472D1*
X744730Y487382D1*
X738874Y486621D1*
X732984Y486192D1*
X727080Y486097D1*
X721181Y486336D1*
X715303Y486907D1*
X709469Y487810D1*
X703693Y489039D1*
X697997Y490594D1*
X692398Y492470D1*
X686913Y494657D1*
X681562Y497152D1*
X676358Y499945D1*
X671323Y503026D1*
X666469Y506388D1*
X661811Y510020D1*
X657367Y513907D1*
X653151Y518041D1*
X649173Y522406D1*
X645449Y526987D1*
X641991Y531773D1*
X638807Y536745D1*
X635909Y541891D1*
X633308Y547192D1*
X631010Y552631D1*
X629024Y558192D1*
X627353Y563854D1*
X626007Y569604D1*
X624986Y575420D1*
X624297Y581285D1*
X623940Y587178D1*
X623915Y593083D1*
X624226Y598979D1*
X624867Y604849D1*
X625841Y610673D1*
X627142Y616433D1*
X628765Y622110D1*
X630707Y627686D1*
X632962Y633143D1*
X635521Y638465D1*
X638377Y643633D1*
X641520Y648631D1*
X644940Y653445D1*
X648627Y658058D1*
X652568Y662454D1*
X656752Y666621D1*
X661164Y670545D1*
X665791Y674213D1*
X670618Y677613D1*
X675630Y680736D1*
X680810Y683571D1*
X686142Y686108D1*
X691609Y688340D1*
X697193Y690260D1*
X702875Y691861D1*
X708640Y693138D1*
X714469Y694087D1*
X720341Y694706D1*
X726239Y694992D1*
X732143Y694944D1*
X738035Y694563D1*
X743898Y693849D1*
X749709Y692806D1*
X755453Y691436D1*
X761109Y689743D1*
X766661Y687732D1*
X772092Y685412D1*
X777382Y682789D1*
X782514Y679871D1*
X787475Y676668D1*
X792247Y673189D1*
X796814Y669448D1*
X801161Y665453D1*
X805278Y661219D1*
X809148Y656759D1*
X812760Y652088D1*
X816101Y647219D1*
X819164Y642171D1*
X821934Y636957D1*
X824407Y631594D1*
X826573Y626101D1*
X828425Y620495D1*
X829957Y614793D1*
X831164Y609012D1*
X832043Y603173D1*
X832591Y597294D1*
X832808Y590551D1*
X832642Y584648D1*
X4089055Y1359332D2*
Y1277655D1*
X4094488Y1278031D1*
X4099917Y1277623D1*
X4099921Y1354265D1*
X4096885Y1355038D1*
X4093392Y1356484D1*
X4090163Y1358465D1*
X4221181Y1610709D2*
X4315433D1*
Y1519213D1*
X4220000D1*
Y1610709D1*
X4221181D1*
X3945356D2*
X3952276D1*
X3952283Y1806602D1*
X3926881Y1806614D1*
X3924419Y1803928D1*
X3919899Y1800068D1*
X3914832Y1796963D1*
X3909341Y1794689D1*
X3903563Y1793301D1*
X3897638Y1792835D1*
X3891713Y1793301D1*
X3885934Y1794689D1*
X3880444Y1796963D1*
X3875377Y1800068D1*
X3872213Y1802675D1*
X3737958Y1802764D1*
X3733614Y1803451D1*
X3729430Y1804811D1*
X3725510Y1806808D1*
X3721953Y1809394D1*
X3715035Y1816189D1*
X3715039Y1785917D1*
X3909371Y1785831D1*
X3913105Y1785240D1*
X3916701Y1784071D1*
X3920070Y1782356D1*
X3923129Y1780133D1*
X3938298Y1765070D1*
X3940753Y1762194D1*
X3942728Y1758970D1*
X3944175Y1755478D1*
X3945058Y1751801D1*
X3945354Y1748031D1*
Y1610705D1*
X3952298Y1519213D2*
X3945332D1*
X3945354Y1472572D1*
X3946992Y1470942D1*
X4025106Y1470945D1*
X4019685Y1471969D1*
X3984329Y1472042D1*
X3980596Y1472634D1*
X3977000Y1473802D1*
X3973631Y1475518D1*
X3970572Y1477741D1*
X3959341Y1488869D1*
X3956885Y1491743D1*
X3954909Y1494967D1*
X3953463Y1498459D1*
X3952580Y1502136D1*
X3952283Y1505906D1*
Y1519217D1*
X4211339Y1236693D2*
X4305591D1*
Y1145197D1*
X4210157D1*
Y1236693D1*
X4211339D1*
X2992862Y1186024D2*
X2992458Y1186534D1*
X2803227Y1186610D1*
X2799493Y1187201D1*
X2795898Y1188370D1*
X2792529Y1190085D1*
X2790950Y1191142D1*
X2789843Y1190945D1*
Y1185524D1*
X2992411Y1185512D1*
X2992862Y1186024D1*
X2992458Y1234726D2*
X2994873Y1237411D1*
X2999392Y1241270D1*
X3004459Y1244375D1*
X3009950Y1246650D1*
X3015728Y1248038D1*
X3021654Y1248504D1*
X3027579Y1248038D1*
X3033357Y1246650D1*
X3038848Y1244375D1*
X3043915Y1241270D1*
X3048434Y1237411D1*
X3052294Y1232891D1*
X3055399Y1227824D1*
X3056610Y1225198D1*
X3056614Y1299528D1*
X3053928Y1301959D1*
X3050068Y1306479D1*
X3046963Y1311546D1*
X3044689Y1317037D1*
X3043301Y1322815D1*
X3042835Y1328740D1*
X3043301Y1334665D1*
X3044689Y1340444D1*
X3046083Y1344025D1*
X2832755Y1344089D1*
X2829021Y1344681D1*
X2825425Y1345849D1*
X2822056Y1347566D1*
X2820478Y1348622D1*
X2819370Y1348425D1*
Y1234720D1*
X2992411Y1234724D1*
X3220192Y1974740D2*
X3220000Y1978346D1*
X3220466Y1984272D1*
X3221854Y1990050D1*
X3223248Y1993631D1*
X2366626Y1993622D1*
X2366541Y1927243D1*
X2365949Y1923509D1*
X2364781Y1919913D1*
X2363064Y1916545D1*
X2360841Y1913486D1*
X2346916Y1899454D1*
X2346854Y1887873D1*
X2346264Y1884139D1*
X2345094Y1880543D1*
X2343378Y1877175D1*
X2341156Y1874115D1*
X2327231Y1860085D1*
X2327169Y1848503D1*
X2326579Y1844769D1*
X2325409Y1841173D1*
X2323693Y1837804D1*
X2321471Y1834745D1*
X2312113Y1825282D1*
X2413308Y1825202D1*
X2417042Y1824610D1*
X2420638Y1823442D1*
X2424007Y1821726D1*
X2427066Y1819503D1*
X2436529Y1810144D1*
X2436610Y1940867D1*
X2437201Y1944601D1*
X2438370Y1948197D1*
X2440087Y1951566D1*
X2442308Y1954625D1*
X2453434Y1965857D1*
X2456310Y1968312D1*
X2459534Y1970287D1*
X2463026Y1971734D1*
X2466703Y1972617D1*
X2470472Y1972913D1*
X3218373D1*
X3220167Y1974714D1*
X2229154Y1795739D2*
X2227760Y1799320D1*
X2226371Y1805098D1*
X2225906Y1811024D1*
X2226371Y1816949D1*
X2227760Y1822727D1*
X2230034Y1828218D1*
X2233139Y1833285D1*
X2234980Y1835639D1*
X2231487Y1840448D1*
X2228789Y1845743D1*
X2226951Y1851395D1*
X2226022Y1857265D1*
Y1863207D1*
X2226951Y1869077D1*
X2228789Y1874730D1*
X2231487Y1880025D1*
X2234980Y1884852D1*
X2231487Y1889660D1*
X2228789Y1894955D1*
X2226951Y1900608D1*
X2226022Y1906478D1*
Y1912420D1*
X2226951Y1918290D1*
X2228789Y1923942D1*
X2231487Y1929238D1*
X2234980Y1934064D1*
X2231487Y1938873D1*
X2229348Y1942954D1*
X2227175Y1938873D1*
X2223681Y1934064D1*
X2219479Y1929862D1*
X2218978Y1929466D1*
X2218902Y1818975D1*
X2218311Y1815241D1*
X2217142Y1811646D1*
X2215427Y1808277D1*
X2213203Y1805218D1*
X2203845Y1795755D1*
X2229108Y1795748D1*
X2229348Y1974369D2*
X2231487Y1978450D1*
X2234980Y1983259D1*
X2239182Y1987461D1*
X2239684Y1987857D1*
X2239759Y2068820D1*
X2240350Y2072554D1*
X2241518Y2076150D1*
X2243235Y2079518D1*
X2245458Y2082577D1*
X2256584Y2093810D1*
X2259459Y2096265D1*
X2261039Y2097319D1*
X2260808Y2098070D1*
X2254938Y2098999D1*
X2249286Y2100836D1*
X2243991Y2103534D1*
X2239182Y2107028D1*
X2234980Y2111230D1*
X2234584Y2111731D1*
X1953948Y2111732D1*
X1955311Y2108160D1*
X1956699Y2102382D1*
X1957165Y2096457D1*
X1956699Y2090531D1*
X1955311Y2084753D1*
X1953037Y2079262D1*
X1949932Y2074196D1*
X1946072Y2069676D1*
X1943387Y2067261D1*
X1943311Y2035510D1*
X1942720Y2031777D1*
X1941551Y2028181D1*
X1939836Y2024812D1*
X1937613Y2021753D1*
X1926487Y2010521D1*
X1923612Y2008066D1*
X1920387Y2006091D1*
X1916895Y2004644D1*
X1913218Y2003761D1*
X1909441Y2003465D1*
X1864627D1*
X1864646Y1845696D1*
X1868218Y1847043D1*
X1873996Y1848432D1*
X1879921Y1848898D1*
X1885846Y1848432D1*
X1891625Y1847043D1*
X1897115Y1844769D1*
X1902182Y1841664D1*
X1906702Y1837804D1*
X1909117Y1835119D1*
X2170791Y1835118D1*
X2170787Y1929449D1*
X2168101Y1931881D1*
X2164241Y1936400D1*
X2161136Y1941467D1*
X2158862Y1946958D1*
X2157474Y1952736D1*
X2157008Y1958661D1*
X2157474Y1964587D1*
X2158862Y1970365D1*
X2161136Y1975856D1*
X2164241Y1980923D1*
X2168101Y1985442D1*
X2172621Y1989302D1*
X2177688Y1992407D1*
X2183178Y1994681D1*
X2188957Y1996070D1*
X2194882Y1996535D1*
X2200807Y1996070D1*
X2206585Y1994681D1*
X2212076Y1992407D1*
X2217143Y1989302D1*
X2221663Y1985442D1*
X2225522Y1980923D1*
X2228627Y1975856D1*
X2229314Y1974369D1*
X1163486Y2230825D2*
X1168769Y2228627D1*
X1173836Y2225522D1*
X1178356Y2221663D1*
X1180770Y2218978D1*
X1582839Y2218976D1*
X1570988Y2230835D1*
X1163486Y2230827D1*
X3174035Y1087077D2*
X3172642Y1090659D1*
X3171253Y1096437D1*
X3170787Y1102362D1*
X3171253Y1108287D1*
X3172642Y1114066D1*
X3174916Y1119556D1*
X3178021Y1124623D1*
X3181881Y1129143D1*
X3184566Y1131558D1*
X3184567Y1344004D1*
X3174436Y1344016D1*
X3175783Y1340444D1*
X3177172Y1334665D1*
X3177638Y1328740D1*
X3177172Y1322815D1*
X3175783Y1317037D1*
X3173509Y1311546D1*
X3170404Y1306479D1*
X3166545Y1301959D1*
X3163860Y1299545D1*
X3163783Y1100471D1*
X3163193Y1096738D1*
X3162025Y1093142D1*
X3160308Y1089773D1*
X3159252Y1088194D1*
X3161417Y1087087D1*
X3173990D1*
X2262167Y1581675D2*
X2261238Y1575804D1*
X2259400Y1570152D1*
X2256702Y1564857D1*
X2253209Y1560049D1*
X2249007Y1555846D1*
X2248505Y1555450D1*
X2248504Y1544391D1*
X2257974Y1553755D1*
X2261033Y1555978D1*
X2264402Y1557693D1*
X2267997Y1558862D1*
X2271731Y1559453D1*
X2273923Y1559528D1*
X2276369Y1562214D1*
X2280888Y1566073D1*
X2285955Y1569178D1*
X2291446Y1571453D1*
X2297224Y1572841D1*
X2303150Y1573307D1*
X2309075Y1572841D1*
X2314853Y1571453D1*
X2320344Y1569178D1*
X2325411Y1566073D1*
X2329930Y1562214D1*
X2332345Y1559529D1*
X2377499Y1559528D1*
X2377480Y1615058D1*
X2368010Y1605694D1*
X2364951Y1603471D1*
X2361583Y1601756D1*
X2357987Y1600587D1*
X2354253Y1599996D1*
X2322835Y1599921D1*
X2259050D1*
X2260429Y1596349D1*
X2261818Y1590571D1*
X2262283Y1584646D1*
X2262167Y1581675D1*
X1337374Y1786929D2*
X1338251Y1785907D1*
X1752269Y1785906D1*
X1752697Y1786427D1*
X1752301Y1786928D1*
X1337407Y1786929D1*
X1402052Y1361154D2*
X1406933Y1364550D1*
X1412913Y1367697D1*
X1412987Y1547167D1*
X1413579Y1550900D1*
X1414747Y1554496D1*
X1416463Y1557865D1*
X1417520Y1559444D1*
X1415354Y1560551D1*
X1402043D1*
X1402047Y1361213D1*
X3104803Y1299513D2*
X3104730Y1129999D1*
X3104138Y1126265D1*
X3102970Y1122669D1*
X3101253Y1119301D1*
X3100197Y1117722D1*
X3104331Y1116614D1*
X3115657D1*
X3115669Y1299528D1*
X3112983Y1301959D1*
X3110252Y1305046D1*
X3107490Y1301959D1*
X3104804Y1299545D1*
X2116442Y1511339D2*
X1771799D1*
X1773622Y1510315D1*
X2116442D1*
X2116870Y1510836D1*
X2116474Y1511337D1*
X1258651Y1835118D2*
X1752269D1*
X1752697Y1835639D1*
X1752301Y1836140D1*
X1259528Y1836142D1*
X1258634Y1835118D1*
X1298021Y1884331D2*
X1752283D1*
X1752697Y1884852D1*
X1752301Y1885353D1*
X1298928Y1885354D1*
X1298004Y1884331D1*
X1337391Y1933543D2*
X1752253D1*
X1752697Y1934064D1*
X1752301Y1934566D1*
X1338282Y1934567D1*
X1337374Y1933543D1*
X4324780Y2356299D2*
X399598D1*
X399606Y399606D1*
X4324811D1*
X4324803Y2356291D1*
X593552Y1427953D2*
Y1384197D1*
X561608Y1427953D2*
X625497D1*
X562050Y1572990D2*
Y1457919D1*
X504514Y1515454D2*
X619585D1*
X593552Y1765453D2*
Y1721697D1*
X561608Y1765453D2*
X625497D1*
X562050Y1910487D2*
Y1795416D1*
X504514Y1852951D2*
X619585D1*
X718454Y897495D2*
Y833604D1*
Y865550D2*
X762211D1*
X630955Y891589D2*
Y776518D1*
X573420Y834054D2*
X688491D1*
X1130954Y585341D2*
Y470270D1*
X1073419Y527806D2*
X1188490D1*
X4131890Y1490606D2*
Y1446850D1*
X4163836D1*
X4267717Y1610685D2*
Y1519235D1*
X4220024Y1564961D2*
X4315411D1*
X4257874Y1236669D2*
Y1145219D1*
X4210181Y1190945D2*
X4305568D1*
X3543307Y1652024D2*
Y1536953D1*
Y1594488D2*
X3600843D1*
X581735Y1297987D2*
Y1182916D1*
X524199Y1240451D2*
X581735D1*
D19*
X3326772Y551181D3*
D20*
Y807087D3*
D21*
X593552Y1427953D3*
X668356D3*
D19*
X699845Y1515454D3*
D23*
X562050D3*
D21*
X593552Y1765453D3*
X668356D3*
D19*
X699845Y1852951D3*
D23*
X562050D3*
D22*
X718454Y865550D3*
Y940353D3*
D19*
X630955Y971849D3*
D23*
Y834054D3*
D19*
X1130954Y665601D3*
D23*
Y527806D3*
D21*
X4131890Y1446850D3*
X4057087D3*
D33*
X2893701Y692913D3*
X2972441D3*
D21*
X4057087Y1377953D3*
X4131890D3*
X4057087Y1309055D3*
X4131890D3*
D37*
X4267717Y1564961D3*
X3921260D3*
X4257874Y1190945D3*
X3911417D3*
D23*
X3248031Y1594488D3*
X3346457D3*
X3444882D3*
X3543307D3*
X680160Y1240451D3*
X581735D3*
X1443455Y547491D3*
Y645916D3*
D20*
X1437008Y1315472D3*
Y1125472D3*
M02*
