G04 DipTrace 3.2.0.1*
G04 Нижняямаркировка.gbr*
%MOIN*%
G04 #@! TF.FileFunction,Legend,Bot*
G04 #@! TF.Part,Single*
%ADD10C,0.009843*%
%ADD25C,0.007874*%
%ADD32C,0.015395*%
%ADD44C,0.015404*%
%ADD57C,0.01178*%
%ADD119C,0.017498*%
%ADD120C,0.010936*%
%FSLAX26Y26*%
G04*
G70*
G90*
G75*
G01*
G04 BotSilk*
%LPD*%
X797150Y1030022D2*
D25*
X828637D1*
X797150Y1077262D2*
X828637D1*
X734650Y1492522D2*
X766137D1*
X734650Y1539762D2*
X766137D1*
Y239762D2*
X734650D1*
X766137Y192522D2*
X734650D1*
X661514Y462898D2*
Y494385D1*
X614274Y462898D2*
Y494385D1*
X3086514Y1275398D2*
Y1306885D1*
X3039274Y1275398D2*
Y1306885D1*
X1561514Y125398D2*
Y156885D1*
X1514274Y125398D2*
Y156885D1*
X3214274Y969385D2*
Y937898D1*
X3261514Y969385D2*
Y937898D1*
X3234650Y167522D2*
X3266137D1*
X3234650Y214762D2*
X3266137D1*
X1064615Y916886D2*
D10*
X1261469D1*
X1064615Y814510D2*
X1261469D1*
Y916886D2*
Y814510D1*
X1064615Y885393D2*
Y916886D1*
Y846004D2*
Y814510D1*
Y885393D2*
G02X1064615Y846004I-9J-19694D01*
G01*
X1764082Y1227069D2*
Y1030215D1*
X1661706Y1227069D2*
Y1030215D1*
X1764082D2*
X1661706D1*
X1732588Y1227069D2*
X1764082D1*
X1693199D2*
X1661706D1*
X1732588D2*
G02X1693199Y1227069I-19694J9D01*
G01*
X2264082D2*
Y1030215D1*
X2161706Y1227069D2*
Y1030215D1*
X2264082D2*
X2161706D1*
X2232588Y1227069D2*
X2264082D1*
X2193199D2*
X2161706D1*
X2232588D2*
G02X2193199Y1227069I-19694J9D01*
G01*
D32*
X3180619Y276826D3*
X3234684Y282089D2*
D10*
Y400197D1*
X3266175Y282089D2*
Y400197D1*
X3234684D2*
X3266175D1*
X3234684Y282089D2*
X3266175D1*
X2764082Y1227069D2*
Y1030215D1*
X2661706Y1227069D2*
Y1030215D1*
X2764082D2*
X2661706D1*
X2732588Y1227069D2*
X2764082D1*
X2693199D2*
X2661706D1*
X2732588D2*
G02X2693199Y1227069I-19694J9D01*
G01*
X1322150Y805022D2*
D25*
X1353637D1*
X1322150Y852262D2*
X1353637D1*
X1024161Y937456D2*
Y968943D1*
X976921Y937456D2*
Y968943D1*
X1353637Y927262D2*
X1322150D1*
X1353637Y880022D2*
X1322150D1*
X1524014Y937898D2*
Y969385D1*
X1476774Y937898D2*
Y969385D1*
X3234650Y1530022D2*
X3266137D1*
X3234650Y1577262D2*
X3266137D1*
X1576774Y969385D2*
Y937898D1*
X1624014Y969385D2*
Y937898D1*
X1524014Y1237898D2*
Y1269385D1*
X1476774Y1237898D2*
Y1269385D1*
X458661Y2204724D2*
D10*
X525591D1*
Y2086614D1*
X458661D1*
Y2204724D1*
X1246063D2*
X1312992D1*
Y2086614D1*
X1246063D1*
Y2204724D1*
X722441Y3090551D2*
X655512D1*
Y3208661D1*
X722441D1*
Y3090551D1*
X919291D2*
X852362D1*
Y3208661D1*
X919291D1*
Y3090551D1*
X728346Y3431102D2*
X846457D1*
Y3498031D1*
X728346D1*
Y3431102D1*
X1024161Y762455D2*
D25*
Y793941D1*
X976921Y762455D2*
Y793941D1*
X1699014Y937898D2*
Y969385D1*
X1651774Y937898D2*
Y969385D1*
X1524014Y1112898D2*
Y1144385D1*
X1476774Y1112898D2*
Y1144385D1*
X1774014Y937898D2*
Y969385D1*
X1726774Y937898D2*
Y969385D1*
X586514Y462898D2*
Y494385D1*
X539274Y462898D2*
Y494385D1*
X511514Y462898D2*
Y494385D1*
X464274Y462898D2*
Y494385D1*
X1801774Y969385D2*
Y937898D1*
X1849014Y969385D2*
Y937898D1*
X1949014Y1237898D2*
Y1269385D1*
X1901774Y1237898D2*
Y1269385D1*
X2446852Y1610231D2*
Y1578745D1*
X2494093Y1610231D2*
Y1578745D1*
X2368112Y1610231D2*
Y1578745D1*
X2415352Y1610231D2*
Y1578745D1*
X3234650Y1455022D2*
X3266137D1*
X3234650Y1502262D2*
X3266137D1*
X1949014Y937898D2*
Y969385D1*
X1901774Y937898D2*
Y969385D1*
X1949014Y1112898D2*
Y1144385D1*
X1901774Y1112898D2*
Y1144385D1*
X2024014Y937898D2*
Y969385D1*
X1976774Y937898D2*
Y969385D1*
X2076774D2*
Y937898D1*
X2124014Y969385D2*
Y937898D1*
X2024014Y1237898D2*
Y1269385D1*
X1976774Y1237898D2*
Y1269385D1*
X2199014Y937898D2*
Y969385D1*
X2151774Y937898D2*
Y969385D1*
X2024014Y1112898D2*
Y1144385D1*
X1976774Y1112898D2*
Y1144385D1*
X2274014Y937898D2*
Y969385D1*
X2226774Y937898D2*
Y969385D1*
X3074014Y325398D2*
Y356885D1*
X3026774Y325398D2*
Y356885D1*
X3074014Y200398D2*
Y231885D1*
X3026774Y200398D2*
Y231885D1*
X2301774Y969385D2*
Y937898D1*
X2349014Y969385D2*
Y937898D1*
X2449014Y1237898D2*
Y1269385D1*
X2401774Y1237898D2*
Y1269385D1*
X3399014Y325398D2*
Y356885D1*
X3351774Y325398D2*
Y356885D1*
X3101774D2*
Y325398D1*
X3149014Y356885D2*
Y325398D1*
Y200398D2*
Y231885D1*
X3101774Y200398D2*
Y231885D1*
X2449014Y937898D2*
Y969385D1*
X2401774Y937898D2*
Y969385D1*
X2449014Y1112898D2*
Y1144385D1*
X2401774Y1112898D2*
Y1144385D1*
X2524014Y937898D2*
Y969385D1*
X2476774Y937898D2*
Y969385D1*
X3426774Y356885D2*
Y325398D1*
X3474014Y356885D2*
Y325398D1*
X2576774Y969385D2*
Y937898D1*
X2624014Y969385D2*
Y937898D1*
X2524014Y1237898D2*
Y1269385D1*
X2476774Y1237898D2*
Y1269385D1*
X3426774Y1081885D2*
Y1050398D1*
X3474014Y1081885D2*
Y1050398D1*
X2699014Y937898D2*
Y969385D1*
X2651774Y937898D2*
Y969385D1*
X2524014Y1112898D2*
Y1144385D1*
X2476774Y1112898D2*
Y1144385D1*
X3326774Y1081885D2*
Y1050398D1*
X3374014Y1081885D2*
Y1050398D1*
X2774014Y937898D2*
Y969385D1*
X2726774Y937898D2*
Y969385D1*
X2801774D2*
Y937898D1*
X2849014Y969385D2*
Y937898D1*
X2949014Y1237898D2*
Y1269385D1*
X2901774Y1237898D2*
Y1269385D1*
X2949014Y937898D2*
Y969385D1*
X2901774Y937898D2*
Y969385D1*
X2949014Y1112898D2*
Y1144385D1*
X2901774Y1112898D2*
Y1144385D1*
X1551772Y1332672D2*
D10*
X1599035D1*
X1551772Y1399612D2*
X1599035D1*
X1551772Y1334649D2*
Y1399605D1*
X1874016Y1399612D2*
X1826753D1*
X1874016Y1332672D2*
X1826753D1*
X1874016Y1397635D2*
Y1332679D1*
X2051772Y1332672D2*
X2099035D1*
X2051772Y1399612D2*
X2099035D1*
X2051772Y1334649D2*
Y1399605D1*
X2374016Y1399612D2*
X2326753D1*
X2374016Y1332672D2*
X2326753D1*
X2374016Y1397635D2*
Y1332679D1*
X2551772Y1332672D2*
X2599035D1*
X2551772Y1399612D2*
X2599035D1*
X2551772Y1334649D2*
Y1399605D1*
X2874016Y1399612D2*
X2826753D1*
X2874016Y1332672D2*
X2826753D1*
X2874016Y1397635D2*
Y1332679D1*
D44*
X956144Y893657D3*
X946943Y943799D2*
D10*
X828839D1*
Y963484D1*
X946943D1*
Y943799D1*
D44*
X806144Y893657D3*
X796943Y943799D2*
D10*
X678839D1*
Y963484D1*
X796943D1*
Y943799D1*
D44*
X956291Y718214D3*
X947090Y768356D2*
D10*
X828986D1*
Y788041D1*
X947090D1*
Y768356D1*
D44*
X806293Y718214D3*
X797092Y768356D2*
D10*
X678987D1*
Y788041D1*
X797092D1*
Y768356D1*
D57*
X925222Y2694890D3*
X1015764Y2625970D2*
D10*
X964576D1*
X559039Y2405512D2*
X1015764D1*
Y2625970D2*
Y2584660D1*
Y2405512D2*
Y2462590D1*
X559039Y2625970D2*
X610227D1*
X559039D2*
Y2584660D1*
Y2405512D2*
Y2462590D1*
X2656718Y772536D2*
D119*
X2681267Y852920D1*
X2705744Y772536D1*
X2696548Y799331D2*
X2665915D1*
X2592005Y852920D2*
Y772536D1*
Y814629D2*
X2598089Y822323D1*
X2604244Y826126D1*
X2613441D1*
X2619525Y822323D1*
X2625680Y814629D1*
X2628722Y803133D1*
Y795528D1*
X2625680Y784032D1*
X2619525Y776427D1*
X2613441Y772536D1*
X2604244D1*
X2598089Y776427D1*
X2592005Y784032D1*
X2564009Y826126D2*
X2545615Y772536D1*
X2527292Y826126D1*
X2462579D2*
Y772536D1*
Y814629D2*
X2468663Y822323D1*
X2474818Y826126D1*
X2483944D1*
X2490099Y822323D1*
X2496183Y814629D1*
X2499295Y803133D1*
Y795528D1*
X2496183Y784032D1*
X2490099Y776427D1*
X2483944Y772536D1*
X2474818D1*
X2468663Y776427D1*
X2462579Y784032D1*
X2434582Y826126D2*
Y772536D1*
Y810827D2*
X2425385Y822323D1*
X2419231Y826126D1*
X2410104D1*
X2403950Y822323D1*
X2400908Y810827D1*
Y772536D1*
X2336124Y814629D2*
X2342279Y822323D1*
X2348433Y826126D1*
X2357559D1*
X2363714Y822323D1*
X2369798Y814629D1*
X2372911Y803133D1*
Y795528D1*
X2369798Y784032D1*
X2363714Y776427D1*
X2357559Y772536D1*
X2348433D1*
X2342279Y776427D1*
X2336124Y784032D1*
X2308127Y803133D2*
X2271411D1*
Y810827D1*
X2274453Y818520D1*
X2277495Y822323D1*
X2283649Y826126D1*
X2292846D1*
X2298930Y822323D1*
X2305085Y814629D1*
X2308127Y803133D1*
Y795528D1*
X2305085Y784032D1*
X2298930Y776427D1*
X2292846Y772536D1*
X2283649D1*
X2277495Y776427D1*
X2271411Y784032D1*
X2206697Y852920D2*
Y772536D1*
Y814629D2*
X2212781Y822323D1*
X2218936Y826126D1*
X2228133D1*
X2234217Y822323D1*
X2240372Y814629D1*
X2243414Y803133D1*
Y795528D1*
X2240372Y784032D1*
X2234217Y776427D1*
X2228133Y772536D1*
X2218936D1*
X2212781Y776427D1*
X2206697Y784032D1*
X2062344Y833819D2*
X2065386Y841424D1*
X2071541Y849118D1*
X2077625Y852920D1*
X2089864D1*
X2096019Y849118D1*
X2102103Y841424D1*
X2105215Y833819D1*
X2108257Y822323D1*
Y803133D1*
X2105215Y791726D1*
X2102103Y784032D1*
X2096019Y776427D1*
X2089864Y772536D1*
X2077625D1*
X2071541Y776427D1*
X2065386Y784032D1*
X2062344Y791726D1*
X2034347Y852920D2*
Y772536D1*
Y810827D2*
X2025151Y822323D1*
X2018996Y826126D1*
X2009799D1*
X2003715Y822323D1*
X2000673Y810827D1*
Y772536D1*
X1935960Y826126D2*
Y772536D1*
Y814629D2*
X1942044Y822323D1*
X1948198Y826126D1*
X1957325D1*
X1963479Y822323D1*
X1969563Y814629D1*
X1972676Y803133D1*
Y795528D1*
X1969563Y784032D1*
X1963479Y776427D1*
X1957325Y772536D1*
X1948198D1*
X1942044Y776427D1*
X1935960Y784032D1*
X1907963Y826126D2*
Y772536D1*
Y810827D2*
X1898766Y822323D1*
X1892611Y826126D1*
X1883485D1*
X1877331Y822323D1*
X1874288Y810827D1*
Y772536D1*
X1846292Y826126D2*
Y772536D1*
Y810827D2*
X1837095Y822323D1*
X1830940Y826126D1*
X1821814D1*
X1815659Y822323D1*
X1812617Y810827D1*
Y772536D1*
X1784621Y803133D2*
X1747904D1*
Y810827D1*
X1750946Y818520D1*
X1753988Y822323D1*
X1760143Y826126D1*
X1769340D1*
X1775424Y822323D1*
X1781579Y814629D1*
X1784621Y803133D1*
Y795528D1*
X1781579Y784032D1*
X1775424Y776427D1*
X1769340Y772536D1*
X1760143D1*
X1753988Y776427D1*
X1747904Y784032D1*
X1719908Y852920D2*
Y772536D1*
X2395378Y564043D2*
D120*
X2410721Y614283D1*
X2426020Y564043D1*
X2420272Y580790D2*
X2401126D1*
X2377881Y614283D2*
X2362582Y564043D1*
X2347283Y614283D1*
X2329785Y590352D2*
X2312586D1*
X2306838Y592784D1*
X2304892Y595160D1*
X2302991Y599913D1*
Y604722D1*
X2304892Y609475D1*
X2306838Y611907D1*
X2312586Y614283D1*
X2329785D1*
Y564043D1*
X2316388Y590352D2*
X2302991Y564043D1*
X2254852D2*
X2270194Y614283D1*
X2285493Y564043D1*
X2279745Y580790D2*
X2260600D1*
X2210559Y607098D2*
X2214362Y611907D1*
X2220110Y614283D1*
X2227759D1*
X2233507Y611907D1*
X2237354Y607098D1*
Y602345D1*
X2235408Y597537D1*
X2233507Y595160D1*
X2229704Y592784D1*
X2218208Y587975D1*
X2214362Y585599D1*
X2212460Y583167D1*
X2210559Y578414D1*
Y571228D1*
X2214362Y566475D1*
X2220110Y564043D1*
X2227759D1*
X2233507Y566475D1*
X2237354Y571228D1*
X2162464Y564043D2*
Y614283D1*
X2177763Y564043D1*
X2193061Y614283D1*
Y564043D1*
X2144966Y604667D2*
X2141119Y607098D1*
X2135371Y614228D1*
Y564043D1*
X2115928Y602290D2*
Y604667D1*
X2114027Y609475D1*
X2112126Y611852D1*
X2108279Y614228D1*
X2100630D1*
X2096827Y611852D1*
X2094926Y609475D1*
X2092980Y604667D1*
Y599913D1*
X2094926Y595105D1*
X2098728Y587975D1*
X2117874Y564043D1*
X2091079D1*
X2069734Y614228D2*
X2048732D1*
X2060184Y595105D1*
X2054436D1*
X2050633Y592728D1*
X2048732Y590352D1*
X2046786Y583167D1*
Y578414D1*
X2048732Y571228D1*
X2052535Y566420D1*
X2058283Y564043D1*
X2064031D1*
X2069734Y566420D1*
X2071636Y568852D1*
X2073581Y573605D1*
X2010143Y564043D2*
Y614228D1*
X2029289Y580790D1*
X2000593D1*
X2385528Y515613D2*
X2381681Y518045D1*
X2375933Y525174D1*
Y474990D1*
X2335487Y525174D2*
X2354588D1*
X2356490Y503675D1*
X2354588Y506051D1*
X2348840Y508483D1*
X2343137D1*
X2337388Y506051D1*
X2333542Y501298D1*
X2331640Y494113D1*
Y489360D1*
X2333542Y482175D1*
X2337388Y477366D1*
X2343137Y474990D1*
X2348840D1*
X2354588Y477366D1*
X2356490Y479798D1*
X2358435Y484551D1*
X2312241Y479798D2*
X2314143Y477366D1*
X2312241Y474990D1*
X2310296Y477366D1*
X2312241Y479798D1*
X2281302Y525174D2*
X2287050Y522798D1*
X2290897Y515613D1*
X2292798Y503675D1*
Y496489D1*
X2290897Y484551D1*
X2287050Y477366D1*
X2281302Y474990D1*
X2277499D1*
X2271751Y477366D1*
X2267949Y484551D1*
X2266003Y496489D1*
Y503675D1*
X2267949Y515613D1*
X2271751Y522798D1*
X2277499Y525174D1*
X2281302D1*
X2267949Y515613D2*
X2290897Y484551D1*
X2225558Y525174D2*
X2244659D1*
X2246560Y503675D1*
X2244659Y506051D1*
X2238911Y508483D1*
X2233207D1*
X2227459Y506051D1*
X2223612Y501298D1*
X2221711Y494113D1*
Y489360D1*
X2223612Y482175D1*
X2227459Y477366D1*
X2233207Y474990D1*
X2238911D1*
X2244659Y477366D1*
X2246560Y479798D1*
X2248506Y484551D1*
X2202312Y479798D2*
X2204213Y477366D1*
X2202312Y474990D1*
X2200366Y477366D1*
X2202312Y479798D1*
X2180923Y513236D2*
Y515613D1*
X2179022Y520421D1*
X2177120Y522798D1*
X2173274Y525174D1*
X2165624D1*
X2161822Y522798D1*
X2159921Y520421D1*
X2157975Y515613D1*
Y510860D1*
X2159921Y506051D1*
X2163723Y498921D1*
X2182869Y474990D1*
X2156074D1*
X2127080Y525174D2*
X2132828Y522798D1*
X2136675Y515613D1*
X2138576Y503675D1*
Y496489D1*
X2136675Y484551D1*
X2132828Y477366D1*
X2127080Y474990D1*
X2123277D1*
X2117529Y477366D1*
X2113727Y484551D1*
X2111781Y496489D1*
Y503675D1*
X2113727Y515613D1*
X2117529Y522798D1*
X2123277Y525174D1*
X2127080D1*
X2113727Y515613D2*
X2136675Y484551D1*
X2094284Y515613D2*
X2090437Y518045D1*
X2084689Y525174D1*
Y474990D1*
X2057640Y525174D2*
X2063344Y522798D1*
X2065290Y518045D1*
Y513236D1*
X2063344Y508483D1*
X2059542Y506051D1*
X2051892Y503675D1*
X2046144Y501298D1*
X2042342Y496489D1*
X2040441Y491736D1*
Y484551D1*
X2042342Y479798D1*
X2044243Y477366D1*
X2049991Y474990D1*
X2057640D1*
X2063344Y477366D1*
X2065290Y479798D1*
X2067191Y484551D1*
Y491736D1*
X2065290Y496489D1*
X2061443Y501298D1*
X2055739Y503675D1*
X2048090Y506051D1*
X2044243Y508483D1*
X2042342Y513236D1*
Y518045D1*
X2044243Y522798D1*
X2049991Y525174D1*
X2057640D1*
X2424750Y706318D2*
Y656078D1*
Y706318D2*
X2451545Y656078D1*
Y706318D2*
Y656078D1*
X2407253Y689571D2*
Y656078D1*
X2394342D1*
X2390008Y657680D1*
X2388594Y659283D1*
X2387179Y662434D1*
Y667242D1*
X2388594Y670448D1*
X2390008Y672050D1*
X2394342Y673598D1*
X2390008Y675256D1*
X2388594Y676804D1*
X2387179Y680009D1*
Y683215D1*
X2388594Y686365D1*
X2390008Y687968D1*
X2394342Y689571D1*
X2407253D1*
Y673598D2*
X2394342D1*
X2346733Y689571D2*
Y656078D1*
Y682386D2*
X2350535Y687194D1*
X2354382Y689571D1*
X2360086D1*
X2363933Y687194D1*
X2367735Y682386D1*
X2369681Y675201D1*
Y670448D1*
X2367735Y663263D1*
X2363933Y658509D1*
X2360086Y656078D1*
X2354382D1*
X2350535Y658509D1*
X2346733Y663263D1*
X2329235Y689571D2*
Y656078D1*
X2309161Y689571D2*
Y656078D1*
X2329235Y673598D2*
X2309161D1*
X2271589Y689571D2*
Y656078D1*
Y689571D2*
X2291663Y656078D1*
Y689571D2*
Y656078D1*
X2254092D2*
Y689571D1*
X2225396D2*
Y656078D1*
X2239766Y689571D2*
Y656078D1*
X2254092D2*
X2225396D1*
X2187824Y689571D2*
Y656078D1*
Y689571D2*
X2207898Y656078D1*
Y689571D2*
Y656078D1*
X2170326Y689571D2*
Y656078D1*
X2150252Y689571D2*
Y656078D1*
X2170326Y673598D2*
X2150252D1*
X2088727Y706318D2*
Y656078D1*
X2071483D1*
X2065735Y658509D1*
X2063834Y660886D1*
X2061933Y665639D1*
Y672824D1*
X2063834Y677633D1*
X2065735Y680009D1*
X2071483Y682386D1*
X2065735Y684818D1*
X2063834Y687194D1*
X2061933Y691947D1*
Y696756D1*
X2063834Y701509D1*
X2065735Y703941D1*
X2071483Y706318D1*
X2088727D1*
Y682386D2*
X2071483D1*
X2042534Y660886D2*
X2044435Y658454D1*
X2042534Y656078D1*
X2040588Y658454D1*
X2042534Y660886D1*
X2023090Y706318D2*
Y656078D1*
X2005846D1*
X2000098Y658509D1*
X1998197Y660886D1*
X1996296Y665639D1*
Y672824D1*
X1998197Y677633D1*
X2000098Y680009D1*
X2005846Y682386D1*
X2000098Y684818D1*
X1998197Y687194D1*
X1996296Y691947D1*
Y696756D1*
X1998197Y701509D1*
X2000098Y703941D1*
X2005846Y706318D1*
X2023090D1*
Y682386D2*
X2005846D1*
X1976896Y660886D2*
X1978798Y658454D1*
X1976896Y656078D1*
X1974951Y658454D1*
X1976896Y660886D1*
X1266332Y3629649D2*
D119*
X1258727Y3632691D1*
X1251033Y3638846D1*
X1247231Y3644930D1*
Y3657169D1*
X1251033Y3663324D1*
X1258727Y3669408D1*
X1266332Y3672521D1*
X1277828Y3675563D1*
X1297018D1*
X1308425Y3672521D1*
X1316119Y3669408D1*
X1323724Y3663324D1*
X1327615Y3657169D1*
Y3644930D1*
X1323724Y3638846D1*
X1316119Y3632691D1*
X1308425Y3629649D1*
X1274025Y3586372D2*
X1277828Y3592456D1*
X1285521Y3598611D1*
X1297018Y3601653D1*
X1304623D1*
X1316119Y3598611D1*
X1323724Y3592456D1*
X1327615Y3586372D1*
Y3577175D1*
X1323724Y3571020D1*
X1316119Y3564936D1*
X1304623Y3561823D1*
X1297018D1*
X1285521Y3564936D1*
X1277828Y3571020D1*
X1274025Y3577175D1*
Y3586372D1*
Y3533827D2*
X1327615D1*
X1289324D2*
X1277828Y3524630D1*
X1274025Y3518475D1*
Y3509349D1*
X1277828Y3503194D1*
X1289324Y3500152D1*
X1327615D1*
X1247231Y3462959D2*
X1312316D1*
X1323724Y3459917D1*
X1327615Y3453762D1*
Y3447678D1*
X1274025Y3472156D2*
Y3450720D1*
Y3419681D2*
X1327615D1*
X1297018D2*
X1285521Y3416569D1*
X1277828Y3410485D1*
X1274025Y3404330D1*
Y3395133D1*
Y3351856D2*
X1277828Y3357940D1*
X1285521Y3364094D1*
X1297018Y3367136D1*
X1304623D1*
X1316119Y3364094D1*
X1323724Y3357940D1*
X1327615Y3351856D1*
Y3342659D1*
X1323724Y3336504D1*
X1316119Y3330420D1*
X1304623Y3327307D1*
X1297018D1*
X1285521Y3330420D1*
X1277828Y3336504D1*
X1274025Y3342659D1*
Y3351856D1*
X1247231Y3299310D2*
X1327615D1*
X1289324Y3200870D2*
Y3173280D1*
X1285522Y3164154D1*
X1281631Y3161041D1*
X1274025Y3157999D1*
X1262529D1*
X1254924Y3161041D1*
X1251033Y3164154D1*
X1247231Y3173280D1*
Y3200871D1*
X1327615Y3200870D1*
X1274025Y3093286D2*
X1327615D1*
X1285522D2*
X1277828Y3099370D1*
X1274025Y3105525D1*
Y3114651D1*
X1277828Y3120806D1*
X1285522Y3126890D1*
X1297018Y3130003D1*
X1304623D1*
X1316119Y3126890D1*
X1323724Y3120806D1*
X1327615Y3114651D1*
Y3105525D1*
X1323724Y3099370D1*
X1316119Y3093286D1*
X1274025Y3065289D2*
X1327615D1*
X1289324D2*
X1277828Y3056093D1*
X1274025Y3049938D1*
Y3040812D1*
X1277828Y3034657D1*
X1289324Y3031615D1*
X1327615D1*
X1297018Y3003618D2*
Y2966902D1*
X1289324D1*
X1281631Y2969944D1*
X1277828Y2972986D1*
X1274025Y2979141D1*
Y2988337D1*
X1277828Y2994421D1*
X1285522Y3000576D1*
X1297018Y3003618D1*
X1304623D1*
X1316119Y3000576D1*
X1323724Y2994421D1*
X1327615Y2988337D1*
Y2979141D1*
X1323724Y2972986D1*
X1316119Y2966902D1*
X1247231Y2938905D2*
X1327615D1*
X1536107Y3489376D2*
D120*
X1485867Y3504719D1*
X1536107Y3520017D1*
X1519361Y3514269D2*
Y3495124D1*
X1485867Y3471878D2*
X1536107Y3456579D1*
X1485867Y3441281D1*
X1509799Y3423783D2*
Y3406583D1*
X1507367Y3400835D1*
X1504991Y3398889D1*
X1500238Y3396988D1*
X1495429D1*
X1490676Y3398889D1*
X1488244Y3400835D1*
X1485867Y3406583D1*
Y3423783D1*
X1536107D1*
X1509799Y3410386D2*
X1536107Y3396988D1*
Y3348849D2*
X1485868Y3364192D1*
X1536107Y3379490D1*
X1519361Y3373742D2*
Y3354597D1*
X1493053Y3304556D2*
X1488244Y3308359D1*
X1485868Y3314107D1*
Y3321756D1*
X1488244Y3327504D1*
X1493053Y3331351D1*
X1497806D1*
X1502614Y3329406D1*
X1504991Y3327504D1*
X1507367Y3323702D1*
X1512176Y3312206D1*
X1514552Y3308359D1*
X1516984Y3306458D1*
X1521737Y3304556D1*
X1528922D1*
X1533676Y3308359D1*
X1536107Y3314107D1*
Y3321756D1*
X1533676Y3327504D1*
X1528922Y3331351D1*
X1536107Y3256461D2*
X1485868D1*
X1536107Y3271760D1*
X1485868Y3287059D1*
X1536107D1*
X1495484Y3238964D2*
X1493053Y3235117D1*
X1485923Y3229369D1*
X1536107D1*
X1497861Y3209926D2*
X1495484D1*
X1490676Y3208024D1*
X1488299Y3206123D1*
X1485923Y3202276D1*
Y3194627D1*
X1488299Y3190824D1*
X1490676Y3188923D1*
X1495484Y3186978D1*
X1500238D1*
X1505046Y3188923D1*
X1512176Y3192726D1*
X1536107Y3211871D1*
X1536108Y3185076D1*
X1485923Y3163732D2*
Y3142729D1*
X1505046Y3154181D1*
Y3148433D1*
X1507423Y3144631D1*
X1509799Y3142729D1*
X1516984Y3140784D1*
X1521737D1*
X1528922Y3142729D1*
X1533731Y3146532D1*
X1536108Y3152280D1*
Y3158028D1*
X1533731Y3163732D1*
X1531299Y3165633D1*
X1526546Y3167579D1*
X1536108Y3104141D2*
X1485923D1*
X1519361Y3123286D1*
Y3094590D1*
X1584538Y3479525D2*
X1582106Y3475678D1*
X1574977Y3469930D1*
X1625161D1*
X1574977Y3429485D2*
Y3448586D1*
X1596476Y3450487D1*
X1594100Y3448586D1*
X1591668Y3442838D1*
Y3437134D1*
X1594100Y3431386D1*
X1598853Y3427539D1*
X1606038Y3425638D1*
X1610791D1*
X1617976Y3427539D1*
X1622785Y3431386D1*
X1625161Y3437134D1*
Y3442838D1*
X1622785Y3448586D1*
X1620353Y3450487D1*
X1615600Y3452432D1*
X1620353Y3406239D2*
X1622785Y3408140D1*
X1625161Y3406239D1*
X1622785Y3404293D1*
X1620353Y3406239D1*
X1574977Y3375299D2*
X1577353Y3381047D1*
X1584538Y3384894D1*
X1596476Y3386795D1*
X1603661D1*
X1615600Y3384894D1*
X1622785Y3381047D1*
X1625161Y3375299D1*
Y3371497D1*
X1622785Y3365749D1*
X1615600Y3361946D1*
X1603661Y3360001D1*
X1596476D1*
X1584538Y3361946D1*
X1577353Y3365749D1*
X1574977Y3371497D1*
Y3375299D1*
X1584538Y3361946D2*
X1615600Y3384894D1*
X1574977Y3319555D2*
Y3338656D1*
X1596476Y3340557D1*
X1594100Y3338656D1*
X1591668Y3332908D1*
Y3327204D1*
X1594100Y3321456D1*
X1598853Y3317610D1*
X1606038Y3315708D1*
X1610791D1*
X1617976Y3317610D1*
X1622785Y3321456D1*
X1625161Y3327204D1*
Y3332908D1*
X1622785Y3338656D1*
X1620353Y3340557D1*
X1615600Y3342503D1*
X1620353Y3296309D2*
X1622785Y3298210D1*
X1625161Y3296309D1*
X1622785Y3294364D1*
X1620353Y3296309D1*
X1586915Y3274920D2*
X1584538D1*
X1579730Y3273019D1*
X1577353Y3271118D1*
X1574977Y3267271D1*
Y3259622D1*
X1577353Y3255819D1*
X1579730Y3253918D1*
X1584538Y3251973D1*
X1589291D1*
X1594100Y3253918D1*
X1601230Y3257721D1*
X1625161Y3276866D1*
Y3250071D1*
X1574977Y3221077D2*
X1577353Y3226825D1*
X1584538Y3230672D1*
X1596476Y3232573D1*
X1603661D1*
X1615600Y3230672D1*
X1622785Y3226825D1*
X1625161Y3221077D1*
Y3217275D1*
X1622785Y3211527D1*
X1615600Y3207724D1*
X1603661Y3205779D1*
X1596476D1*
X1584538Y3207724D1*
X1577353Y3211527D1*
X1574977Y3217275D1*
Y3221077D1*
X1584538Y3207724D2*
X1615600Y3230672D1*
X1584538Y3188281D2*
X1582106Y3184434D1*
X1574977Y3178686D1*
X1625161D1*
X1574977Y3151638D2*
X1577353Y3157342D1*
X1582106Y3159287D1*
X1586915D1*
X1591668Y3157342D1*
X1594100Y3153539D1*
X1596476Y3145890D1*
X1598853Y3140142D1*
X1603661Y3136339D1*
X1608415Y3134438D1*
X1615600D1*
X1620353Y3136339D1*
X1622785Y3138241D1*
X1625161Y3143989D1*
Y3151638D1*
X1622785Y3157342D1*
X1620353Y3159287D1*
X1615600Y3161188D1*
X1608415D1*
X1603661Y3159287D1*
X1598853Y3155440D1*
X1596476Y3149737D1*
X1594100Y3142087D1*
X1591668Y3138241D1*
X1586915Y3136339D1*
X1582106D1*
X1577353Y3138241D1*
X1574977Y3143989D1*
Y3151638D1*
X1393833Y3518748D2*
X1444073D1*
X1393833D2*
X1444073Y3545542D1*
X1393833D2*
X1444073D1*
X1410580Y3501250D2*
X1444073D1*
Y3488339D1*
X1442471Y3484006D1*
X1440868Y3482591D1*
X1437717Y3481176D1*
X1432909D1*
X1429703Y3482591D1*
X1428100Y3484006D1*
X1426553Y3488339D1*
X1424895Y3484006D1*
X1423347Y3482591D1*
X1420142Y3481176D1*
X1416936D1*
X1413786Y3482591D1*
X1412183Y3484006D1*
X1410580Y3488339D1*
Y3501250D1*
X1426553D2*
Y3488339D1*
X1410580Y3440730D2*
X1444073D1*
X1417765D2*
X1412957Y3444533D1*
X1410580Y3448380D1*
Y3454083D1*
X1412957Y3457930D1*
X1417765Y3461733D1*
X1424950Y3463678D1*
X1429703D1*
X1436888Y3461733D1*
X1441642Y3457930D1*
X1444073Y3454083D1*
Y3448380D1*
X1441642Y3444533D1*
X1436888Y3440730D1*
X1410580Y3423232D2*
X1444073D1*
X1410580Y3403159D2*
X1444073D1*
X1426553Y3423232D2*
Y3403159D1*
X1410580Y3365587D2*
X1444073D1*
X1410580D2*
X1444073Y3385661D1*
X1410580D2*
X1444073D1*
Y3348089D2*
X1410580D1*
Y3319393D2*
X1444073D1*
X1410580Y3333763D2*
X1444073D1*
Y3348089D2*
Y3319393D1*
X1410580Y3281821D2*
X1444073D1*
X1410580D2*
X1444073Y3301895D1*
X1410580D2*
X1444073D1*
X1410580Y3264324D2*
X1444073D1*
X1410580Y3244250D2*
X1444073D1*
X1426553Y3264324D2*
Y3244250D1*
X1393833Y3182725D2*
X1444073D1*
Y3165481D1*
X1441642Y3159733D1*
X1439265Y3157831D1*
X1434512Y3155930D1*
X1427327D1*
X1422518Y3157831D1*
X1420142Y3159733D1*
X1417765Y3165481D1*
X1415333Y3159733D1*
X1412957Y3157831D1*
X1408203Y3155930D1*
X1403395D1*
X1398642Y3157831D1*
X1396210Y3159733D1*
X1393833Y3165481D1*
Y3182725D1*
X1417765D2*
Y3165481D1*
X1439265Y3136531D2*
X1441697Y3138432D1*
X1444073Y3136531D1*
X1441697Y3134585D1*
X1439265Y3136531D1*
X1393833Y3117088D2*
X1444073D1*
Y3099844D1*
X1441642Y3094096D1*
X1439265Y3092194D1*
X1434512Y3090293D1*
X1427327D1*
X1422518Y3092194D1*
X1420142Y3094096D1*
X1417765Y3099844D1*
X1415333Y3094096D1*
X1412957Y3092194D1*
X1408203Y3090293D1*
X1403395D1*
X1398642Y3092194D1*
X1396210Y3094096D1*
X1393833Y3099844D1*
Y3117088D1*
X1417765D2*
Y3099844D1*
X1439265Y3070894D2*
X1441697Y3072795D1*
X1444073Y3070894D1*
X1441697Y3068949D1*
X1439265Y3070894D1*
X2979514Y3258688D2*
D119*
X3036906D1*
X3048402Y3255646D1*
X3056007Y3249491D1*
X3059898Y3240294D1*
Y3234210D1*
X3056007Y3225013D1*
X3048402Y3218858D1*
X3036906Y3215816D1*
X2979514D1*
X2991010Y3144948D2*
X2983317Y3151033D1*
X2979514Y3160229D1*
Y3172468D1*
X2983317Y3181665D1*
X2991010Y3187820D1*
X2998615D1*
X3006309Y3184707D1*
X3010111Y3181665D1*
X3013914Y3175581D1*
X3021607Y3157187D1*
X3025410Y3151033D1*
X3029301Y3147990D1*
X3036906Y3144948D1*
X3048402D1*
X3056007Y3151033D1*
X3059898Y3160229D1*
Y3172468D1*
X3056007Y3181665D1*
X3048402Y3187820D1*
X2979514Y3116952D2*
X3059898D1*
Y3089361D1*
X3056007Y3080165D1*
X3052205Y3077123D1*
X3044600Y3074080D1*
X3033104D1*
X3025410Y3077123D1*
X3021607Y3080165D1*
X3017805Y3089361D1*
X3013914Y3080165D1*
X3010111Y3077123D1*
X3002506Y3074080D1*
X2994813D1*
X2987208Y3077123D1*
X2983317Y3080165D1*
X2979514Y3089361D1*
Y3116952D1*
X3017805D2*
Y3089361D1*
X2998615Y2929727D2*
X2991010Y2932769D1*
X2983317Y2938924D1*
X2979514Y2945008D1*
Y2957247D1*
X2983317Y2963402D1*
X2991010Y2969486D1*
X2998615Y2972598D1*
X3010111Y2975640D1*
X3029301D1*
X3040709Y2972598D1*
X3048402Y2969486D1*
X3056007Y2963402D1*
X3059898Y2957247D1*
Y2945008D1*
X3056007Y2938924D1*
X3048402Y2932769D1*
X3040709Y2929727D1*
X2979514Y2901730D2*
X3059898D1*
X3021608D2*
X3010111Y2892534D1*
X3006309Y2886379D1*
Y2877182D1*
X3010111Y2871098D1*
X3021608Y2868056D1*
X3059898D1*
X3006309Y2803343D2*
X3059898D1*
X3017805D2*
X3010111Y2809427D1*
X3006309Y2815582D1*
Y2824708D1*
X3010111Y2830862D1*
X3017805Y2836947D1*
X3029301Y2840059D1*
X3036906D1*
X3048402Y2836947D1*
X3056007Y2830862D1*
X3059898Y2824708D1*
Y2815582D1*
X3056007Y2809427D1*
X3048402Y2803343D1*
X3006309Y2775346D2*
X3059898D1*
X3029301D2*
X3017805Y2772233D1*
X3010111Y2766149D1*
X3006309Y2759995D1*
Y2750798D1*
X3010111Y2686085D2*
X3071394D1*
X3082802Y2689127D1*
X3086693Y2692169D1*
X3090495Y2698323D1*
Y2707520D1*
X3086693Y2713604D1*
X3021608Y2686085D2*
X3014002Y2692169D1*
X3010111Y2698323D1*
Y2707520D1*
X3014002Y2713604D1*
X3021608Y2719759D1*
X3033104Y2722801D1*
X3040797D1*
X3052205Y2719759D1*
X3059898Y2713604D1*
X3063701Y2707520D1*
Y2698323D1*
X3059898Y2692169D1*
X3052205Y2686085D1*
X3029301Y2658088D2*
Y2621371D1*
X3021608D1*
X3013914Y2624413D1*
X3010111Y2627456D1*
X3006309Y2633610D1*
Y2642807D1*
X3010111Y2648891D1*
X3017805Y2655046D1*
X3029301Y2658088D1*
X3036906D1*
X3048402Y2655046D1*
X3056007Y2648891D1*
X3059898Y2642807D1*
Y2633610D1*
X3056007Y2627455D1*
X3048402Y2621371D1*
X3006309Y2593375D2*
X3059898D1*
X3029301D2*
X3017805Y2590262D1*
X3010111Y2584178D1*
X3006309Y2578023D1*
Y2568826D1*
X3268391Y3095675D2*
D120*
X3218151Y3111018D1*
X3268391Y3126316D1*
X3251644Y3120568D2*
Y3101423D1*
X3218151Y3078177D2*
X3268391Y3062878D1*
X3218151Y3047580D1*
X3242083Y3030082D2*
Y3012882D1*
X3239651Y3007134D1*
X3237274Y3005189D1*
X3232521Y3003287D1*
X3227713D1*
X3222959Y3005189D1*
X3220528Y3007134D1*
X3218151Y3012882D1*
Y3030082D1*
X3268391D1*
X3242083Y3016685D2*
X3268391Y3003287D1*
Y2955148D2*
X3218151Y2970491D1*
X3268391Y2985790D1*
X3251644Y2980042D2*
Y2960896D1*
X3225336Y2910856D2*
X3220528Y2914658D1*
X3218151Y2920406D1*
Y2928056D1*
X3220528Y2933804D1*
X3225336Y2937650D1*
X3230089D1*
X3234898Y2935705D1*
X3237274Y2933804D1*
X3239651Y2930001D1*
X3244459Y2918505D1*
X3246836Y2914658D1*
X3249268Y2912757D1*
X3254021Y2910856D1*
X3261206D1*
X3265959Y2914658D1*
X3268391Y2920406D1*
Y2928056D1*
X3265959Y2933804D1*
X3261206Y2937650D1*
X3268391Y2862761D2*
X3218151D1*
X3268391Y2878059D1*
X3218151Y2893358D1*
X3268391D1*
X3227768Y2845263D2*
X3225336Y2841416D1*
X3218206Y2835668D1*
X3268391D1*
X3230144Y2816225D2*
X3227768D1*
X3222959Y2814324D1*
X3220583Y2812422D1*
X3218206Y2808575D1*
Y2800926D1*
X3220583Y2797124D1*
X3222959Y2795222D1*
X3227768Y2793277D1*
X3232521D1*
X3237330Y2795222D1*
X3244459Y2799025D1*
X3268391Y2818170D1*
Y2791376D1*
X3218206Y2770031D2*
Y2749029D1*
X3237330Y2760480D1*
Y2754732D1*
X3239706Y2750930D1*
X3242083Y2749029D1*
X3249268Y2747083D1*
X3254021D1*
X3261206Y2749029D1*
X3266014Y2752831D1*
X3268391Y2758579D1*
Y2764327D1*
X3266014Y2770031D1*
X3263583Y2771932D1*
X3258829Y2773878D1*
X3268391Y2710440D2*
X3218206D1*
X3251644Y2729585D1*
Y2700889D1*
X3316822Y3085824D2*
X3314390Y3081978D1*
X3307260Y3076230D1*
X3357445D1*
X3307260Y3035784D2*
Y3054885D1*
X3328760Y3056786D1*
X3326383Y3054885D1*
X3323951Y3049137D1*
Y3043433D1*
X3326383Y3037685D1*
X3331136Y3033838D1*
X3338322Y3031937D1*
X3343075D1*
X3350260Y3033838D1*
X3355068Y3037685D1*
X3357445Y3043433D1*
Y3049137D1*
X3355068Y3054885D1*
X3352636Y3056786D1*
X3347883Y3058732D1*
X3352636Y3012538D2*
X3355068Y3014439D1*
X3357445Y3012538D1*
X3355068Y3010592D1*
X3352636Y3012538D1*
X3307260Y2981599D2*
X3309637Y2987347D1*
X3316822Y2991193D1*
X3328760Y2993095D1*
X3335945D1*
X3347883Y2991193D1*
X3355068Y2987347D1*
X3357445Y2981599D1*
Y2977796D1*
X3355068Y2972048D1*
X3347883Y2968245D1*
X3335945Y2966300D1*
X3328760D1*
X3316822Y2968245D1*
X3309637Y2972048D1*
X3307260Y2977796D1*
Y2981599D1*
X3316822Y2968245D2*
X3347883Y2991193D1*
X3307260Y2925854D2*
Y2944955D1*
X3328760Y2946857D1*
X3326383Y2944955D1*
X3323951Y2939207D1*
Y2933504D1*
X3326383Y2927756D1*
X3331136Y2923909D1*
X3338322Y2922008D1*
X3343075D1*
X3350260Y2923909D1*
X3355068Y2927756D1*
X3357445Y2933504D1*
Y2939207D1*
X3355068Y2944955D1*
X3352636Y2946857D1*
X3347883Y2948802D1*
X3352636Y2902608D2*
X3355068Y2904510D1*
X3357445Y2902608D1*
X3355068Y2900663D1*
X3352636Y2902608D1*
X3319198Y2881220D2*
X3316822D1*
X3312013Y2879318D1*
X3309637Y2877417D1*
X3307260Y2873570D1*
Y2865921D1*
X3309637Y2862119D1*
X3312013Y2860217D1*
X3316822Y2858272D1*
X3321575D1*
X3326383Y2860217D1*
X3333513Y2864020D1*
X3357445Y2883165D1*
Y2856370D1*
X3307260Y2827377D2*
X3309637Y2833125D1*
X3316822Y2836971D1*
X3328760Y2838873D1*
X3335945D1*
X3347883Y2836971D1*
X3355068Y2833125D1*
X3357445Y2827377D1*
Y2823574D1*
X3355068Y2817826D1*
X3347883Y2814023D1*
X3335945Y2812078D1*
X3328760D1*
X3316822Y2814024D1*
X3309637Y2817826D1*
X3307260Y2823574D1*
Y2827377D1*
X3316822Y2814024D2*
X3347883Y2836971D1*
X3316822Y2794580D2*
X3314390Y2790733D1*
X3307260Y2784985D1*
X3357445D1*
X3307260Y2757937D2*
X3309637Y2763641D1*
X3314390Y2765586D1*
X3319198D1*
X3323951Y2763641D1*
X3326383Y2759838D1*
X3328760Y2752189D1*
X3331136Y2746441D1*
X3335945Y2742638D1*
X3340698Y2740737D1*
X3347883D1*
X3352636Y2742638D1*
X3355068Y2744540D1*
X3357445Y2750288D1*
Y2757937D1*
X3355068Y2763641D1*
X3352636Y2765586D1*
X3347883Y2767488D1*
X3340698D1*
X3335945Y2765586D1*
X3331136Y2761740D1*
X3328760Y2756036D1*
X3326383Y2748387D1*
X3323951Y2744540D1*
X3319198Y2742638D1*
X3314390D1*
X3309637Y2744540D1*
X3307260Y2750288D1*
Y2757937D1*
X3126117Y3125047D2*
X3176357D1*
X3126117D2*
X3176357Y3151842D1*
X3126117D2*
X3176357D1*
X3142863Y3107549D2*
X3176357D1*
Y3094638D1*
X3174754Y3090305D1*
X3173151Y3088890D1*
X3170001Y3087475D1*
X3165192D1*
X3161987Y3088890D1*
X3160384Y3090305D1*
X3158836Y3094638D1*
X3157178Y3090305D1*
X3155631Y3088890D1*
X3152425Y3087475D1*
X3149219D1*
X3146069Y3088890D1*
X3144466Y3090305D1*
X3142863Y3094638D1*
Y3107549D1*
X3158836D2*
Y3094638D1*
X3142864Y3047029D2*
X3176357D1*
X3150049D2*
X3145240Y3050832D1*
X3142864Y3054679D1*
Y3060383D1*
X3145240Y3064229D1*
X3150049Y3068032D1*
X3157234Y3069977D1*
X3161987D1*
X3169172Y3068032D1*
X3173925Y3064229D1*
X3176357Y3060383D1*
Y3054679D1*
X3173925Y3050832D1*
X3169172Y3047029D1*
X3142864Y3029532D2*
X3176357D1*
X3142864Y3009458D2*
X3176357D1*
X3158836Y3029532D2*
Y3009458D1*
X3142864Y2971886D2*
X3176357D1*
X3142864D2*
X3176357Y2991960D1*
X3142864D2*
X3176357D1*
Y2954388D2*
X3142864D1*
Y2925692D2*
X3176357D1*
X3142864Y2940062D2*
X3176357D1*
Y2954388D2*
Y2925692D1*
X3142864Y2888121D2*
X3176357D1*
X3142864D2*
X3176357Y2908194D1*
X3142864Y2908195D2*
X3176357Y2908194D1*
X3142864Y2870623D2*
X3176357D1*
X3142864Y2850549D2*
X3176357D1*
X3158836Y2870623D2*
Y2850549D1*
X3126117Y2789024D2*
X3176357D1*
Y2771780D1*
X3173925Y2766032D1*
X3171548Y2764131D1*
X3166795Y2762229D1*
X3159610D1*
X3154802Y2764131D1*
X3152425Y2766032D1*
X3150049Y2771780D1*
X3147617Y2766032D1*
X3145240Y2764131D1*
X3140487Y2762229D1*
X3135679D1*
X3130925Y2764131D1*
X3128493Y2766032D1*
X3126117Y2771780D1*
Y2789024D1*
X3150049D2*
Y2771780D1*
X3171548Y2742830D2*
X3173980Y2744731D1*
X3176357Y2742830D1*
X3173980Y2740885D1*
X3171548Y2742830D1*
X3126117Y2723387D2*
X3176357D1*
Y2706143D1*
X3173925Y2700395D1*
X3171548Y2698494D1*
X3166795Y2696592D1*
X3159610D1*
X3154802Y2698494D1*
X3152425Y2700395D1*
X3150049Y2706143D1*
X3147617Y2700395D1*
X3145240Y2698494D1*
X3140487Y2696592D1*
X3135678D1*
X3130925Y2698494D1*
X3128493Y2700395D1*
X3126117Y2706143D1*
Y2723387D1*
X3150049D2*
Y2706143D1*
X3171548Y2677193D2*
X3173980Y2679094D1*
X3176357Y2677193D1*
X3173980Y2675248D1*
X3171548Y2677193D1*
X1916522Y3258688D2*
D119*
X1973914D1*
X1985410Y3255646D1*
X1993015Y3249491D1*
X1996906Y3240294D1*
Y3234210D1*
X1993015Y3225013D1*
X1985410Y3218858D1*
X1973914Y3215816D1*
X1916522D1*
X1928018Y3144948D2*
X1920325Y3151033D1*
X1916522Y3160229D1*
Y3172468D1*
X1920325Y3181665D1*
X1928018Y3187820D1*
X1935623D1*
X1943317Y3184707D1*
X1947119Y3181665D1*
X1950922Y3175581D1*
X1958615Y3157187D1*
X1962418Y3151033D1*
X1966309Y3147990D1*
X1973914Y3144948D1*
X1985410D1*
X1993015Y3151033D1*
X1996906Y3160229D1*
Y3172468D1*
X1993015Y3181665D1*
X1985410Y3187820D1*
X1916522Y3116952D2*
X1996906D1*
Y3089361D1*
X1993015Y3080165D1*
X1989213Y3077123D1*
X1981607Y3074080D1*
X1970111D1*
X1962418Y3077123D1*
X1958615Y3080165D1*
X1954813Y3089361D1*
X1950922Y3080165D1*
X1947119Y3077123D1*
X1939514Y3074080D1*
X1931821D1*
X1924216Y3077123D1*
X1920325Y3080165D1*
X1916522Y3089361D1*
Y3116952D1*
X1954813D2*
Y3089361D1*
X1935623Y2929727D2*
X1928018Y2932769D1*
X1920325Y2938924D1*
X1916522Y2945008D1*
Y2957247D1*
X1920325Y2963402D1*
X1928018Y2969486D1*
X1935623Y2972598D1*
X1947119Y2975640D1*
X1966309D1*
X1977717Y2972598D1*
X1985410Y2969486D1*
X1993015Y2963402D1*
X1996906Y2957247D1*
Y2945008D1*
X1993015Y2938924D1*
X1985410Y2932769D1*
X1977717Y2929727D1*
X1916522Y2901730D2*
X1996906D1*
X1958615D2*
X1947119Y2892534D1*
X1943317Y2886379D1*
Y2877182D1*
X1947119Y2871098D1*
X1958615Y2868056D1*
X1996906D1*
X1943317Y2803343D2*
X1996906D1*
X1954813D2*
X1947119Y2809427D1*
X1943317Y2815582D1*
Y2824708D1*
X1947119Y2830862D1*
X1954813Y2836947D1*
X1966309Y2840059D1*
X1973914D1*
X1985410Y2836947D1*
X1993015Y2830862D1*
X1996906Y2824708D1*
Y2815582D1*
X1993015Y2809427D1*
X1985410Y2803343D1*
X1943317Y2775346D2*
X1996906D1*
X1966309D2*
X1954813Y2772233D1*
X1947119Y2766149D1*
X1943317Y2759995D1*
Y2750798D1*
X1947119Y2686085D2*
X2008402D1*
X2019810Y2689127D1*
X2023701Y2692169D1*
X2027503Y2698323D1*
Y2707520D1*
X2023701Y2713604D1*
X1958615Y2686085D2*
X1951010Y2692169D1*
X1947119Y2698323D1*
Y2707520D1*
X1951010Y2713604D1*
X1958615Y2719759D1*
X1970111Y2722801D1*
X1977805D1*
X1989213Y2719759D1*
X1996906Y2713604D1*
X2000709Y2707520D1*
Y2698323D1*
X1996906Y2692169D1*
X1989213Y2686085D1*
X1966309Y2658088D2*
Y2621371D1*
X1958615D1*
X1950922Y2624413D1*
X1947119Y2627456D1*
X1943317Y2633610D1*
Y2642807D1*
X1947119Y2648891D1*
X1954813Y2655046D1*
X1966309Y2658088D1*
X1973914D1*
X1985410Y2655046D1*
X1993015Y2648891D1*
X1996906Y2642807D1*
Y2633610D1*
X1993015Y2627455D1*
X1985410Y2621371D1*
X1943317Y2593375D2*
X1996906D1*
X1966309D2*
X1954813Y2590262D1*
X1947119Y2584178D1*
X1943317Y2578023D1*
Y2568826D1*
X2205399Y3095675D2*
D120*
X2155159Y3111018D1*
X2205399Y3126316D1*
X2188652Y3120568D2*
Y3101423D1*
X2155159Y3078177D2*
X2205399Y3062878D1*
X2155159Y3047580D1*
X2179091Y3030082D2*
Y3012882D1*
X2176659Y3007134D1*
X2174282Y3005189D1*
X2169529Y3003287D1*
X2164720D1*
X2159967Y3005189D1*
X2157535Y3007134D1*
X2155159Y3012882D1*
Y3030082D1*
X2205399D1*
X2179091Y3016685D2*
X2205399Y3003287D1*
Y2955148D2*
X2155159Y2970491D1*
X2205399Y2985790D1*
X2188652Y2980042D2*
Y2960896D1*
X2162344Y2910856D2*
X2157535Y2914658D1*
X2155159Y2920406D1*
Y2928056D1*
X2157535Y2933804D1*
X2162344Y2937650D1*
X2167097D1*
X2171906Y2935705D1*
X2174282Y2933804D1*
X2176659Y2930001D1*
X2181467Y2918505D1*
X2183844Y2914658D1*
X2186276Y2912757D1*
X2191029Y2910856D1*
X2198214D1*
X2202967Y2914658D1*
X2205399Y2920406D1*
Y2928056D1*
X2202967Y2933804D1*
X2198214Y2937650D1*
X2205399Y2862761D2*
X2155159D1*
X2205399Y2878059D1*
X2155159Y2893358D1*
X2205399D1*
X2164776Y2845263D2*
X2162344Y2841416D1*
X2155214Y2835668D1*
X2205399D1*
X2167152Y2816225D2*
X2164776D1*
X2159967Y2814324D1*
X2157591Y2812422D1*
X2155214Y2808575D1*
Y2800926D1*
X2157591Y2797124D1*
X2159967Y2795222D1*
X2164776Y2793277D1*
X2169529D1*
X2174337Y2795222D1*
X2181467Y2799025D1*
X2205399Y2818170D1*
Y2791376D1*
X2155214Y2770031D2*
Y2749029D1*
X2174337Y2760480D1*
Y2754732D1*
X2176714Y2750930D1*
X2179091Y2749029D1*
X2186276Y2747083D1*
X2191029D1*
X2198214Y2749029D1*
X2203022Y2752831D1*
X2205399Y2758579D1*
Y2764327D1*
X2203022Y2770031D1*
X2200590Y2771932D1*
X2195837Y2773878D1*
X2205399Y2710440D2*
X2155214D1*
X2188652Y2729585D1*
Y2700889D1*
X2253830Y3085824D2*
X2251398Y3081978D1*
X2244268Y3076230D1*
X2294453D1*
X2244268Y3035784D2*
Y3054885D1*
X2265768Y3056786D1*
X2263391Y3054885D1*
X2260959Y3049137D1*
Y3043433D1*
X2263391Y3037685D1*
X2268144Y3033838D1*
X2275329Y3031937D1*
X2280083D1*
X2287268Y3033838D1*
X2292076Y3037685D1*
X2294453Y3043433D1*
Y3049137D1*
X2292076Y3054885D1*
X2289644Y3056786D1*
X2284891Y3058732D1*
X2289644Y3012538D2*
X2292076Y3014439D1*
X2294453Y3012538D1*
X2292076Y3010592D1*
X2289644Y3012538D1*
X2244268Y2981599D2*
X2246645Y2987347D1*
X2253830Y2991193D1*
X2265768Y2993095D1*
X2272953D1*
X2284891Y2991193D1*
X2292076Y2987347D1*
X2294453Y2981599D1*
Y2977796D1*
X2292076Y2972048D1*
X2284891Y2968245D1*
X2272953Y2966300D1*
X2265768D1*
X2253830Y2968245D1*
X2246645Y2972048D1*
X2244268Y2977796D1*
Y2981599D1*
X2253830Y2968245D2*
X2284891Y2991193D1*
X2244268Y2925854D2*
Y2944955D1*
X2265768Y2946857D1*
X2263391Y2944955D1*
X2260959Y2939207D1*
Y2933504D1*
X2263391Y2927756D1*
X2268144Y2923909D1*
X2275329Y2922008D1*
X2280083D1*
X2287268Y2923909D1*
X2292076Y2927756D1*
X2294453Y2933504D1*
Y2939207D1*
X2292076Y2944955D1*
X2289644Y2946857D1*
X2284891Y2948802D1*
X2289644Y2902608D2*
X2292076Y2904510D1*
X2294453Y2902608D1*
X2292076Y2900663D1*
X2289644Y2902608D1*
X2256206Y2881220D2*
X2253830D1*
X2249021Y2879318D1*
X2246645Y2877417D1*
X2244268Y2873570D1*
Y2865921D1*
X2246645Y2862119D1*
X2249021Y2860217D1*
X2253830Y2858272D1*
X2258583D1*
X2263391Y2860217D1*
X2270521Y2864020D1*
X2294453Y2883165D1*
Y2856370D1*
X2244268Y2827377D2*
X2246645Y2833125D1*
X2253830Y2836971D1*
X2265768Y2838873D1*
X2272953D1*
X2284891Y2836971D1*
X2292076Y2833125D1*
X2294453Y2827377D1*
Y2823574D1*
X2292076Y2817826D1*
X2284891Y2814023D1*
X2272953Y2812078D1*
X2265768D1*
X2253830Y2814024D1*
X2246645Y2817826D1*
X2244268Y2823574D1*
Y2827377D1*
X2253830Y2814024D2*
X2284891Y2836971D1*
X2253830Y2794580D2*
X2251398Y2790733D1*
X2244268Y2784985D1*
X2294453D1*
X2244268Y2757937D2*
X2246645Y2763641D1*
X2251398Y2765586D1*
X2256206D1*
X2260959Y2763641D1*
X2263391Y2759838D1*
X2265768Y2752189D1*
X2268144Y2746441D1*
X2272953Y2742638D1*
X2277706Y2740737D1*
X2284891D1*
X2289644Y2742638D1*
X2292076Y2744540D1*
X2294453Y2750288D1*
Y2757937D1*
X2292076Y2763641D1*
X2289644Y2765586D1*
X2284891Y2767488D1*
X2277706D1*
X2272953Y2765586D1*
X2268144Y2761740D1*
X2265768Y2756036D1*
X2263391Y2748387D1*
X2260959Y2744540D1*
X2256206Y2742638D1*
X2251398D1*
X2246644Y2744540D1*
X2244268Y2750288D1*
Y2757937D1*
X2063125Y3125047D2*
X2113365D1*
X2063125D2*
X2113365Y3151842D1*
X2063125D2*
X2113365D1*
X2079871Y3107549D2*
X2113365D1*
Y3094638D1*
X2111762Y3090305D1*
X2110159Y3088890D1*
X2107009Y3087475D1*
X2102200D1*
X2098995Y3088890D1*
X2097392Y3090305D1*
X2095844Y3094638D1*
X2094186Y3090305D1*
X2092639Y3088890D1*
X2089433Y3087475D1*
X2086227D1*
X2083077Y3088890D1*
X2081474Y3090305D1*
X2079871Y3094638D1*
Y3107549D1*
X2095844D2*
Y3094638D1*
X2079871Y3047029D2*
X2113365D1*
X2087056D2*
X2082248Y3050832D1*
X2079871Y3054679D1*
Y3060383D1*
X2082248Y3064229D1*
X2087056Y3068032D1*
X2094241Y3069977D1*
X2098995D1*
X2106180Y3068032D1*
X2110933Y3064229D1*
X2113365Y3060383D1*
Y3054679D1*
X2110933Y3050832D1*
X2106180Y3047029D1*
X2079871Y3029532D2*
X2113365D1*
X2079871Y3009458D2*
X2113365D1*
X2095844Y3029532D2*
Y3009458D1*
X2079871Y2971886D2*
X2113365D1*
X2079871D2*
X2113365Y2991960D1*
X2079871D2*
X2113365D1*
Y2954388D2*
X2079871D1*
Y2925692D2*
X2113365D1*
X2079871Y2940062D2*
X2113365D1*
Y2954388D2*
Y2925692D1*
X2079871Y2888121D2*
X2113365D1*
X2079871D2*
X2113365Y2908194D1*
X2079871Y2908195D2*
X2113365Y2908194D1*
X2079871Y2870623D2*
X2113365D1*
X2079871Y2850549D2*
X2113365D1*
X2095844Y2870623D2*
Y2850549D1*
X2063125Y2789024D2*
X2113365D1*
Y2771780D1*
X2110933Y2766032D1*
X2108556Y2764131D1*
X2103803Y2762229D1*
X2096618D1*
X2091810Y2764131D1*
X2089433Y2766032D1*
X2087056Y2771780D1*
X2084625Y2766032D1*
X2082248Y2764131D1*
X2077495Y2762229D1*
X2072686D1*
X2067933Y2764131D1*
X2065501Y2766032D1*
X2063125Y2771780D1*
Y2789024D1*
X2087056D2*
Y2771780D1*
X2108556Y2742830D2*
X2110988Y2744731D1*
X2113365Y2742830D1*
X2110988Y2740885D1*
X2108556Y2742830D1*
X2063125Y2723387D2*
X2113365D1*
Y2706143D1*
X2110933Y2700395D1*
X2108556Y2698494D1*
X2103803Y2696592D1*
X2096618D1*
X2091810Y2698494D1*
X2089433Y2700395D1*
X2087056Y2706143D1*
X2084625Y2700395D1*
X2082248Y2698494D1*
X2077495Y2696592D1*
X2072686D1*
X2067933Y2698494D1*
X2065501Y2700395D1*
X2063125Y2706143D1*
Y2723387D1*
X2087056D2*
Y2706143D1*
X2108556Y2677193D2*
X2110988Y2679094D1*
X2113365Y2677193D1*
X2110988Y2675248D1*
X2108556Y2677193D1*
M02*
