G04 DipTrace 3.2.0.1*
G04 Нижняямаска.gbr*
%MOIN*%
G04 #@! TF.FileFunction,Soldermask,Bot*
G04 #@! TF.Part,Single*
%ADD13C,0.03937*%
%ADD16C,0.07874*%
%ADD17C,0.11811*%
%ADD56C,0.125984*%
%ADD58C,0.125984*%
%ADD66C,0.133858*%
%ADD67C,0.070866*%
%ADD69R,0.070866X0.070866*%
%ADD75R,0.031496X0.110236*%
%ADD77R,0.07874X0.094488*%
%ADD78R,0.062992X0.07874*%
%ADD80R,0.125984X0.125984*%
%ADD82R,0.033465X0.049213*%
%ADD87C,0.086614*%
%ADD88C,0.070866*%
%ADD96O,0.204724X0.125984*%
%ADD102R,0.051181X0.031496*%
%ADD104R,0.086614X0.031496*%
%ADD106R,0.031496X0.086614*%
%ADD110R,0.059055X0.035433*%
%ADD112R,0.086614X0.086614*%
%ADD113R,0.035433X0.059055*%
%ADD115C,0.165354*%
%ADD117C,0.086614*%
%FSLAX26Y26*%
G04*
G70*
G90*
G75*
G01*
G04 BotMask*
%LPD*%
D117*
X688976Y3011811D3*
X787402D3*
X885827D3*
Y3582677D3*
X688976D3*
D115*
X570866Y3307087D3*
X1003937D3*
D113*
X775492Y1053642D3*
X850295D3*
D112*
X898031Y1516142D3*
D117*
X602756D3*
D113*
X712992D3*
X787795D3*
D112*
X602756Y216142D3*
D117*
X898031D3*
D113*
X787795D3*
X712992D3*
D110*
X637894Y441240D3*
Y516043D3*
X3062894Y1253740D3*
Y1328543D3*
D112*
X3150394Y1360039D3*
D117*
Y1222244D3*
D110*
X1537894Y103740D3*
Y178543D3*
X3237894Y991043D3*
Y916240D3*
D112*
X3150394Y884744D3*
D117*
Y1022539D3*
D113*
X3212992Y191142D3*
X3287795D3*
D106*
X1088042Y971997D3*
X1138042D3*
X1188042D3*
X1238042D3*
Y759399D3*
X1188042D3*
X1138042D3*
X1088042D3*
D104*
X1819193Y1203642D3*
Y1153642D3*
Y1103642D3*
Y1053642D3*
X1606594D3*
Y1103642D3*
Y1153642D3*
Y1203642D3*
X2319193D3*
Y1153642D3*
Y1103642D3*
Y1053642D3*
X2106594D3*
Y1103642D3*
Y1153642D3*
Y1203642D3*
D102*
X3197244Y303740D3*
Y341142D3*
Y378543D3*
X3303543D3*
Y303740D3*
D104*
X2819193Y1203642D3*
Y1153642D3*
Y1103642D3*
Y1053642D3*
X2606594D3*
Y1103642D3*
Y1153642D3*
Y1203642D3*
D58*
X0Y1732283D3*
Y0D3*
X3700787Y1732283D3*
Y0D3*
D17*
X0Y2125984D3*
Y3700787D3*
X1574803D3*
Y2125984D3*
D58*
X3700787Y3700787D3*
Y2125984D3*
X3031496D3*
Y3700787D3*
D96*
X1000394Y1141732D3*
Y590551D3*
D113*
X1300492Y828642D3*
X1375295D3*
D110*
X1000541Y915798D3*
Y990601D3*
D113*
X1375295Y903642D3*
X1300492D3*
D110*
X1500394Y916240D3*
Y991043D3*
D113*
X3212992Y1553642D3*
X3287795D3*
D110*
X1600394Y991043D3*
Y916240D3*
X1500394Y1216240D3*
Y1291043D3*
X492126Y2183071D3*
Y2108268D3*
X1279528Y2183071D3*
Y2108268D3*
X688976Y3112205D3*
Y3187008D3*
X885827Y3112205D3*
Y3187008D3*
D113*
X750000Y3464567D3*
X824803D3*
D110*
X1000541Y740797D3*
Y815600D3*
X1675394Y916240D3*
Y991043D3*
X1500394Y1091240D3*
Y1166043D3*
X1750394Y916240D3*
Y991043D3*
X562894Y441240D3*
Y516043D3*
X487894Y441240D3*
Y516043D3*
X1825394Y991043D3*
Y916240D3*
X1925394Y1216240D3*
Y1291043D3*
X2470472Y1631890D3*
Y1557087D3*
X2391732Y1631890D3*
Y1557087D3*
D113*
X3212992Y1478642D3*
X3287795D3*
D110*
X1925394Y916240D3*
Y991043D3*
Y1091240D3*
Y1166043D3*
X2000394Y916240D3*
Y991043D3*
X2100394D3*
Y916240D3*
X2000394Y1216240D3*
Y1291043D3*
X2175394Y916240D3*
Y991043D3*
X2000394Y1091240D3*
Y1166043D3*
X2250394Y916240D3*
Y991043D3*
X3050394Y303740D3*
Y378543D3*
Y178740D3*
Y253543D3*
X2325394Y991043D3*
Y916240D3*
X2425394Y1216240D3*
Y1291043D3*
X3375394Y303740D3*
Y378543D3*
X3125394D3*
Y303740D3*
Y178740D3*
Y253543D3*
X2425394Y916240D3*
Y991043D3*
Y1091240D3*
Y1166043D3*
X2500394Y916240D3*
Y991043D3*
X3450394Y378543D3*
Y303740D3*
X2600394Y991043D3*
Y916240D3*
X2500394Y1216240D3*
Y1291043D3*
X3450394Y1103543D3*
Y1028740D3*
X2675394Y916240D3*
Y991043D3*
X2500394Y1091240D3*
Y1166043D3*
X3350394Y1103543D3*
Y1028740D3*
X2750394Y916240D3*
Y991043D3*
X2825394D3*
Y916240D3*
X2925394Y1216240D3*
Y1291043D3*
Y916240D3*
Y991043D3*
Y1091240D3*
Y1166043D3*
D88*
X3450394Y1166142D3*
Y1266142D3*
D112*
X1082677Y2273622D3*
D87*
Y2765748D3*
X1279528Y2273622D3*
Y2765748D3*
D112*
X295276Y2273622D3*
D87*
Y2765748D3*
X492126Y2273622D3*
Y2765748D3*
D112*
X250394Y16142D3*
D87*
Y216142D3*
D112*
Y1016142D3*
D87*
Y1216142D3*
D78*
X1508465Y1366142D3*
X1642323D3*
X1917323D3*
X1783465D3*
X2008465D3*
X2142323D3*
X2417323D3*
X2283465D3*
X2508465D3*
X2642323D3*
X2917323D3*
X2783465D3*
D82*
X925295Y908366D3*
X850492D3*
X887894Y998917D3*
D112*
X250394Y1516142D3*
D87*
Y1616142D3*
Y1716142D3*
D82*
X775295Y908366D3*
X700492D3*
X737894Y998917D3*
X925442Y732923D3*
X850639D3*
X888041Y823474D3*
D112*
X250394Y516142D3*
D87*
Y616142D3*
Y716142D3*
D82*
X775444Y732923D3*
X700640D3*
X738042Y823474D3*
D112*
X3450394Y966142D3*
D87*
Y866142D3*
Y766142D3*
D112*
Y216142D3*
D87*
Y116142D3*
Y16142D3*
D117*
X1974606Y1628642D3*
X1876181D3*
D80*
X1398819Y1666142D3*
D56*
X1201969D3*
D69*
X3435039Y2775591D3*
D67*
Y2874016D3*
Y2952756D3*
Y3051181D3*
D66*
X3541339Y2654724D3*
Y3172047D3*
D117*
X3316929Y3700787D3*
X3415354D3*
D77*
X1019685Y2523622D3*
D75*
X925197Y2625984D3*
X885827D3*
X846457D3*
X807087D3*
X767717D3*
X728346D3*
X688976D3*
X649606D3*
D77*
X555118Y2523622D3*
D117*
X1917618Y378642D3*
X2016043D3*
X2114469D3*
X2212894D3*
X2311319D3*
X2409744D3*
X2508169D3*
D80*
X1201969Y66142D3*
D56*
X1398819D3*
D58*
X2637795Y3700787D3*
Y2125984D3*
X1968504D3*
Y3700787D3*
D69*
X2372047Y2775591D3*
D67*
Y2874016D3*
Y2952756D3*
Y3051181D3*
D66*
X2478346Y2654724D3*
Y3172047D3*
D117*
X2253937Y3700787D3*
X2352362D3*
X3450394Y866142D2*
D13*
X3537894D1*
D16*
X3575394Y828642D1*
Y541142D1*
X3525394Y491142D1*
X2975394D1*
X1200394Y66142D2*
Y166142D1*
X1250394Y216142D1*
X2875394D1*
X2925394Y266142D1*
Y441142D1*
X2975394Y491142D1*
X1400394Y66142D2*
X3300394D1*
D13*
X3350394Y116142D1*
X3450394D2*
X3350394D1*
X250394Y1016142D2*
X362894D1*
X400394Y1053642D1*
X250394Y1616142D2*
X362894D1*
X400394Y1578642D2*
X362894Y1616142D1*
X400394Y1578642D2*
Y1053642D1*
X1000394Y1141142D2*
X400394D1*
X250394Y616142D2*
X362894D1*
X400394Y578642D2*
X362894Y616142D1*
X250394Y216142D2*
X362894D1*
X400394Y253642D1*
Y578642D2*
Y253642D1*
X1000394Y591142D2*
X387894D1*
X898031Y1678248D2*
X860531Y1715748D1*
X250394Y1716142D2*
X860512D1*
X898031Y1530709D2*
Y1678268D1*
X900394Y1516142D2*
X1164449D1*
X1201969Y1643701D2*
Y1553543D1*
X1164469Y1516043D1*
X250394Y16142D2*
X503819D1*
X541339Y155118D2*
Y53661D1*
X664370Y155118D2*
Y103937D1*
X1200394Y66142D2*
X701969D1*
X602756Y216535D2*
X541339Y155118D1*
X602756Y216535D2*
X664173Y155118D1*
X503839Y16142D2*
X541339Y53642D1*
X701969Y66437D2*
X664469Y103937D1*
M02*
