M48
INCH
T01C0.0157
T02C0.0315
T03C0.0354
T04C0.0394
T05C0.0433
T06C0.0472
T07C0.0512
T08C0.0591
T09C0.0906
T10C0.1024
T11C0.1181
T12C0.126
%
T01
X+033066Y+013661
X+031398Y+016240
X+031004Y+016535
X+030610Y+016240
X+030217Y+016535
X+029823Y+016240
X+029429Y+016535
X+029035Y+016240
X+028642Y+016535
X+028248Y+016240
X+025492Y+016240
X+025492Y+016732
X+024705Y+016732
X+023917Y+016732
X+022638Y+015256
X+022146Y+015256
X+021654Y+015256
X+021161Y+015256
X+022129Y+013161
X+017129Y+013161
X+014379Y+013036
X+013879Y+013036
X+013379Y+013036
X+012879Y+013036
X+012879Y+009786
X+013379Y+009786
X+013879Y+009786
X+014379Y+009786
X+014379Y+007536
X+013879Y+007536
X+013379Y+007536
X+012879Y+007536
X+012379Y+008286
X+011379Y+009036
X+010004Y+008661
X+010004Y+010411
X+006504Y+009536
X+006504Y+007786
X+000000Y+007677
X+000000Y+008661
X+000000Y+009646
X+000000Y+010630
X+000000Y+011614
X+000000Y+012598
X+000000Y+013583
X+000000Y+014567
X+000000Y+015846
X+001083Y+016240
X+001476Y+017323
X+006496Y+024803
X+009252Y+026969
X+008858Y+028740
X+008071Y+028346
X+006890Y+028740
X+018799Y+023130
X+018799Y+022736
X+018799Y+022343
X+020571Y+022343
X+020571Y+022736
X+020571Y+023130
X+027264Y+023130
X+027264Y+022736
X+027264Y+022343
X+029429Y+022343
X+029429Y+022736
X+029429Y+023130
X+031201Y+023130
X+031201Y+022736
X+031201Y+022343
X+031791Y+016535
X+035531Y+017323
X+035925Y+016240
X+037008Y+015846
X+037008Y+014567
X+037008Y+013583
X+037008Y+012598
X+037008Y+011614
X+037008Y+010630
X+037008Y+009646
X+037008Y+008661
X+037008Y+007677
X+037008Y+006693
X+037008Y+005709
X+037008Y+004724
X+037008Y+003740
X+036129Y+003661
X+036129Y+003286
X+036129Y+004036
X+035254Y+002786
X+033754Y+002161
X+035925Y+001083
X+035531Y+000000
X+037008Y+001476
X+037008Y+002756
X+034754Y+006661
X+034004Y+006661
X+033066Y+006286
X+031129Y+007911
X+029879Y+010286
X+029879Y+011036
X+029879Y+012161
X+027129Y+013161
X+026879Y+003161
X+017879Y+001786
X+017504Y+000536
X+001476Y+000000
X+001083Y+001083
X+000000Y+001476
X+000000Y+002756
X+000000Y+003740
X+000000Y+004724
X+000000Y+005709
X+000000Y+006693
X+018799Y+035138
X+018799Y+035531
X+018799Y+035925
X+022244Y+033661
X+027264Y+035138
X+027264Y+035531
X+027264Y+035925
X+029429Y+035925
X+029429Y+035531
X+029429Y+035138
X+032874Y+033661
X+037894Y+035138
X+037894Y+035531
X+037894Y+035925
X+037894Y+023130
X+037894Y+022736
X+037894Y+022343
T02
X+008980Y+015161
X+006028Y+015161
X+006028Y+002161
X+008980Y+002161
X+031504Y+008847
X+031504Y+010225
X+031504Y+012222
X+031504Y+013600
X+034504Y+012661
X+034504Y+011661
T03
X+019746Y+016286
X+018762Y+016286
X+023720Y+027756
X+023720Y+028740
X+023720Y+029528
X+023720Y+030512
X+023524Y+037008
X+022539Y+037008
X+033169Y+037008
X+034154Y+037008
X+034350Y+030512
X+034350Y+029528
X+034350Y+028740
X+034350Y+027756
X+025082Y+003786
X+024097Y+003786
X+023113Y+003786
X+022129Y+003786
X+021145Y+003786
X+020160Y+003786
X+019176Y+003786
T04
X+006890Y+030118
X+007874Y+030118
X+008858Y+030118
X+008858Y+035827
X+006890Y+035827
T05
X+002504Y+000161
X+002504Y+002161
X+002504Y+005161
X+002504Y+006161
X+002504Y+007161
X+002504Y+010161
X+002504Y+012161
X+002504Y+015161
X+002504Y+016161
X+002504Y+017161
X+034504Y+009661
X+034504Y+008661
X+034504Y+007661
X+034504Y+002161
X+034504Y+001161
X+034504Y+000161
T06
X+010827Y+022736
X+012795Y+022736
X+012795Y+027657
X+010827Y+027657
X+004921Y+027657
X+002953Y+027657
X+002953Y+022736
X+004921Y+022736
T07
X+013988Y+016661
X+012020Y+016661
X+012020Y+000661
X+013988Y+000661
T08
X+010398Y+011417G85X+009610Y+011417
X+010398Y+005906G85X+009610Y+005906
T09
X+035413Y+026547
X+035413Y+031720
X+024783Y+031720
X+024783Y+026547
T10
X+005709Y+033071
X+010039Y+033071
T11
X+000000Y+021260
X+000000Y+037008
X+015748Y+037008
X+015748Y+021260
T12
X+000000Y+017323
X+000000Y+000000
X+019685Y+021260
X+026378Y+021260
X+030315Y+021260
X+037008Y+021260
X+037008Y+017323
X+037008Y+000000
X+037008Y+037008
X+030315Y+037008
X+026378Y+037008
X+019685Y+037008
T00
M30
