G04 DipTrace 3.2.0.1*
G04 Верхняямаска.gbr*
%MOIN*%
G04 #@! TF.FileFunction,Soldermask,Top*
G04 #@! TF.Part,Single*
%ADD17C,0.11811*%
%ADD56C,0.125984*%
%ADD58C,0.125984*%
%ADD66C,0.133858*%
%ADD67C,0.070866*%
%ADD69R,0.070866X0.070866*%
%ADD71R,0.110236X0.031496*%
%ADD73R,0.094488X0.07874*%
%ADD75R,0.031496X0.110236*%
%ADD77R,0.07874X0.094488*%
%ADD78R,0.062992X0.07874*%
%ADD80R,0.125984X0.125984*%
%ADD82R,0.033465X0.049213*%
%ADD84R,0.043307X0.045276*%
%ADD87C,0.086614*%
%ADD88C,0.070866*%
%ADD90R,0.145669X0.070866*%
%ADD92R,0.070866X0.145669*%
%ADD94R,0.133858X0.070866*%
%ADD96O,0.204724X0.125984*%
%ADD98R,0.145669X0.114173*%
%ADD100R,0.019685X0.062992*%
%ADD104R,0.086614X0.031496*%
%ADD106R,0.031496X0.086614*%
%ADD108R,0.043307X0.074803*%
%ADD110R,0.059055X0.035433*%
%ADD112R,0.086614X0.086614*%
%ADD113R,0.035433X0.059055*%
%ADD115C,0.165354*%
%ADD117C,0.086614*%
%FSLAX26Y26*%
G04*
G70*
G90*
G75*
G01*
G04 TopMask*
%LPD*%
D117*
X688976Y3011811D3*
X787402D3*
X885827D3*
Y3582677D3*
X688976D3*
D115*
X570866Y3307087D3*
X1003937D3*
D112*
X898031Y1516142D3*
D117*
X602756D3*
D112*
Y216142D3*
D117*
X898031D3*
D112*
X3150394Y1360039D3*
D117*
Y1222244D3*
D110*
X2487894Y153543D3*
Y78740D3*
D112*
X3150394Y884744D3*
D117*
Y1022539D3*
D110*
X2412894Y216043D3*
Y141240D3*
Y16240D3*
Y91043D3*
X2850394D3*
Y16240D3*
Y141240D3*
Y216043D3*
X3306644Y741043D3*
Y666240D3*
D113*
X3300295Y328642D3*
X3225492D3*
X3175295D3*
X3100492D3*
D110*
X3475394Y541240D3*
Y616043D3*
X3400394Y366240D3*
Y441043D3*
D108*
X3209055Y2625886D3*
X3323228D3*
X2971555Y2388386D3*
X3085728D3*
D113*
X2991240Y2475886D3*
X3066043D3*
X3003740Y2875886D3*
X3078543D3*
D108*
X3209055Y2725886D3*
X3323228D3*
D113*
X3078543Y3025886D3*
X3003740D3*
D104*
X3094094Y591142D3*
Y541142D3*
Y491142D3*
Y441142D3*
X3306693D3*
Y491142D3*
Y541142D3*
Y591142D3*
D100*
X2623524Y29528D3*
X2643209D3*
X2662894D3*
X2682579D3*
X2702264D3*
Y202756D3*
X2682579D3*
X2662894D3*
X2643209D3*
X2623524D3*
D106*
X3125394Y9843D3*
X3175394D3*
X3225394D3*
X3275394D3*
Y222441D3*
X3225394D3*
X3175394D3*
X3125394D3*
X2978642Y2569587D3*
X3028642D3*
X3078642D3*
X3128642D3*
Y2782185D3*
X3078642D3*
X3028642D3*
X2978642D3*
D98*
X3057579Y2675886D3*
D110*
X433071Y3344488D3*
Y3269685D3*
X1141732Y3344488D3*
Y3269685D3*
X78740Y2482283D3*
Y2557087D3*
X708661Y2482283D3*
Y2557087D3*
X866142Y2482283D3*
Y2557087D3*
X1496063Y2482283D3*
Y2557087D3*
D58*
X0Y1732283D3*
Y0D3*
X3700787Y1732283D3*
Y0D3*
D17*
X0Y2125984D3*
Y3700787D3*
X1574803D3*
Y2125984D3*
D58*
X3700787Y3700787D3*
Y2125984D3*
X3031496D3*
Y3700787D3*
D96*
X1000394Y1141732D3*
Y590551D3*
D94*
X3366102Y2068898D3*
Y2419291D3*
D113*
X212992Y1366142D3*
X287795D3*
X1725492Y1103642D3*
X1800295D3*
X1725492Y1028642D3*
X1800295D3*
D110*
X1875394Y1266240D3*
Y1341043D3*
D92*
X1406693Y378642D3*
X1194094D3*
D90*
X1762894Y584843D3*
Y797441D3*
D113*
X1950492Y1103642D3*
X2025295D3*
X1950492Y1028642D3*
X2025295D3*
D110*
X2100394Y1266240D3*
Y1341043D3*
D113*
X212992Y366142D3*
X287795D3*
D110*
X433071Y3131890D3*
Y3206693D3*
X1141732Y3131890D3*
Y3206693D3*
X78740Y2694882D3*
Y2620079D3*
X708661Y2694882D3*
Y2620079D3*
X866142Y2694882D3*
Y2620079D3*
D90*
X1987894Y584843D3*
Y797441D3*
D113*
X2175492Y1103642D3*
X2250295D3*
X2175492Y1028642D3*
X2250295D3*
D110*
X2325394Y1266240D3*
Y1341043D3*
X1496063Y2694882D3*
Y2620079D3*
D92*
X3649606Y3326772D3*
X3437008D3*
D113*
X3128740Y2875886D3*
X3203543D3*
Y2950886D3*
X3128740D3*
X3078543D3*
X3003740D3*
D90*
X2212894Y584843D3*
Y797441D3*
D110*
X1837894Y16240D3*
Y91043D3*
X2562894Y16240D3*
Y91043D3*
X1837894Y216043D3*
Y141240D3*
X2562894Y216043D3*
Y141240D3*
D113*
X2400492Y1103642D3*
X2475295D3*
X2400492Y1028642D3*
X2475295D3*
D110*
X1912894Y216043D3*
Y141240D3*
Y16240D3*
Y91043D3*
X2550394Y1266240D3*
Y1341043D3*
D90*
X2437894Y584843D3*
Y797441D3*
D110*
X3000394Y216043D3*
Y141240D3*
X2775394Y216043D3*
Y141240D3*
D113*
X2625492Y1103642D3*
X2700295D3*
X2625492Y1028642D3*
X2700295D3*
D110*
X3000394Y91043D3*
Y16240D3*
X2775394D3*
Y91043D3*
Y1266240D3*
Y1341043D3*
X3400394Y541240D3*
Y616043D3*
D90*
X2662894Y584843D3*
Y797441D3*
D110*
X2925394Y91043D3*
Y16240D3*
Y141240D3*
Y216043D3*
D113*
X2850492Y1103642D3*
X2925295D3*
X2850492Y1028642D3*
X2925295D3*
D110*
X3475394Y366240D3*
Y441043D3*
D113*
X3112795Y666142D3*
X3037992D3*
X2925295Y1378642D3*
X2850492D3*
D90*
X2887894Y584843D3*
Y797441D3*
D113*
X3237795Y741142D3*
X3162992D3*
X3037992D3*
X3112795D3*
X3237795Y666142D3*
X3162992D3*
D88*
X3450394Y1166142D3*
Y1266142D3*
D112*
X1082677Y2273622D3*
D87*
Y2765748D3*
X1279528Y2273622D3*
Y2765748D3*
D112*
X295276Y2273622D3*
D87*
Y2765748D3*
X492126Y2273622D3*
Y2765748D3*
D112*
X250394Y16142D3*
D87*
Y216142D3*
D112*
Y1016142D3*
D87*
Y1216142D3*
D84*
X1983465Y191142D3*
X2117323D3*
X1983465Y41142D3*
X2117323D3*
D78*
X2195965Y191142D3*
X2329823D3*
X2195965Y41142D3*
X2329823D3*
D112*
X250394Y1516142D3*
D87*
Y1616142D3*
Y1716142D3*
D82*
X1800295Y961417D3*
X1725492D3*
X1762894Y870866D3*
X1800295Y1261417D3*
X1725492D3*
X1762894Y1170866D3*
X2025295Y961417D3*
X1950492D3*
X1987894Y870866D3*
X2025295Y1261417D3*
X1950492D3*
X1987894Y1170866D3*
D112*
X250394Y516142D3*
D87*
Y616142D3*
Y716142D3*
D82*
X2250295Y961417D3*
X2175492D3*
X2212894Y870866D3*
X2250295Y1261417D3*
X2175492D3*
X2212894Y1170866D3*
X2475295Y961417D3*
X2400492D3*
X2437894Y870866D3*
X2475295Y1261417D3*
X2400492D3*
X2437894Y1170866D3*
D112*
X3450394Y966142D3*
D87*
Y866142D3*
Y766142D3*
D112*
Y216142D3*
D87*
Y116142D3*
Y16142D3*
D82*
X2700295Y961417D3*
X2625492D3*
X2662894Y870866D3*
X2700295Y1261417D3*
X2625492D3*
X2662894Y1170866D3*
X2925295Y961417D3*
X2850492D3*
X2887894Y870866D3*
X2925295Y1261417D3*
X2850492D3*
X2887894Y1170866D3*
D117*
X1974606Y1628642D3*
X1876181D3*
D80*
X1398819Y1666142D3*
D56*
X1201969D3*
D77*
X3312992Y1649606D3*
D75*
X3218504Y1547244D3*
X3179134D3*
X3139764D3*
X3100394D3*
X3061024D3*
X3021654D3*
X2982283D3*
X2942913D3*
X2903543D3*
X2864173D3*
X2824803D3*
X2785433D3*
X2746063D3*
X2706693D3*
X2667323D3*
X2627953D3*
X2588583D3*
X2549213D3*
X2509843D3*
X2470472D3*
X2431102D3*
X2391732D3*
X2352362D3*
X2312992D3*
D77*
X2218504Y1649606D3*
D73*
X3104331Y3460630D3*
D71*
X3206693Y3366142D3*
Y3326772D3*
Y3287402D3*
Y3248031D3*
D73*
X3104331Y3153543D3*
D69*
X3435039Y2775591D3*
D67*
Y2874016D3*
Y2952756D3*
Y3051181D3*
D66*
X3541339Y2654724D3*
Y3172047D3*
D117*
X3316929Y3700787D3*
X3415354D3*
X1917618Y378642D3*
X2016043D3*
X2114469D3*
X2212894D3*
X2311319D3*
X2409744D3*
X2508169D3*
D80*
X1201969Y66142D3*
D56*
X1398819D3*
D108*
X2146063Y2625886D3*
X2260236D3*
X1908563Y2388386D3*
X2022736D3*
D113*
X1928248Y2475886D3*
X2003051D3*
X1940748Y2875886D3*
X2015551D3*
D108*
X2146063Y2725886D3*
X2260236D3*
D113*
X2015551Y3025886D3*
X1940748D3*
D106*
X1915650Y2569587D3*
X1965650D3*
X2015650D3*
X2065650D3*
Y2782185D3*
X2015650D3*
X1965650D3*
X1915650D3*
D98*
X1994587Y2675886D3*
D58*
X2637795Y3700787D3*
Y2125984D3*
X1968504D3*
Y3700787D3*
D94*
X2303110Y2068898D3*
Y2419291D3*
D92*
X2586614Y3326772D3*
X2374016D3*
D113*
X2065748Y2875886D3*
X2140551D3*
Y2950886D3*
X2065748D3*
X2015551D3*
X1940748D3*
D73*
X2041339Y3460630D3*
D71*
X2143701Y3366142D3*
Y3326772D3*
Y3287402D3*
Y3248031D3*
D73*
X2041339Y3153543D3*
D69*
X2372047Y2775591D3*
D67*
Y2874016D3*
Y2952756D3*
Y3051181D3*
D66*
X2478346Y2654724D3*
Y3172047D3*
D117*
X2253937Y3700787D3*
X2352362D3*
M02*
