G04 DipTrace 3.2.0.1*
G04 Нижняямаркировка.gbr*
%MOIN*%
G04 #@! TF.FileFunction,Legend,Bot*
G04 #@! TF.Part,Single*
%ADD10C,0.009843*%
%ADD20C,0.007874*%
%ADD26C,0.015408*%
%ADD29C,0.016398*%
%ADD41C,0.015422*%
%ADD43C,0.015404*%
%ADD45C,0.011811*%
%ADD48O,0.011707X0.011811*%
%ADD51C,0.011887*%
%ADD52C,0.011811*%
%ADD55C,0.015403*%
%FSLAX26Y26*%
G04*
G70*
G90*
G75*
G01*
G04 BotSilk*
%LPD*%
X2696850Y285433D2*
D10*
G02X2696850Y285433I236220J0D01*
G01*
X1383854Y574801D2*
D20*
X1352367D1*
X1383854Y527561D2*
X1352367D1*
Y714569D2*
X1383854D1*
X1352367Y761809D2*
X1383854D1*
X1352367Y645671D2*
X1383854D1*
X1352367Y692911D2*
X1383854D1*
Y230313D2*
X1352367D1*
X1383854Y183073D2*
X1352367D1*
X1383854Y299211D2*
X1352367D1*
X1383854Y251970D2*
X1352367D1*
X1383854Y368108D2*
X1352367D1*
X1383854Y320868D2*
X1352367D1*
X1383854Y437006D2*
X1352367D1*
X1383854Y389766D2*
X1352367D1*
X1383854Y505904D2*
X1352367D1*
X1383854Y458663D2*
X1352367D1*
X1383854Y830707D2*
X1352367D1*
X1383854Y783467D2*
X1352367D1*
X744884Y906246D2*
Y874759D1*
X792124Y906246D2*
Y874759D1*
X79766Y1121753D2*
D10*
G02X79766Y1121753I157480J0D01*
G01*
X237247Y1279234D2*
Y964273D1*
Y1161123D2*
X201814D1*
X237247Y1200493D2*
X103388D1*
X79766Y1121753D2*
X119136D1*
X134885Y1161123D2*
X87640D1*
X217562Y1121753D2*
X237247D1*
Y1082383D2*
X201814D1*
X237247Y1239864D2*
X134885D1*
X237247Y1043013D2*
X103388D1*
X134885Y1082383D2*
X87640D1*
X237247Y1003643D2*
X134885D1*
X79766Y1459251D2*
G02X79766Y1459251I157480J0D01*
G01*
X237247Y1616731D2*
Y1301770D1*
Y1498621D2*
X201814D1*
X237247Y1537991D2*
X103388D1*
X79766Y1459251D2*
X119136D1*
X134885Y1498621D2*
X87640D1*
X217562Y1459251D2*
X237247D1*
Y1419881D2*
X201814D1*
X237247Y1577361D2*
X134885D1*
X237247Y1380510D2*
X103388D1*
X134885Y1419881D2*
X87640D1*
X237247Y1341140D2*
X134885D1*
X79774Y509251D2*
G02X79774Y509251I157480J0D01*
G01*
X394735D1*
X197885D2*
Y473818D1*
X158514Y509251D2*
Y375392D1*
X237255Y351770D2*
Y391140D1*
X197885Y406888D2*
Y359644D1*
X237255Y489566D2*
Y509251D1*
X276625D2*
Y473818D1*
X119144Y509251D2*
Y406888D1*
X315995Y509251D2*
Y375392D1*
X276625Y406888D2*
Y359644D1*
X355365Y509251D2*
Y406888D1*
X554624Y187259D2*
D20*
Y218746D1*
X507384Y187259D2*
Y218746D1*
X579773Y203003D2*
D10*
G02X579773Y203003I157480J0D01*
G01*
X894734D1*
X697883D2*
Y167570D1*
X658513Y203003D2*
Y69144D1*
X737253Y45522D2*
Y84892D1*
X697883Y100640D2*
Y53396D1*
X737253Y183318D2*
Y203003D1*
X776623D2*
Y167570D1*
X619143Y203003D2*
Y100640D1*
X815993Y203003D2*
Y69144D1*
X776623Y100640D2*
Y53396D1*
X855364Y203003D2*
Y100640D1*
X1167325Y999995D2*
D20*
Y968509D1*
X1214565Y999995D2*
Y968509D1*
Y653548D2*
Y685035D1*
X1167325Y653548D2*
Y685035D1*
X2917321Y1421265D2*
Y1452751D1*
X2870081Y1421265D2*
Y1452751D1*
X3055116Y1421265D2*
Y1452751D1*
X3007876Y1421265D2*
Y1452751D1*
X3192911Y1421265D2*
Y1452751D1*
X3145671Y1421265D2*
Y1452751D1*
X3330707Y1421265D2*
Y1452751D1*
X3283467Y1421265D2*
Y1452751D1*
X3468502Y1421265D2*
Y1452751D1*
X3421262Y1421265D2*
Y1452751D1*
X1826774Y1875980D2*
Y1844493D1*
X1874014Y1875980D2*
Y1844493D1*
X1895671Y1875980D2*
Y1844493D1*
X1942911Y1875980D2*
Y1844493D1*
X1757869Y929132D2*
X1726383D1*
X1757869Y881892D2*
X1726383D1*
X1588581Y1214572D2*
Y1246058D1*
X1541341Y1214572D2*
Y1246058D1*
X1580704Y1440943D2*
X1549217D1*
X1580704Y1393703D2*
X1549217D1*
X1669293Y1875980D2*
Y1844493D1*
X1716533Y1875980D2*
Y1844493D1*
X2190947Y1875980D2*
Y1844493D1*
X2238187Y1875980D2*
Y1844493D1*
X2297242Y919296D2*
Y950783D1*
X2250002Y919296D2*
Y950783D1*
X1964562Y653541D2*
X1933076D1*
X1964562Y606301D2*
X1933076D1*
X542786Y379326D2*
D10*
Y639168D1*
X818375Y379326D2*
X542786D1*
X818375D2*
Y387191D1*
Y639168D2*
X542786D1*
X818375D2*
Y631303D1*
D26*
X427840Y380259D3*
X1712567Y1072803D2*
D10*
X2224441D1*
Y1584677D1*
X1712567D1*
Y1072803D1*
G36*
D2*
Y1108276D1*
Y1072803D1*
G37*
G36*
D2*
Y1112224D1*
X1751988Y1072803D1*
X1712567D1*
G37*
D29*
X1664947Y1067348D3*
X520077Y879190D2*
D10*
X716931D1*
X520077Y776813D2*
X716931D1*
Y879190D2*
Y776813D1*
X520077Y847696D2*
Y879190D1*
Y808307D2*
Y776813D1*
Y847696D2*
G02X520077Y808307I-9J-19694D01*
G01*
X1574744Y235999D2*
Y314875D1*
X1663304Y235999D2*
X1683063D1*
X2362264Y314875D2*
Y235999D1*
X2273703Y314875D2*
X2253945D1*
X2527742Y370070D2*
X2551382D1*
Y354216D1*
X2527742D1*
Y370070D1*
X2437065Y354216D2*
X2641707D1*
Y196658D1*
X2437065D1*
Y354216D1*
X2421187Y370070D2*
X2657584D1*
Y181000D1*
X2421187D1*
Y370070D1*
X421539Y1446106D2*
X500317Y1524856D1*
X421539Y1190220D2*
G03X480623Y1131147I60367J1294D01*
G01*
X736652D2*
X815430Y1209897D1*
Y1465783D2*
X756347Y1524856D1*
X421539Y1190220D2*
Y1446106D1*
X815430Y1209897D2*
Y1465783D1*
X693324Y1131147D2*
X736652D1*
X543645D2*
X480623D1*
X500317Y1524856D2*
X543645D1*
X756347D2*
X693324D1*
X2555113Y141730D2*
D20*
X2523627D1*
X2555113Y94490D2*
X2523627D1*
X2356297Y594493D2*
Y625980D1*
X2309057Y594493D2*
Y625980D1*
X867124Y874759D2*
Y906246D1*
X819884Y874759D2*
Y906246D1*
X867124Y749758D2*
Y781245D1*
X819884Y749758D2*
Y781245D1*
X487501Y796509D2*
D10*
Y859493D1*
X424507Y796509D2*
Y859493D1*
X3017712Y1017715D2*
D20*
X2986225D1*
X3017712Y970474D2*
X2986225D1*
X3017712Y948817D2*
X2986225D1*
X3017712Y901577D2*
X2986225D1*
X3017712Y1086612D2*
X2986225D1*
X3017712Y1039372D2*
X2986225D1*
X3301179Y594493D2*
Y625980D1*
X3253939Y594493D2*
Y625980D1*
X2801183Y1452751D2*
Y1421265D1*
X2848423Y1452751D2*
Y1421265D1*
X2938978Y1452751D2*
Y1421265D1*
X2986219Y1452751D2*
Y1421265D1*
X3076774Y1452751D2*
Y1421265D1*
X3124014Y1452751D2*
Y1421265D1*
X3214569Y1452751D2*
Y1421265D1*
X3261809Y1452751D2*
Y1421265D1*
X3352364Y1452751D2*
Y1421265D1*
X3399604Y1452751D2*
Y1421265D1*
X2011809Y1844493D2*
Y1875980D1*
X1964569Y1844493D2*
Y1875980D1*
X2080707Y1844493D2*
Y1875980D1*
X2033467Y1844493D2*
Y1875980D1*
X931098Y1322833D2*
X899611D1*
X931098Y1275593D2*
X899611D1*
X1065498Y573965D2*
X1034011D1*
X1065498Y526725D2*
X1034011D1*
X2838581Y594493D2*
Y625980D1*
X2791341Y594493D2*
Y625980D1*
X531891Y989661D2*
D10*
X705117D1*
X531891Y1103837D2*
X705117D1*
X585035Y989661D2*
Y1103837D1*
X3175191Y1017717D2*
Y970454D1*
X3242131Y1017717D2*
Y970454D1*
X3177169Y1017717D2*
X3242124D1*
X3143706Y970472D2*
Y1017735D1*
X3076766Y970472D2*
Y1017735D1*
X3141729Y970472D2*
X3076773D1*
D41*
X975339Y1259195D3*
X925197Y1249995D2*
D10*
Y1131890D1*
X905512D1*
Y1249995D1*
X925197D1*
D41*
X2390803Y541986D3*
X2440945Y551186D2*
D10*
Y669291D1*
X2460630D1*
Y551186D1*
X2440945D1*
D43*
X981503Y497828D3*
X990704Y447686D2*
D10*
X1108808D1*
Y428001D1*
X990704D1*
Y447686D1*
D43*
X2864820Y670221D3*
X2874021Y620079D2*
D10*
X2992126D1*
Y600394D1*
X2874021D1*
Y620079D1*
D41*
X3335685Y541986D3*
X3385827Y551186D2*
D10*
Y669291D1*
X3405512D1*
Y551186D1*
X3385827D1*
D45*
X3584638Y1122085D3*
X3653557Y1212624D2*
D10*
Y1161411D1*
X3874016Y913398D2*
Y1212624D1*
X3653557D2*
X3694867D1*
X3874016D2*
X3816937D1*
X3653557Y913361D2*
Y964573D1*
Y913361D2*
X3694867D1*
X3874016D2*
X3816937D1*
D48*
X2667294Y1596449D3*
X2576704Y1665368D2*
D10*
X2627992D1*
X3427233Y1885827D2*
X2576704D1*
Y1665368D2*
Y1706678D1*
Y1885827D2*
Y1828748D1*
X3427233Y1665368D2*
X3375945D1*
X3427233D2*
Y1706678D1*
Y1885827D2*
Y1828748D1*
D51*
X600409Y1596449D3*
X509861Y1665368D2*
D10*
X561020D1*
X1596554Y1885827D2*
X509861D1*
Y1665368D2*
Y1706678D1*
Y1885827D2*
Y1828748D1*
X1596438Y1665368D2*
X1545279D1*
X1596438D2*
Y1706678D1*
Y1885827D2*
Y1828748D1*
X2854340Y1127963D2*
Y1108268D1*
X2893688Y1127963D2*
Y1108268D1*
X3110249Y1127963D2*
Y1108268D1*
X3149597Y1127963D2*
Y1108268D1*
X2757874Y1334646D2*
X3246063D1*
Y1108268D1*
X2757874D1*
Y1334646D1*
X2777548Y1314951D2*
X3226389D1*
Y1127963D1*
X2777548D1*
Y1314951D1*
X286454Y919575D2*
Y939270D1*
X247094Y919575D2*
Y939270D1*
X227399Y919575D2*
Y939270D1*
X188040Y919575D2*
Y939270D1*
X382916Y712892D2*
X91577D1*
Y939270D1*
X382916D1*
Y712892D1*
X363222Y732587D2*
X111272D1*
Y919575D1*
X363222D1*
Y732587D1*
X1122579Y153796D2*
X1142274D1*
X1122579Y193155D2*
X1142274D1*
X1122579Y212850D2*
X1142274D1*
X1122579Y252210D2*
X1142274D1*
X915896Y57333D2*
X1142274D1*
Y348672D1*
X915896D1*
Y57333D1*
X935591Y77028D2*
X1122579D1*
Y328977D1*
X935591D1*
Y77028D1*
D52*
X3584638Y669317D3*
X3653557Y759858D2*
D10*
Y708671D1*
X3874016Y303134D2*
Y759858D1*
X3653557D2*
X3694867D1*
X3874016D2*
X3816937D1*
X3653557Y303134D2*
Y354321D1*
Y303134D2*
X3694867D1*
X3874016D2*
X3816937D1*
D45*
X3584638Y1574841D3*
X3653557Y1665380D2*
D10*
Y1614167D1*
X3874016Y1366154D2*
Y1665380D1*
X3653557D2*
X3694867D1*
X3874016D2*
X3816937D1*
X3653557Y1366117D2*
Y1417329D1*
Y1366117D2*
X3694867D1*
X3874016D2*
X3816937D1*
X1136181Y966436D2*
Y687107D1*
X950433Y966436D2*
Y687107D1*
X1005805Y839264D2*
X1080810D1*
Y814279D1*
X1005805D1*
Y839264D1*
Y858003D2*
X1080810D1*
X1005805Y795540D2*
X1080810D1*
X1043307D2*
Y783003D1*
Y858003D2*
Y870540D1*
X950433Y966436D2*
G02X1136181Y966436I92874J-8216D01*
G01*
Y687107D2*
G02X950433Y687107I-92874J8216D01*
G01*
X282598Y3684657D2*
D20*
Y3653170D1*
X329838Y3684657D2*
Y3653170D1*
X115493Y3476561D2*
X146980D1*
X115493Y3523801D2*
X146980D1*
X115493Y3276582D2*
X146980D1*
X115493Y3323822D2*
X146980D1*
X770047Y2853494D2*
Y2822007D1*
X817287Y2853494D2*
Y2822007D1*
X115493Y2426671D2*
X146980D1*
X115493Y2473911D2*
X146980D1*
X1163755Y3578418D2*
Y3546931D1*
X1210995Y3578418D2*
Y3546931D1*
X628179Y3273827D2*
X596692D1*
X628179Y3226587D2*
X596692D1*
X188858Y2890990D2*
Y2859503D1*
X236098Y2890990D2*
Y2859503D1*
Y3046984D2*
Y3078470D1*
X188858Y3046984D2*
Y3078470D1*
D55*
X791311Y3474551D3*
X792350Y3563801D2*
D10*
X532520D1*
X792350Y3674037D2*
X532520D1*
Y3563801D2*
Y3674037D1*
X792350Y3563801D2*
Y3674037D1*
X742295Y2822007D2*
D20*
Y2853494D1*
X695054Y2822007D2*
Y2853494D1*
X365707Y2917615D2*
X334220D1*
X365707Y2870375D2*
X334220D1*
X753166Y3273827D2*
X721679D1*
X753166Y3226587D2*
X721679D1*
X588816Y3078470D2*
Y3046984D1*
X636056Y3078470D2*
Y3046984D1*
X536066Y2509540D2*
Y2541027D1*
X488826Y2509540D2*
Y2541027D1*
X334220Y3020359D2*
X365707D1*
X334220Y3067599D2*
X365707D1*
X503192Y3373817D2*
X471706D1*
X503192Y3326577D2*
X471706D1*
X503192Y3273827D2*
X471706D1*
X503192Y3226587D2*
X471706D1*
X628179Y3373817D2*
X596692D1*
X628179Y3326577D2*
X596692D1*
X1072916Y2654892D2*
D10*
Y2607629D1*
X1139856Y2654892D2*
Y2607629D1*
X1074893Y2654892D2*
X1139849D1*
X985425D2*
Y2607629D1*
X1052365Y2654892D2*
Y2607629D1*
X987402Y2654892D2*
X1052358D1*
X897934D2*
Y2607629D1*
X964874Y2654892D2*
Y2607629D1*
X899911Y2654892D2*
X964867D1*
X1160407D2*
Y2607629D1*
X1227347Y2654892D2*
Y2607629D1*
X1162384Y2654892D2*
X1227340D1*
X360239Y2655144D2*
Y2607881D1*
X427179Y2655144D2*
Y2607881D1*
X362216Y2655144D2*
X427172D1*
X97766D2*
Y2607881D1*
X164706Y2655144D2*
Y2607881D1*
X99743Y2655144D2*
X164699D1*
X185257D2*
Y2607881D1*
X252197Y2655144D2*
Y2607881D1*
X187234Y2655144D2*
X252190D1*
X272748D2*
Y2607881D1*
X339688Y2655144D2*
Y2607881D1*
X274725Y2655144D2*
X339681D1*
X154858Y2408769D2*
X107595D1*
X154858Y2341829D2*
X107595D1*
X154858Y2406792D2*
Y2341836D1*
X2894745Y3684657D2*
D20*
Y3653170D1*
X2941985Y3684657D2*
Y3653170D1*
X2727640Y3476561D2*
X2759127D1*
X2727640Y3523801D2*
X2759127D1*
X2727640Y3276582D2*
X2759127D1*
X2727640Y3323822D2*
X2759127D1*
X3382194Y2853494D2*
Y2822007D1*
X3429434Y2853494D2*
Y2822007D1*
X2727640Y2426671D2*
X2759127D1*
X2727640Y2473911D2*
X2759127D1*
X3775902Y3578418D2*
Y3546931D1*
X3823142Y3578418D2*
Y3546931D1*
X3240326Y3273827D2*
X3208839D1*
X3240326Y3226587D2*
X3208839D1*
X2801005Y2890990D2*
Y2859503D1*
X2848245Y2890990D2*
Y2859503D1*
Y3046984D2*
Y3078470D1*
X2801005Y3046984D2*
Y3078470D1*
D55*
X3403458Y3474551D3*
X3404497Y3563801D2*
D10*
X3144667D1*
X3404497Y3674037D2*
X3144667D1*
Y3563801D2*
Y3674037D1*
X3404497Y3563801D2*
Y3674037D1*
X3354442Y2822007D2*
D20*
Y2853494D1*
X3307201Y2822007D2*
Y2853494D1*
X2977854Y2917615D2*
X2946367D1*
X2977854Y2870375D2*
X2946367D1*
X3365313Y3273827D2*
X3333826D1*
X3365313Y3226587D2*
X3333826D1*
X3200963Y3078470D2*
Y3046984D1*
X3248203Y3078470D2*
Y3046984D1*
X3148213Y2509540D2*
Y2541027D1*
X3100973Y2509540D2*
Y2541027D1*
X2946367Y3020359D2*
X2977854D1*
X2946367Y3067599D2*
X2977854D1*
X3115339Y3373817D2*
X3083852D1*
X3115339Y3326577D2*
X3083852D1*
X3115339Y3273827D2*
X3083852D1*
X3115339Y3226587D2*
X3083852D1*
X3240326Y3373817D2*
X3208839D1*
X3240326Y3326577D2*
X3208839D1*
X3685063Y2654892D2*
D10*
Y2607629D1*
X3752003Y2654892D2*
Y2607629D1*
X3687040Y2654892D2*
X3751996D1*
X3597572D2*
Y2607629D1*
X3664512Y2654892D2*
Y2607629D1*
X3599549Y2654892D2*
X3664505D1*
X3510081D2*
Y2607629D1*
X3577021Y2654892D2*
Y2607629D1*
X3512058Y2654892D2*
X3577014D1*
X3772554D2*
Y2607629D1*
X3839494Y2654892D2*
Y2607629D1*
X3774531Y2654892D2*
X3839487D1*
X2972386Y2655144D2*
Y2607881D1*
X3039326Y2655144D2*
Y2607881D1*
X2974363Y2655144D2*
X3039319D1*
X2709913D2*
Y2607881D1*
X2776853Y2655144D2*
Y2607881D1*
X2711890Y2655144D2*
X2776846D1*
X2797404D2*
Y2607881D1*
X2864344Y2655144D2*
Y2607881D1*
X2799381Y2655144D2*
X2864337D1*
X2884895D2*
Y2607881D1*
X2951835Y2655144D2*
Y2607881D1*
X2886872Y2655144D2*
X2951828D1*
X2767005Y2408769D2*
X2719742D1*
X2767005Y2341829D2*
X2719742D1*
X2767005Y2406792D2*
Y2341836D1*
M02*
