G04 DipTrace 3.2.0.1*
G04 Ќижн€€п.маска.gbr*
%MOIN*%
G04 #@! TF.FileFunction,Paste,Bot*
G04 #@! TF.Part,Single*
%AMOUTLINE2*
4,1,4,
-0.021654,-0.009843,
-0.021654,0.009843,
0.021654,0.009843,
0.021654,-0.009843,
-0.021654,-0.009843,
0*%
%ADD94R,0.062992X0.07874*%
%ADD95R,0.047244X0.062992*%
%ADD99R,0.120079X0.076772*%
%ADD101R,0.029528X0.076772*%
%ADD105R,0.015748X0.094488*%
%ADD108R,0.094488X0.015748*%
%ADD110R,0.07874X0.062992*%
%ADD112R,0.017717X0.033465*%
%ADD114R,0.033465X0.017717*%
%ADD115R,0.062992X0.047244*%
%ADD117R,0.047244X0.074803*%
%ADD121R,0.059055X0.027559*%
%ADD123R,0.11811X0.055118*%
%ADD127R,0.007874X0.041339*%
%ADD129R,0.062992X0.070866*%
%ADD131R,0.015748X0.070866*%
%ADD133R,0.003937X0.055118*%
%ADD135R,0.055118X0.003937*%
%ADD137R,0.234252X0.21063*%
%ADD139R,0.100394X0.031496*%
%ADD142R,0.043307X0.019685*%
%ADD144R,0.019685X0.043307*%
%ADD156OUTLINE2*%
%FSLAX26Y26*%
G04*
G70*
G90*
G75*
G01*
G04 BotPaste*
%LPD*%
D144*
X1405512Y551181D3*
X1330709D3*
Y738189D3*
X1405512D3*
X1330709Y669291D3*
X1405512D3*
Y206693D3*
X1330709D3*
X1405512Y275591D3*
X1330709D3*
X1405512Y344488D3*
X1330709D3*
X1405512Y413386D3*
X1330709D3*
X1405512Y482283D3*
X1330709D3*
X1405512Y807087D3*
X1330709D3*
D142*
X768504Y927904D3*
Y853101D3*
X531004Y165601D3*
Y240404D3*
X1190945Y1021654D3*
Y946850D3*
Y631890D3*
Y706693D3*
X2893701Y1399606D3*
Y1474409D3*
X3031496Y1399606D3*
Y1474409D3*
X3169291Y1399606D3*
Y1474409D3*
X3307087Y1399606D3*
Y1474409D3*
X3444882Y1399606D3*
Y1474409D3*
X1850394Y1897638D3*
Y1822835D3*
X1919291Y1897638D3*
Y1822835D3*
D144*
X1779528Y905512D3*
X1704724D3*
D142*
X1564961Y1192913D3*
Y1267717D3*
D144*
X1602362Y1417323D3*
X1527559D3*
D142*
X1692913Y1897638D3*
Y1822835D3*
X2214567Y1897638D3*
Y1822835D3*
X2273622Y897638D3*
Y972441D3*
D144*
X1986220Y629921D3*
X1911417D3*
D139*
X471899Y419488D3*
Y599016D3*
D137*
X735678Y509252D3*
D135*
X1665354Y1092520D3*
Y1112205D3*
Y1131890D3*
Y1151575D3*
Y1171260D3*
Y1190945D3*
Y1210630D3*
Y1230315D3*
Y1250000D3*
Y1269685D3*
Y1289370D3*
Y1309055D3*
Y1328740D3*
Y1348425D3*
Y1368110D3*
Y1387795D3*
Y1407480D3*
Y1427165D3*
Y1446850D3*
Y1466535D3*
Y1486220D3*
Y1505906D3*
Y1525591D3*
Y1545276D3*
Y1564961D3*
D133*
X1732283Y1631890D3*
X1751969D3*
X1771654D3*
X1791339D3*
X1811024D3*
X1830709D3*
X1850394D3*
X1870079D3*
X1889764D3*
X1909449D3*
X1929134D3*
X1948819D3*
X1968504D3*
X1988189D3*
X2007874D3*
X2027559D3*
X2047244D3*
X2066929D3*
X2086614D3*
X2106299D3*
X2125984D3*
X2145669D3*
X2165354D3*
X2185039D3*
X2204724D3*
D135*
X2271654Y1564961D3*
Y1545276D3*
Y1525591D3*
Y1505906D3*
Y1486220D3*
Y1466535D3*
Y1446850D3*
Y1427165D3*
Y1407480D3*
Y1387795D3*
Y1368110D3*
Y1348425D3*
Y1328740D3*
Y1309055D3*
Y1289370D3*
Y1269685D3*
Y1250000D3*
Y1230315D3*
Y1210630D3*
Y1190945D3*
Y1171260D3*
Y1151575D3*
Y1131890D3*
Y1112205D3*
Y1092520D3*
D133*
X2204724Y1025591D3*
X2185039D3*
X2165354D3*
X2145669D3*
X2125984D3*
X2106299D3*
X2086614D3*
X2066929D3*
X2047244D3*
X2027559D3*
X2007874D3*
X1988189D3*
X1968504D3*
X1948819D3*
X1929134D3*
X1909449D3*
X1889764D3*
X1870079D3*
X1850394D3*
X1830709D3*
X1811024D3*
X1791339D3*
X1771654D3*
X1751969D3*
X1732283D3*
D131*
X543504Y934301D3*
X593504D3*
X643504D3*
X693504D3*
Y721702D3*
X643504D3*
X593504D3*
X543504D3*
D129*
X1620079Y275591D3*
D127*
X1702756Y231299D3*
X1722441Y319882D3*
X1742126Y231299D3*
X1761811Y319882D3*
X1781496Y231299D3*
X1801181Y319882D3*
X1820866Y231299D3*
X1840551Y319882D3*
X1860236Y231299D3*
X1879921Y319882D3*
X1899606Y231299D3*
X1919291Y319882D3*
X1938976Y231299D3*
X1958661Y319882D3*
X1978346Y231299D3*
X1998031Y319882D3*
X2017717Y231299D3*
X2037402Y319882D3*
X2057087Y231299D3*
X2076772Y319882D3*
X2096457Y231299D3*
X2116142Y319882D3*
X2135827Y231299D3*
X2155512Y319882D3*
X2175197Y231299D3*
X2194882Y319882D3*
X2214567Y231299D3*
X2234252Y319882D3*
X2253937Y231299D3*
X1683071Y319882D3*
D129*
X2316929Y275591D3*
D123*
X618570Y1152804D3*
Y1503198D3*
D144*
X2576772Y118110D3*
X2501969D3*
D142*
X2332677Y572835D3*
Y647638D3*
X843504Y853101D3*
Y927904D3*
Y728100D3*
Y802903D3*
D121*
X456004Y770915D3*
Y885088D3*
D144*
X3039370Y994094D3*
X2964567D3*
X3039370Y925197D3*
X2964567D3*
X3039370Y1062992D3*
X2964567D3*
D142*
X3277559Y572835D3*
Y647638D3*
X2824803Y1474409D3*
Y1399606D3*
X2962598Y1474409D3*
Y1399606D3*
X3100394Y1474409D3*
Y1399606D3*
X3238189Y1474409D3*
Y1399606D3*
X3375984Y1474409D3*
Y1399606D3*
X1988189Y1822835D3*
Y1897638D3*
X2057087Y1822835D3*
Y1897638D3*
D144*
X952756Y1299213D3*
X877953D3*
X1087156Y550345D3*
X1012353D3*
D142*
X2814961Y572835D3*
Y647638D3*
D117*
X541735Y1046751D3*
X695273D3*
D115*
X3208661Y1061024D3*
Y927165D3*
X3110236D3*
Y1061024D3*
D114*
X960630Y1228346D3*
Y1153543D3*
X870079Y1190945D3*
X2405512Y572835D3*
Y647638D3*
X2496063Y610236D3*
D112*
X1012352Y483119D3*
X1087155D3*
X1049753Y392568D3*
X2895669Y655512D3*
X2970472D3*
X2933071Y564961D3*
D114*
X3350394Y572835D3*
Y647638D3*
X3440945Y610236D3*
D110*
X3755906Y1216535D3*
D108*
X3653543Y1122047D3*
Y1082677D3*
Y1043307D3*
Y1003937D3*
D110*
X3755906Y909449D3*
D94*
X2572835Y1767717D3*
D105*
X2667323Y1665354D3*
X2706693D3*
X2746063D3*
X2785433D3*
X2824803D3*
X2864173D3*
X2903543D3*
X2942913D3*
X2982283D3*
X3021654D3*
X3061024D3*
X3100394D3*
X3139764D3*
X3179134D3*
X3218504D3*
X3257874D3*
X3297244D3*
X3336614D3*
D94*
X3431102Y1767717D3*
X505906D3*
D105*
X600394Y1665354D3*
X639764D3*
X679134D3*
X718504D3*
X757874D3*
X797244D3*
X836614D3*
X875984D3*
X915354D3*
X954724D3*
X994094D3*
X1033465D3*
X1072835D3*
X1112205D3*
X1151575D3*
X1190945D3*
X1230315D3*
X1269685D3*
X1309055D3*
X1348425D3*
X1387795D3*
X1427165D3*
X1466535D3*
X1505906D3*
D94*
X1600394Y1767717D3*
D110*
X3755906Y763780D3*
D108*
X3653543Y669291D3*
Y629921D3*
Y590551D3*
Y551181D3*
Y511811D3*
Y472441D3*
Y433071D3*
Y393701D3*
D110*
X3755906Y299213D3*
Y1669291D3*
D108*
X3653543Y1574803D3*
Y1535433D3*
Y1496063D3*
Y1456693D3*
D110*
X3755906Y1362205D3*
D142*
X306218Y3706315D3*
Y3631512D3*
D144*
X93835Y3500181D3*
X168638D3*
X93835Y3300202D3*
X168638D3*
D142*
X793667Y2875152D3*
Y2800349D3*
D144*
X93835Y2450291D3*
X168638D3*
D142*
X1187375Y3600076D3*
Y3525273D3*
D144*
X649837Y3250207D3*
X575034D3*
D156*
X212478Y2912648D3*
Y2837845D3*
D142*
Y3025325D3*
Y3100129D3*
D101*
X752982Y3504745D3*
X662430D3*
X571879D3*
D99*
X662430Y3733092D3*
D142*
X718675Y2800349D3*
Y2875152D3*
D144*
X387365Y2893995D3*
X312562D3*
X774824Y3250207D3*
X700021D3*
D142*
X612436Y3100129D3*
Y3025325D3*
X512446Y2487882D3*
Y2562685D3*
D144*
X312562Y3043979D3*
X387365D3*
X524850Y3350197D3*
X450047D3*
X524850Y3250207D3*
X450047D3*
X649837Y3350197D3*
X575034D3*
D115*
X1106386Y2698199D3*
Y2564341D3*
X1018895Y2698199D3*
Y2564341D3*
X931404Y2698199D3*
Y2564341D3*
X1193877Y2698199D3*
Y2564341D3*
X393709Y2698451D3*
Y2564593D3*
X131236Y2698451D3*
Y2564593D3*
X218727Y2698451D3*
Y2564593D3*
X306218Y2698451D3*
Y2564593D3*
D95*
X198165Y2375299D3*
X64307D3*
D142*
X2918365Y3706315D3*
Y3631512D3*
D144*
X2705982Y3500181D3*
X2780785D3*
X2705982Y3300202D3*
X2780785D3*
D142*
X3405814Y2875152D3*
Y2800349D3*
D144*
X2705982Y2450291D3*
X2780785D3*
D142*
X3799522Y3600076D3*
Y3525273D3*
D144*
X3261984Y3250207D3*
X3187181D3*
D156*
X2824625Y2912648D3*
Y2837845D3*
D142*
Y3025325D3*
Y3100129D3*
D101*
X3365129Y3504745D3*
X3274577D3*
X3184026D3*
D99*
X3274577Y3733092D3*
D142*
X3330822Y2800349D3*
Y2875152D3*
D144*
X2999512Y2893995D3*
X2924709D3*
X3386971Y3250207D3*
X3312168D3*
D142*
X3224583Y3100129D3*
Y3025325D3*
X3124593Y2487882D3*
Y2562685D3*
D144*
X2924709Y3043979D3*
X2999512D3*
X3136997Y3350197D3*
X3062194D3*
X3136997Y3250207D3*
X3062194D3*
X3261984Y3350197D3*
X3187181D3*
D115*
X3718533Y2698199D3*
Y2564341D3*
X3631042Y2698199D3*
Y2564341D3*
X3543551Y2698199D3*
Y2564341D3*
X3806024Y2698199D3*
Y2564341D3*
X3005856Y2698451D3*
Y2564593D3*
X2743383Y2698451D3*
Y2564593D3*
X2830874Y2698451D3*
Y2564593D3*
X2918365Y2698451D3*
Y2564593D3*
D95*
X2810312Y2375299D3*
X2676454D3*
M02*
