M48
INCH
T01C0.0118
T02C0.0157
T03C0.0197
T04C0.0315
T05C0.0354
T06C0.038
T07C0.0394
T08C0.0984
T09C0.126
%
T01
X+010186Y+027440
X+011061Y+027440
X+011936Y+027440
X+011061Y+029190
X+011061Y+029627
X+010624Y+029627
X+010186Y+029627
X+009749Y+029627
X+009312Y+029002
X+008499Y+029002
X+007499Y+029690
X+007499Y+030440
X+007124Y+031252
X+007124Y+031690
X+007562Y+031690
X+008624Y+032252
X+008624Y+032940
X+008624Y+033377
X+009749Y+032940
X+009749Y+032252
X+009749Y+031065
X+009312Y+031065
X+011061Y+030065
X+011874Y+029627
X+009312Y+027440
X+006562Y+028003
X+005937Y+028003
X+005499Y+028003
X+004750Y+029002
X+003500Y+029502
X+003062Y+031002
X+003937Y+031002
X+005624Y+031002
X+005624Y+030252
X+006124Y+031690
X+003937Y+027440
X+003062Y+027440
X+002187Y+027440
X+000750Y+027003
X+001312Y+029690
X+011061Y+037689
X+012686Y+036002
X+027434Y+029690
X+029184Y+031002
X+030059Y+031002
X+029621Y+029502
X+030871Y+029002
X+031621Y+028003
X+032058Y+028003
X+032683Y+028003
X+033621Y+029690
X+033621Y+030440
X+033246Y+031252
X+033246Y+031690
X+033683Y+031690
X+034746Y+032252
X+034746Y+032940
X+034746Y+033377
X+035870Y+032940
X+035870Y+032252
X+035870Y+031065
X+035433Y+031065
X+035870Y+029627
X+036308Y+029627
X+036745Y+029627
X+037183Y+029627
X+037183Y+029190
X+037183Y+030065
X+037995Y+029627
X+038058Y+027440
X+037183Y+027440
X+036308Y+027440
X+035433Y+027440
X+035433Y+029002
X+034621Y+029002
X+031746Y+030252
X+031746Y+031002
X+032246Y+031690
X+030059Y+027440
X+029184Y+027440
X+028309Y+027440
X+026871Y+027003
X+037183Y+037689
X+038808Y+036002
T02
X+023720Y+013287
X+024213Y+013287
X+024705Y+013287
X+024705Y+012795
X+024705Y+012303
X+024705Y+011811
X+024705Y+011319
X+023327Y+010531
X+022736Y+010531
X+021457Y+009055
X+019291Y+009055
X+019291Y+008563
X+019291Y+008071
X+018799Y+007677
X+018799Y+007283
X+018307Y+006890
X+017815Y+007283
X+017815Y+007677
X+017323Y+006890
X+017520Y+010925
X+017520Y+011417
X+018307Y+011909
X+019094Y+011417
X+019094Y+010925
X+020669Y+012106
X+021063Y+012402
X+021457Y+012106
X+021850Y+012402
X+019783Y+013091
X+019783Y+014173
X+019783Y+014665
X+019783Y+015157
X+018701Y+015157
X+018701Y+014665
X+018701Y+014173
X+018701Y+015650
X+018012Y+015650
X+017323Y+015650
X+015650Y+016437
X+014272Y+015846
X+013484Y+015846
X+012992Y+015453
X+012697Y+015846
X+012697Y+015059
X+012992Y+014665
X+012697Y+014272
X+012992Y+013878
X+014862Y+014173
X+014370Y+011909
X+013484Y+011909
X+012697Y+011909
X+011319Y+010925
X+010827Y+010925
X+011909Y+009055
X+012697Y+009843
X+013091Y+009843
X+013484Y+009843
X+011909Y+007480
X+009547Y+005512
X+012402Y+003445
X+012402Y+002756
X+012402Y+002067
X+004724Y+001969
X+004331Y+002953
X+003346Y+003346
X+002362Y+002953
X+001969Y+001969
X+002362Y+000984
X+003346Y+000591
X+004331Y+000984
X+008435Y+009718
X+007185Y+012530
X+006685Y+012530
X+006185Y+012530
X+005685Y+012530
X+005185Y+012530
X+007972Y+014272
X+008366Y+014665
X+008760Y+015059
X+009154Y+015453
X+009154Y+013878
X+009547Y+017520
X+010335Y+017520
X+010925Y+017520
X+011319Y+017520
X+011713Y+017520
X+012106Y+017520
X+012697Y+017520
X+015846Y+018701
X+018504Y+017421
X+018996Y+017421
X+019488Y+017421
X+019980Y+017421
X+020472Y+017421
X+020965Y+017421
X+021358Y+017815
X+021752Y+017421
X+021358Y+018602
X+023425Y+018209
X+023917Y+018209
X+024409Y+018209
X+026673Y+018012
X+027461Y+017618
X+028248Y+017618
X+028642Y+015846
X+029035Y+015551
X+029429Y+015846
X+029823Y+015551
X+030217Y+015846
X+030610Y+015551
X+031004Y+015846
X+031398Y+015551
X+031791Y+015846
X+032579Y+015846
X+032185Y+017618
X+035039Y+016732
X+036024Y+016339
X+034941Y+015354
X+034449Y+015354
X+035335Y+014961
X+034941Y+014370
X+033858Y+012008
X+033465Y+012008
X+033465Y+009252
X+033858Y+009252
X+032776Y+005315
X+035039Y+002953
X+034646Y+001969
X+035039Y+000984
X+036024Y+000591
X+037008Y+000984
X+037402Y+001969
X+036024Y+003346
X+037303Y+006693
X+029232Y+009252
X+029232Y+009941
X+029232Y+010630
X+027461Y+009350
X+026870Y+009350
X+026280Y+008169
X+026280Y+007677
X+028150Y+007087
X+024705Y+008858
X+023327Y+005315
X+023425Y+015846
X+023917Y+015846
X+024409Y+015846
X+035039Y+018701
X+036024Y+019094
X+037008Y+018701
X+037402Y+017717
X+007776Y+017520
X+007185Y+017520
X+006594Y+017520
X+004331Y+016732
X+002362Y+016732
X+001969Y+017717
X+002362Y+018701
X+003346Y+019094
X+004331Y+018701
T03
X+003062Y+024503
X+000312Y+025503
X+000625Y+034002
X+002001Y+034003
X+002001Y+036003
X+003937Y+036314
X+005624Y+037314
X+026746Y+034002
X+028123Y+034003
X+028123Y+036003
X+030059Y+036314
X+031746Y+037314
X+026434Y+025503
X+029184Y+024503
T04
X+003061Y+011218
X+001683Y+011218
X+001683Y+014593
X+003061Y+014593
X+002373Y+005781
X+002373Y+004404
X+007373Y+002719
X+007373Y+001341
X+010433Y+007318
X+010433Y+009218
X+025000Y+002992
X+025787Y+002992
X+019529Y+024594
X+018529Y+024594
X+018529Y+032468
X+019529Y+032468
X+027434Y+030640
X+027434Y+028740
X+001312Y+028740
X+001312Y+030640
T05
X+029331Y+001575
X+029331Y+004134
X+029528Y+012008
X+028543Y+012008
X+030512Y+012008
X+031496Y+012008
X+010498Y+002522
X+010498Y+001538
X+002865Y+008468
X+001880Y+008468
X+005758Y+036091
X+007490Y+036091
X+031879Y+036091
X+033612Y+036091
T06
X+008624Y+023878
X+008624Y+022878
X+007624Y+022878
X+007624Y+023878
X+006624Y+023878
X+006624Y+022878
X+005624Y+022878
X+005624Y+023878
X+004624Y+023878
X+004624Y+022878
X+030746Y+022878
X+030746Y+023878
X+031746Y+023878
X+032746Y+023878
X+032746Y+022878
X+031746Y+022878
X+033746Y+022878
X+033746Y+023878
X+034746Y+023878
X+034746Y+022878
T07
X+003687Y+035502
X+003687Y+034502
X+003687Y+033502
X+003687Y+032502
X+005124Y+026753
X+006124Y+026753
X+007124Y+026753
X+008124Y+026753
X+011374Y+032502
X+012374Y+032502
X+012374Y+033502
X+012374Y+034502
X+011374Y+034502
X+011374Y+033502
X+020669Y+033169
X+022638Y+033169
X+021654Y+037106
X+021654Y+029232
X+022638Y+025295
X+020669Y+025295
X+031246Y+026753
X+032246Y+026753
X+033246Y+026753
X+034246Y+026753
X+037495Y+032502
X+037495Y+033502
X+038495Y+033502
X+038495Y+034502
X+037495Y+034502
X+038495Y+032502
X+029809Y+032502
X+029809Y+033502
X+029809Y+034502
X+029809Y+035502
T08
X+012375Y+037314
X+000875Y+037314
X+000875Y+022189
X+012376Y+022189
X+026996Y+022189
X+038498Y+022189
X+038496Y+037314
X+026996Y+037314
T09
X+003346Y+017717
X+003346Y+001969
X+036024Y+001969
X+036024Y+017717
T00
M30
