G04 DipTrace 3.2.0.1*
G04 Верхняямаска.gbr*
%MOIN*%
G04 #@! TF.FileFunction,Soldermask,Top*
G04 #@! TF.Part,Single*
%AMOUTLINE4*
4,1,10,
0.104331,0.023622,
0.035095,0.023622,
0.011473,0.047244,
-0.078402,0.047244,
-0.104331,0.021316,
-0.104331,-0.021316,
-0.078402,-0.047244,
0.011473,-0.047244,
0.035095,-0.023622,
0.104331,-0.023622,
0.104331,0.023622,
0*%
%ADD73C,0.125984*%
%ADD74C,0.035433*%
%ADD75C,0.098425*%
%ADD78R,0.066929X0.047244*%
%ADD80O,0.133858X0.070866*%
%ADD82R,0.165354X0.066929*%
%ADD84R,0.086614X0.031496*%
%ADD86R,0.067874X0.067874*%
%ADD88C,0.067874*%
%ADD90R,0.086614X0.106299*%
%ADD92R,0.027559X0.098425*%
%ADD96R,0.074016X0.129921*%
%ADD102R,0.108268X0.070866*%
%ADD113R,0.049213X0.033465*%
%ADD118R,0.066929X0.062992*%
%ADD124C,0.070866*%
%ADD132R,0.019685X0.070866*%
%ADD134R,0.070866X0.019685*%
%ADD140C,0.086614*%
%ADD141R,0.059055X0.035433*%
%ADD143R,0.035433X0.059055*%
%ADD145C,0.086614*%
%ADD147R,0.086614X0.086614*%
%ADD158OUTLINE4*%
%FSLAX26Y26*%
G04*
G70*
G90*
G75*
G01*
G04 TopMask*
%LPD*%
D147*
X2933071Y157480D3*
D145*
Y413386D3*
D143*
X199852Y1034252D3*
X274655D3*
D147*
X306144Y1121753D3*
D140*
X168349D3*
D143*
X199852Y1371752D3*
X274655D3*
D147*
X306144Y1459251D3*
D140*
X168349D3*
D141*
X324753Y471849D3*
Y546652D3*
D147*
X237255Y578148D3*
D140*
Y440353D3*
D147*
X737253Y271900D3*
D140*
Y134105D3*
D143*
X3738189Y1053150D3*
X3663386D3*
D124*
X2500000Y299213D3*
X2578740D3*
D73*
X334646Y1771654D3*
X3602362D3*
Y196850D3*
X334646D3*
D143*
X3663386Y984252D3*
X3738189D3*
X3663386Y915354D3*
X3738189D3*
D118*
X3874016Y1171260D3*
X3527559D3*
X3864173Y797244D3*
X3517717D3*
D140*
X2854331Y1200787D3*
X2952756D3*
X3051181D3*
X3149606D3*
X286459Y846751D3*
X188034D3*
X1049755Y153790D3*
Y252215D3*
D145*
X1043307Y921772D3*
Y731772D3*
D102*
X200134Y3500181D3*
X62339D3*
X200134Y3300202D3*
X62339D3*
X200134Y2450291D3*
X62339D3*
D141*
X512446Y3412596D3*
Y3337793D3*
X812415Y3412596D3*
Y3337793D3*
D143*
X437549Y2844000D3*
X512352D3*
X887312D3*
X812509D3*
D132*
X554163Y2897373D3*
X573848D3*
X593533D3*
X613218D3*
X632903D3*
X652588D3*
X672273D3*
X691958D3*
X711643D3*
X731328D3*
X751013D3*
X770698D3*
D134*
X827785Y2954459D3*
Y2974144D3*
Y2993829D3*
Y3013514D3*
Y3033199D3*
Y3052885D3*
Y3072570D3*
Y3092255D3*
Y3111940D3*
Y3131625D3*
Y3151310D3*
Y3170995D3*
D132*
X770698Y3228081D3*
X751013D3*
X731328D3*
X711643D3*
X691958D3*
X672273D3*
X652588D3*
X632903D3*
X613218D3*
X593533D3*
X573848D3*
X554163D3*
D134*
X497076Y3170995D3*
Y3151310D3*
Y3131625D3*
Y3111940D3*
Y3092255D3*
Y3072570D3*
Y3052885D3*
Y3033199D3*
Y3013514D3*
Y2993829D3*
Y2974144D3*
Y2954459D3*
D96*
X371178Y3731407D3*
X241257D3*
D141*
X1049890Y3694005D3*
Y3768808D3*
X974898D3*
Y3694005D3*
D143*
X2127953Y3634252D3*
X2202756D3*
X2352953Y3316929D3*
X2427756D3*
X974992Y3350197D3*
X1049795D3*
D141*
X587438Y3337793D3*
Y3412596D3*
X1106386Y2699919D3*
Y2625115D3*
X1018895Y2699919D3*
Y2625115D3*
X737423Y3412596D3*
Y3337793D3*
X931404Y2699919D3*
Y2625115D3*
X662430Y3412596D3*
Y3337793D3*
X1193877Y2699919D3*
Y2625115D3*
X393709Y2700171D3*
Y2625367D3*
X131236Y2700171D3*
Y2625367D3*
X218727Y2700171D3*
Y2625367D3*
X306218Y2700171D3*
Y2625367D3*
X1049890Y3625073D3*
Y3550270D3*
X974898Y3625073D3*
Y3550270D3*
D92*
X725423Y3506714D3*
X693927D3*
X662430D3*
X630934D3*
X599438D3*
D90*
X837627Y3510651D3*
X487234D3*
X837627Y3727186D3*
X487234D3*
D74*
X749026Y3609076D3*
X575798D3*
D147*
X368711Y3550192D3*
D140*
Y3450192D3*
Y3350192D3*
Y3250192D3*
D147*
X1137375Y3450197D3*
D140*
X1237375D3*
X1137375Y3350197D3*
X1237375D3*
X1137375Y3250197D3*
X1237375D3*
X512430Y2675268D3*
X612430D3*
X712430D3*
X812430D3*
D88*
X862430Y2387803D3*
Y2287803D3*
X762430D3*
Y2387803D3*
X662430Y2287803D3*
Y2387803D3*
X562430Y2287803D3*
Y2387803D3*
X462430D3*
D86*
Y2287803D3*
D145*
X131236Y2873987D3*
Y3063987D3*
D75*
X1237500Y3731398D3*
X87500D3*
X87499Y2218896D3*
X1237629Y2218906D3*
D143*
X2352953Y3409252D3*
X2427756D3*
D84*
X2059055Y3559252D3*
Y3509252D3*
Y3459252D3*
Y3409252D3*
X2271654D3*
Y3459252D3*
Y3509252D3*
Y3559252D3*
D82*
X1692913Y3582677D3*
Y3484252D3*
Y3385827D3*
D124*
X1852854Y3246752D3*
X1952854D3*
D80*
X2066929Y3316929D3*
X2263780D3*
X2165354Y3710630D3*
D143*
X2352953Y3484252D3*
X2427756D3*
X2352953Y3559252D3*
X2427756D3*
D141*
X1815354Y3696850D3*
Y3771654D3*
D143*
X1917323Y3582677D3*
X1842520D3*
X2002756Y3696752D3*
X1927953D3*
D78*
X1950787Y3326772D3*
D158*
X1879921Y3385827D3*
D78*
X1950787Y3444882D3*
D143*
X1917323Y3513780D3*
X1842520D3*
D113*
X1748130Y3696850D3*
Y3771654D3*
X1657579Y3734252D3*
D143*
X2127953Y2846850D3*
X2202756D3*
X2352953Y2529528D3*
X2427756D3*
X2352953Y2621850D3*
X2427756D3*
D84*
X2059055Y2771850D3*
Y2721850D3*
Y2671850D3*
Y2621850D3*
X2271654D3*
Y2671850D3*
Y2721850D3*
Y2771850D3*
D82*
X1692913Y2795276D3*
Y2696850D3*
Y2598425D3*
D124*
X1852854Y2459350D3*
X1952854D3*
D80*
X2066929Y2529528D3*
X2263780D3*
X2165354Y2923228D3*
D143*
X2352953Y2696850D3*
X2427756D3*
X2352953Y2771850D3*
X2427756D3*
D141*
X1815354Y2909449D3*
Y2984252D3*
D143*
X1917323Y2795276D3*
X1842520D3*
X2002756Y2909350D3*
X1927953D3*
D78*
X1950787Y2539370D3*
D158*
X1879921Y2598425D3*
D78*
X1950787Y2657480D3*
D143*
X1917323Y2726378D3*
X1842520D3*
D113*
X1748130Y2909449D3*
Y2984252D3*
X1657579Y2946850D3*
D102*
X2812281Y3500181D3*
X2674486D3*
X2812281Y3300202D3*
X2674486D3*
X2812281Y2450291D3*
X2674486D3*
D141*
X3124593Y3412596D3*
Y3337793D3*
X3424562Y3412596D3*
Y3337793D3*
D143*
X3049696Y2844000D3*
X3124499D3*
X3499459D3*
X3424656D3*
D132*
X3166310Y2897373D3*
X3185995D3*
X3205680D3*
X3225365D3*
X3245050D3*
X3264735D3*
X3284420D3*
X3304105D3*
X3323790D3*
X3343475D3*
X3363160D3*
X3382845D3*
D134*
X3439932Y2954459D3*
Y2974144D3*
Y2993829D3*
Y3013514D3*
Y3033199D3*
Y3052885D3*
Y3072570D3*
Y3092255D3*
Y3111940D3*
Y3131625D3*
Y3151310D3*
Y3170995D3*
D132*
X3382845Y3228081D3*
X3363160D3*
X3343475D3*
X3323790D3*
X3304105D3*
X3284420D3*
X3264735D3*
X3245050D3*
X3225365D3*
X3205680D3*
X3185995D3*
X3166310D3*
D134*
X3109223Y3170995D3*
Y3151310D3*
Y3131625D3*
Y3111940D3*
Y3092255D3*
Y3072570D3*
Y3052885D3*
Y3033199D3*
Y3013514D3*
Y2993829D3*
Y2974144D3*
Y2954459D3*
D96*
X2983325Y3731407D3*
X2853404D3*
D141*
X3662037Y3694005D3*
Y3768808D3*
X3587045D3*
Y3694005D3*
D143*
X3587139Y3350197D3*
X3661942D3*
D141*
X3199585Y3337793D3*
Y3412596D3*
X3718533Y2699919D3*
Y2625115D3*
X3631042Y2699919D3*
Y2625115D3*
X3349570Y3412596D3*
Y3337793D3*
X3543551Y2699919D3*
Y2625115D3*
X3274577Y3412596D3*
Y3337793D3*
X3806024Y2699919D3*
Y2625115D3*
X3005856Y2700171D3*
Y2625367D3*
X2743383Y2700171D3*
Y2625367D3*
X2830874Y2700171D3*
Y2625367D3*
X2918365Y2700171D3*
Y2625367D3*
X3662037Y3625073D3*
Y3550270D3*
X3587045Y3625073D3*
Y3550270D3*
D92*
X3337570Y3506714D3*
X3306073D3*
X3274577D3*
X3243081D3*
X3211585D3*
D90*
X3449774Y3510651D3*
X3099381D3*
X3449774Y3727186D3*
X3099381D3*
D74*
X3361173Y3609076D3*
X3187945D3*
D147*
X2980858Y3550192D3*
D140*
Y3450192D3*
Y3350192D3*
Y3250192D3*
D147*
X3749522Y3450197D3*
D140*
X3849522D3*
X3749522Y3350197D3*
X3849522D3*
X3749522Y3250197D3*
X3849522D3*
X3124577Y2675268D3*
X3224577D3*
X3324577D3*
X3424577D3*
D88*
X3474577Y2387803D3*
Y2287803D3*
X3374577D3*
Y2387803D3*
X3274577Y2287803D3*
Y2387803D3*
X3174577Y2287803D3*
Y2387803D3*
X3074577D3*
D86*
Y2287803D3*
D145*
X2743383Y2873987D3*
Y3063987D3*
D75*
X3849647Y3731398D3*
X2699647D3*
X2699646Y2218896D3*
X3849776Y2218906D3*
M02*
