G04 DipTrace 3.2.0.1*
G04 Верхняямаркировка.gbr*
%MOIN*%
G04 #@! TF.FileFunction,Legend,Top*
G04 #@! TF.Part,Single*
%ADD10C,0.009843*%
%ADD20C,0.007874*%
%ADD41C,0.015422*%
%ADD53C,0.023676*%
%ADD58C,0.015709*%
%ADD61C,0.019654*%
%ADD69C,0.01542*%
%ADD150C,0.017498*%
%ADD151C,0.010936*%
%ADD152C,0.006562*%
%ADD153C,0.008749*%
%FSLAX26Y26*%
G04*
G70*
G90*
G75*
G01*
G04 TopSilk*
%LPD*%
X221510Y1057872D2*
D20*
X252997D1*
X221510Y1010632D2*
X252997D1*
X221510Y1395372D2*
X252997D1*
X221510Y1348132D2*
X252997D1*
X301133Y493507D2*
Y524994D1*
X348373Y493507D2*
Y524994D1*
X3716531Y1029530D2*
X3685044D1*
X3716531Y1076770D2*
X3685044D1*
X243862Y5631D2*
D10*
X3693146D1*
X204345Y1923532D2*
Y1620160D1*
X3732663Y348344D2*
Y44972D1*
X204345Y348344D2*
Y44972D1*
X479907Y1580819D2*
Y387685D1*
X3457101Y1580819D2*
Y387685D1*
X204345Y348344D2*
G02X243862Y387685I40923J-1590D01*
G01*
Y1580819D2*
X479907D1*
X3457101D2*
X3693146D1*
X204345Y1923532D2*
G02X243862Y1962873I40561J-1226D01*
G01*
X3693146D1*
X3732663Y1923532D2*
Y1620160D1*
X3457101Y387685D2*
X3693146D1*
X243862D2*
X479907D1*
X243862Y1580819D2*
G02X204345Y1620160I1406J40930D01*
G01*
X243862Y5631D2*
G02X204345Y44972I1044J40566D01*
G01*
X3732663Y1620160D2*
G02X3693146Y1580819I-40923J1590D01*
G01*
Y1962873D2*
G02X3732663Y1923532I-1044J-40566D01*
G01*
Y44972D2*
G02X3693146Y5631I-40561J1226D01*
G01*
Y387685D2*
G02X3732663Y348344I-1406J-40930D01*
G01*
X712423Y1777718D2*
X3224585D1*
Y521560D1*
X712423D1*
Y1777718D1*
X3685044Y1007872D2*
D20*
X3716531D1*
X3685044Y960632D2*
X3716531D1*
X3685044Y938974D2*
X3716531D1*
X3685044Y891734D2*
X3716531D1*
X3820859Y1106299D2*
D10*
X3580715D1*
Y1236220D1*
X3820859D1*
Y1106299D1*
X3750787Y1146250D2*
X3650788D1*
Y1196270D1*
X3750787D1*
Y1146250D1*
X3811017Y732283D2*
X3570873D1*
Y862205D1*
X3811017D1*
Y732283D1*
X3740944Y772234D2*
X3640945D1*
Y822254D1*
X3740944D1*
Y772234D1*
X46608Y3415535D2*
X46584Y3450968D1*
X46608Y3415535D2*
X186306D1*
X215865Y3445060D2*
X186306Y3415535D1*
X215865Y3445060D2*
X215889Y3450968D1*
X46584Y3549394D2*
X46608Y3584827D1*
X186306D1*
X215865Y3555302D2*
X186306Y3584827D1*
X215889Y3549394D2*
X215865Y3555302D1*
D53*
X237516Y3445051D3*
X46608Y3215556D2*
D10*
X46584Y3250989D1*
X46608Y3215556D2*
X186306D1*
X215865Y3245081D2*
X186306Y3215556D1*
X215865Y3245081D2*
X215889Y3250989D1*
X46584Y3349415D2*
X46608Y3384848D1*
X186306D1*
X215865Y3355323D2*
X186306Y3384848D1*
X215889Y3349415D2*
X215865Y3355323D1*
D53*
X237516Y3245072D3*
X46608Y2365646D2*
D10*
X46584Y2401078D1*
X46608Y2365646D2*
X186306D1*
X215865Y2395170D2*
X186306Y2365646D1*
X215865Y2395170D2*
X215889Y2401078D1*
X46584Y2499504D2*
X46608Y2534937D1*
X186306D1*
X215865Y2505413D2*
X186306Y2534937D1*
X215889Y2499504D2*
X215865Y2505413D1*
D53*
X237516Y2395162D3*
X536066Y3390938D2*
D20*
Y3359451D1*
X488826Y3390938D2*
Y3359451D1*
X836035Y3390938D2*
Y3359451D1*
X788795Y3390938D2*
Y3359451D1*
X459207Y2867620D2*
X490693D1*
X459207Y2820380D2*
X490693D1*
X865654D2*
X834167D1*
X865654Y2867620D2*
X834167D1*
X544320Y2944577D2*
D10*
X780541D1*
Y3180877D1*
X544320D1*
Y2944577D1*
G36*
D2*
X575816D1*
X544320Y2976113D1*
Y2944577D1*
G37*
D58*
X526584Y2897353D3*
X412517Y3660541D2*
D10*
X199919D1*
Y3802273D1*
X412517D1*
Y3660541D1*
X1026270Y3715664D2*
D20*
X1073510D1*
X1026270D2*
Y3747150D1*
X1073510Y3715664D2*
Y3747150D1*
X998518D2*
X951278D1*
X998518D2*
Y3715664D1*
X951278Y3747150D2*
Y3715664D1*
X2149611Y3657872D2*
X2181098D1*
X2149611Y3610632D2*
X2181098D1*
X2374611Y3340549D2*
X2406098D1*
X2374611Y3293309D2*
X2406098D1*
X996650Y3373817D2*
X1028137D1*
X996650Y3326577D2*
X1028137D1*
X563818Y3359451D2*
Y3390938D1*
X611058Y3359451D2*
Y3390938D1*
X1130006Y2678260D2*
Y2646774D1*
X1082766Y2678260D2*
Y2646774D1*
X1042515Y2678260D2*
Y2646774D1*
X995275Y2678260D2*
Y2646774D1*
X761043Y3390938D2*
Y3359451D1*
X713802Y3390938D2*
Y3359451D1*
X955024Y2678260D2*
Y2646774D1*
X907784Y2678260D2*
Y2646774D1*
X686051Y3390938D2*
Y3359451D1*
X638810Y3390938D2*
Y3359451D1*
X1217497Y2678260D2*
Y2646774D1*
X1170257Y2678260D2*
Y2646774D1*
X417329Y2678512D2*
Y2647026D1*
X370089Y2678512D2*
Y2647026D1*
X154856Y2678512D2*
Y2647026D1*
X107616Y2678512D2*
Y2647026D1*
X242347Y2678512D2*
Y2647026D1*
X195107Y2678512D2*
Y2647026D1*
X329838Y2678512D2*
Y2647026D1*
X282598Y2678512D2*
Y2647026D1*
X1073510Y3603415D2*
Y3571929D1*
X1026270Y3603415D2*
Y3571929D1*
X998518Y3603415D2*
Y3571929D1*
X951278Y3603415D2*
Y3571929D1*
X815975Y3843328D2*
D10*
X508886D1*
X815975D2*
Y3794135D1*
Y3661025D2*
Y3576777D1*
X780528Y3473265D2*
X752978D1*
X571883D2*
X544333D1*
X508886Y3576777D2*
Y3661025D1*
Y3794135D2*
Y3843328D1*
D61*
X725427Y3439781D3*
X418711Y3600192D2*
D10*
X318711D1*
Y3200192D1*
X418711D1*
Y3600192D1*
X1087375Y3200197D2*
X1287375D1*
Y3500197D1*
X1087375D1*
Y3200197D1*
X812017Y2738263D2*
X512844D1*
X812017D2*
Y2777630D1*
X512844Y2738263D2*
Y2777630D1*
X461643Y2549283D2*
X863218D1*
Y2777630D1*
X461643D1*
Y2549283D1*
X287230Y2287753D2*
X262430D1*
X287230Y2387853D2*
Y2287753D1*
Y2387853D2*
X262430D1*
X1062430Y2287753D2*
X1037630D1*
Y2387853D2*
Y2287753D1*
X1062430Y2387853D2*
X1037630D1*
X262430Y2512803D2*
Y2162803D1*
X1062430Y2512803D2*
Y2162803D1*
Y2512803D2*
X262430D1*
X582430Y2192903D2*
Y2162803D1*
X742430Y2192903D2*
X582430D1*
X742430D2*
Y2162803D1*
X582430D2*
X262430D1*
X1062430D2*
X742430D1*
X224110Y2829323D2*
Y3108651D1*
X38362Y2829323D2*
Y3108651D1*
X93734Y2956494D2*
Y2981479D1*
X168739D1*
Y2956494D1*
X93734D1*
Y2937756D2*
X168739D1*
X93734Y3000218D2*
X168739D1*
X131236D2*
Y3012756D1*
Y2937756D2*
Y2925218D1*
X38362Y2829323D2*
G03X224110Y2829323I92874J8216D01*
G01*
Y3108651D2*
G03X38362Y3108651I-92874J-8216D01*
G01*
X2374611Y3432872D2*
D20*
X2406098D1*
X2374611Y3385632D2*
X2406098D1*
X2114166Y3582679D2*
D10*
Y3385825D1*
X2216543Y3582679D2*
Y3385825D1*
X2114166D2*
X2216543D1*
X2145660Y3582679D2*
X2114166D1*
X2185049D2*
X2216543D1*
X2145660D2*
G03X2185049Y3582679I19694J9D01*
G01*
X2374611Y3507872D2*
D20*
X2406098D1*
X2374611Y3460632D2*
X2406098D1*
X2374611Y3582872D2*
X2406098D1*
X2374611Y3535632D2*
X2406098D1*
X1791734Y3718509D2*
Y3749995D1*
X1838974Y3718509D2*
Y3749995D1*
X1895665Y3559057D2*
X1864178D1*
X1895665Y3606297D2*
X1864178D1*
X1981098Y3673132D2*
X1949611D1*
X1981098Y3720372D2*
X1949611D1*
X1911405Y3297243D2*
D10*
X1812999D1*
Y3326784D1*
Y3444869D2*
Y3474409D1*
X1911405D1*
D69*
X1970035Y3288147D3*
X1895665Y3490159D2*
D20*
Y3537400D1*
Y3490159D2*
X1864178D1*
X1895665Y3537400D2*
X1864178D1*
D41*
X1762839Y3666001D3*
X1712697Y3675202D2*
D10*
Y3793307D1*
X1693012D1*
Y3675202D1*
X1712697D1*
X2149611Y2870470D2*
D20*
X2181098D1*
X2149611Y2823230D2*
X2181098D1*
X2374611Y2553148D2*
X2406098D1*
X2374611Y2505907D2*
X2406098D1*
X2374611Y2645470D2*
X2406098D1*
X2374611Y2598230D2*
X2406098D1*
X2114166Y2795278D2*
D10*
Y2598423D1*
X2216543Y2795278D2*
Y2598423D1*
X2114166D2*
X2216543D1*
X2145660Y2795278D2*
X2114166D1*
X2185049D2*
X2216543D1*
X2145660D2*
G03X2185049Y2795278I19694J9D01*
G01*
X2374611Y2720470D2*
D20*
X2406098D1*
X2374611Y2673230D2*
X2406098D1*
X2374611Y2795470D2*
X2406098D1*
X2374611Y2748230D2*
X2406098D1*
X1791734Y2931107D2*
Y2962594D1*
X1838974Y2931107D2*
Y2962594D1*
X1895665Y2771656D2*
X1864178D1*
X1895665Y2818896D2*
X1864178D1*
X1981098Y2885730D2*
X1949611D1*
X1981098Y2932970D2*
X1949611D1*
X1911405Y2509842D2*
D10*
X1812999D1*
Y2539382D1*
Y2657467D2*
Y2687008D1*
X1911405D1*
D69*
X1970035Y2500745D3*
X1895665Y2702758D2*
D20*
Y2749998D1*
Y2702758D2*
X1864178D1*
X1895665Y2749998D2*
X1864178D1*
D41*
X1762839Y2878600D3*
X1712697Y2887801D2*
D10*
Y3005906D1*
X1693012D1*
Y2887801D1*
X1712697D1*
X2658755Y3415535D2*
X2658731Y3450968D1*
X2658755Y3415535D2*
X2798452D1*
X2828012Y3445060D2*
X2798452Y3415535D1*
X2828012Y3445060D2*
X2828036Y3450968D1*
X2658731Y3549394D2*
X2658755Y3584827D1*
X2798452D1*
X2828012Y3555302D2*
X2798452Y3584827D1*
X2828036Y3549394D2*
X2828012Y3555302D1*
D53*
X2849663Y3445051D3*
X2658755Y3215556D2*
D10*
X2658731Y3250989D1*
X2658755Y3215556D2*
X2798452D1*
X2828012Y3245081D2*
X2798452Y3215556D1*
X2828012Y3245081D2*
X2828036Y3250989D1*
X2658731Y3349415D2*
X2658755Y3384848D1*
X2798452D1*
X2828012Y3355323D2*
X2798452Y3384848D1*
X2828036Y3349415D2*
X2828012Y3355323D1*
D53*
X2849663Y3245072D3*
X2658755Y2365646D2*
D10*
X2658731Y2401078D1*
X2658755Y2365646D2*
X2798452D1*
X2828012Y2395170D2*
X2798452Y2365646D1*
X2828012Y2395170D2*
X2828036Y2401078D1*
X2658731Y2499504D2*
X2658755Y2534937D1*
X2798452D1*
X2828012Y2505413D2*
X2798452Y2534937D1*
X2828036Y2499504D2*
X2828012Y2505413D1*
D53*
X2849663Y2395162D3*
X3148213Y3390938D2*
D20*
Y3359451D1*
X3100973Y3390938D2*
Y3359451D1*
X3448182Y3390938D2*
Y3359451D1*
X3400942Y3390938D2*
Y3359451D1*
X3071354Y2867620D2*
X3102840D1*
X3071354Y2820380D2*
X3102840D1*
X3477801D2*
X3446314D1*
X3477801Y2867620D2*
X3446314D1*
X3156467Y2944577D2*
D10*
X3392688D1*
Y3180877D1*
X3156467D1*
Y2944577D1*
G36*
D2*
X3187963D1*
X3156467Y2976113D1*
Y2944577D1*
G37*
D58*
X3138731Y2897353D3*
X3024664Y3660541D2*
D10*
X2812066D1*
Y3802273D1*
X3024664D1*
Y3660541D1*
X3638417Y3715664D2*
D20*
X3685657D1*
X3638417D2*
Y3747150D1*
X3685657Y3715664D2*
Y3747150D1*
X3610665D2*
X3563425D1*
X3610665D2*
Y3715664D1*
X3563425Y3747150D2*
Y3715664D1*
X3608797Y3373817D2*
X3640284D1*
X3608797Y3326577D2*
X3640284D1*
X3175965Y3359451D2*
Y3390938D1*
X3223205Y3359451D2*
Y3390938D1*
X3742153Y2678260D2*
Y2646774D1*
X3694913Y2678260D2*
Y2646774D1*
X3654662Y2678260D2*
Y2646774D1*
X3607422Y2678260D2*
Y2646774D1*
X3373190Y3390938D2*
Y3359451D1*
X3325949Y3390938D2*
Y3359451D1*
X3567171Y2678260D2*
Y2646774D1*
X3519931Y2678260D2*
Y2646774D1*
X3298198Y3390938D2*
Y3359451D1*
X3250957Y3390938D2*
Y3359451D1*
X3829644Y2678260D2*
Y2646774D1*
X3782404Y2678260D2*
Y2646774D1*
X3029476Y2678512D2*
Y2647026D1*
X2982236Y2678512D2*
Y2647026D1*
X2767003Y2678512D2*
Y2647026D1*
X2719763Y2678512D2*
Y2647026D1*
X2854494Y2678512D2*
Y2647026D1*
X2807254Y2678512D2*
Y2647026D1*
X2941985Y2678512D2*
Y2647026D1*
X2894745Y2678512D2*
Y2647026D1*
X3685657Y3603415D2*
Y3571929D1*
X3638417Y3603415D2*
Y3571929D1*
X3610665Y3603415D2*
Y3571929D1*
X3563425Y3603415D2*
Y3571929D1*
X3428122Y3843328D2*
D10*
X3121033D1*
X3428122D2*
Y3794135D1*
Y3661025D2*
Y3576777D1*
X3392675Y3473265D2*
X3365125D1*
X3184030D2*
X3156480D1*
X3121033Y3576777D2*
Y3661025D1*
Y3794135D2*
Y3843328D1*
D61*
X3337574Y3439781D3*
X3030858Y3600192D2*
D10*
X2930858D1*
Y3200192D1*
X3030858D1*
Y3600192D1*
X3699522Y3200197D2*
X3899522D1*
Y3500197D1*
X3699522D1*
Y3200197D1*
X3424164Y2738263D2*
X3124991D1*
X3424164D2*
Y2777630D1*
X3124991Y2738263D2*
Y2777630D1*
X3073790Y2549283D2*
X3475365D1*
Y2777630D1*
X3073790D1*
Y2549283D1*
X2899377Y2287753D2*
X2874577D1*
X2899377Y2387853D2*
Y2287753D1*
Y2387853D2*
X2874577D1*
X3674577Y2287753D2*
X3649777D1*
Y2387853D2*
Y2287753D1*
X3674577Y2387853D2*
X3649777D1*
X2874577Y2512803D2*
Y2162803D1*
X3674577Y2512803D2*
Y2162803D1*
Y2512803D2*
X2874577D1*
X3194577Y2192903D2*
Y2162803D1*
X3354577Y2192903D2*
X3194577D1*
X3354577D2*
Y2162803D1*
X3194577D2*
X2874577D1*
X3674577D2*
X3354577D1*
X2836257Y2829323D2*
Y3108651D1*
X2650509Y2829323D2*
Y3108651D1*
X2705881Y2956494D2*
Y2981479D1*
X2780886D1*
Y2956494D1*
X2705881D1*
Y2937756D2*
X2780886D1*
X2705881Y3000218D2*
X2780886D1*
X2743383D2*
Y3012756D1*
Y2937756D2*
Y2925218D1*
X2650509Y2829323D2*
G03X2836257Y2829323I92874J8216D01*
G01*
Y3108651D2*
G03X2650509Y3108651I-92874J-8216D01*
G01*
X1614173Y3267717D2*
D20*
Y3700787D1*
X1417323D1*
X1614173Y3267717D2*
X1417323D1*
Y3700787D2*
Y3818898D1*
Y3149606D2*
Y3267717D1*
Y3818898D2*
X2500000D1*
X1417323Y3149606D2*
X2500178D1*
X2500000D2*
Y3818898D1*
X1614173Y2480315D2*
Y2913386D1*
X1417323D1*
X1614173Y2480315D2*
X1417323D1*
Y2913386D2*
Y3031496D1*
Y2362205D2*
Y2480315D1*
Y3031496D2*
X2500000D1*
X1417323Y2362205D2*
X2500178D1*
X2500000D2*
Y3031496D1*
X1361345Y473196D2*
D150*
Y392812D1*
X1388935D1*
X1398132Y396703D1*
X1401174Y400505D1*
X1404216Y408110D1*
Y419606D1*
X1401174Y427300D1*
X1398132Y431102D1*
X1388935Y434905D1*
X1398132Y438796D1*
X1401174Y442599D1*
X1404216Y450204D1*
Y457897D1*
X1401174Y465502D1*
X1398132Y469393D1*
X1388935Y473196D1*
X1361345D1*
Y434905D2*
X1388935D1*
X1468929Y446401D2*
Y392812D1*
Y434905D2*
X1462845Y442599D1*
X1456690Y446401D1*
X1447564D1*
X1441410Y442599D1*
X1435325Y434905D1*
X1432213Y423409D1*
Y415804D1*
X1435325Y404308D1*
X1441410Y396703D1*
X1447564Y392812D1*
X1456690D1*
X1462845Y396703D1*
X1468929Y404308D1*
X1506123Y473196D2*
Y408110D1*
X1509165Y396703D1*
X1515320Y392812D1*
X1521404D1*
X1496926Y446401D2*
X1518362D1*
X1595314Y454095D2*
X1592272Y461700D1*
X1586117Y469393D1*
X1580033Y473196D1*
X1567794D1*
X1561639Y469393D1*
X1555555Y461700D1*
X1552442Y454095D1*
X1549400Y442599D1*
Y423409D1*
X1552442Y412001D1*
X1555555Y404308D1*
X1561639Y396703D1*
X1567794Y392812D1*
X1580033D1*
X1586117Y396703D1*
X1592272Y404308D1*
X1595314Y412001D1*
X1623310Y473196D2*
Y392812D1*
Y431102D2*
X1632507Y442599D1*
X1638662Y446401D1*
X1647859D1*
X1653943Y442599D1*
X1656985Y431102D1*
Y392812D1*
X1721698Y446401D2*
Y392812D1*
Y434905D2*
X1715614Y442599D1*
X1709459Y446401D1*
X1700333D1*
X1694178Y442599D1*
X1688094Y434905D1*
X1684981Y423409D1*
Y415804D1*
X1688094Y404308D1*
X1694178Y396703D1*
X1700333Y392812D1*
X1709459D1*
X1715614Y396703D1*
X1721698Y404308D1*
X1749694Y446401D2*
Y392812D1*
Y423409D2*
X1752807Y434905D1*
X1758891Y442599D1*
X1765046Y446401D1*
X1774243D1*
X1838956Y442599D2*
Y381316D1*
X1835914Y369908D1*
X1832872Y366017D1*
X1826717Y362215D1*
X1817520D1*
X1811436Y366017D1*
X1838956Y431102D2*
X1832872Y438708D1*
X1826717Y442599D1*
X1817520D1*
X1811436Y438708D1*
X1805281Y431102D1*
X1802239Y419606D1*
Y411913D1*
X1805281Y400505D1*
X1811436Y392812D1*
X1817520Y389009D1*
X1826717D1*
X1832872Y392812D1*
X1838956Y400505D1*
X1866953Y423409D2*
X1903669D1*
Y431102D1*
X1900627Y438796D1*
X1897585Y442599D1*
X1891430Y446401D1*
X1882233D1*
X1876149Y442599D1*
X1869995Y434905D1*
X1866953Y423409D1*
Y415804D1*
X1869995Y404308D1*
X1876149Y396703D1*
X1882233Y392812D1*
X1891430D1*
X1897585Y396703D1*
X1903669Y404308D1*
X1931666Y446401D2*
Y392812D1*
Y423409D2*
X1934779Y434905D1*
X1940863Y442599D1*
X1947017Y446401D1*
X1956214D1*
X2100568Y454095D2*
X2097526Y461700D1*
X2091371Y469393D1*
X2085287Y473196D1*
X2073048D1*
X2066893Y469393D1*
X2060809Y461700D1*
X2057696Y454095D1*
X2054654Y442599D1*
Y423409D1*
X2057696Y412001D1*
X2060809Y404308D1*
X2066893Y396703D1*
X2073048Y392812D1*
X2085287D1*
X2091371Y396703D1*
X2097526Y404308D1*
X2100568Y412001D1*
X2143845Y446401D2*
X2137761Y442599D1*
X2131606Y434905D1*
X2128564Y423409D1*
Y415804D1*
X2131606Y404308D1*
X2137761Y396703D1*
X2143845Y392812D1*
X2153042D1*
X2159197Y396703D1*
X2165281Y404308D1*
X2168394Y415804D1*
Y423409D1*
X2165281Y434905D1*
X2159197Y442599D1*
X2153042Y446401D1*
X2143845D1*
X2196390D2*
Y392812D1*
Y431102D2*
X2205587Y442599D1*
X2211742Y446401D1*
X2220868D1*
X2227023Y442599D1*
X2230065Y431102D1*
Y392812D1*
X2267258Y473196D2*
Y408110D1*
X2270300Y396703D1*
X2276455Y392812D1*
X2282539D1*
X2258061Y446401D2*
X2279497D1*
X2310536D2*
Y392812D1*
Y423409D2*
X2313648Y434905D1*
X2319732Y442599D1*
X2325887Y446401D1*
X2335084D1*
X2378362D2*
X2372277Y442599D1*
X2366123Y434905D1*
X2363081Y423409D1*
Y415804D1*
X2366123Y404308D1*
X2372277Y396703D1*
X2378362Y392812D1*
X2387558D1*
X2393713Y396703D1*
X2399797Y404308D1*
X2402910Y415804D1*
Y423409D1*
X2399797Y434905D1*
X2393713Y442599D1*
X2387558Y446401D1*
X2378362D1*
X2430907Y473196D2*
Y392812D1*
X2458903Y473196D2*
Y392812D1*
X2486900Y423409D2*
X2523616D1*
Y431102D1*
X2520574Y438796D1*
X2517532Y442599D1*
X2511377Y446401D1*
X2502180D1*
X2496096Y442599D1*
X2489942Y434905D1*
X2486900Y423409D1*
Y415804D1*
X2489942Y404308D1*
X2496096Y396703D1*
X2502180Y392812D1*
X2511377D1*
X2517532Y396703D1*
X2523616Y404308D1*
X2551613Y446401D2*
Y392812D1*
Y423409D2*
X2554725Y434905D1*
X2560810Y442599D1*
X2566964Y446401D1*
X2576161D1*
X1786844Y184319D2*
D151*
X1771502Y234559D1*
X1756203Y184319D1*
X1761951Y201066D2*
X1781096D1*
X1804342Y234559D2*
X1819641Y184319D1*
X1834939Y234559D1*
X1852437Y210627D2*
X1869637D1*
X1875385Y213059D1*
X1877331Y215436D1*
X1879232Y220189D1*
Y224997D1*
X1877331Y229751D1*
X1875385Y232182D1*
X1869637Y234559D1*
X1852437D1*
Y184319D1*
X1865835Y210627D2*
X1879232Y184319D1*
X1927371D2*
X1912028Y234559D1*
X1896730Y184319D1*
X1902478Y201066D2*
X1921623D1*
X1971664Y227374D2*
X1967861Y232182D1*
X1962113Y234559D1*
X1954464D1*
X1948716Y232182D1*
X1944869Y227374D1*
Y222621D1*
X1946814Y217812D1*
X1948716Y215436D1*
X1952518Y213059D1*
X1964014Y208251D1*
X1967861Y205874D1*
X1969762Y203442D1*
X1971664Y198689D1*
Y191504D1*
X1967861Y186751D1*
X1962113Y184319D1*
X1954464D1*
X1948716Y186751D1*
X1944869Y191504D1*
X2019759Y184319D2*
Y234559D1*
X2004460Y184319D1*
X1989161Y234559D1*
Y184319D1*
X2037256Y224942D2*
X2041103Y227374D1*
X2046851Y234504D1*
Y184319D1*
X2066295Y222566D2*
Y224942D1*
X2068196Y229751D1*
X2070097Y232127D1*
X2073944Y234504D1*
X2081593D1*
X2085396Y232127D1*
X2087297Y229751D1*
X2089242Y224942D1*
Y220189D1*
X2087297Y215381D1*
X2083494Y208251D1*
X2064349Y184319D1*
X2091144D1*
X2112488Y234504D2*
X2133491D1*
X2122039Y215381D1*
X2127787D1*
X2131589Y213004D1*
X2133491Y210627D1*
X2135436Y203442D1*
Y198689D1*
X2133491Y191504D1*
X2129688Y186696D1*
X2123940Y184319D1*
X2118192D1*
X2112488Y186696D1*
X2110587Y189127D1*
X2108642Y193881D1*
X2172079Y184319D2*
Y234504D1*
X2152934Y201066D1*
X2181630D1*
X1796051Y135888D2*
X1799898Y138320D1*
X1805646Y145450D1*
Y95265D1*
X1846091Y145450D2*
X1826990D1*
X1825089Y123950D1*
X1826990Y126327D1*
X1832738Y128759D1*
X1838442D1*
X1844190Y126327D1*
X1848037Y121574D1*
X1849938Y114388D1*
Y109635D1*
X1848037Y102450D1*
X1844190Y97642D1*
X1838442Y95265D1*
X1832738D1*
X1826990Y97642D1*
X1825089Y100074D1*
X1823143Y104827D1*
X1869337Y100074D2*
X1867436Y97642D1*
X1869337Y95265D1*
X1871283Y97642D1*
X1869337Y100074D1*
X1900276Y145450D2*
X1894528Y143073D1*
X1890682Y135888D1*
X1888780Y123950D1*
Y116765D1*
X1890682Y104827D1*
X1894528Y97642D1*
X1900276Y95265D1*
X1904079D1*
X1909827Y97642D1*
X1913630Y104827D1*
X1915575Y116765D1*
Y123950D1*
X1913630Y135888D1*
X1909827Y143073D1*
X1904079Y145450D1*
X1900276D1*
X1913630Y135888D2*
X1890682Y104827D1*
X1956021Y145450D2*
X1936920D1*
X1935018Y123950D1*
X1936920Y126327D1*
X1942668Y128759D1*
X1948371D1*
X1954120Y126327D1*
X1957966Y121574D1*
X1959868Y114388D1*
Y109635D1*
X1957966Y102450D1*
X1954120Y97642D1*
X1948371Y95265D1*
X1942668D1*
X1936920Y97642D1*
X1935018Y100074D1*
X1933073Y104827D1*
X1979267Y100074D2*
X1977365Y97642D1*
X1979267Y95265D1*
X1981212Y97642D1*
X1979267Y100074D1*
X2000655Y133512D2*
Y135888D1*
X2002557Y140697D1*
X2004458Y143073D1*
X2008305Y145450D1*
X2015954D1*
X2019757Y143073D1*
X2021658Y140697D1*
X2023603Y135888D1*
Y131135D1*
X2021658Y126327D1*
X2017855Y119197D1*
X1998710Y95265D1*
X2025505D1*
X2054498Y145450D2*
X2048750Y143073D1*
X2044904Y135888D1*
X2043002Y123950D1*
Y116765D1*
X2044904Y104827D1*
X2048750Y97642D1*
X2054498Y95265D1*
X2058301D1*
X2064049Y97642D1*
X2067852Y104827D1*
X2069797Y116765D1*
Y123950D1*
X2067852Y135888D1*
X2064049Y143073D1*
X2058301Y145450D1*
X2054498D1*
X2067852Y135888D2*
X2044904Y104827D1*
X2087295Y135888D2*
X2091142Y138320D1*
X2096890Y145450D1*
Y95265D1*
X2123938Y145450D2*
X2118234Y143073D1*
X2116289Y138320D1*
Y133512D1*
X2118234Y128759D1*
X2122037Y126327D1*
X2129686Y123950D1*
X2135434Y121574D1*
X2139237Y116765D1*
X2141138Y112012D1*
Y104827D1*
X2139237Y100074D1*
X2137335Y97642D1*
X2131587Y95265D1*
X2123938D1*
X2118234Y97642D1*
X2116289Y100074D1*
X2114388Y104827D1*
Y112012D1*
X2116289Y116765D1*
X2120136Y121574D1*
X2125839Y123950D1*
X2133489Y126327D1*
X2137335Y128759D1*
X2139237Y133512D1*
Y138320D1*
X2137335Y143073D1*
X2131587Y145450D1*
X2123938D1*
X1757356Y326593D2*
Y276353D1*
Y326593D2*
X1730561Y276353D1*
Y326593D2*
Y276353D1*
X1774854Y309846D2*
Y276353D1*
X1787765D1*
X1792098Y277956D1*
X1793513Y279559D1*
X1794928Y282709D1*
Y287518D1*
X1793513Y290723D1*
X1792098Y292326D1*
X1787765Y293874D1*
X1792098Y295532D1*
X1793513Y297079D1*
X1794928Y300285D1*
Y303490D1*
X1793513Y306641D1*
X1792098Y308244D1*
X1787765Y309846D1*
X1774854D1*
Y293874D2*
X1787765D1*
X1835373Y309846D2*
Y276353D1*
Y302661D2*
X1831571Y307470D1*
X1827724Y309846D1*
X1822020D1*
X1818173Y307470D1*
X1814371Y302661D1*
X1812425Y295476D1*
Y290723D1*
X1814371Y283538D1*
X1818173Y278785D1*
X1822020Y276353D1*
X1827724D1*
X1831571Y278785D1*
X1835373Y283538D1*
X1852871Y309846D2*
Y276353D1*
X1872945Y309846D2*
Y276353D1*
X1852871Y293874D2*
X1872945D1*
X1910517Y309846D2*
Y276353D1*
Y309846D2*
X1890443Y276353D1*
Y309846D2*
Y276353D1*
X1928015D2*
Y309846D1*
X1956711D2*
Y276353D1*
X1942340Y309846D2*
Y276353D1*
X1928015D2*
X1956711D1*
X1994282Y309846D2*
Y276353D1*
Y309846D2*
X1974208Y276353D1*
Y309846D2*
Y276353D1*
X2011780Y309846D2*
Y276353D1*
X2031854Y309846D2*
Y276353D1*
X2011780Y293874D2*
X2031854D1*
X2093379Y326593D2*
Y276353D1*
X2110623D1*
X2116371Y278785D1*
X2118272Y281162D1*
X2120174Y285915D1*
Y293100D1*
X2118272Y297908D1*
X2116371Y300285D1*
X2110623Y302661D1*
X2116371Y305093D1*
X2118272Y307470D1*
X2120174Y312223D1*
Y317032D1*
X2118272Y321785D1*
X2116371Y324217D1*
X2110623Y326593D1*
X2093379D1*
Y302661D2*
X2110623D1*
X2139573Y281162D2*
X2137671Y278730D1*
X2139573Y276353D1*
X2141518Y278730D1*
X2139573Y281162D1*
X2159016Y326593D2*
Y276353D1*
X2176260D1*
X2182008Y278785D1*
X2183909Y281162D1*
X2185811Y285915D1*
Y293100D1*
X2183909Y297908D1*
X2182008Y300285D1*
X2176260Y302661D1*
X2182008Y305093D1*
X2183909Y307470D1*
X2185811Y312223D1*
Y317032D1*
X2183909Y321785D1*
X2182008Y324217D1*
X2176260Y326593D1*
X2159016D1*
Y302661D2*
X2176260D1*
X2205210Y281162D2*
X2203308Y278730D1*
X2205210Y276353D1*
X2207155Y278730D1*
X2205210Y281162D1*
X1246778Y3178044D2*
D152*
Y3147900D1*
X1226682Y3178044D1*
Y3147900D1*
X1281424Y3170881D2*
X1279998Y3173733D1*
X1277113Y3176618D1*
X1274261Y3178044D1*
X1268524D1*
X1265639Y3176618D1*
X1262787Y3173733D1*
X1261328Y3170881D1*
X1259902Y3166570D1*
Y3159374D1*
X1261328Y3155096D1*
X1262787Y3152211D1*
X1265639Y3149359D1*
X1268524Y3147900D1*
X1274261D1*
X1277113Y3149359D1*
X1279998Y3152211D1*
X1281424Y3155096D1*
X1035727Y3170881D2*
X1034301Y3173733D1*
X1031416Y3176618D1*
X1028564Y3178044D1*
X1022827D1*
X1019942Y3176618D1*
X1017090Y3173733D1*
X1015631Y3170881D1*
X1014205Y3166570D1*
Y3159374D1*
X1015631Y3155096D1*
X1017090Y3152211D1*
X1019942Y3149359D1*
X1022827Y3147900D1*
X1028564D1*
X1031416Y3149359D1*
X1034301Y3152211D1*
X1035727Y3155096D1*
Y3159374D1*
X1028564D1*
X1068946Y3178044D2*
Y3147900D1*
X1048850Y3178044D1*
Y3147900D1*
X1082069Y3178044D2*
Y3147900D1*
X1092117D1*
X1096428Y3149359D1*
X1099313Y3152211D1*
X1100739Y3155096D1*
X1102165Y3159374D1*
Y3166570D1*
X1100739Y3170881D1*
X1099313Y3173733D1*
X1096428Y3176618D1*
X1092117Y3178044D1*
X1082069D1*
X1014205Y3107440D2*
X1027105D1*
X1031416Y3108900D1*
X1032875Y3110326D1*
X1034301Y3113177D1*
Y3116062D1*
X1032875Y3118914D1*
X1031416Y3120374D1*
X1027105Y3121799D1*
X1014205D1*
Y3091655D1*
X1024253Y3107440D2*
X1034301Y3091655D1*
X1047424Y3121799D2*
X1067520Y3091655D1*
Y3121799D2*
X1047424Y3091655D1*
X1024253Y3065555D2*
Y3035411D1*
X1014205Y3065555D2*
X1034301D1*
X1047424D2*
X1067520Y3035411D1*
Y3065555D2*
X1047424Y3035411D1*
X1126693Y3065555D2*
Y3035411D1*
X1139626D1*
X1143937Y3036870D1*
X1145363Y3038296D1*
X1146789Y3041148D1*
Y3045459D1*
X1145363Y3048344D1*
X1143937Y3049770D1*
X1139626Y3051196D1*
X1143937Y3052655D1*
X1145363Y3054081D1*
X1146789Y3056933D1*
Y3059818D1*
X1145363Y3062670D1*
X1143937Y3064129D1*
X1139626Y3065555D1*
X1126693D1*
Y3051196D2*
X1139626D1*
X1168534Y3065555D2*
X1165649Y3064129D1*
X1162797Y3061244D1*
X1161338Y3058392D1*
X1159912Y3054081D1*
Y3046885D1*
X1161338Y3042607D1*
X1162797Y3039722D1*
X1165649Y3036870D1*
X1168534Y3035411D1*
X1174271D1*
X1177123Y3036870D1*
X1180008Y3039722D1*
X1181434Y3042607D1*
X1182860Y3046885D1*
Y3054081D1*
X1181434Y3058392D1*
X1180008Y3061244D1*
X1177123Y3064129D1*
X1174271Y3065555D1*
X1168534D1*
X1204606D2*
X1201721Y3064129D1*
X1198869Y3061244D1*
X1197409Y3058392D1*
X1195984Y3054081D1*
Y3046885D1*
X1197409Y3042607D1*
X1198869Y3039722D1*
X1201721Y3036870D1*
X1204606Y3035411D1*
X1210343D1*
X1213194Y3036870D1*
X1216080Y3039722D1*
X1217506Y3042607D1*
X1218931Y3046885D1*
Y3054081D1*
X1217506Y3058392D1*
X1216080Y3061244D1*
X1213194Y3064129D1*
X1210343Y3065555D1*
X1204606D1*
X1242103D2*
Y3035411D1*
X1232055Y3065555D2*
X1252151D1*
X1273896Y3065522D2*
X1269585Y3064096D1*
X1266700Y3059785D1*
X1265274Y3052622D1*
Y3048311D1*
X1266700Y3041148D1*
X1269585Y3036837D1*
X1273896Y3035411D1*
X1276748D1*
X1281059Y3036837D1*
X1283911Y3041148D1*
X1285370Y3048311D1*
Y3052622D1*
X1283911Y3059785D1*
X1281059Y3064096D1*
X1276748Y3065522D1*
X1273896D1*
X1283911Y3059785D2*
X1266700Y3041148D1*
X1179573Y3121766D2*
X1195325D1*
X1186736Y3110292D1*
X1191047D1*
X1193899Y3108866D1*
X1195325Y3107440D1*
X1196784Y3103129D1*
Y3100278D1*
X1195325Y3095966D1*
X1192473Y3093081D1*
X1188162Y3091655D1*
X1183851D1*
X1179573Y3093081D1*
X1178147Y3094541D1*
X1176688Y3097392D1*
X1211333Y3094541D2*
X1209907Y3093081D1*
X1211333Y3091655D1*
X1212792Y3093081D1*
X1211333Y3094541D1*
X1228801Y3121766D2*
X1244552D1*
X1235963Y3110292D1*
X1240274D1*
X1243126Y3108866D1*
X1244552Y3107440D1*
X1246011Y3103129D1*
Y3100278D1*
X1244552Y3095966D1*
X1241700Y3093081D1*
X1237389Y3091655D1*
X1233078D1*
X1228801Y3093081D1*
X1227375Y3094541D1*
X1225915Y3097392D1*
X1259135Y3121799D2*
X1270609Y3091655D1*
X1282083Y3121799D1*
X356487Y3178010D2*
X342161D1*
X340735Y3165110D1*
X342161Y3166536D1*
X346472Y3167996D1*
X350750D1*
X355061Y3166536D1*
X357946Y3163685D1*
X359372Y3159374D1*
Y3156522D1*
X357946Y3152211D1*
X355061Y3149326D1*
X350750Y3147900D1*
X346472D1*
X342161Y3149326D1*
X340735Y3150785D1*
X339276Y3153637D1*
X372495Y3178044D2*
X383969Y3147900D1*
X395443Y3178044D1*
X320528Y3121799D2*
X332002Y3091655D1*
X343475Y3121799D1*
X366647D2*
Y3091655D1*
X356599Y3121799D2*
X376695D1*
X411340Y3114637D2*
X409914Y3117488D1*
X407029Y3120374D1*
X404177Y3121799D1*
X398440D1*
X395555Y3120374D1*
X392703Y3117488D1*
X391244Y3114637D1*
X389818Y3110326D1*
Y3103129D1*
X391244Y3098852D1*
X392703Y3095966D1*
X395555Y3093115D1*
X398440Y3091655D1*
X404177D1*
X407029Y3093115D1*
X409914Y3095966D1*
X411340Y3098852D1*
Y3103129D1*
X404177D1*
X320528Y3065555D2*
X332002Y3035411D1*
X343475Y3065555D1*
X366647D2*
Y3035411D1*
X356599Y3065555D2*
X376695D1*
X411340Y3058392D2*
X409914Y3061244D1*
X407029Y3064129D1*
X404177Y3065555D1*
X398440D1*
X395555Y3064129D1*
X392703Y3061244D1*
X391244Y3058392D1*
X389818Y3054081D1*
Y3046885D1*
X391244Y3042607D1*
X392703Y3039722D1*
X395555Y3036870D1*
X398440Y3035411D1*
X404177D1*
X407029Y3036870D1*
X409914Y3039722D1*
X411340Y3042607D1*
Y3046885D1*
X404177D1*
X317163Y3009278D2*
X332915D1*
X324326Y2997804D1*
X328637D1*
X331489Y2996378D1*
X332915Y2994952D1*
X334374Y2990641D1*
Y2987789D1*
X332915Y2983478D1*
X330063Y2980593D1*
X325752Y2979167D1*
X321441D1*
X317163Y2980593D1*
X315737Y2982052D1*
X314278Y2984904D1*
X348924Y2982052D2*
X347498Y2980593D1*
X348924Y2979167D1*
X350383Y2980593D1*
X348924Y2982052D1*
X366391Y3009278D2*
X382143D1*
X373554Y2997804D1*
X377865D1*
X380717Y2996378D1*
X382143Y2994952D1*
X383602Y2990641D1*
Y2987789D1*
X382143Y2983478D1*
X379291Y2980593D1*
X374980Y2979167D1*
X370669D1*
X366391Y2980593D1*
X364965Y2982052D1*
X363506Y2984904D1*
X396725Y3009311D2*
X408199Y2979167D1*
X419673Y3009311D1*
X949446Y3000949D2*
D151*
X945644Y3005757D1*
X939896Y3008134D1*
X932247D1*
X926499Y3005757D1*
X922652Y3000949D1*
Y2996196D1*
X924597Y2991387D1*
X926499Y2989011D1*
X930301Y2986634D1*
X941797Y2981826D1*
X945644Y2979449D1*
X947545Y2977017D1*
X949446Y2972264D1*
Y2965079D1*
X945644Y2960326D1*
X939896Y2957894D1*
X932247D1*
X926499Y2960326D1*
X922652Y2965079D1*
X980342Y3008134D2*
Y2957894D1*
X966944Y3008134D2*
X993739D1*
X1011237Y2982986D2*
X1033345D1*
X1050842Y3008134D2*
Y2957894D1*
X1073790D1*
X1091288Y3008134D2*
X1093189Y3005757D1*
X1095135Y3008134D1*
X1093189Y3010566D1*
X1091288Y3008134D1*
X1093189Y2991387D2*
Y2957894D1*
X1112633Y2991387D2*
Y2957894D1*
Y2981826D2*
X1118381Y2989011D1*
X1122227Y2991387D1*
X1127931D1*
X1131778Y2989011D1*
X1133679Y2981826D1*
Y2957894D1*
X1151177Y3008134D2*
Y2957894D1*
X1170322Y2991387D2*
X1151177Y2967455D1*
X1158826Y2977017D2*
X1172224Y2957894D1*
X1233749Y3008134D2*
X1249047Y2957894D1*
X1264346Y3008134D1*
X1283789Y2996140D2*
Y2998517D1*
X1285691Y3003325D1*
X1287592Y3005702D1*
X1291439Y3008079D1*
X1299088D1*
X1302890Y3005702D1*
X1304792Y3003325D1*
X1306737Y2998517D1*
Y2993764D1*
X1304792Y2988955D1*
X1300989Y2981826D1*
X1281844Y2957894D1*
X1308638D1*
X967221Y2826088D2*
D153*
X954947Y2866280D1*
X942708Y2826088D1*
X947306Y2839486D2*
X962623D1*
X981219Y2866280D2*
X993458Y2826088D1*
X1005697Y2866280D1*
X1019695Y2847135D2*
X1033455D1*
X1038054Y2849080D1*
X1039610Y2850982D1*
X1041131Y2854784D1*
Y2858631D1*
X1039610Y2862434D1*
X1038054Y2864379D1*
X1033455Y2866280D1*
X1019695D1*
Y2826088D1*
X1030413Y2847135D2*
X1041131Y2826088D1*
X1079642D2*
X1067368Y2866280D1*
X1055129Y2826088D1*
X1059728Y2839486D2*
X1075044D1*
X1115076Y2860532D2*
X1112034Y2864379D1*
X1107436Y2866280D1*
X1101316D1*
X1096718Y2864379D1*
X1093641Y2860532D1*
Y2856730D1*
X1095197Y2852883D1*
X1096718Y2850982D1*
X1099760Y2849080D1*
X1108957Y2845234D1*
X1112034Y2843332D1*
X1113555Y2841387D1*
X1115076Y2837584D1*
Y2831836D1*
X1112034Y2828034D1*
X1107436Y2826088D1*
X1101316D1*
X1096718Y2828034D1*
X1093641Y2831836D1*
X1153552Y2826088D2*
Y2866280D1*
X1141313Y2826088D1*
X1129075Y2866280D1*
Y2826088D1*
X1167551Y2858587D2*
X1170628Y2860532D1*
X1175226Y2866236D1*
Y2826088D1*
X1190781Y2856686D2*
Y2858587D1*
X1192302Y2862434D1*
X1193823Y2864335D1*
X1196901Y2866236D1*
X1203020D1*
X1206062Y2864335D1*
X1207583Y2862434D1*
X1209139Y2858587D1*
Y2854784D1*
X1207583Y2850937D1*
X1204541Y2845234D1*
X1189225Y2826088D1*
X1210660D1*
X1227736Y2866236D2*
X1244538D1*
X1235377Y2850937D1*
X1239975D1*
X1243017Y2849036D1*
X1244538Y2847135D1*
X1246094Y2841387D1*
Y2837584D1*
X1244538Y2831836D1*
X1241496Y2827990D1*
X1236898Y2826088D1*
X1232299D1*
X1227736Y2827990D1*
X1226215Y2829935D1*
X1224659Y2833738D1*
X1275409Y2826088D2*
Y2866236D1*
X1260093Y2839486D1*
X1283049D1*
X987131Y2800592D2*
D152*
X982820Y2799166D1*
X979935Y2794855D1*
X978509Y2787692D1*
Y2783381D1*
X979935Y2776218D1*
X982820Y2771907D1*
X987131Y2770481D1*
X989983D1*
X994294Y2771907D1*
X997146Y2776218D1*
X998605Y2783381D1*
Y2787692D1*
X997146Y2794855D1*
X994294Y2799166D1*
X989983Y2800592D1*
X987131D1*
X997146Y2794855D2*
X979935Y2776218D1*
X1013188Y2793429D2*
Y2794855D1*
X1014614Y2797740D1*
X1016040Y2799166D1*
X1018925Y2800592D1*
X1024662D1*
X1027514Y2799166D1*
X1028939Y2797740D1*
X1030399Y2794855D1*
Y2792003D1*
X1028939Y2789118D1*
X1026088Y2784840D1*
X1011729Y2770481D1*
X1031825D1*
X1046374Y2773366D2*
X1044948Y2771907D1*
X1046374Y2770481D1*
X1047833Y2771907D1*
X1046374Y2773366D1*
X1069578Y2800592D2*
X1065267Y2799166D1*
X1062382Y2794855D1*
X1060956Y2787692D1*
Y2783381D1*
X1062382Y2776218D1*
X1065267Y2771907D1*
X1069578Y2770481D1*
X1072430D1*
X1076741Y2771907D1*
X1079593Y2776218D1*
X1081052Y2783381D1*
Y2787692D1*
X1079593Y2794855D1*
X1076741Y2799166D1*
X1072430Y2800592D1*
X1069578D1*
X1079593Y2794855D2*
X1062382Y2776218D1*
X1097061Y2800592D2*
X1112813D1*
X1104224Y2789118D1*
X1108535D1*
X1111387Y2787692D1*
X1112813Y2786266D1*
X1114272Y2781955D1*
Y2779103D1*
X1112813Y2774792D1*
X1109961Y2771907D1*
X1105650Y2770481D1*
X1101339D1*
X1097061Y2771907D1*
X1095635Y2773366D1*
X1094176Y2776218D1*
X1128821Y2773366D2*
X1127395Y2771907D1*
X1128821Y2770481D1*
X1130280Y2771907D1*
X1128821Y2773366D1*
X1144863Y2793429D2*
Y2794855D1*
X1146289Y2797740D1*
X1147715Y2799166D1*
X1150600Y2800592D1*
X1156337D1*
X1159188Y2799166D1*
X1160614Y2797740D1*
X1162074Y2794855D1*
Y2792003D1*
X1160614Y2789118D1*
X1157763Y2784840D1*
X1143403Y2770481D1*
X1163499D1*
X1185245Y2800592D2*
X1180934Y2799166D1*
X1178049Y2794855D1*
X1176623Y2787692D1*
Y2783381D1*
X1178049Y2776218D1*
X1180934Y2771907D1*
X1185245Y2770481D1*
X1188097D1*
X1192408Y2771907D1*
X1195260Y2776218D1*
X1196719Y2783381D1*
Y2787692D1*
X1195260Y2794855D1*
X1192408Y2799166D1*
X1188097Y2800592D1*
X1185245D1*
X1195260Y2794855D2*
X1178049Y2776218D1*
X1209842Y2794855D2*
X1212727Y2796314D1*
X1217038Y2800592D1*
Y2770481D1*
X1237325Y2800592D2*
X1233047Y2799166D1*
X1231588Y2796314D1*
Y2793429D1*
X1233047Y2790577D1*
X1235899Y2789118D1*
X1241636Y2787692D1*
X1245947Y2786266D1*
X1248799Y2783381D1*
X1250225Y2780529D1*
Y2776218D1*
X1248799Y2773366D1*
X1247373Y2771907D1*
X1243062Y2770481D1*
X1237325D1*
X1233047Y2771907D1*
X1231588Y2773366D1*
X1230162Y2776218D1*
Y2780529D1*
X1231588Y2783381D1*
X1234473Y2786266D1*
X1238751Y2787692D1*
X1244488Y2789118D1*
X1247373Y2790577D1*
X1248799Y2793429D1*
Y2796314D1*
X1247373Y2799166D1*
X1243062Y2800592D1*
X1237325D1*
X945392Y2928787D2*
D153*
Y2888595D1*
Y2928787D2*
X923956Y2888595D1*
Y2928787D2*
Y2888595D1*
X959390Y2915390D2*
Y2888595D1*
X969719D1*
X973185Y2889877D1*
X974317Y2891159D1*
X975449Y2893680D1*
Y2897526D1*
X974317Y2900091D1*
X973185Y2901373D1*
X969719Y2902611D1*
X973185Y2903938D1*
X974317Y2905176D1*
X975449Y2907740D1*
Y2910305D1*
X974317Y2912825D1*
X973185Y2914107D1*
X969719Y2915390D1*
X959390D1*
Y2902611D2*
X969719D1*
X1007805Y2915390D2*
Y2888595D1*
Y2909641D2*
X1004763Y2913488D1*
X1001686Y2915390D1*
X997123D1*
X994046Y2913488D1*
X991004Y2909641D1*
X989447Y2903893D1*
Y2900091D1*
X991004Y2894343D1*
X994046Y2890540D1*
X997123Y2888595D1*
X1001686D1*
X1004763Y2890540D1*
X1007805Y2894343D1*
X1021804Y2915390D2*
Y2888595D1*
X1037863Y2915390D2*
Y2888595D1*
X1021804Y2902611D2*
X1037863D1*
X1067920Y2915390D2*
Y2888595D1*
Y2915390D2*
X1051861Y2888595D1*
Y2915390D2*
Y2888595D1*
X1081918D2*
Y2915390D1*
X1104875D2*
Y2888595D1*
X1093379Y2915390D2*
Y2888595D1*
X1081918D2*
X1104875D1*
X1134933Y2915390D2*
Y2888595D1*
Y2915390D2*
X1118873Y2888595D1*
Y2915390D2*
Y2888595D1*
X1148931Y2915390D2*
Y2888595D1*
X1164990Y2915390D2*
Y2888595D1*
X1148931Y2902611D2*
X1164990D1*
X1214210Y2928787D2*
Y2888595D1*
X1228005D1*
X1232604Y2890540D1*
X1234125Y2892442D1*
X1235646Y2896244D1*
Y2901992D1*
X1234125Y2905839D1*
X1232604Y2907740D1*
X1228005Y2909641D1*
X1232604Y2911587D1*
X1234125Y2913488D1*
X1235646Y2917291D1*
Y2921138D1*
X1234125Y2924940D1*
X1232604Y2926886D1*
X1228005Y2928787D1*
X1214210D1*
Y2909641D2*
X1228005D1*
X1251165Y2892442D2*
X1249644Y2890496D1*
X1251165Y2888595D1*
X1252721Y2890496D1*
X1251165Y2892442D1*
X1266720Y2928787D2*
Y2888595D1*
X1280515D1*
X1285113Y2890540D1*
X1286634Y2892442D1*
X1288155Y2896244D1*
Y2901992D1*
X1286634Y2905839D1*
X1285113Y2907740D1*
X1280515Y2909641D1*
X1285113Y2911587D1*
X1286634Y2913488D1*
X1288155Y2917291D1*
Y2921138D1*
X1286634Y2924940D1*
X1285113Y2926886D1*
X1280515Y2928787D1*
X1266720D1*
Y2909641D2*
X1280515D1*
X1303675Y2892442D2*
X1302154Y2890496D1*
X1303675Y2888595D1*
X1305231Y2890496D1*
X1303675Y2892442D1*
X3858925Y3178044D2*
D152*
Y3147900D1*
X3838829Y3178044D1*
Y3147900D1*
X3893571Y3170881D2*
X3892145Y3173733D1*
X3889260Y3176618D1*
X3886408Y3178044D1*
X3880671D1*
X3877786Y3176618D1*
X3874934Y3173733D1*
X3873475Y3170881D1*
X3872049Y3166570D1*
Y3159374D1*
X3873475Y3155096D1*
X3874934Y3152211D1*
X3877786Y3149359D1*
X3880671Y3147900D1*
X3886408D1*
X3889260Y3149359D1*
X3892145Y3152211D1*
X3893571Y3155096D1*
X3647874Y3170881D2*
X3646448Y3173733D1*
X3643563Y3176618D1*
X3640711Y3178044D1*
X3634974D1*
X3632089Y3176618D1*
X3629237Y3173733D1*
X3627778Y3170881D1*
X3626352Y3166570D1*
Y3159374D1*
X3627778Y3155096D1*
X3629237Y3152211D1*
X3632089Y3149359D1*
X3634974Y3147900D1*
X3640711D1*
X3643563Y3149359D1*
X3646448Y3152211D1*
X3647874Y3155096D1*
Y3159374D1*
X3640711D1*
X3681093Y3178044D2*
Y3147900D1*
X3660997Y3178044D1*
Y3147900D1*
X3694216Y3178044D2*
Y3147900D1*
X3704264D1*
X3708575Y3149359D1*
X3711460Y3152211D1*
X3712886Y3155096D1*
X3714312Y3159374D1*
Y3166570D1*
X3712886Y3170881D1*
X3711460Y3173733D1*
X3708575Y3176618D1*
X3704264Y3178044D1*
X3694216D1*
X3626352Y3107440D2*
X3639252D1*
X3643563Y3108900D1*
X3645022Y3110326D1*
X3646448Y3113177D1*
Y3116062D1*
X3645022Y3118914D1*
X3643563Y3120374D1*
X3639252Y3121799D1*
X3626352D1*
Y3091655D1*
X3636400Y3107440D2*
X3646448Y3091655D1*
X3659571Y3121799D2*
X3679667Y3091655D1*
Y3121799D2*
X3659571Y3091655D1*
X3636400Y3065555D2*
Y3035411D1*
X3626352Y3065555D2*
X3646448D1*
X3659571D2*
X3679667Y3035411D1*
Y3065555D2*
X3659571Y3035411D1*
X3738840Y3065555D2*
Y3035411D1*
X3751773D1*
X3756084Y3036870D1*
X3757510Y3038296D1*
X3758936Y3041148D1*
Y3045459D1*
X3757510Y3048344D1*
X3756084Y3049770D1*
X3751773Y3051196D1*
X3756084Y3052655D1*
X3757510Y3054081D1*
X3758936Y3056933D1*
Y3059818D1*
X3757510Y3062670D1*
X3756084Y3064129D1*
X3751773Y3065555D1*
X3738840D1*
Y3051196D2*
X3751773D1*
X3780681Y3065555D2*
X3777796Y3064129D1*
X3774944Y3061244D1*
X3773485Y3058392D1*
X3772059Y3054081D1*
Y3046885D1*
X3773485Y3042607D1*
X3774944Y3039722D1*
X3777796Y3036870D1*
X3780681Y3035411D1*
X3786418D1*
X3789270Y3036870D1*
X3792155Y3039722D1*
X3793581Y3042607D1*
X3795007Y3046885D1*
Y3054081D1*
X3793581Y3058392D1*
X3792155Y3061244D1*
X3789270Y3064129D1*
X3786418Y3065555D1*
X3780681D1*
X3816753D2*
X3813868Y3064129D1*
X3811016Y3061244D1*
X3809556Y3058392D1*
X3808131Y3054081D1*
Y3046885D1*
X3809556Y3042607D1*
X3811016Y3039722D1*
X3813868Y3036870D1*
X3816753Y3035411D1*
X3822490D1*
X3825341Y3036870D1*
X3828227Y3039722D1*
X3829652Y3042607D1*
X3831078Y3046885D1*
Y3054081D1*
X3829652Y3058392D1*
X3828227Y3061244D1*
X3825341Y3064129D1*
X3822490Y3065555D1*
X3816753D1*
X3854250D2*
Y3035411D1*
X3844202Y3065555D2*
X3864298D1*
X3886043Y3065522D2*
X3881732Y3064096D1*
X3878847Y3059785D1*
X3877421Y3052622D1*
Y3048311D1*
X3878847Y3041148D1*
X3881732Y3036837D1*
X3886043Y3035411D1*
X3888895D1*
X3893206Y3036837D1*
X3896058Y3041148D1*
X3897517Y3048311D1*
Y3052622D1*
X3896058Y3059785D1*
X3893206Y3064096D1*
X3888895Y3065522D1*
X3886043D1*
X3896058Y3059785D2*
X3878847Y3041148D1*
X3791720Y3121766D2*
X3807472D1*
X3798883Y3110292D1*
X3803194D1*
X3806046Y3108866D1*
X3807472Y3107440D1*
X3808931Y3103129D1*
Y3100278D1*
X3807472Y3095966D1*
X3804620Y3093081D1*
X3800309Y3091655D1*
X3795998D1*
X3791720Y3093081D1*
X3790294Y3094541D1*
X3788835Y3097392D1*
X3823480Y3094541D2*
X3822054Y3093081D1*
X3823480Y3091655D1*
X3824939Y3093081D1*
X3823480Y3094541D1*
X3840948Y3121766D2*
X3856699D1*
X3848110Y3110292D1*
X3852421D1*
X3855273Y3108866D1*
X3856699Y3107440D1*
X3858158Y3103129D1*
Y3100278D1*
X3856699Y3095966D1*
X3853847Y3093081D1*
X3849536Y3091655D1*
X3845225D1*
X3840948Y3093081D1*
X3839522Y3094541D1*
X3838062Y3097392D1*
X3871282Y3121799D2*
X3882756Y3091655D1*
X3894230Y3121799D1*
X2968634Y3178010D2*
X2954308D1*
X2952882Y3165110D1*
X2954308Y3166536D1*
X2958619Y3167996D1*
X2962897D1*
X2967208Y3166536D1*
X2970093Y3163685D1*
X2971519Y3159374D1*
Y3156522D1*
X2970093Y3152211D1*
X2967208Y3149326D1*
X2962897Y3147900D1*
X2958619D1*
X2954308Y3149326D1*
X2952882Y3150785D1*
X2951423Y3153637D1*
X2984642Y3178044D2*
X2996116Y3147900D1*
X3007590Y3178044D1*
X2932675Y3121799D2*
X2944148Y3091655D1*
X2955622Y3121799D1*
X2978794D2*
Y3091655D1*
X2968746Y3121799D2*
X2988842D1*
X3023487Y3114637D2*
X3022061Y3117488D1*
X3019176Y3120374D1*
X3016324Y3121799D1*
X3010587D1*
X3007702Y3120374D1*
X3004850Y3117488D1*
X3003391Y3114637D1*
X3001965Y3110326D1*
Y3103129D1*
X3003391Y3098852D1*
X3004850Y3095966D1*
X3007702Y3093115D1*
X3010587Y3091655D1*
X3016324D1*
X3019176Y3093115D1*
X3022061Y3095966D1*
X3023487Y3098852D1*
Y3103129D1*
X3016324D1*
X2932675Y3065555D2*
X2944148Y3035411D1*
X2955622Y3065555D1*
X2978794D2*
Y3035411D1*
X2968746Y3065555D2*
X2988842D1*
X3023487Y3058392D2*
X3022061Y3061244D1*
X3019176Y3064129D1*
X3016324Y3065555D1*
X3010587D1*
X3007702Y3064129D1*
X3004850Y3061244D1*
X3003391Y3058392D1*
X3001965Y3054081D1*
Y3046885D1*
X3003391Y3042607D1*
X3004850Y3039722D1*
X3007702Y3036870D1*
X3010587Y3035411D1*
X3016324D1*
X3019176Y3036870D1*
X3022061Y3039722D1*
X3023487Y3042607D1*
Y3046885D1*
X3016324D1*
X2929310Y3009278D2*
X2945062D1*
X2936473Y2997804D1*
X2940784D1*
X2943636Y2996378D1*
X2945062Y2994952D1*
X2946521Y2990641D1*
Y2987789D1*
X2945062Y2983478D1*
X2942210Y2980593D1*
X2937899Y2979167D1*
X2933588D1*
X2929310Y2980593D1*
X2927884Y2982052D1*
X2926425Y2984904D1*
X2961071Y2982052D2*
X2959645Y2980593D1*
X2961071Y2979167D1*
X2962530Y2980593D1*
X2961071Y2982052D1*
X2978538Y3009278D2*
X2994290D1*
X2985701Y2997804D1*
X2990012D1*
X2992864Y2996378D1*
X2994290Y2994952D1*
X2995749Y2990641D1*
Y2987789D1*
X2994290Y2983478D1*
X2991438Y2980593D1*
X2987127Y2979167D1*
X2982816D1*
X2978538Y2980593D1*
X2977112Y2982052D1*
X2975653Y2984904D1*
X3008872Y3009311D2*
X3020346Y2979167D1*
X3031820Y3009311D1*
X3561593Y2863154D2*
D151*
X3557791Y2867962D1*
X3552043Y2870339D1*
X3544394D1*
X3538646Y2867962D1*
X3534799Y2863154D1*
Y2858400D1*
X3536744Y2853592D1*
X3538646Y2851215D1*
X3542448Y2848839D1*
X3553944Y2844030D1*
X3557791Y2841654D1*
X3559692Y2839222D1*
X3561593Y2834469D1*
Y2827284D1*
X3557791Y2822530D1*
X3552043Y2820099D1*
X3544394D1*
X3538646Y2822530D1*
X3534799Y2827284D1*
X3592489Y2870339D2*
Y2820099D1*
X3579091Y2870339D2*
X3605886D1*
X3623384Y2845191D2*
X3645492D1*
X3662989Y2870339D2*
Y2820099D1*
X3685937D1*
X3703435Y2870339D2*
X3705336Y2867962D1*
X3707282Y2870339D1*
X3705336Y2872770D1*
X3703435Y2870339D1*
X3705336Y2853592D2*
Y2820099D1*
X3724780Y2853592D2*
Y2820099D1*
Y2844030D2*
X3730528Y2851215D1*
X3734374Y2853592D1*
X3740078D1*
X3743925Y2851215D1*
X3745826Y2844030D1*
Y2820099D1*
X3763324Y2870339D2*
Y2820099D1*
X3782469Y2853592D2*
X3763324Y2829660D1*
X3770973Y2839222D2*
X3784371Y2820099D1*
X3845896Y2870339D2*
X3861194Y2820099D1*
X3876493Y2870339D1*
X3895936Y2858345D2*
Y2860722D1*
X3897838Y2865530D1*
X3899739Y2867907D1*
X3903586Y2870283D1*
X3911235D1*
X3915037Y2867907D1*
X3916939Y2865530D1*
X3918884Y2860722D1*
Y2855968D1*
X3916939Y2851160D1*
X3913136Y2844030D1*
X3893991Y2820099D1*
X3920785D1*
M02*
